<svg width="380" height="107" viewBox="0 0 380 107" fill="none" xmlns="http://www.w3.org/2000/svg">
<path d="M0 63V73.5H47V83.5H67V72H313V83.5H333V72H380V63H0Z" fill="#B9A28F"/>
<path d="M313 107H333V83.5H313V107Z" fill="#A08E7E"/>
<path d="M47 107H67V83.5H47V107Z" fill="#9B8978"/>
<path d="M187.5 46.5L187 44L218 37.5L217 14L272 16V17L265.5 19L272 18.5V25.5H312L302.5 63H299H191.5L190.5 59.5L198 59L190 57L188 48L194.5 44L187.5 46.5Z" fill="#F7F5F4"/>
<path d="M125 53V64H181.5V53H176H127.5H125Z" fill="#F0C0ED"/>
<path d="M138.5 45V48H171.5V45H138.5Z" fill="#F0C0ED"/>
<path d="M127.5 48V53H176V48H171.5H138.5H127.5Z" fill="#FDFAF8"/>
<rect x="129" y="56" width="24" height="5" fill="#F0EEEC"/>
<path d="M44 33L45.5 62.5H112L118.5 31.5L43 23V29.5L54.5 31.5L44 33Z" fill="#F3F1EE"/>
<path d="M277.5 50.5L277 46L324 51.5L321 63.5H278L277.5 52.5L284 51.5L277.5 50.5Z" fill="#BAA490"/>
<path d="M10.5 63L0 56.5L25 13.5L29.25 16.5L35.5 0L47 3L31.5 63L19 60.5L23.9828 37.5L10.5 63Z" fill="#F1C0EE"/>
</svg>
