<svg width="346" height="454" viewBox="0 0 346 454" fill="none" xmlns="http://www.w3.org/2000/svg">
<path d="M300.951 372.204C300.951 371.637 309.01 356.561 307.475 353.694C305.94 350.827 297.84 359.899 291.204 358.424C288.038 357.719 282.232 351.644 282.232 351.644L286.748 343.638C286.748 343.638 290.969 351.517 293.273 352.402C295.576 353.287 305.553 347.424 311.119 349.881C316.684 352.34 315.532 355.251 314.189 363.16C312.846 371.068 312.135 382.607 312.135 382.607L300.951 372.204Z" fill="#263238"/>
<path d="M144.391 253.741C144.391 253.741 156.73 244.719 160.849 240.192C164.968 235.666 164.044 222.766 164.044 222.766L170.037 216.103C170.037 216.103 173.763 240.999 168.038 245.002C162.314 249.003 133.44 269.242 133.44 269.242L144.391 253.741Z" fill="#263238"/>
<path d="M124.383 218.727C124.383 218.727 140.071 242.067 137.633 251.544C135.195 261.022 113.496 290.66 113.496 290.66C113.496 290.66 99.5174 311.967 103.427 317.549C115.552 334.861 146.914 394.671 156.452 400.298C165.988 405.924 258.782 392.193 272.916 405.924C287.049 419.656 289.339 433.386 289.339 433.386L346 412.106C346 412.106 320.359 387.748 303.299 370.183C286.236 352.617 174.794 370.183 174.794 370.183C174.794 370.183 116.07 324.453 117.468 312.689C118.865 300.925 143.021 276.668 149.219 252.682C155.414 228.696 152.982 212.56 152.982 212.56L124.383 218.727Z" fill="#263238"/>
<path d="M315.297 218.703C308.939 215.899 286.903 238.579 281.971 243.494C277.039 248.409 272.816 254.506 266.38 257.122C261.053 259.286 255.084 258.69 249.34 258.746C234.348 258.887 219.566 263.691 206.706 271.446C193.619 279.34 163.741 299.135 154.696 310.112L222.763 315.297C222.763 315.297 275.622 298.235 276.525 297.596C277.428 296.957 300.483 259.806 300.483 259.806L315.297 218.703Z" fill="#C59DC2" style="mix-blend-mode:difference"/>
<g opacity="0.3">
<path d="M315.297 218.703C308.959 215.899 286.991 238.579 282.074 243.494C277.156 248.409 272.947 254.506 266.53 257.122C261.219 259.286 255.269 258.69 249.543 258.746C234.596 258.887 219.898 263.753 207.04 271.446C194.184 279.139 164.279 298.964 154.696 310.538L223.047 315.297C223.047 315.297 275.744 298.235 276.644 297.596C277.544 296.957 300.529 259.806 300.529 259.806L315.297 218.703Z" fill="black"/>
</g>
<path fill-rule="evenodd" clip-rule="evenodd" d="M260.759 290.498C250.319 272.81 250.01 249.423 259.978 231.454L261.398 232.27C251.719 249.719 252.02 272.467 262.157 289.644L260.759 290.498Z" fill="#263238"/>
<path fill-rule="evenodd" clip-rule="evenodd" d="M250.033 295.222C239.819 271.037 221.918 250.162 199.57 236.379L200.423 234.997C223.058 248.957 241.184 270.095 251.529 294.59L250.033 295.222Z" fill="#263238"/>
<path fill-rule="evenodd" clip-rule="evenodd" d="M193.689 264.519C213.56 264.81 232.831 276.727 242.082 294.45L240.625 295.222C231.655 278.037 212.934 266.459 193.666 266.177L193.689 264.519Z" fill="#263238"/>
<path d="M210.198 329.722C210.198 329.722 233.307 339.528 249.486 351.508C256.703 356.852 265.763 358.938 274.536 357.221L274.919 357.146C285.632 355.049 294.562 347.58 298.627 337.315L298.83 336.8C301.405 330.299 301.807 323.137 300.073 316.357C297.564 306.556 294.638 292.082 296.874 284.594L235.79 303.038L210.198 329.722Z" fill="#C59DC2" style="mix-blend-mode:difference"/>
<path opacity="0.3" d="M214.922 332.734L221.573 334.191C221.573 334.191 245.962 325.94 270.025 310.662C286.064 300.479 296.346 289.101 296.346 289.101L297.584 284.594L214.922 332.734Z" fill="black"/>
<path d="M198.709 262.982C200.21 265.115 199.698 268.061 197.564 269.562C195.431 271.063 192.485 270.551 190.984 268.418C189.483 266.284 189.995 263.339 192.128 261.837C194.26 260.336 197.208 260.848 198.709 262.982Z" fill="#263238"/>
<path d="M204.613 232.278C206.115 234.412 205.603 237.358 203.469 238.859C201.335 240.36 198.39 239.848 196.888 237.715C195.387 235.581 195.899 232.635 198.033 231.134C200.164 229.633 203.112 230.145 204.613 232.278Z" fill="#263238"/>
<path d="M205.044 246.627C205.795 247.694 205.538 249.166 204.473 249.917C203.405 250.668 201.932 250.413 201.181 249.346C200.43 248.279 200.688 246.806 201.753 246.055C202.82 245.305 204.293 245.56 205.044 246.627Z" fill="#C59DC2" style="mix-blend-mode:difference"/>
<path d="M266.45 240.723C267.201 241.79 266.944 243.263 265.879 244.013C264.812 244.764 263.338 244.507 262.587 243.442C261.837 242.375 262.094 240.903 263.159 240.152C264.224 239.399 265.699 239.656 266.45 240.723Z" fill="#C59DC2" style="mix-blend-mode:difference"/>
<path d="M249.81 234.818C250.749 235.885 250.427 237.358 249.096 238.109C247.762 238.859 245.921 238.602 244.982 237.537C244.044 236.47 244.363 234.997 245.697 234.246C247.028 233.496 248.869 233.751 249.81 234.818Z" fill="#C59DC2" style="mix-blend-mode:difference"/>
<path d="M207.621 227.483C207.996 228.283 207.868 229.387 207.335 229.95C206.801 230.513 206.065 230.321 205.69 229.521C205.314 228.721 205.442 227.616 205.976 227.053C206.508 226.49 207.244 226.682 207.621 227.483Z" fill="#C59DC2" style="mix-blend-mode:difference"/>
<path d="M198.281 245.875C198.469 246.142 198.405 246.511 198.138 246.697C197.871 246.885 197.504 246.822 197.316 246.554C197.128 246.287 197.192 245.919 197.459 245.732C197.725 245.544 198.093 245.609 198.281 245.875Z" fill="#C59DC2" style="mix-blend-mode:difference"/>
<path d="M208.909 232.886C209.097 233.151 209.033 233.52 208.766 233.708C208.5 233.896 208.132 233.832 207.944 233.565C207.756 233.297 207.82 232.931 208.087 232.743C208.353 232.555 208.721 232.618 208.909 232.886Z" fill="#C59DC2" style="mix-blend-mode:difference"/>
<path d="M253.676 227.232C254.051 227.766 253.923 228.502 253.389 228.877C252.856 229.252 252.119 229.124 251.744 228.591C251.369 228.057 251.497 227.321 252.03 226.946C252.564 226.57 253.3 226.698 253.676 227.232Z" fill="#C59DC2" style="mix-blend-mode:difference"/>
<path d="M254.964 232.885C255.152 233.153 255.088 233.521 254.821 233.708C254.553 233.896 254.185 233.831 253.999 233.565C253.811 233.299 253.874 232.931 254.142 232.742C254.409 232.554 254.776 232.62 254.964 232.885Z" fill="#C59DC2" style="mix-blend-mode:difference"/>
<path d="M266.019 228.736C267.521 230.87 267.009 233.815 264.875 235.316C262.741 236.818 259.796 236.306 258.295 234.172C256.793 232.038 257.305 229.093 259.439 227.592C261.571 226.09 264.518 226.602 266.019 228.736Z" fill="#263238"/>
<path d="M316.629 218.946C312.069 217.084 307.279 220.949 304.17 224.781C295.741 235.181 290.147 247.546 283.251 259.029C276.356 270.512 267.591 281.597 255.384 287.029C238.081 294.726 218.058 289.527 199.198 291.084C172.588 293.279 147.665 310.264 135.802 334.287L138.74 337.038C148.896 343.469 161.834 343.043 173.739 341.473C212.829 336.319 250.546 320.997 282.21 297.405C293.285 289.154 303.748 279.773 311.357 268.224C318.966 256.675 323.558 242.734 322.12 228.96C321.701 224.974 320.327 220.457 316.629 218.946ZM177.701 324.524C178.294 327.678 176.092 330.847 173.249 332.314C170.406 333.784 167.076 333.903 163.88 333.801C159.492 333.659 156.288 333.625 152.987 331.356C152.218 330.828 151.614 330.079 151.238 329.222C150.734 328.068 150.645 326.755 151.074 325.57C151.958 323.133 153.986 321.094 156.334 319.915C159.367 318.392 162.86 318.085 166.25 318.127C168.622 318.157 171.048 318.358 173.213 319.334C175.38 320.307 177.262 322.182 177.701 324.524ZM186.917 325.794C186.881 326.586 186.786 327.413 186.419 328.225C186.051 329.038 185.369 329.843 184.537 330.215C183.416 330.715 182.32 330.287 181.83 329.481C181.34 328.677 181.333 327.58 181.401 326.507C181.496 325.033 181.543 323.966 182.379 322.649C182.573 322.341 182.843 322.07 183.152 321.864C183.564 321.586 184.03 321.429 184.444 321.459C185.298 321.519 185.994 321.998 186.387 322.666C186.896 323.531 186.968 324.664 186.917 325.794ZM316.529 250.03C315.94 251.958 314.362 253.493 312.51 254.274C311.167 254.84 309.587 255.027 308.269 254.403C306.453 253.544 305.577 251.288 305.889 249.296C306.2 247.304 307.53 245.822 309.051 244.507C310.521 243.134 313.541 243.204 315.07 244.509C316.601 245.815 317.119 248.102 316.529 250.03Z" fill="#C59DC2" style="mix-blend-mode:difference"/>
<path d="M330.648 135.932C328.194 125.399 279.246 118.889 268.493 117.283C257.739 115.677 246.175 116.049 236.881 110.435C229.19 105.79 224.342 97.7863 218.893 90.6655C204.673 72.0798 184.833 58.075 163.106 49.2047C140.997 40.1759 88.3049 21.2035 66.1297 20.0752L123.421 109.841C123.421 109.841 194.231 160.03 195.874 160.565C197.517 161.099 265.479 155.487 265.479 155.487L330.648 135.932Z" fill="#C59DC2" style="mix-blend-mode:difference"/>
<g opacity="0.3">
<path d="M330.648 135.971C328.203 125.455 279.439 118.955 268.726 117.352C258.012 115.748 246.492 116.12 237.233 110.514C229.571 105.877 224.741 97.8862 219.312 90.7768C205.145 72.2207 185.336 58.3436 163.735 49.382C142.135 40.4203 89.4941 21.3578 66.1297 20.0752L124.197 109.922C124.197 109.922 194.741 160.031 196.378 160.565C198.014 161.099 265.721 155.496 265.721 155.496L330.648 135.971Z" fill="black"/>
</g>
<path fill-rule="evenodd" clip-rule="evenodd" d="M191.304 135.185C203.301 106.038 231.758 84.2941 263.131 80.3003L263.338 81.9139C232.549 85.8334 204.59 107.196 192.815 135.802L191.304 135.185Z" fill="#263238"/>
<path fill-rule="evenodd" clip-rule="evenodd" d="M174.771 126.717C195.1 91.2874 204.328 49.319 200.788 8.40871L202.366 8.26611C205.935 49.5115 196.633 91.816 176.138 127.536L174.771 126.717Z" fill="#263238"/>
<path fill-rule="evenodd" clip-rule="evenodd" d="M159.499 27.1602C176.636 52.0323 179.641 86.8387 167.044 114.546L165.64 113.842C177.992 86.6744 175.042 52.5055 158.239 28.118L159.499 27.1602Z" fill="#263238"/>
<path d="M94.471 108.642C94.471 108.642 103.964 146.574 104.284 177.837C104.426 191.781 110.323 205.032 120.661 214.427L121.112 214.838C133.733 226.309 151.338 230.601 167.846 226.236L168.675 226.016C179.13 223.252 188.371 217.164 195.138 208.751C204.921 196.59 220.096 179.607 231.454 175.511L151.45 116.091L94.471 108.642Z" fill="#C59DC2" style="mix-blend-mode:difference"/>
<path opacity="0.3" d="M95.6519 116.908L100.017 126.649C100.017 126.649 132.998 149.576 174.455 165.48C202.084 176.08 225.856 178.314 225.856 178.314L232.635 175.628L95.6519 116.908Z" fill="black"/>
<path d="M166.122 31.3202C164.803 35.348 160.468 37.5429 156.442 36.2243C152.413 34.9057 150.218 30.5709 151.537 26.5431C152.856 22.5152 157.191 20.3203 161.219 21.6389C165.246 22.9597 167.441 27.2923 166.122 31.3202Z" fill="#263238"/>
<path d="M210.996 10.0643C209.677 14.0922 205.342 16.2871 201.315 14.9684C197.287 13.6498 195.092 9.31505 196.41 5.28721C197.729 1.25936 202.065 -0.93554 206.093 0.383089C210.117 1.70172 212.315 6.03648 210.996 10.0643Z" fill="#263238"/>
<path d="M193.489 24.7198C192.88 26.5779 190.881 27.5919 189.021 26.9843C187.163 26.3747 186.149 24.3759 186.756 22.5159C187.366 20.6578 189.365 19.6438 191.225 20.2514C193.083 20.8591 194.097 22.8598 193.489 24.7198Z" fill="#C59DC2" style="mix-blend-mode:difference"/>
<path d="M257.256 95.5738C256.649 97.4319 254.648 98.4459 252.789 97.8364C250.931 97.2287 249.917 95.228 250.524 93.3679C251.132 91.5098 253.132 90.4958 254.992 91.1054C256.852 91.7131 257.866 93.7138 257.256 95.5738Z" fill="#C59DC2" style="mix-blend-mode:difference"/>
<path d="M248.961 69.1868C248.249 71.3545 245.917 72.5376 243.747 71.8287C241.58 71.1175 240.397 68.7856 241.108 66.6156C241.817 64.4478 244.151 63.2648 246.321 63.9737C248.489 64.6849 249.672 67.019 248.961 69.1868Z" fill="#C59DC2" style="mix-blend-mode:difference"/>
<path d="M219.527 9.40797C219.12 10.3383 217.786 10.8443 216.548 10.5393C215.308 10.2343 214.633 9.23419 215.04 8.30559C215.447 7.37529 216.78 6.86924 218.018 7.17423C219.259 7.47752 219.933 8.47766 219.527 9.40797Z" fill="#C59DC2" style="mix-blend-mode:difference"/>
<path d="M187.702 14.538C187.5 15.1577 186.832 15.4953 186.213 15.2927C185.593 15.0902 185.256 14.4229 185.458 13.8032C185.661 13.1836 186.328 12.846 186.948 13.0485C187.567 13.2511 187.905 13.9184 187.702 14.538Z" fill="#C59DC2" style="mix-blend-mode:difference"/>
<path d="M213.682 15.7187C213.479 16.3383 212.812 16.676 212.192 16.4734C211.573 16.2708 211.235 15.6035 211.438 14.9839C211.64 14.3643 212.308 14.0266 212.927 14.2292C213.547 14.4318 213.884 15.0991 213.682 15.7187Z" fill="#C59DC2" style="mix-blend-mode:difference"/>
<path d="M263.219 66.8655C262.813 68.1054 261.479 68.7798 260.241 68.3733C259.001 67.9668 258.326 66.6339 258.733 65.3941C259.139 64.1543 260.473 63.4799 261.711 63.8864C262.951 64.2951 263.626 65.628 263.219 66.8655Z" fill="#C59DC2" style="mix-blend-mode:difference"/>
<path d="M257.374 73.5825C257.171 74.2021 256.504 74.5397 255.885 74.3372C255.265 74.1346 254.928 73.4673 255.13 72.8476C255.333 72.228 256 71.8904 256.619 72.093C257.239 72.2956 257.578 72.9629 257.374 73.5825Z" fill="#C59DC2" style="mix-blend-mode:difference"/>
<path d="M272.402 84.4596C271.083 88.488 266.748 90.6832 262.721 89.3644C258.693 88.0456 256.498 83.7102 257.817 79.6839C259.135 75.6555 263.471 73.4603 267.497 74.7791C271.523 76.098 273.721 80.4312 272.402 84.4596Z" fill="#263238"/>
<path d="M332.681 138.546C330.732 131.043 321.395 128.618 313.674 128.291C292.732 127.402 271.984 131.937 251.124 134.003C230.265 136.068 208.145 135.399 189.881 125.08C163.992 110.454 151.707 80.2959 132.052 57.9412C104.32 26.4022 59.6382 10.8623 18.4037 18.4187L17.7133 24.7065C19.1915 43.5636 31.8704 59.4967 45.0131 73.0561C88.1684 117.579 142.777 150.828 202.061 168.678C222.795 174.921 244.371 179.335 265.987 178.109C287.6 176.883 309.381 169.602 325.288 154.87C329.894 150.603 334.26 144.632 332.681 138.546ZM69.9728 62.1614C66.576 65.8694 60.5404 66.0607 56.0317 63.8486C51.5231 61.6365 48.2448 57.5438 45.3731 53.4128C41.4299 47.737 38.4672 43.6613 38.2109 37.3629C38.1516 35.8966 38.5201 34.4325 39.2423 33.1554C40.2143 31.4363 41.7772 30.0912 43.6641 29.5217C47.5502 28.3508 52.0059 29.0032 55.6887 30.8604C60.4451 33.2595 64.1088 37.382 67.2388 41.7042C69.4285 44.728 71.4531 47.9792 72.2642 51.6278C73.0753 55.2743 72.4929 59.4095 69.9728 62.1614ZM77.0312 74.9898C76.0063 75.689 74.8796 76.3414 73.5179 76.641C72.1541 76.9406 70.5044 76.8343 69.2591 76.131C67.5798 75.1854 67.0884 73.3983 67.6369 72.0255C68.1854 70.6528 69.5514 69.6137 70.9597 68.6957C72.8953 67.4335 74.2761 66.4899 76.7115 66.3114C77.279 66.2689 77.8741 66.3561 78.4205 66.5494C79.1575 66.8087 79.7885 67.2507 80.1422 67.8011C80.8665 68.9337 80.9215 70.266 80.4535 71.388C79.8478 72.8394 78.4967 73.9932 77.0312 74.9898ZM293.642 167.575C290.673 168.638 287.268 168.087 284.553 166.483C282.583 165.318 280.866 163.499 280.408 161.251C279.78 158.151 281.785 154.929 284.574 153.455C287.363 151.98 290.466 152.269 293.543 152.955C296.643 153.525 299.392 157.401 299.191 160.558C298.992 163.71 296.611 166.513 293.642 167.575Z" fill="#C59DC2" style="mix-blend-mode:difference"/>
<path d="M25.9795 452.866C25.9795 452.866 42.0132 418.827 54.2074 412.118C66.4038 405.409 97.6978 395.597 97.6978 395.597L156.629 429.731L177.133 453.461L140.809 452.868L129.676 433.743L97.4541 412.118L65.6834 421.144L51.1711 453.461L25.9795 452.866Z" fill="#263238"/>
<path d="M41.3311 426.3L22.417 431.892L0 453.461L16.1579 453.287L25.89 439.879L38.1919 435.386L41.3311 426.3Z" fill="#263238"/>
<path d="M244.444 449.918L250.693 428.891L266.311 416.853L308.212 427.314L289.069 435.696L266.311 424.686L256.855 433.385V447.624L244.444 449.918Z" fill="#263238"/>
<path d="M126.355 412.13C126.355 412.13 138.159 423.676 143.071 426.43C143.071 426.43 145.558 434.672 146.922 433.688C148.285 432.704 149.041 430.103 149.041 430.103C149.041 430.103 149.646 443.567 152.523 442.801C155.4 442.036 154.945 431.48 154.945 431.48L162.962 436.881L156.734 429.69L126.355 412.13Z" fill="#C59DC2" style="mix-blend-mode:difference"/>
</svg>
