<svg width="491" height="469" viewBox="0 0 491 469" fill="none" xmlns="http://www.w3.org/2000/svg">
<path d="M202.815 47.145C199.3 61.0115 190.44 73.8862 179.546 83.0156C176.571 85.5105 173.371 87.6625 170.078 89.7126C166.556 91.9077 162.958 94.0754 159.886 96.8938C157.16 99.3966 154.814 102.368 153.409 105.813C151.833 109.678 151.87 113.894 152.88 117.898C154.005 122.355 156.117 126.496 157.164 130.971C157.458 132.231 157.674 133.538 157.752 134.846C159.008 135.663 160.294 136.433 161.599 137.172C161.921 132.39 160.239 127.386 158.583 122.912C157.078 118.847 155.531 114.574 156.192 110.172C156.702 106.784 158.699 103.661 161.023 101.215C166.65 95.2945 174.527 92.0567 180.838 86.955C186.53 82.3551 191.516 76.8124 195.396 70.6034C199.824 63.5202 202.679 55.8765 204.514 47.7526C204.767 46.6433 203.105 46.0044 202.815 47.145Z" fill="#263238"/>
<path d="M163.228 138.511C174.302 145.428 186.073 151.19 198.224 155.97C213.085 161.816 228.515 166.312 244.175 169.431C258.884 172.359 273.826 174.038 288.781 175.181L272.999 2.46881C270.873 2.39825 268.821 2.36297 266.845 2.35905C265.983 2.34729 265.12 2.33553 264.286 2.34141C257.391 2.38453 251.311 2.84315 245.903 3.81135C228.009 7.00994 217.204 15.8002 207.389 34.3665C193.897 59.8279 196.509 82.7296 168.765 99.9201C152.568 109.963 172.975 126.761 163.228 138.511Z" fill="#263238"/>
<path d="M273.195 163.067C302.929 158.753 328.996 159.69 356.022 145.584C356.921 128.566 337.132 127.181 345.217 112.722C356.745 92.1138 326.795 98.8128 326.321 59.2694C325.931 27.9165 311.416 -4.19881 272.411 0.828387C269.799 1.16941 267.096 1.66528 264.286 2.34145C256.009 4.32294 246.744 7.8253 236.468 13.1308L237.768 18.4363L273.195 163.067Z" fill="#263238"/>
<path d="M360.167 142.634C361.12 142.164 362.064 141.678 363.017 141.208C362.719 138.068 361.127 134.957 359.118 132.558C355.792 128.59 350.313 125.283 349.242 119.862C348.709 117.161 349.48 114.392 349.975 111.744C350.536 108.751 350.689 105.809 349.689 102.889C347.712 97.1054 342.483 93.4443 337.814 89.9321C332.995 86.3082 327.544 81.1105 329.361 74.3978C329.794 72.8004 327.472 71.2541 326.558 72.9455C323.665 78.3 326.268 84.4384 330.21 88.5249C334.398 92.87 340.094 95.563 343.847 100.341C345.558 102.519 346.675 105.071 346.551 107.877C346.424 110.803 345.47 113.612 345.225 116.524C344.717 122.563 348.114 127.014 352.216 131.02C355.24 133.968 359.793 138.076 360.167 142.634Z" fill="#263238"/>
<path d="M315.118 95.2933L315.118 95.2934C306.173 97.4969 297.136 92.0299 294.934 83.0864L294.449 83.206L294.934 83.0864L290.834 66.4349L290.834 66.4349C288.631 57.4894 294.097 48.4527 303.041 46.251L303.041 46.251L314.752 43.368L314.752 43.368C323.697 41.1645 332.734 46.6314 334.935 55.5769L334.935 55.5769L339.036 72.2265L339.036 72.2265C341.239 81.1719 335.772 90.2087 326.829 92.4103L315.118 95.2933Z" fill="#398E77" stroke="white"/>
<path d="M318.715 94.9241L315.238 95.7806C306.024 98.0502 296.716 92.4193 294.449 83.2077L290.349 66.5562C288.079 57.3426 293.71 48.0349 302.921 45.7673L306.398 44.9108C315.612 42.6412 324.92 48.2721 327.187 57.4837L331.287 74.1352C333.557 83.3469 327.928 92.6545 318.715 94.9241Z" fill="#FEE9A8" stroke="white" stroke-miterlimit="10"/>
<path d="M174.474 195.602C178.721 227.882 185.901 261.502 191.234 284.227C195.151 300.961 198.058 311.78 198.058 311.78L296.146 294.946C340.507 259.444 323.285 167.467 323.285 167.467C319.899 166.203 316.333 164.99 312.745 163.853C287.238 155.764 258.751 150.733 258.751 150.733C248.285 147.472 232.335 142.215 216.687 137.917C211.354 136.477 206.07 135.136 201.039 134.025C188.348 131.218 177.353 129.905 171.691 131.928C169.849 149.293 171.391 172.094 174.474 195.602Z" fill="url(#paint0_linear_883_2578)"/>
<path d="M222.404 139.659L227.222 198.088L302.059 206.773L305.213 161.571C279.706 153.483 258.753 150.733 258.753 150.733C248.287 147.473 238.05 143.955 222.404 139.659Z" fill="#CC8364"/>
<path d="M305.211 161.571L292.883 205.709L302.059 206.773L305.211 161.571Z" fill="#783D3C"/>
<path d="M321.121 326.277C427.849 362.501 452.54 371.452 474.448 393.285C483.936 402.74 485.71 423.658 483.454 434.075C479.618 451.797 448.828 467.805 439.746 467.805C430.663 467.805 293.839 467.805 293.839 467.805L321.121 326.277Z" fill="#263238"/>
<path d="M198.05 311.788C165.913 349.43 191.933 368.579 191.933 368.579L315.459 398.254L340.513 342.449C340.513 342.449 311.402 316.87 296.156 294.954L198.05 311.788Z" fill="#263238"/>
<path d="M198.05 311.788C142.749 369.186 150.563 467.374 212.067 467.805C317.133 468.54 402.88 467.805 402.88 467.805C359.034 371.704 254.28 331.718 198.05 311.788Z" fill="#263238"/>
<path d="M230.855 350.968C233.08 349.255 235.976 348.156 238.509 346.958C241.035 345.763 243.589 344.626 246.168 343.546C251.391 341.359 256.767 339.497 262.185 337.853C273.005 334.568 284.134 332.237 295.364 330.913C301.671 330.17 308.015 329.805 314.362 329.642C315.671 329.609 315.92 331.638 314.595 331.681C292.409 332.404 270.301 337.588 249.855 346.159C246.928 347.386 244.014 348.646 241.141 349.992C239.773 350.633 238.411 351.292 237.058 351.966C235.584 352.701 234.136 353.601 232.572 354.114C230.651 354.745 229.191 352.25 230.855 350.968Z" fill="#38474F"/>
<path d="M356.345 117.624C340.781 116.46 335.331 92.529 335.676 82.3668L325.241 72.6084C324.106 71.5461 323.806 69.8645 324.506 68.4749C325.306 66.8873 327.17 66.1524 328.838 66.7658L345.75 72.9788L368.128 108.083L356.345 117.624Z" fill="#CC8364"/>
<path d="M296.156 100.958L292.883 116.677L292.04 120.694L289.159 134.551L287.316 143.41L285.121 155.346C282.691 168.536 270.442 177.571 257.134 175.945C244.316 174.396 234.81 163.519 234.81 150.779C234.81 150.191 234.83 149.603 234.869 148.996L239.906 77.3018L296.156 100.958Z" fill="#CC8364"/>
<path d="M292.883 116.677L292.04 120.694L289.159 134.551C265.855 133.885 245.1 119.401 243.904 98.5669C255.487 97.4497 288.845 113.795 292.883 116.677Z" fill="#783D3C"/>
<path d="M309.999 17.883C281.815 -6.37698 253.112 5.95095 237.84 19.984C220.126 36.2612 219.084 60.6583 228.125 81.0238C232.237 90.406 238.538 98.9865 246.411 105.578C260.195 117.157 279.935 123.525 296.456 116.377C308.382 111.242 316.839 99.7293 320.533 87.2544C326.793 66.1774 319.563 26.1166 309.999 17.883Z" fill="#CC8364"/>
<path d="M310.132 33.9174C309.544 38.6467 295.213 40.0833 294.043 34.8092C292.64 28.4766 310.8 28.5394 310.132 33.9174Z" fill="#263238"/>
<path d="M268.413 39.3969C268.883 43.8812 253.539 47.9304 251.605 45.7177C246.37 39.7321 267.57 31.375 268.413 39.3969Z" fill="#263238"/>
<path d="M306.878 56.0174C307.449 58.7084 306.171 61.3445 304.019 61.907C301.869 62.4675 299.662 60.7408 299.09 58.0499C298.517 55.3589 299.799 52.7208 301.949 52.1603C304.099 51.5998 306.306 53.3264 306.878 56.0174Z" fill="#263238"/>
<path d="M272 61.2445C272.57 63.9354 271.292 66.5735 269.14 67.134C266.99 67.6946 264.783 65.9679 264.211 63.2769C263.639 60.5859 264.92 57.9479 267.07 57.3873C269.221 56.8268 271.427 58.5535 272 61.2445Z" fill="#263238"/>
<path d="M254.041 5.1123C257.238 34.4759 238.789 70.9167 223.19 71.3792C208.073 22.6889 254.041 5.1123 254.041 5.1123Z" fill="#263238"/>
<path d="M220.93 64.0473C215.093 62.056 207.873 62.9458 203.908 67.6672C200.606 71.6008 200.21 77.2454 201.013 82.3177C202.05 88.8619 204.923 95.2218 209.713 99.7963C214.505 104.371 221.308 106.989 227.868 106.07C234.43 105.151 240.488 100.423 242.321 94.0557C245.837 81.8434 231.418 67.6241 220.93 64.0473Z" fill="#CC8364"/>
<path d="M228.809 86.428C226.725 83.688 223.919 81.3988 220.71 80.1111C219.239 79.5212 217.743 79.045 216.175 78.796C214.605 78.5471 212.99 78.6118 211.407 78.5177C210.376 78.457 210.062 80.1503 211.119 80.3463C211.818 80.4776 212.459 80.6325 213.108 80.9363C213.757 81.2381 214.372 81.6125 214.997 81.9594C215.636 82.3141 216.269 82.6885 216.891 83.0706C217.192 83.2549 217.492 83.445 217.78 83.6488C218.063 83.8507 218.502 84.08 218.707 84.3583C218.641 84.3034 218.574 84.2485 218.508 84.1937C218.604 84.274 218.7 84.3544 218.794 84.4367C219.039 84.6425 219.284 84.8483 219.536 85.0443C219.691 85.1638 219.846 85.2795 219.999 85.401C220.023 85.4206 220.015 85.4088 220.034 85.4245C220.638 85.8125 221.185 86.4534 221.677 86.963C222.71 88.0331 223.711 89.1307 224.579 90.34C224.985 90.9044 225.957 91.2474 226.618 91.2631C227.31 91.2807 228.154 91.0005 228.65 90.4987C229.834 89.2993 229.787 87.7137 228.809 86.428Z" fill="#263238"/>
<path d="M138.58 267.775C156.703 282.867 178.394 289.338 191.233 291.992C198.058 293.407 204.861 292.253 204.861 292.253L212.065 197.643L202.08 175.759L171.695 131.927C161.053 134.101 155.29 162.665 150.563 193.251C146.592 218.858 143.333 253.646 138.58 267.775Z" fill="url(#paint1_linear_883_2578)"/>
<path d="M203.744 280.097C203.863 276.738 203.983 273.379 204.102 270.02C204.337 263.407 204.545 256.792 204.831 250.181C205.117 243.566 205.411 236.954 205.723 230.343C206.041 223.622 206.585 216.911 206.809 210.189C206.819 209.911 207.244 209.909 207.244 210.189C207.23 216.908 207.536 223.624 207.616 230.343C207.695 236.956 207.754 243.568 207.807 250.181C207.859 256.794 207.832 263.407 207.834 270.02C207.836 273.379 207.836 276.738 207.838 280.097C207.84 283.363 208.173 286.845 207.63 290.071C207.297 292.051 203.887 292.118 203.618 290.071C203.189 286.822 203.626 283.371 203.744 280.097Z" fill="#9C79ED"/>
<path d="M232.737 262.881C234.22 262.393 235.973 262.644 237.525 262.615C238.979 262.587 240.433 262.531 241.89 262.478C245.006 262.364 248.122 262.239 251.236 262.086C257.361 261.784 263.482 261.384 269.597 260.935C281.933 260.032 294.241 258.844 306.52 257.378C307.192 257.298 307.351 258.466 306.673 258.564C294.449 260.304 282.19 261.823 269.909 263.101C263.69 263.748 257.465 264.31 251.236 264.845C248.122 265.112 245.006 265.374 241.89 265.614C240.435 265.725 238.979 265.827 237.525 265.951C235.953 266.082 234.283 266.466 232.737 266.113C231.016 265.717 231.234 263.375 232.737 262.881Z" fill="#9C79ED"/>
<path d="M296.675 341.191C334.674 351.38 374.651 360.766 403.909 388.944C407.552 392.452 410.947 396.251 414.043 400.251C417.218 404.353 420.854 409.01 422.434 414.006C423.972 418.876 417.867 422.141 414.629 418.186C411.917 414.872 409.982 410.889 407.489 407.395C404.983 403.881 402.237 400.557 399.33 397.366C393.527 390.994 386.998 385.314 380.021 380.262C364.373 368.931 346.563 360.851 328.434 354.361C317.697 350.518 306.822 347.139 295.87 343.976C294.294 343.521 295.076 340.761 296.675 341.191Z" fill="#38474F"/>
<path d="M241.149 13.8266C291.581 6.70622 319.042 28.528 319.042 28.528C304.209 -6.37432 271.939 -3.60885 241.149 13.8266Z" fill="#263238"/>
<path d="M223.933 76.3049C221.94 50.8416 227.298 29.698 238.568 18.9968C249.978 8.16234 259.756 4.63838 275.195 0.367713L275.191 0.344207C270.726 -0.914063 252.385 1.50643 245.386 3.90342C221.479 15.1945 204.876 46.1652 223.933 76.3049Z" fill="#D9DADE"/>
<path d="M222.275 78.2273C216.05 51.8918 221.759 31.8928 234.785 18.0773C246.144 6.02768 259.552 1.42577 275.196 0.365455L275.192 0.341949C270.42 -0.863404 250.719 1.79621 243.181 4.28727C217.394 15.9096 202.215 48.264 222.275 78.2273Z" fill="#398E77"/>
<path d="M251.102 79.6547L251.101 79.6548C238.221 81.8578 226.108 73.6464 224.01 61.3658L224.01 61.3657C221.91 49.0849 230.603 37.3125 243.483 35.1096L310.332 23.744L310.332 23.7439C323.21 21.539 335.323 29.7523 337.425 42.0331C339.525 54.3139 330.832 66.0862 317.952 68.2892L251.102 79.6547Z" fill="#FAC6F7" stroke="white"/>
<path d="M267.747 77.3139L319.046 68.6079C331.619 66.4559 340.068 54.52 337.916 41.947C335.766 29.3741 323.828 20.9249 311.255 23.0769L259.956 31.7829C247.383 33.9349 238.934 45.8708 241.086 58.4437C243.238 71.0166 255.174 79.4659 267.747 77.3139Z" stroke="white" stroke-miterlimit="10"/>
<path d="M233.832 108.666L233.832 108.666L222.122 111.549L222.122 111.549C213.176 113.753 204.14 108.286 201.938 99.3423L201.452 99.4618L201.938 99.3423L197.838 82.6908L197.838 82.6907C195.634 73.7453 201.101 64.7086 210.047 62.5069L210.047 62.5069L221.757 59.6239L221.757 59.6238C230.703 57.4203 239.74 62.8872 241.941 71.8327L241.941 71.8328L246.041 88.4823C246.041 88.4823 246.041 88.4823 246.041 88.4823C248.243 97.4279 242.778 106.465 233.832 108.666Z" fill="#398E77" stroke="white"/>
<path d="M227.655 79.8877L227.655 79.8878L229.648 87.9783C231.121 93.9584 227.467 100 221.487 101.473C215.507 102.945 209.465 99.2914 207.992 93.3113L207.992 93.3112L205.999 85.2206L205.999 85.2206C204.525 79.2407 208.18 73.1986 214.161 71.7261C220.141 70.2535 226.183 73.9076 227.655 79.8877Z" fill="#FEE9A8" stroke="white"/>
<path d="M225.72 111.18L222.243 112.036C213.03 114.306 203.722 108.675 201.454 99.4636L197.354 82.8121C195.085 73.5985 200.716 64.2908 209.929 62.0232L213.406 61.1667C222.62 58.8971 231.927 64.5279 234.195 73.7415L238.295 90.393C240.563 99.6027 234.934 108.91 225.72 111.18Z" stroke="white" stroke-miterlimit="10"/>
<path d="M324.494 236.932C324.161 238.814 323.416 240.95 323.671 242.832L327.258 243.949C327.278 243.929 327.278 243.91 327.297 243.89C330.061 239.422 332.197 234.522 333.667 229.485C335.156 224.409 335.568 219.293 335.803 214.041C335.842 213.217 334.608 213.237 334.529 214.041C334.02 219.038 332.491 224.017 330.845 228.74C329.865 231.562 328.669 234.267 327.336 236.913C327.572 234.894 327.787 232.875 327.944 230.857C328.258 226.702 328.297 222.527 328.14 218.352C327.787 210.062 326.67 201.673 324.122 193.736C323.946 193.207 323.201 193.422 323.279 193.951C324.71 202.124 325.827 210.297 325.886 218.588C325.906 222.605 325.69 226.623 325.318 230.622C325.102 232.738 324.847 234.835 324.494 236.932Z" fill="#9C79ED"/>
<path d="M249.254 46.164L252.142 45.6691L254.864 61.5509L257.751 61.056L256.514 53.837L259.402 53.3422L260.639 60.5611L263.526 60.0663L260.805 44.1845L263.692 43.6897L266.661 61.0152L265.218 61.2626L265.465 62.7064L264.021 62.9539L264.269 64.3977L261.381 64.8925L261.134 63.4487L258.246 63.9436L258.494 65.3874L255.606 65.8823L255.359 64.4385L253.915 64.6859L253.667 63.2421L252.223 63.4895L249.254 46.164Z" fill="#051D1F"/>
<path d="M271.076 45.3967L265.301 46.3864L264.806 43.4988L279.244 41.0245L279.739 43.9121L273.963 44.9018L276.933 62.2274L274.045 62.7222L271.076 45.3967Z" fill="#649B9F"/>
<path d="M284.729 49.0016L284.482 47.5578L285.926 47.3104L286.173 48.7542L284.729 49.0016ZM285.431 44.4228L283.987 44.6702L283.245 40.3388L287.576 39.5965L288.566 45.3717L287.122 45.6191L287.369 47.0629L285.926 47.3104L285.431 44.4228ZM301.765 54.9992L313.316 53.0197L313.811 55.9073L299.373 58.3817L297.888 49.7189L299.332 49.4714L299.084 48.0277L300.528 47.7802L300.281 46.3364L307.5 45.0993L307.252 43.6555L308.696 43.408L308.201 40.5204L306.757 40.7679L306.51 39.3241L300.735 40.3138L300.982 41.7576L299.538 42.005L299.786 43.4488L296.898 43.9437L296.403 41.0561L297.847 40.8087L297.6 39.3649L299.044 39.1175L298.796 37.6737L307.459 36.1891L307.706 37.6328L309.15 37.3854L309.398 38.8292L310.841 38.5818L311.831 44.357L310.387 44.6044L310.635 46.0482L309.191 46.2956L309.438 47.7394L302.219 48.9766L302.467 50.4204L301.023 50.6678L301.765 54.9992ZM311.46 35.5034L325.898 33.029L326.393 35.9166L314.842 37.8961L315.337 40.7837L324 39.2991L324.247 40.7429L325.691 40.4954L325.939 41.9392L327.382 41.6918L328.867 50.3546L327.423 50.602L327.671 52.0458L326.227 52.2932L326.474 53.737L317.812 55.2216L317.564 53.7778L316.12 54.0253L315.873 52.5815L314.429 52.8289L313.934 49.9413L316.822 49.4464L317.069 50.8902L318.513 50.6428L318.76 52.0866L324.536 51.0969L324.288 49.6531L325.732 49.4056L324.742 43.6305L323.299 43.8779L323.051 42.4341L312.945 44.1661L311.46 35.5034Z" fill="white"/>
<path d="M435.305 281.242C448.908 274.664 456.728 235.74 456.728 235.74L402.658 231.082C402.658 231.082 415.607 273.038 435.305 281.242Z" fill="#263238"/>
<path d="M316.504 161.539C335.237 156.406 385.96 184.315 449.202 211.686L471.704 270.601C441.872 280.154 326.721 218.422 326.721 218.422L316.504 161.539Z" fill="#783D3C"/>
<path d="M311.957 238.804L313.121 239.211L316.672 240.434L435.318 281.25C403.148 264.604 417.834 192.336 417.834 192.336C397.966 183.273 377.318 178.714 365 173.583C335.388 161.23 331.211 159.205 305.211 161.573C304.936 161.563 311.957 238.804 311.957 238.804Z" fill="url(#paint2_linear_883_2578)"/>
<path d="M460.433 271.225C467.145 272.246 474.119 270.835 479.577 266.797C492.374 257.331 494.673 237.508 485.188 219.091C473.006 195.432 369.422 107.63 369.422 107.63L344.662 111.07L425.785 247.862C433.251 260.447 445.967 269.024 460.433 271.225Z" fill="#CC8364"/>
<path d="M367.297 107.424C351.733 106.262 346.283 82.3294 346.628 72.1672L329.328 59.1396C328.193 58.0773 327.893 56.3957 328.593 55.0062C329.392 53.4186 331.256 52.6836 332.924 53.2971L356.702 62.7792L367.297 107.424Z" fill="#CC8364"/>
<path d="M369.422 107.628L364.236 47.3273C364.25 45.2674 363.23 43.3389 361.523 42.1864L358.468 40.1265L358.164 33.8607C358.04 31.3167 356.22 29.1745 353.731 28.6394L331.736 23.9258C329.6 23.5809 327.566 24.9607 327.095 27.0715L327.035 27.3479C326.619 29.2176 327.556 31.1246 329.29 31.938L341.309 37.5708L334.18 36.8574C331.985 36.6379 330.01 38.1999 329.722 40.3892C329.498 42.0767 330.347 43.7269 331.848 44.5305L347.833 53.0679C347.833 53.0679 342.104 66.9324 345.105 84.1719C348.106 101.413 356.349 117.624 356.349 117.624L369.422 107.628Z" fill="#CC8364"/>
<g opacity="0.87">
<path d="M110.398 121.69C110.398 130.172 108.275 232.786 106.684 234.994C105.093 237.201 36.3391 219.981 0.00195312 176.51V37.4648C0.00195312 54.8918 20.6163 70.9552 36.4973 84.9916C36.5665 85.0515 29.7106 79.7723 29.7798 79.8322C51.6772 99.1233 110.398 117.359 110.398 121.69Z" fill="#F5C7F3" style="mix-blend-mode:screen"/>
</g>
<path opacity="0.87" d="M68.3152 158.724C68.0503 164.29 64.7207 202.832 63.899 208.721C63.4798 211.706 14.0065 180.683 0 164.566V101.897C3.48314 107.909 9.14493 115.114 18.5341 122.934C41.065 141.696 68.581 153.158 68.3152 158.724Z" fill="#C59DC2"/>
<path opacity="0.87" d="M24.5158 152.806C24.5158 158.84 22.3793 163.732 19.744 163.732C17.1087 163.732 14.9731 158.841 14.9731 152.806C14.9731 146.771 17.1097 141.879 19.744 141.879C22.3802 141.879 24.5158 146.771 24.5158 152.806Z" fill="white"/>
<path opacity="0.87" d="M46.0397 169.651C46.0397 175.685 43.9032 180.577 41.2679 180.577C38.6326 180.577 36.4971 175.686 36.4971 169.651C36.4971 163.617 38.6336 158.724 41.2679 158.724C43.9041 158.724 46.0397 163.617 46.0397 169.651Z" fill="white"/>
<path opacity="0.87" d="M86.7696 168.882C86.7696 171.907 85.7805 174.36 84.5611 174.36C83.3408 174.36 82.3525 171.907 82.3525 168.882C82.3525 165.856 83.3417 163.403 84.5611 163.403C85.7805 163.403 86.7696 165.856 86.7696 168.882Z" fill="white"/>
<path opacity="0.87" d="M86.7696 188.534C86.7696 191.559 85.7805 194.012 84.5611 194.012C83.3408 194.012 82.3525 191.559 82.3525 188.534C82.3525 185.508 83.3417 183.056 84.5611 183.056C85.7805 183.057 86.7696 185.508 86.7696 188.534Z" fill="white"/>
<path opacity="0.87" d="M84.5611 213.665C85.7808 213.665 86.7696 211.212 86.7696 208.186C86.7696 205.161 85.7808 202.708 84.5611 202.708C83.3413 202.708 82.3525 205.161 82.3525 208.186C82.3525 211.212 83.3413 213.665 84.5611 213.665Z" fill="white"/>
<defs>
<linearGradient id="paint0_linear_883_2578" x1="248.736" y1="130.949" x2="248.736" y2="311.78" gradientUnits="userSpaceOnUse">
<stop offset="0.115" stop-color="#78BFC2"/>
<stop offset="0.415" stop-color="#F6C5F3"/>
</linearGradient>
<linearGradient id="paint1_linear_883_2578" x1="175.323" y1="131.927" x2="175.323" y2="292.697" gradientUnits="userSpaceOnUse">
<stop offset="0.115" stop-color="#78BFC2"/>
<stop offset="0.415" stop-color="#F6C5F3"/>
</linearGradient>
<linearGradient id="paint2_linear_883_2578" x1="370.261" y1="160.708" x2="370.261" y2="281.25" gradientUnits="userSpaceOnUse">
<stop offset="0.115" stop-color="#78BFC2"/>
<stop offset="0.415" stop-color="#F6C5F3"/>
</linearGradient>
</defs>
</svg>
