<svg width="412" height="481" viewBox="0 0 412 481" fill="none" xmlns="http://www.w3.org/2000/svg">
<g filter="url(#filter0_d_1363_1574)">
<path d="M126.685 219.338L124.804 262.28L123.373 294.854L79.4513 284.447L76.0999 283.663C76.0999 282.095 76.0998 280.546 76.1194 278.998V278.978C76.1194 278.959 76.1194 278.959 76.1194 278.939C76.3938 216.437 82.3912 159.168 92.7004 140.784L126.685 219.338Z" fill="#CC8364"/>
<path d="M123.373 294.853C123.373 294.853 123.02 298.42 122.374 304.77C119.806 329.387 112.515 395.926 102.422 459.663L78.4126 444.827C78.4126 444.827 61.2045 340.049 76.0999 283.662L79.4513 284.446L123.373 294.853Z" fill="#CC8364"/>
<path d="M124.804 262.279L123.373 294.853C123.373 294.853 123.02 298.42 122.374 304.77C96.6791 302.085 84.5668 291.188 79.4514 284.446C77.1975 281.526 76.2763 279.389 76.1195 278.997V278.978C76.0999 278.958 76.0999 278.939 76.0999 278.939H76.1195L124.804 262.279Z" fill="#783D3C"/>
<path d="M89.7899 437.001C89.7899 437.001 52.0595 447.702 34.1712 448.429L12.7493 458.201C9.90153 459.501 9.096 463.17 11.1402 465.541C12.2887 466.874 14.0859 467.454 15.797 467.043L34.8807 462.458L82.9067 462.827L89.7899 437.001Z" fill="#CC8364"/>
<path d="M102.427 459.657C100.356 471.286 73.9047 467.052 64.7342 467.052C57.8118 467.052 44.6548 466.772 38.6241 466.637C36.7191 466.594 35.0492 465.371 34.426 463.569C33.495 460.884 35.2217 458.011 38.0303 457.572L59.4601 454.219L92.181 436.368L102.427 459.657Z" fill="#CC8364"/>
<path d="M78.4086 440.47L34.1732 445.627L20.7203 458.5C19.0367 460.111 18.8622 462.739 20.3165 464.56C21.7806 466.392 24.4088 466.792 26.3511 465.477L38.0303 457.574L78.4086 458.541V440.47Z" fill="#CC8364"/>
</g>
<path d="M123.815 47.145C120.3 61.0115 111.44 73.8862 100.546 83.0156C97.5712 85.5105 94.3707 87.6625 91.078 89.7126C87.556 91.9077 83.9576 94.0754 80.8864 96.8938C78.1602 99.3966 75.8141 102.368 74.4089 105.813C72.8331 109.678 72.8703 113.894 73.8797 117.898C75.0047 122.355 77.1175 126.496 78.1641 130.971C78.4581 132.231 78.6737 133.538 78.7521 134.846C80.0084 135.663 81.2941 136.433 82.5994 137.172C82.9208 132.39 81.2392 127.386 79.5831 122.912C78.0778 118.847 76.5315 114.574 77.192 110.172C77.7015 106.784 79.6987 103.661 82.0232 101.215C87.6501 95.2945 95.5271 92.0567 101.838 86.955C107.53 82.3551 112.516 76.8124 116.396 70.6034C120.824 63.5202 123.679 55.8765 125.514 47.7526C125.767 46.6433 124.105 46.0044 123.815 47.145Z" fill="#263238"/>
<path d="M84.228 138.511C95.3016 145.428 107.073 151.19 119.224 155.97C134.085 161.816 149.515 166.312 165.175 169.431C179.884 172.359 194.826 174.038 209.781 175.181L193.999 2.46881C191.873 2.39825 189.821 2.36297 187.845 2.35905C186.983 2.34729 186.12 2.33553 185.286 2.34141C178.391 2.38453 172.311 2.84315 166.903 3.81135C149.009 7.00994 138.204 15.8002 128.389 34.3665C114.897 59.8279 117.509 82.7296 89.7648 99.9201C73.568 109.963 93.9747 126.761 84.228 138.511Z" fill="#263238"/>
<path d="M194.195 163.067C223.929 158.753 249.996 159.69 277.022 145.584C277.921 128.566 258.132 127.181 266.217 112.722C277.745 92.1138 247.795 98.8128 247.321 59.2694C246.931 27.9165 232.416 -4.19881 193.411 0.828387C190.799 1.16941 188.096 1.66528 185.286 2.34145C177.009 4.32294 167.744 7.8253 157.468 13.1308L158.768 18.4363L194.195 163.067Z" fill="#263238"/>
<path d="M281.167 142.634C282.12 142.164 283.064 141.678 284.017 141.208C283.719 138.068 282.127 134.957 280.118 132.558C276.792 128.59 271.313 125.283 270.242 119.862C269.709 117.161 270.48 114.392 270.975 111.744C271.536 108.751 271.689 105.809 270.689 102.889C268.712 97.1054 263.483 93.4443 258.814 89.9321C253.995 86.3082 248.544 81.1105 250.361 74.3978C250.794 72.8004 248.472 71.2541 247.558 72.9455C244.665 78.3 247.268 84.4384 251.21 88.5249C255.398 92.87 261.094 95.563 264.847 100.341C266.558 102.519 267.675 105.071 267.551 107.877C267.424 110.803 266.47 113.612 266.225 116.524C265.717 122.563 269.114 127.014 273.216 131.02C276.24 133.968 280.793 138.076 281.167 142.634Z" fill="#263238"/>
<path d="M236.118 95.2933L236.118 95.2934C227.173 97.4969 218.136 92.0299 215.934 83.0864L215.449 83.206L215.934 83.0864L211.834 66.4349L211.834 66.4349C209.631 57.4894 215.097 48.4527 224.041 46.251L224.041 46.251L235.752 43.368L235.752 43.368C244.697 41.1645 253.734 46.6314 255.935 55.5769L255.935 55.5769L260.036 72.2265L260.036 72.2265C262.239 81.1719 256.772 90.2087 247.829 92.4103L236.118 95.2933Z" fill="#398E77" stroke="white"/>
<path d="M239.715 94.9241L236.238 95.7806C227.024 98.0502 217.716 92.4193 215.449 83.2077L211.349 66.5562C209.079 57.3426 214.71 48.0349 223.921 45.7673L227.398 44.9108C236.612 42.6412 245.92 48.2721 248.187 57.4837L252.287 74.1352C254.557 83.3469 248.928 92.6545 239.715 94.9241Z" fill="#FEE9A8" stroke="white" stroke-miterlimit="10"/>
<path d="M95.4742 195.602C99.7213 227.882 106.901 261.502 112.234 284.227C116.151 300.961 119.058 311.78 119.058 311.78L217.146 294.946C261.507 259.444 244.285 167.467 244.285 167.467C240.899 166.203 237.333 164.99 233.745 163.853C208.238 155.764 179.751 150.733 179.751 150.733C169.285 147.472 153.335 142.215 137.687 137.917C132.354 136.477 127.07 135.136 122.039 134.025C109.348 131.218 98.3533 129.905 92.6911 131.928C90.8488 149.293 92.3912 172.094 95.4742 195.602Z" fill="url(#paint0_linear_1363_1574)"/>
<path d="M143.404 139.659L148.222 198.088L223.059 206.773L226.213 161.571C200.706 153.483 179.753 150.733 179.753 150.733C169.287 147.473 159.05 143.955 143.404 139.659Z" fill="#CC8364"/>
<path d="M226.211 161.571L213.883 205.709L223.059 206.773L226.211 161.571Z" fill="#783D3C"/>
<path d="M242.121 326.277C348.849 362.501 373.54 371.452 395.448 393.285C404.936 402.74 406.71 423.658 404.454 434.075C400.618 451.797 369.828 467.805 360.746 467.805C351.663 467.805 214.839 467.805 214.839 467.805L242.121 326.277Z" fill="#263238"/>
<path d="M119.05 311.788C86.9133 349.43 112.933 368.579 112.933 368.579L236.459 398.254L261.513 342.449C261.513 342.449 232.402 316.87 217.156 294.954L119.05 311.788Z" fill="#263238"/>
<path d="M119.05 311.788C63.7489 369.186 71.5631 467.374 133.067 467.805C238.133 468.54 323.88 467.805 323.88 467.805C280.034 371.704 175.28 331.718 119.05 311.788Z" fill="#263238"/>
<path d="M151.855 350.968C154.08 349.255 156.976 348.156 159.509 346.958C162.035 345.763 164.589 344.626 167.168 343.546C172.391 341.359 177.767 339.497 183.185 337.853C194.005 334.568 205.134 332.237 216.364 330.913C222.671 330.17 229.015 329.805 235.362 329.642C236.671 329.609 236.92 331.638 235.595 331.681C213.409 332.404 191.301 337.588 170.855 346.159C167.928 347.386 165.014 348.646 162.141 349.992C160.773 350.633 159.411 351.292 158.058 351.966C156.584 352.701 155.136 353.601 153.572 354.114C151.651 354.745 150.191 352.25 151.855 350.968Z" fill="#38474F"/>
<path d="M277.345 117.624C261.781 116.46 256.331 92.529 256.676 82.3668L246.241 72.6084C245.106 71.5461 244.806 69.8645 245.506 68.4749C246.306 66.8873 248.17 66.1524 249.838 66.7658L266.75 72.9788L289.128 108.083L277.345 117.624Z" fill="#CC8364"/>
<path d="M217.156 100.958L213.883 116.677L213.04 120.694L210.159 134.551L208.317 143.41L206.121 155.346C203.691 168.536 191.442 177.571 178.134 175.945C165.316 174.396 155.81 163.519 155.81 150.779C155.81 150.191 155.83 149.603 155.869 148.996L160.906 77.3018L217.156 100.958Z" fill="#CC8364"/>
<path d="M213.883 116.677L213.04 120.694L210.159 134.551C186.855 133.885 166.1 119.401 164.904 98.5669C176.487 97.4497 209.845 113.795 213.883 116.677Z" fill="#783D3C"/>
<path d="M230.999 17.883C202.815 -6.37698 174.112 5.95095 158.84 19.984C141.126 36.2612 140.084 60.6583 149.125 81.0238C153.237 90.406 159.538 98.9865 167.411 105.578C181.195 117.157 200.935 123.525 217.456 116.377C229.382 111.242 237.839 99.7293 241.533 87.2544C247.793 66.1774 240.563 26.1166 230.999 17.883Z" fill="#CC8364"/>
<path d="M231.132 33.9174C230.544 38.6467 216.213 40.0833 215.043 34.8092C213.64 28.4766 231.8 28.5394 231.132 33.9174Z" fill="#263238"/>
<path d="M189.413 39.3969C189.883 43.8812 174.539 47.9304 172.605 45.7177C167.37 39.7321 188.57 31.375 189.413 39.3969Z" fill="#263238"/>
<path d="M227.878 56.0174C228.449 58.7084 227.171 61.3445 225.019 61.907C222.869 62.4675 220.662 60.7408 220.09 58.0499C219.517 55.3589 220.799 52.7208 222.949 52.1603C225.099 51.5998 227.306 53.3264 227.878 56.0174Z" fill="#263238"/>
<path d="M193 61.2445C193.57 63.9354 192.292 66.5735 190.14 67.134C187.99 67.6946 185.783 65.9679 185.211 63.2769C184.639 60.5859 185.92 57.9479 188.07 57.3873C190.221 56.8268 192.427 58.5535 193 61.2445Z" fill="#263238"/>
<path d="M175.041 5.1123C178.238 34.4759 159.789 70.9167 144.19 71.3792C129.073 22.6889 175.041 5.1123 175.041 5.1123Z" fill="#263238"/>
<path d="M141.93 64.0473C136.093 62.056 128.873 62.9458 124.908 67.6672C121.606 71.6008 121.21 77.2454 122.013 82.3177C123.05 88.8619 125.923 95.2218 130.713 99.7963C135.505 104.371 142.308 106.989 148.868 106.07C155.43 105.151 161.488 100.423 163.321 94.0557C166.837 81.8434 152.418 67.6241 141.93 64.0473Z" fill="#CC8364"/>
<path d="M149.809 86.428C147.725 83.688 144.919 81.3988 141.71 80.1111C140.239 79.5212 138.743 79.045 137.175 78.796C135.605 78.5471 133.99 78.6118 132.407 78.5177C131.376 78.457 131.062 80.1503 132.119 80.3463C132.818 80.4776 133.459 80.6325 134.108 80.9363C134.757 81.2381 135.372 81.6125 135.997 81.9594C136.636 82.3141 137.269 82.6885 137.891 83.0706C138.192 83.2549 138.492 83.445 138.78 83.6488C139.063 83.8507 139.502 84.08 139.707 84.3583C139.641 84.3034 139.574 84.2485 139.507 84.1937C139.604 84.274 139.7 84.3544 139.794 84.4367C140.039 84.6425 140.284 84.8483 140.536 85.0443C140.691 85.1638 140.846 85.2795 140.999 85.401C141.022 85.4206 141.015 85.4088 141.034 85.4245C141.638 85.8125 142.185 86.4534 142.677 86.963C143.71 88.0331 144.711 89.1307 145.579 90.34C145.985 90.9044 146.957 91.2474 147.618 91.2631C148.31 91.2807 149.154 91.0005 149.65 90.4987C150.834 89.2993 150.787 87.7137 149.809 86.428Z" fill="#263238"/>
<path d="M59.5801 267.775C77.7035 282.867 99.394 289.338 112.233 291.992C119.058 293.407 125.861 292.253 125.861 292.253L133.065 197.643L123.08 175.759L92.6949 131.927C82.0525 134.101 76.2904 162.665 71.563 193.251C67.5922 218.858 64.3329 253.646 59.5801 267.775Z" fill="url(#paint1_linear_1363_1574)"/>
<path d="M124.744 280.097C124.863 276.738 124.983 273.379 125.102 270.02C125.337 263.407 125.545 256.792 125.831 250.181C126.117 243.566 126.411 236.954 126.723 230.343C127.041 223.622 127.585 216.911 127.809 210.189C127.819 209.911 128.244 209.909 128.244 210.189C128.23 216.908 128.536 223.624 128.616 230.343C128.695 236.956 128.754 243.568 128.807 250.181C128.859 256.794 128.832 263.407 128.834 270.02C128.836 273.379 128.836 276.738 128.838 280.097C128.84 283.363 129.173 286.845 128.63 290.071C128.297 292.051 124.887 292.118 124.618 290.071C124.189 286.822 124.626 283.371 124.744 280.097Z" fill="white"/>
<path d="M153.737 262.881C155.22 262.393 156.973 262.644 158.525 262.615C159.979 262.587 161.433 262.531 162.89 262.478C166.006 262.364 169.122 262.239 172.236 262.086C178.361 261.784 184.482 261.384 190.597 260.935C202.933 260.032 215.241 258.844 227.52 257.378C228.192 257.298 228.351 258.466 227.673 258.564C215.449 260.304 203.19 261.823 190.909 263.101C184.69 263.748 178.465 264.31 172.236 264.845C169.122 265.112 166.006 265.374 162.89 265.614C161.435 265.725 159.979 265.827 158.525 265.951C156.953 266.082 155.283 266.466 153.737 266.113C152.016 265.717 152.234 263.375 153.737 262.881Z" fill="white"/>
<path d="M217.675 341.191C255.674 351.38 295.651 360.766 324.909 388.944C328.552 392.452 331.947 396.251 335.043 400.251C338.218 404.353 341.854 409.01 343.434 414.006C344.972 418.876 338.867 422.141 335.629 418.186C332.917 414.872 330.982 410.889 328.489 407.395C325.983 403.881 323.237 400.557 320.33 397.366C314.527 390.994 307.998 385.314 301.021 380.262C285.373 368.931 267.563 360.851 249.434 354.361C238.697 350.518 227.822 347.139 216.87 343.976C215.294 343.521 216.076 340.761 217.675 341.191Z" fill="#38474F"/>
<path d="M162.149 13.8266C212.581 6.70622 240.042 28.528 240.042 28.528C225.209 -6.37432 192.939 -3.60885 162.149 13.8266Z" fill="#263238"/>
<path d="M144.933 76.3049C142.94 50.8416 148.298 29.698 159.568 18.9968C170.978 8.16234 180.756 4.63838 196.195 0.367713L196.191 0.344207C191.726 -0.914063 173.385 1.50643 166.386 3.90342C142.479 15.1945 125.876 46.1652 144.933 76.3049Z" fill="#D9DADE"/>
<path d="M143.275 78.2273C137.05 51.8918 142.759 31.8928 155.785 18.0773C167.144 6.02768 180.552 1.42577 196.196 0.365455L196.192 0.341949C191.42 -0.863404 171.719 1.79621 164.181 4.28727C138.394 15.9096 123.215 48.264 143.275 78.2273Z" fill="#398E77"/>
<path d="M172.102 79.6547L172.101 79.6548C159.221 81.8578 147.108 73.6464 145.01 61.3658L145.01 61.3657C142.91 49.0849 151.603 37.3125 164.483 35.1096L231.332 23.744L231.332 23.7439C244.21 21.539 256.323 29.7523 258.425 42.0331C260.525 54.3139 251.832 66.0862 238.952 68.2892L172.102 79.6547Z" fill="#FAC6F7" stroke="white"/>
<path d="M188.747 77.3139L240.046 68.6079C252.619 66.4559 261.068 54.52 258.916 41.947C256.766 29.3741 244.828 20.9249 232.255 23.0769L180.956 31.7829C168.383 33.9349 159.934 45.8708 162.086 58.4437C164.238 71.0166 176.174 79.4659 188.747 77.3139Z" stroke="white" stroke-miterlimit="10"/>
<path d="M154.832 108.666L154.832 108.666L143.122 111.549L143.122 111.549C134.176 113.753 125.14 108.286 122.938 99.3423L122.452 99.4618L122.938 99.3423L118.838 82.6908L118.838 82.6907C116.634 73.7453 122.101 64.7086 131.047 62.5069L131.047 62.5069L142.757 59.6239L142.757 59.6238C151.703 57.4203 160.74 62.8872 162.941 71.8327L162.941 71.8328L167.041 88.4823C167.041 88.4823 167.041 88.4823 167.041 88.4823C169.243 97.4279 163.778 106.465 154.832 108.666Z" fill="#398E77" stroke="white"/>
<path d="M148.655 79.8877L148.655 79.8878L150.649 87.9783C152.121 93.9584 148.467 100 142.487 101.473C136.507 102.945 130.465 99.2914 128.992 93.3113L128.992 93.3112L126.999 85.2206L126.999 85.2206C125.525 79.2407 129.18 73.1986 135.161 71.7261C141.141 70.2535 147.183 73.9076 148.655 79.8877Z" fill="#FEE9A8" stroke="white"/>
<path d="M146.72 111.18L143.243 112.036C134.03 114.306 124.722 108.675 122.454 99.4636L118.354 82.8121C116.085 73.5985 121.716 64.2908 130.929 62.0232L134.406 61.1667C143.62 58.8971 152.927 64.5279 155.195 73.7415L159.295 90.393C161.563 99.6027 155.934 108.91 146.72 111.18Z" stroke="white" stroke-miterlimit="10"/>
<path d="M245.494 236.932C245.161 238.814 244.416 240.95 244.671 242.832L248.258 243.949C248.278 243.929 248.278 243.91 248.297 243.89C251.061 239.422 253.197 234.522 254.667 229.485C256.156 224.409 256.568 219.293 256.803 214.041C256.842 213.217 255.608 213.237 255.529 214.041C255.02 219.038 253.491 224.017 251.845 228.74C250.865 231.562 249.669 234.267 248.336 236.913C248.572 234.894 248.787 232.875 248.944 230.857C249.258 226.702 249.297 222.527 249.14 218.352C248.787 210.062 247.67 201.673 245.122 193.736C244.946 193.207 244.201 193.422 244.279 193.951C245.71 202.124 246.827 210.297 246.886 218.588C246.906 222.605 246.69 226.623 246.318 230.622C246.102 232.738 245.847 234.835 245.494 236.932Z" fill="#9C79ED"/>
<path d="M170.254 46.164L173.142 45.6691L175.864 61.5509L178.751 61.056L177.514 53.837L180.402 53.3422L181.639 60.5611L184.526 60.0663L181.805 44.1845L184.692 43.6897L187.661 61.0152L186.218 61.2626L186.465 62.7064L185.021 62.9539L185.269 64.3977L182.381 64.8925L182.134 63.4487L179.246 63.9436L179.494 65.3874L176.606 65.8823L176.358 64.4385L174.915 64.6859L174.667 63.2421L173.223 63.4895L170.254 46.164Z" fill="#051D1F"/>
<path d="M192.076 45.3967L186.301 46.3864L185.806 43.4988L200.244 41.0245L200.738 43.9121L194.963 44.9018L197.933 62.2274L195.045 62.7222L192.076 45.3967Z" fill="#649B9F"/>
<path d="M205.729 49.0016L205.482 47.5578L206.926 47.3104L207.173 48.7542L205.729 49.0016ZM206.431 44.4228L204.987 44.6702L204.245 40.3388L208.576 39.5965L209.566 45.3717L208.122 45.6191L208.369 47.0629L206.926 47.3104L206.431 44.4228ZM222.765 54.9992L234.316 53.0197L234.81 55.9073L220.373 58.3817L218.888 49.7189L220.332 49.4714L220.084 48.0277L221.528 47.7802L221.281 46.3364L228.5 45.0993L228.252 43.6555L229.696 43.408L229.201 40.5204L227.757 40.7679L227.51 39.3241L221.735 40.3138L221.982 41.7576L220.538 42.005L220.786 43.4488L217.898 43.9437L217.403 41.0561L218.847 40.8087L218.6 39.3649L220.043 39.1175L219.796 37.6737L228.459 36.1891L228.706 37.6328L230.15 37.3854L230.397 38.8292L231.841 38.5818L232.831 44.357L231.387 44.6044L231.635 46.0482L230.191 46.2956L230.438 47.7394L223.219 48.9766L223.467 50.4204L222.023 50.6678L222.765 54.9992ZM232.46 35.5034L246.898 33.029L247.393 35.9166L235.842 37.8961L236.337 40.7837L245 39.2991L245.247 40.7429L246.691 40.4954L246.939 41.9392L248.382 41.6918L249.867 50.3546L248.423 50.602L248.671 52.0458L247.227 52.2932L247.474 53.737L238.812 55.2216L238.564 53.7778L237.12 54.0253L236.873 52.5815L235.429 52.8289L234.934 49.9413L237.822 49.4464L238.069 50.8902L239.513 50.6428L239.76 52.0866L245.536 51.0969L245.288 49.6531L246.732 49.4056L245.742 43.6305L244.298 43.8779L244.051 42.4341L233.944 44.1661L232.46 35.5034Z" fill="white"/>
<path d="M356.304 281.242C369.908 274.664 377.728 235.74 377.728 235.74L323.658 231.082C323.658 231.082 336.607 273.038 356.304 281.242Z" fill="#263238"/>
<path d="M237.504 161.539C256.237 156.406 306.96 184.315 370.202 211.686L392.704 270.601C362.872 280.154 247.721 218.422 247.721 218.422L237.504 161.539Z" fill="#783D3C"/>
<path d="M232.957 238.804L234.121 239.211L237.672 240.434L356.318 281.25C324.148 264.604 338.834 192.336 338.834 192.336C318.966 183.273 298.318 178.714 286 173.583C256.388 161.23 252.211 159.205 226.211 161.573C225.936 161.563 232.957 238.804 232.957 238.804Z" fill="url(#paint2_linear_1363_1574)"/>
<path d="M381.433 271.225C388.145 272.246 395.119 270.835 400.577 266.797C413.374 257.331 415.673 237.508 406.188 219.091C394.006 195.432 290.422 107.63 290.422 107.63L265.662 111.07L346.785 247.862C354.251 260.447 366.967 269.024 381.433 271.225Z" fill="#CC8364"/>
<path d="M288.297 107.424C272.733 106.262 267.283 82.3294 267.628 72.1672L250.328 59.1396C249.193 58.0773 248.893 56.3957 249.593 55.0062C250.392 53.4186 252.256 52.6836 253.924 53.2971L277.702 62.7792L288.297 107.424Z" fill="#CC8364"/>
<path d="M290.422 107.628L285.236 47.3273C285.25 45.2674 284.23 43.3389 282.523 42.1864L279.468 40.1265L279.164 33.8607C279.04 31.3167 277.22 29.1745 274.731 28.6394L252.736 23.9258C250.6 23.5809 248.566 24.9607 248.095 27.0715L248.035 27.3479C247.619 29.2176 248.556 31.1246 250.29 31.938L262.309 37.5708L255.18 36.8574C252.985 36.6379 251.01 38.1999 250.722 40.3892C250.498 42.0767 251.347 43.7269 252.848 44.5305L268.833 53.0679C268.833 53.0679 263.104 66.9324 266.105 84.1719C269.106 101.413 277.349 117.624 277.349 117.624L290.422 107.628Z" fill="#CC8364"/>
<defs>
<filter id="filter0_d_1363_1574" x="0.8" y="135.584" width="135.085" height="345.42" filterUnits="userSpaceOnUse" color-interpolation-filters="sRGB">
<feFlood flood-opacity="0" result="BackgroundImageFix"/>
<feColorMatrix in="SourceAlpha" type="matrix" values="0 0 0 0 0 0 0 0 0 0 0 0 0 0 0 0 0 0 127 0" result="hardAlpha"/>
<feOffset dy="4"/>
<feGaussianBlur stdDeviation="4.6"/>
<feComposite in2="hardAlpha" operator="out"/>
<feColorMatrix type="matrix" values="0 0 0 0 0 0 0 0 0 0 0 0 0 0 0 0 0 0 0.25 0"/>
<feBlend mode="normal" in2="BackgroundImageFix" result="effect1_dropShadow_1363_1574"/>
<feBlend mode="normal" in="SourceGraphic" in2="effect1_dropShadow_1363_1574" result="shape"/>
</filter>
<linearGradient id="paint0_linear_1363_1574" x1="169.736" y1="130.949" x2="169.736" y2="311.78" gradientUnits="userSpaceOnUse">
<stop offset="0.115" stop-color="#78BFC2"/>
<stop offset="0.415" stop-color="#F6C5F3"/>
</linearGradient>
<linearGradient id="paint1_linear_1363_1574" x1="96.3228" y1="131.927" x2="96.3228" y2="292.697" gradientUnits="userSpaceOnUse">
<stop offset="0.115" stop-color="#78BFC2"/>
<stop offset="0.415" stop-color="#F6C5F3"/>
</linearGradient>
<linearGradient id="paint2_linear_1363_1574" x1="291.261" y1="160.708" x2="291.261" y2="281.25" gradientUnits="userSpaceOnUse">
<stop offset="0.115" stop-color="#78BFC2"/>
<stop offset="0.415" stop-color="#F6C5F3"/>
</linearGradient>
</defs>
</svg>
