<svg width="338" height="293" viewBox="0 0 338 293" fill="none" xmlns="http://www.w3.org/2000/svg">
<path d="M166.829 228.502C162.028 224.187 130.294 204.439 139.4 181.845C148.505 159.253 159.888 153.83 159.888 138.468C159.888 123.105 156.482 117.23 156.482 117.23H165.806H189.481C189.481 117.23 156.246 170.55 158.522 185.009C160.799 199.469 208.147 218.447 216.798 230.647C225.449 242.847 225.904 253.24 225.904 253.24L177.472 253.286C180.541 245.009 177.885 236.51 166.829 228.502Z" fill="#263238"/>
<path d="M187.397 209.488C187.397 209.488 194.307 207.95 198.368 196.073C202.431 184.197 198.368 182.263 198.368 182.263H203.784C203.784 182.263 207.824 192.586 205.503 204.738C202.972 217.997 201.888 225.904 201.888 225.904L187.397 209.488Z" fill="#263238"/>
<path opacity="0.3" d="M196.81 198.354L197.862 195.954L206.223 196.545L206.153 199.377L196.81 198.354Z" fill="black"/>
<path opacity="0.3" d="M160.015 129.107L182.263 128.354L177.833 136.056L160.377 135.687C160.348 133.536 160.24 131.338 160.015 129.107Z" fill="black"/>
<path d="M252.583 91.3287C244.903 73.1402 235.014 55.9441 224.232 39.3894C216.859 28.0689 208.832 16.7942 197.785 8.98103C186.738 1.16784 172.032 -2.69829 159.374 2.1191C147.583 6.60669 139.601 17.6004 133.811 28.7682C128.02 39.936 123.949 52.9819 117.438 63.7497C111.348 73.8197 106.32 76.1405 98.985 84.1965C91.6488 92.254 85.0471 102.09 88.0036 112.56C140.48 132.868 193.984 132.535 246.033 111.165C248.82 110.021 251.73 108.703 253.434 106.228C256.389 101.939 254.607 96.1232 252.583 91.3287Z" fill="#77BBC2"/>
<g opacity="0.3">
<path d="M252.581 91.2131C244.89 72.9659 234.985 55.7143 224.188 39.1061C216.804 27.7506 208.765 16.438 197.702 8.59953C197.68 8.58421 197.659 8.57196 197.637 8.55664C206.278 16.0305 213.027 25.5984 219.284 35.2229C230.082 51.8311 239.986 69.0827 247.677 87.3299C249.704 92.1384 251.489 97.9747 248.529 102.276C246.822 104.759 243.908 106.081 241.118 107.228C190.455 128.068 138.415 128.961 87.2808 110.289C87.3975 111.027 87.548 111.767 87.7568 112.512C140.312 132.885 193.895 132.551 246.02 111.112C248.81 109.964 251.725 108.642 253.431 106.159C256.391 101.858 254.606 96.0231 252.581 91.2131Z" fill="black"/>
</g>
<path opacity="0.3" d="M146.731 31.8482C152.191 33.3675 153.947 43.7112 150.651 54.9496C147.355 66.188 140.254 74.067 134.794 72.5462C129.332 71.0269 127.577 60.6831 130.874 49.4447C134.17 38.2063 141.27 30.3289 146.731 31.8482Z" fill="white"/>
<path opacity="0.3" d="M209.96 56.8688C216.604 54.6709 224.914 61.9087 228.521 73.0337C232.128 84.1587 229.665 94.9578 223.022 97.1558C216.378 99.3537 208.068 92.1159 204.46 80.9924C200.854 69.8659 203.317 59.0668 209.96 56.8688Z" fill="white"/>
<path opacity="0.3" d="M187.331 24.9162C189.411 24.1603 192.66 27.7167 194.586 32.8589C196.514 38.0011 196.389 42.783 194.309 43.539C192.23 44.2949 188.981 40.7385 187.055 35.5963C185.127 30.4541 185.25 25.6722 187.331 24.9162Z" fill="white"/>
<path opacity="0.3" d="M155.419 72.0362C157.791 72.978 158.133 77.8862 156.181 82.9968C154.23 88.1089 150.724 91.488 148.352 90.5463C145.981 89.6045 145.639 84.6962 147.59 79.5857C149.541 74.4751 153.047 71.0929 155.419 72.0362Z" fill="white"/>
<path opacity="0.3" d="M122.206 76.4329C124.563 77.3863 125.587 80.5267 124.493 83.4453C123.399 86.3639 120.601 87.9579 118.244 87.0046C115.887 86.0512 114.863 82.9109 115.957 79.9923C117.051 77.0737 119.849 75.4796 122.206 76.4329Z" fill="white"/>
<path d="M174.605 183.215C177.465 176.379 181.149 169.916 185.164 163.694C187.91 159.44 190.9 155.202 195.015 152.267C199.13 149.33 204.607 147.877 209.321 149.687C213.712 151.374 216.686 155.505 218.842 159.704C220.998 163.9 222.515 168.804 224.939 172.85C227.208 176.635 229.081 177.507 231.813 180.535C234.545 183.563 237.005 187.26 235.903 191.195C216.358 198.827 196.43 198.703 177.045 190.671C176.007 190.24 174.923 189.745 174.288 188.815C173.189 187.203 173.852 185.016 174.605 183.215Z" fill="#77BBC2"/>
<g opacity="0.3">
<path d="M178.875 189.161C178.864 189.157 178.853 189.152 178.844 189.149C176.441 188.14 174.821 185.821 174.613 183.2L174.607 183.119C173.853 184.933 173.188 187.135 174.289 188.758C174.925 189.694 176.01 190.193 177.05 190.626C196.464 198.717 216.421 198.842 235.995 191.155C236.074 190.874 236.129 190.595 236.172 190.316C217.127 197.363 197.744 197.026 178.875 189.161Z" fill="black"/>
</g>
<path opacity="0.3" d="M214.074 160.941C212.253 161.51 211.668 165.39 212.767 169.604C213.866 173.818 216.232 176.772 218.053 176.203C219.873 175.633 220.458 171.753 219.359 167.54C218.261 163.326 215.893 160.371 214.074 160.941Z" fill="white"/>
<path opacity="0.3" d="M190.702 170.422C188.211 169.644 185.095 172.207 183.742 176.147C182.389 180.087 183.313 183.913 185.804 184.691C188.296 185.469 191.412 182.906 192.764 178.966C194.117 175.026 193.194 171.2 190.702 170.422Z" fill="white"/>
<path opacity="0.3" d="M210.426 175.482C209.513 175.868 209.382 177.875 210.134 179.966C210.884 182.057 212.233 183.44 213.144 183.054C214.057 182.668 214.187 180.661 213.437 178.57C212.686 176.479 211.337 175.096 210.426 175.482Z" fill="white"/>
<path d="M126.643 253.286C126.643 253.286 119.703 240.531 117.234 233.768C114.764 227.005 117.234 225.904 117.234 225.904H113.941C113.941 225.904 111.596 228.883 115.322 241.383C118.78 252.987 110.385 252.877 110.385 252.877L126.643 253.286Z" fill="#263238"/>
<path opacity="0.3" d="M112.952 229.326L116.374 229.116L116.284 228.471H113.027C113.027 228.471 112.952 229.063 112.952 229.326Z" fill="black"/>
<path d="M133.813 220.461C132.128 216.432 129.958 212.624 127.594 208.956C125.977 206.449 124.215 203.952 121.792 202.222C119.369 200.492 116.142 199.634 113.365 200.702C110.779 201.696 109.027 204.131 107.757 206.604C106.487 209.078 105.594 211.968 104.164 214.352C102.828 216.583 101.725 217.097 100.116 218.88C98.5066 220.663 97.0584 222.844 97.7065 225.161C109.219 229.66 120.956 229.586 132.376 224.853C132.987 224.599 133.625 224.307 133.999 223.76C134.649 222.811 134.258 221.522 133.813 220.461Z" fill="#77BBC2"/>
<g opacity="0.3">
<path d="M133.813 220.769C133.837 221.627 133.559 222.414 132.925 223.116C132.551 223.644 131.911 223.924 131.299 224.168C120.184 228.59 108.768 228.779 97.5482 224.818C97.5731 224.974 97.6072 225.131 97.6522 225.29C109.182 229.613 120.937 229.543 132.374 224.993C132.986 224.749 133.625 224.469 134 223.943C134.649 223.028 134.257 221.789 133.813 220.769Z" fill="black"/>
</g>
<path opacity="0.3" d="M110.855 207.973C112.068 208.29 112.458 210.444 111.726 212.786C110.993 215.127 109.415 216.769 108.202 216.452C106.989 216.135 106.598 213.981 107.331 211.639C108.063 209.298 109.641 207.656 110.855 207.973Z" fill="white"/>
<path opacity="0.3" d="M124.786 213.15C126.239 212.692 128.057 214.199 128.846 216.518C129.635 218.835 129.096 221.086 127.643 221.543C126.19 222.001 124.371 220.492 123.583 218.175C122.794 215.858 123.333 213.607 124.786 213.15Z" fill="white"/>
<path opacity="0.3" d="M112.483 216.526C113.03 216.74 113.109 217.856 112.659 219.018C112.209 220.18 111.4 220.948 110.852 220.733C110.305 220.519 110.226 219.404 110.676 218.242C111.127 217.081 111.936 216.313 112.483 216.526Z" fill="white"/>
<path opacity="0.3" d="M187.397 209.327L195.954 214.779L191.236 207.078C191.236 207.078 189.402 208.827 187.397 209.327Z" fill="black"/>
<path d="M0 292.648L100.02 253.23L139.939 253.715L171.041 231.894L261.451 258.455L338 292.648H0Z" fill="#263238"/>
<path d="M182.901 235.017C182.901 235.017 183.623 234.005 182.901 232.42C182.179 230.835 178.823 233.821 178.823 233.821C178.823 233.821 179.143 228.388 178.132 226.947C177.121 225.508 175.342 232.8 175.342 232.8C175.342 232.8 173.507 227.955 170.843 228.148C168.179 228.341 170.843 231.482 170.843 231.482C170.843 231.482 140.752 251.902 139.66 253.041L113.086 252.136C111.786 251.255 107.319 252.782 107.319 252.782C107.319 252.782 107.464 250.856 106.453 249.272C105.442 247.687 104.718 252.009 104.718 252.009C104.718 252.009 104.574 248.697 102.984 247.399C101.393 246.104 102.984 252.153 102.984 252.153C102.984 252.153 101.828 250.424 99.6435 249.992C97.4587 249.56 101.251 252.856 99.6435 252.837C98.0364 252.817 83.8582 259.05 83.8582 259.05C83.8582 259.05 84.9199 266.556 88.2432 270.302C91.5665 274.046 88.9653 262.956 92.0013 262.956C95.0357 262.956 92.1457 269.726 96.3371 270.446C100.528 271.165 98.7938 260.939 101.395 261.083C103.996 261.227 100.528 279.375 105.153 279.806C109.778 280.238 107.177 257.194 108.765 259.93C110.355 262.667 110.355 266.988 113.086 266.988C115.816 266.988 112.957 263.676 115.699 260.074C118.442 256.474 134.778 261.515 136.367 261.887C137.956 262.259 137.089 270.588 140.559 269.435C144.026 268.283 141.136 261.657 144.75 262.521C148.362 263.385 149.23 274.764 154.454 270.299C159.679 265.833 164.837 248.839 166.426 248.55C168.016 248.262 167.292 255.607 170.182 255.607C173.072 255.607 170.76 246.966 173.217 247.11C175.673 247.254 174.374 258.633 178.564 258.056C182.755 257.48 178.852 242.213 185.356 242.213C191.86 242.213 225.048 247.38 225.048 247.38L182.901 235.017Z" fill="#77BBC2"/>
<path d="M148.163 239.41C147.827 238.632 147.21 237.729 146.389 237.906C145.626 238.069 145.379 239.039 145.341 239.828C145.246 241.908 145.563 244.006 146.272 245.959C145.786 245.69 145.461 245.204 145.062 244.815C144.663 244.426 144.085 244.115 143.568 244.318C143.068 244.514 142.838 245.135 142.916 245.673C142.992 246.211 143.304 246.68 143.614 247.124C144.494 248.376 145.443 249.576 146.457 250.719L150.603 247.928C150.158 245 149.335 242.127 148.163 239.41Z" fill="#77BBC2"/>
</svg>
