<svg width="118" height="135" viewBox="0 0 118 135" fill="none" xmlns="http://www.w3.org/2000/svg">
<path d="M92.5513 12.1834C90.8788 6.61673 87.5576 -0.160197 81.8768 0.381055C77.3529 0.811426 74.6802 6.10364 74.8202 10.7381C74.962 15.3726 76.9863 19.712 77.9055 24.2525C79.928 34.2412 76.5075 44.5401 72.094 53.6925C67.6788 62.8449 62.1804 71.5857 59.6016 81.441C55.9986 95.2054 58.7267 113.871 66.7486 125.532H79.0679C71.2946 113.941 74.5715 96.2541 80.8748 83.7696C87.1781 71.2851 95.8816 59.494 97.6647 45.568C99.107 34.307 95.8098 23.0403 92.5513 12.1834Z" fill="#F6E3A2"/>
<path d="M114.659 43.7572C113.984 42.0072 113.043 40.1293 111.305 39.492C108.433 38.4375 105.699 41.385 104.347 44.1689C100.057 53 100.015 63.3294 96.8713 72.6436C93.8962 81.4635 88.2509 89.0746 84.3734 97.5242C80.4959 105.974 78.0311 117.446 82.6002 125.533H91.9306C89.4122 118.73 91.8881 114.378 95.8173 108.305C99.7466 102.233 105.064 97.2065 109.153 91.2439C118.489 77.6287 120.624 59.2089 114.659 43.7572Z" fill="#F6E3A2"/>
<path d="M68.5024 29.0698C67.9655 37.8423 65.807 45.2205 63.3296 53.6341C60.0808 64.6656 54.4903 74.0358 53.5118 85.5146C52.3152 99.5849 55.991 112.507 61.3195 125.532H53.0555C45.0132 109.036 37.2311 92.4322 39.5051 74.1354C40.9068 62.8558 47.1223 51.5274 47.8717 40.1821C48.2803 34.0255 48.8282 27.3371 50.8109 21.5112C52.2749 17.2095 56.3172 13.1126 60.6306 14.2045C60.6306 14.2045 69.3343 15.4354 68.5024 29.0698Z" fill="#F6E3A2"/>
<path d="M32.0187 86.8325C31.4859 79.0341 33.0806 71.101 31.5719 63.4317C30.94 60.2214 29.2051 56.631 25.9747 56.1537C24.2361 55.8954 22.462 56.6703 21.172 57.8665C19.884 59.0626 19.0128 60.6407 18.2837 62.2412C13.44 72.8736 14.0923 85.5035 18.4463 96.3475C22.8022 107.19 30.4539 117.959 39.3432 125.533H49.6234C41.9866 113.511 32.9889 101.046 32.0187 86.8325Z" fill="#F6E3A2"/>
<path opacity="0.3" d="M57.3471 101.338C57.3471 101.338 57.3471 92.8723 64.8488 87.0908C72.3504 81.3093 80.9146 83.7657 80.9146 83.7657L84.3377 77.4323C84.3377 77.4323 61.4277 70.1836 57.2545 89.3859C57.2545 89.3859 56.595 99.0658 57.3471 101.338Z" fill="black"/>
<path opacity="0.3" d="M59.0909 81.3507C59.0909 81.3507 61.9895 73.9449 69.8711 73.1196C77.7527 72.2943 85.8538 75.734 86.0578 75.3943L87.4935 72.9922C87.4935 72.9922 67.0938 63.4889 60.4594 77.1705L59.0909 81.3507Z" fill="black"/>
<path opacity="0.3" d="M71.7143 55.0519C71.7143 55.0519 84.9928 51.7055 90.1157 47.5638C97.2111 41.826 98.013 35.9397 98.013 35.9397L97.2037 29.8052C97.2037 29.8052 92.6725 40.3352 84.3161 44.1478C79.1674 46.4979 75.499 46.3794 75.499 46.3794L71.7143 55.0519Z" fill="black"/>
<g opacity="0.3">
<path d="M41.2079 98.5582C41.6984 100.195 42.2366 101.822 42.8264 103.442C43.5058 101.534 44.9812 97.9675 47.7334 93.9236C50.184 90.3237 52.1708 88.8507 53.3656 88.2433C53.4037 87.4947 53.3999 86.7554 53.4687 86.0013C53.5469 85.1338 53.6996 84.2998 53.8313 83.4546C51.2452 85.2471 43.2825 91.193 41.2079 98.5582Z" fill="black"/>
<path d="M52.9293 91.8701C51.9668 92.4926 50.5553 93.9243 48.8267 97.49C47.0019 101.252 45.3469 105.485 44.3638 108.131C45.2677 110.436 46.2395 112.729 47.2566 115.013C48.3398 112.29 50.644 106.736 52.4764 103.96C53.0557 103.081 53.4916 102.423 53.8313 101.906C53.2991 98.6066 52.9934 95.2646 52.9293 91.8701Z" fill="black"/>
<path d="M55.8742 59.1892C52.0666 59.0636 47.775 55.8465 43.7675 58.2917C42.3644 62.4764 40.9986 66.6575 40.156 70.8311C41.3087 68.0518 43.5021 64.1182 46.7586 63.4552C51.6705 62.4561 55.9321 67.1986 59.766 64.8772C61.2326 61.2576 62.7198 57.6009 63.9005 53.7357C64.4218 52.033 64.9226 50.3783 65.4027 48.7402C62.4153 53.5861 58.3722 59.2723 55.8742 59.1892Z" fill="black"/>
<path d="M61.5169 29.9707C54.8857 36.6904 50.3201 33.265 48.6871 31.5219C48.2985 34.5367 48.0712 37.5781 47.8788 40.5016C47.8128 41.4939 47.6607 42.4881 47.5196 43.4803C58.7493 39.6006 64.8544 37.2796 68.5586 26.9503C68.4669 22.0631 67.0538 19.0483 65.4427 17.1816C65.3749 21.6088 64.5649 26.8818 61.5169 29.9707Z" fill="black"/>
</g>
<g opacity="0.3">
<path d="M96.4817 24.5454C94.6543 27.6212 88.0485 38.3013 83.8799 39.3073C80.3861 40.1488 78.0582 39.7851 77.0074 39.5104C76.6968 40.8046 76.3344 42.0929 75.926 43.3696L75.9221 43.4006C75.9221 43.4006 80.806 44.3311 85.9987 39.8412C91.1031 35.4267 96.7712 27.0544 96.9611 26.772C96.8058 26.0291 96.6562 25.2863 96.4817 24.5454Z" fill="black"/>
<path d="M82.1059 0.381605C77.4688 0.819742 74.7303 6.20746 74.8757 10.9256C75.021 15.6437 77.0951 20.0614 78.0369 24.6839C78.1218 25.0971 78.1407 25.5142 78.2068 25.9294C79.726 27.0429 82.3683 27.3203 86.7713 23.3465C89.5834 20.8076 91.9255 17.8076 93.8052 14.9549C93.5504 14.1016 93.2975 13.2463 93.0408 12.3988C91.3291 6.72976 87.9263 -0.169415 82.1059 0.381605Z" fill="black"/>
</g>
<g opacity="0.3">
<path d="M98.8218 87.6973C96.6538 85.7846 93.371 84.9076 91.0511 84.5063C89.8748 86.5329 88.6716 88.5482 87.4934 90.5767C90.0478 91.157 94.2396 92.5677 96.2405 95.8091C97.8896 98.4813 98.4547 101.282 99.2638 103.441C100.909 101.463 102.624 99.5338 104.325 97.595C102.994 94.0214 101.155 89.7575 98.8218 87.6973Z" fill="black"/>
<path d="M102.531 87.0858C104.473 90.3279 104.914 93.7705 106.022 96.0778C106.895 95.0234 107.714 93.9266 108.532 92.8299C107.5 89.6514 106.103 85.3645 103.224 82.7469C100.519 80.2874 96.0573 79.4952 93.9014 79.2466C93.5296 79.9925 93.1462 80.7327 92.7531 81.469C95.0362 81.8892 100.229 83.2423 102.531 87.0858Z" fill="black"/>
<path d="M116.925 62.5346C114.355 61.1799 111.767 59.8162 108.978 58.9845C106.189 58.1528 103.152 57.8768 100.366 58.7194L100.013 59.6964C99.4057 62.7925 98.8219 65.9032 98.0129 68.943C100.856 67.5484 104.495 67.7536 107.375 69.2154C110.888 70.9968 113.391 74.2745 115.166 77.7447C115.244 77.8954 115.329 78.0443 115.408 78.195C117.041 73.3411 117.915 68.2402 118 63.1266C117.645 62.9178 117.281 62.7235 116.925 62.5346Z" fill="black"/>
</g>
<g opacity="0.3">
<path d="M32.6615 76.4603C32.7427 74.5796 32.8008 72.7025 32.7911 70.8311C29.9032 73.429 25.1041 76.9441 20.7577 76.3707C17.9355 75.9971 16.2024 75.0166 15.1288 74.0005C14.8309 76.8544 14.8406 79.7419 15.1288 82.62C16.7266 83.7126 18.9607 84.5064 22.075 84.5064C25.9378 84.5045 30.0385 79.994 32.6615 76.4603Z" fill="black"/>
<path d="M34.9774 104.313C35.3587 103.804 35.6689 103.236 35.948 102.657C35.4517 101.526 34.9938 100.385 34.5705 99.2339L34.5651 99.2504C34.5651 99.2504 32.082 104.706 26.6269 105.778C25.2804 106.042 24.1985 106.109 23.3246 106.063C24.0453 107.302 24.7988 108.52 25.5906 109.726C27.6887 109.91 31.2591 109.276 34.9774 104.313Z" fill="black"/>
<path d="M35.357 117.557C38.924 115.995 40.505 113.349 41.2077 111.296C40.486 110.089 39.789 108.873 39.1206 107.649C38.3855 109.503 37.1291 111.892 35.0458 113.655C33.4285 115.023 31.4255 115.216 29.6363 114.986C30.5185 116.076 31.4293 117.135 32.363 118.169C33.3445 118.152 34.3718 117.989 35.357 117.557Z" fill="black"/>
<path d="M37.9168 121.191C41.3052 119.078 42.0852 116.311 42.2597 114.86C41.9176 114.214 41.5806 113.561 41.2471 112.909C40.7493 114.239 39.3484 117.536 37.1385 119.046C36.1361 119.73 34.8447 120.192 33.8441 120.48C34.3624 121.13 34.8926 121.752 35.4246 122.377C36.1789 122.097 37.0906 121.707 37.9168 121.191Z" fill="black"/>
<path d="M24.466 73.6108C25.4481 73.2652 26.3968 72.6715 26.886 71.7579C27.3752 70.8443 27.2751 69.5758 26.4635 68.9269C25.8354 68.4251 24.957 68.3828 24.2325 68.0317C22.3926 67.1383 22.1591 64.3938 23.3654 62.7522C24.5717 61.1106 26.6989 60.4029 28.7334 60.1529C29.3745 60.0738 30.0379 60.0058 30.6882 59.901C29.7525 58.0021 28.3165 56.4525 26.2727 56.1528C24.5494 55.8991 22.791 56.6602 21.5124 57.8348C20.2339 59.0095 19.3722 60.5591 18.6496 62.1308C17.3655 64.9213 16.5002 67.857 15.961 70.8571C17.8343 73.4012 21.4402 74.6734 24.466 73.6108Z" fill="black"/>
</g>
<path d="M0.181938 135L31.4561 110.805L80.7233 114.952L118 133.699L0.181938 135Z" fill="#263238"/>
</svg>
