<svg width="175" height="296" viewBox="0 0 175 296" fill="none" xmlns="http://www.w3.org/2000/svg">
<path d="M171.998 58.2071V125.729C171.998 94.6432 119.817 108.895 22.2271 94.6369C14.6368 98.0515 7.04647 105.1 -0.00222015 108.895V22.6904C62.8896 22.6904 171.998 23.4655 171.998 58.2071Z" fill="#99728D"/>
<path d="M51.099 44.2417C51.615 45.8049 52.1421 47.3676 52.6529 48.9325C52.7495 49.2274 52.8572 49.5217 52.9589 49.815C113.513 55.2821 162.765 58.0969 170.238 82.3307L170.238 79.6199C162.758 55.3654 111.7 49.7056 51.099 44.2417Z" fill="#EBEBEB"/>
<path d="M46.3215 43.8258C34.3151 42.8074 22.4379 42.0429 11.1352 41.4937C11.7075 43.2852 12.2771 45.0775 12.8546 46.8675C12.8744 46.9319 12.895 46.999 12.9183 47.0652C24.1579 47.6113 35.9687 48.3709 47.9071 49.3792C47.3721 47.5254 46.8498 45.6761 46.3215 43.8258Z" fill="#EBEBEB"/>
<path d="M83.6966 63.1948C59.5559 59.91 34.005 57.8761 10.8415 56.7437C11.4362 58.5989 12.0291 60.4574 12.6239 62.3126C35.738 63.4405 61.2241 65.4662 85.3138 68.7413L83.6966 63.1948Z" fill="#EBEBEB"/>
<path d="M93.7378 63.644L95.5533 69.2197C116.549 72.2601 136.263 76.2863 152.09 81.5645L150.523 76.0447C134.645 70.7372 114.839 66.6945 93.7378 63.644Z" fill="#EBEBEB"/>
<path d="M39.2612 72.4581C29.5727 71.7047 20.0182 71.1105 10.8409 70.6597C11.4339 72.5182 12.0312 74.3726 12.6233 76.2286C21.7315 76.6753 31.2103 77.2618 40.823 78.0076C40.2981 76.1591 39.7732 74.3106 39.2612 72.4581Z" fill="#EBEBEB"/>
<path d="M69.4458 206.241C69.9618 207.804 70.4889 209.367 70.9997 210.932C71.0963 211.227 71.204 211.521 71.3057 211.815C131.86 217.282 160.526 212.766 168 237L167.999 234.289C160.519 210.035 130.047 211.705 69.4458 206.241Z" fill="#EBEBEB"/>
<path d="M64.6683 205.825C52.662 204.807 40.7847 204.042 29.482 203.493C30.0543 205.285 30.624 207.077 31.2014 208.867C31.2212 208.931 31.2419 208.998 31.2651 209.065C42.5047 209.611 54.3155 210.37 66.2539 211.379C65.7189 209.525 65.1966 207.676 64.6683 205.825Z" fill="#EBEBEB"/>
<path d="M102.044 232.194C77.9029 228.91 52.3521 226.876 29.1886 225.743C29.7833 227.598 30.3762 229.457 30.9709 231.312C54.0851 232.44 79.5712 234.466 103.661 237.741L102.044 232.194Z" fill="#EBEBEB"/>
<path d="M72.0001 250.914L73.8156 256.49C94.8117 259.53 114.525 263.556 130.352 268.834L128.786 263.315C112.907 258.007 93.101 253.965 72.0001 250.914Z" fill="#EBEBEB"/>
<path d="M57.6081 249.458C47.9197 248.704 38.3651 248.11 29.1878 247.659C29.7808 249.518 30.3781 251.372 30.9702 253.228C40.0784 253.675 49.5573 254.261 59.1699 255.007C58.645 253.159 58.1201 251.31 57.6081 249.458Z" fill="#EBEBEB"/>
<path d="M171.763 53.0513V120.549C171.763 138.041 167.527 141.967 144.756 158.774C116.564 176.123 84.576 181.953 46.0822 195.099V120.549C76.0399 102.463 171.763 75.3462 171.763 53.0513Z" fill="#F5C7F3" style="mix-blend-mode:luminosity"/>
</svg>
