<svg width="566" height="467" viewBox="0 0 566 467" fill="none" xmlns="http://www.w3.org/2000/svg">
<path opacity="0.4" d="M565.955 321.726V398.652C566.206 360.084 441.995 306.239 370 285.107V207.139C446.175 232.801 565.955 282.145 565.955 321.726Z" fill="url(#paint0_linear_1372_1361)"/>
<path d="M437.895 249.664C437.933 251.54 437.979 253.417 438.014 255.293C438.02 255.648 438.04 256.003 438.048 256.358C502.14 282.641 565.943 316.732 565.943 345.624V338.976C565.943 310.064 502.036 275.961 437.895 249.664Z" fill="#F0C0EE"/>
<path d="M432.835 247.609C420.105 242.47 407.43 237.647 395.312 233.256C395.333 235.398 395.353 237.543 395.382 239.685C395.382 239.763 395.384 239.841 395.384 239.922C407.439 244.289 420.039 249.081 432.7 254.187C432.737 251.99 432.789 249.8 432.835 247.609Z" fill="#F0C0EE"/>
<path d="M541.654 322.297L541.755 326.838C541.773 327.583 541.793 328.325 541.81 329.066C556.728 340.824 565.937 352.543 565.937 363.512V356.865C565.942 345.855 556.671 334.095 541.654 322.297Z" fill="#F0C0EE"/>
<path d="M472.691 282.707C447.511 271.025 420.38 260.235 395.541 251.223C395.567 253.442 395.587 255.665 395.61 257.885C420.398 266.871 447.459 277.635 472.587 289.288L472.691 282.707Z" fill="#F0C0EE"/>
<path d="M477.803 285.106L477.907 291.786C499.744 302.146 519.855 313.147 535.313 324.205L535.46 317.67C519.956 306.562 499.75 295.512 477.803 285.106Z" fill="#F0C0EE"/>
<path d="M426.107 281.396C415.811 277.323 405.609 273.47 395.769 269.896C395.789 272.116 395.818 274.338 395.838 276.558C405.604 280.1 415.727 283.925 425.943 287.96C425.995 285.772 426.044 283.584 426.107 281.396Z" fill="#F0C0EE"/>
<path opacity="0.72" d="M565.969 319.656V396.555C565.969 421.986 546.479 445.827 512.345 466.437V389.509C546.476 368.898 565.969 345.058 565.969 319.656Z" fill="#FCF7E3"/>
<path opacity="0.4" d="M565.955 218.209V295.134C565.955 255.55 446.178 206.163 370 180.504V103.625C446.175 129.281 565.955 178.627 565.955 218.209Z" fill="url(#paint1_linear_1372_1361)"/>
<path d="M475.425 168.405C475.451 166.474 475.497 164.54 475.523 162.606C449.48 150.384 421.136 139.098 395.312 129.736C395.333 131.878 395.353 134.02 395.382 136.165C395.382 136.243 395.384 136.324 395.384 136.402C421.15 145.737 449.422 156.992 475.407 169.185C475.41 168.922 475.422 168.662 475.425 168.405Z" fill="#F0C0EE"/>
<path d="M481.883 165.632C481.894 166.556 481.918 167.479 481.929 168.406C481.946 169.714 481.987 171.024 482.022 172.332C528.418 194.738 565.941 219.952 565.941 242.11V235.462C565.944 213.284 528.346 188.052 481.883 165.632Z" fill="#F0C0EE"/>
<path d="M533.431 212.721C498.953 188.644 443.031 164.933 395.543 147.706C395.569 149.926 395.589 152.149 395.612 154.368C443.014 171.552 498.797 195.214 533.272 219.248C533.324 217.071 533.376 214.898 533.431 212.721Z" fill="#F0C0EE"/>
<path d="M539.268 216.965C539.323 219.219 539.378 221.474 539.433 223.728C555.731 236.094 565.944 248.458 565.944 259.993V253.345C565.944 241.772 555.661 229.369 539.268 216.965Z" fill="#F0C0EE"/>
<path d="M494.661 208.471C464.043 192.736 427.978 178.067 395.769 166.376C395.789 168.596 395.818 170.818 395.838 173.038C427.952 184.689 463.887 199.304 494.436 214.989C494.503 212.819 494.578 210.645 494.661 208.471Z" fill="#F0C0EE"/>
<path opacity="0.72" d="M565.969 216.139V293.038C567.063 322.352 539.037 345.82 512.345 363.512V285.992C546.476 265.381 565.969 241.541 565.969 216.139Z" fill="#FCF7E3"/>
<g opacity="0.4">
<path d="M565.955 114.692V191.617C566.122 151.329 442.5 102.124 370 76.4472V0.10498C446.175 25.7641 565.955 75.1079 565.955 114.692Z" fill="url(#paint2_linear_1372_1361)"/>
</g>
<path d="M450.727 64.9675C450.836 63.0161 450.9 61.0532 450.972 59.0903C432.275 51.0915 413.192 43.6816 395.312 37.2012C395.333 39.343 395.353 41.4849 395.382 43.6296C395.382 43.7076 395.384 43.7855 395.384 43.8663C413.152 50.3035 432.105 57.6615 450.686 65.6025C450.695 65.3889 450.715 65.1782 450.727 64.9675Z" fill="#F0C0EE"/>
<path d="M550.187 115.668C550.228 117.897 550.242 120.125 550.234 122.357C560.109 131.663 565.943 140.854 565.943 149.572V142.924C565.943 134.192 560.088 124.989 550.187 115.668Z" fill="#F0C0EE"/>
<path d="M544.259 110.463C523.652 93.4955 490.721 76.3691 455.906 61.2173C455.955 62.4672 455.993 63.72 456.062 64.967C456.12 65.9802 456.195 66.9935 456.267 68.0067C490.869 83.0834 523.574 100.114 544.121 116.99C544.153 114.813 544.199 112.637 544.259 110.463Z" fill="#F0C0EE"/>
<path d="M475.237 87.8444C449.347 75.7033 421.22 64.486 395.541 55.1709C395.567 57.3907 395.587 59.6133 395.61 61.8332C421.243 71.1252 449.31 82.3195 475.151 94.4346C475.183 92.2379 475.211 90.0411 475.237 87.8444Z" fill="#F0C0EE"/>
<path d="M480.534 90.3555C480.563 92.581 480.591 94.8037 480.62 97.0293C491.82 102.407 502.541 107.946 512.35 113.573C512.382 111.387 512.428 109.199 512.483 107.014C502.613 101.348 491.817 95.7708 480.534 90.3555Z" fill="#F0C0EE"/>
<path opacity="0.72" d="M565.969 112.623V189.522C565.969 214.953 546.479 238.794 512.345 259.404V182.476C546.476 161.865 565.969 138.022 565.969 112.623Z" fill="#FCF7E3"/>
<path opacity="0.4" d="M165.408 74V206.216C162.597 206.485 159.84 206.771 157.12 207.075C145.966 208.238 135.528 209.492 125.753 210.853C119.612 211.676 113.758 212.554 108.136 213.467C92.1305 216.044 78.2185 218.874 66.1877 221.917C17.7957 234.144 5.23652e-08 249.882 5.23652e-08 267.034V134.799C-0.00168116 108.929 40.4786 86.2813 165.408 74Z" fill="url(#paint3_linear_1372_1361)"/>
<g opacity="0.4">
<path d="M146.726 101.974C146.726 104.063 145.132 105.809 143.055 106.02C35.1122 117.01 0 136.908 0 159.602V151.408C0 128.772 34.9373 108.917 142.244 97.9253C144.64 97.6799 146.726 99.5645 146.726 101.974Z" fill="url(#paint4_linear_1372_1361)"/>
<path d="M146.726 118.475C146.726 120.565 145.132 122.311 143.054 122.523C35.112 133.513 -0.000152588 153.411 -0.000152588 176.104V167.909C-0.000152588 145.273 34.9372 125.418 142.244 114.427C144.64 114.179 146.726 116.066 146.726 118.475Z" fill="url(#paint5_linear_1372_1361)"/>
<path d="M146.726 134.976C146.726 137.066 145.132 138.811 143.054 139.023C35.112 150.013 -0.000152588 169.912 -0.000152588 192.605V184.411C-0.000152588 161.775 34.9372 141.92 142.244 130.928C144.64 130.681 146.726 132.567 146.726 134.976Z" fill="url(#paint6_linear_1372_1361)"/>
<path d="M146.726 151.477C146.726 153.567 145.132 155.314 143.054 155.524C35.112 166.514 -0.000152588 186.411 -0.000152588 209.106V200.912C-0.000152588 178.276 34.9372 158.421 142.244 147.429C144.64 147.182 146.726 149.068 146.726 151.477Z" fill="url(#paint7_linear_1372_1361)"/>
<path d="M146.726 167.978C146.726 170.068 145.132 171.813 143.054 172.025C35.112 183.015 -0.000152588 202.914 -0.000152588 225.607V217.413C-0.000152588 194.777 34.9372 174.922 142.244 163.93C144.64 163.683 146.726 165.569 146.726 167.978Z" fill="url(#paint8_linear_1372_1361)"/>
<path d="M65.3991 197.314C65.4293 194.733 63.0033 192.825 60.4967 193.444C16.2236 204.36 -0.000152588 218.491 -0.000152588 233.914V242.108C-0.000152588 226.471 16.6741 212.161 62.3594 201.179C64.1163 200.757 65.3772 199.204 65.3991 197.396C65.3991 197.368 65.3991 197.341 65.3991 197.314Z" fill="url(#paint9_linear_1372_1361)"/>
</g>
<path opacity="0.72" d="M35.978 175.066V307.301C13.29 295.949 0 282.19 0 267.358V135.124C0 149.941 13.29 163.701 35.978 175.066Z" fill="#FCF7E3"/>
<path opacity="0.4" d="M0.0738261 349.666C0.0756663 349.697 0.0756632 349.743 0.0922254 349.789L1.66379 402.107C1.19085 386.353 26.6597 371.267 68.5324 359.441L66.959 307C25.0697 318.825 -0.399114 333.912 0.0738261 349.666Z" fill="url(#paint10_linear_1372_1361)"/>
<path opacity="0.4" d="M50.2955 329.342C23.0103 338.611 5.21891 349.439 0.647766 360.808C0.736097 363.158 0.811546 365.51 0.866753 367.865C5.95132 356.386 24.4586 345.477 52.5902 336.195C54.114 335.692 55.1408 334.253 55.0893 332.649C55.0157 330.216 52.5976 328.558 50.2955 329.342Z" fill="url(#paint11_linear_1372_1361)"/>
<path opacity="0.4" d="M50.295 343.486C23.6631 352.533 6.11282 363.068 1.03561 374.141C1.05034 376.62 1.04665 379.096 1.04113 381.573C6.39622 370.252 24.8078 359.503 52.5861 350.337C54.108 349.835 55.1385 348.396 55.0888 346.793V346.789C55.0152 344.362 52.599 342.704 50.295 343.486Z" fill="url(#paint12_linear_1372_1361)"/>
<path opacity="0.72" d="M0 347.016L1.57524 399.463C2.37942 426.251 78.0554 446.621 181 450.724L179.425 398.265C76.4802 394.176 0.804183 373.806 0 347.016Z" fill="#FCF7E3"/>
<defs>
<linearGradient id="paint0_linear_1372_1361" x1="370" y1="302.896" x2="565.955" y2="302.896" gradientUnits="userSpaceOnUse">
<stop stop-color="#B39BEA"/>
<stop offset="0.1927" stop-color="#B8A2EB"/>
<stop offset="0.464" stop-color="#C6B4EF"/>
<stop offset="0.7805" stop-color="#DCD2F5"/>
<stop offset="1" stop-color="#EFEBFA"/>
</linearGradient>
<linearGradient id="paint1_linear_1372_1361" x1="370" y1="199.378" x2="565.954" y2="199.378" gradientUnits="userSpaceOnUse">
<stop stop-color="#B39BEA"/>
<stop offset="0.1927" stop-color="#B8A2EB"/>
<stop offset="0.464" stop-color="#C6B4EF"/>
<stop offset="0.7805" stop-color="#DCD2F5"/>
<stop offset="1" stop-color="#EFEBFA"/>
</linearGradient>
<linearGradient id="paint2_linear_1372_1361" x1="370" y1="95.8603" x2="565.955" y2="95.8603" gradientUnits="userSpaceOnUse">
<stop stop-color="#B39BEA"/>
<stop offset="0.1927" stop-color="#B8A2EB"/>
<stop offset="0.464" stop-color="#C6B4EF"/>
<stop offset="0.7805" stop-color="#DCD2F5"/>
<stop offset="1" stop-color="#EFEBFA"/>
</linearGradient>
<linearGradient id="paint3_linear_1372_1361" x1="148.47" y1="101.699" x2="17.1322" y2="228.387" gradientUnits="userSpaceOnUse">
<stop stop-color="#B39BEA"/>
<stop offset="0.1927" stop-color="#B8A2EB"/>
<stop offset="0.464" stop-color="#C6B4EF"/>
<stop offset="0.7805" stop-color="#DCD2F5"/>
<stop offset="1" stop-color="#EFEBFA"/>
</linearGradient>
<linearGradient id="paint4_linear_1372_1361" x1="141.796" y1="128.753" x2="26.6358" y2="128.753" gradientUnits="userSpaceOnUse">
<stop stop-color="#B39BEA"/>
<stop offset="0.1927" stop-color="#B8A2EB"/>
<stop offset="0.464" stop-color="#C6B4EF"/>
<stop offset="0.7805" stop-color="#DCD2F5"/>
<stop offset="1" stop-color="#EFEBFA"/>
</linearGradient>
<linearGradient id="paint5_linear_1372_1361" x1="141.796" y1="145.254" x2="26.6357" y2="145.254" gradientUnits="userSpaceOnUse">
<stop stop-color="#B39BEA"/>
<stop offset="0.1927" stop-color="#B8A2EB"/>
<stop offset="0.464" stop-color="#C6B4EF"/>
<stop offset="0.7805" stop-color="#DCD2F5"/>
<stop offset="1" stop-color="#EFEBFA"/>
</linearGradient>
<linearGradient id="paint6_linear_1372_1361" x1="141.796" y1="161.755" x2="26.6357" y2="161.755" gradientUnits="userSpaceOnUse">
<stop stop-color="#B39BEA"/>
<stop offset="0.1927" stop-color="#B8A2EB"/>
<stop offset="0.464" stop-color="#C6B4EF"/>
<stop offset="0.7805" stop-color="#DCD2F5"/>
<stop offset="1" stop-color="#EFEBFA"/>
</linearGradient>
<linearGradient id="paint7_linear_1372_1361" x1="141.796" y1="178.256" x2="26.6357" y2="178.256" gradientUnits="userSpaceOnUse">
<stop stop-color="#B39BEA"/>
<stop offset="0.1927" stop-color="#B8A2EB"/>
<stop offset="0.464" stop-color="#C6B4EF"/>
<stop offset="0.7805" stop-color="#DCD2F5"/>
<stop offset="1" stop-color="#EFEBFA"/>
</linearGradient>
<linearGradient id="paint8_linear_1372_1361" x1="141.796" y1="194.757" x2="26.6357" y2="194.757" gradientUnits="userSpaceOnUse">
<stop stop-color="#B39BEA"/>
<stop offset="0.1927" stop-color="#B8A2EB"/>
<stop offset="0.464" stop-color="#C6B4EF"/>
<stop offset="0.7805" stop-color="#DCD2F5"/>
<stop offset="1" stop-color="#EFEBFA"/>
</linearGradient>
<linearGradient id="paint9_linear_1372_1361" x1="141.795" y1="217.717" x2="26.6357" y2="217.717" gradientUnits="userSpaceOnUse">
<stop stop-color="#B39BEA"/>
<stop offset="0.1927" stop-color="#B8A2EB"/>
<stop offset="0.464" stop-color="#C6B4EF"/>
<stop offset="0.7805" stop-color="#DCD2F5"/>
<stop offset="1" stop-color="#EFEBFA"/>
</linearGradient>
<linearGradient id="paint10_linear_1372_1361" x1="0.95033" y1="339.595" x2="69.9464" y2="370.531" gradientUnits="userSpaceOnUse">
<stop stop-color="#B39BEA"/>
<stop offset="0.1927" stop-color="#B8A2EB"/>
<stop offset="0.464" stop-color="#C6B4EF"/>
<stop offset="0.7805" stop-color="#DCD2F5"/>
<stop offset="1" stop-color="#EFEBFA"/>
</linearGradient>
<linearGradient id="paint11_linear_1372_1361" x1="-8.94722" y1="346.471" x2="50.9789" y2="349.937" gradientUnits="userSpaceOnUse">
<stop stop-color="#B39BEA"/>
<stop offset="0.1927" stop-color="#B8A2EB"/>
<stop offset="0.464" stop-color="#C6B4EF"/>
<stop offset="0.7805" stop-color="#DCD2F5"/>
<stop offset="1" stop-color="#EFEBFA"/>
</linearGradient>
<linearGradient id="paint12_linear_1372_1361" x1="-9.75" y1="360.348" x2="50.176" y2="363.813" gradientUnits="userSpaceOnUse">
<stop stop-color="#B39BEA"/>
<stop offset="0.1927" stop-color="#B8A2EB"/>
<stop offset="0.464" stop-color="#C6B4EF"/>
<stop offset="0.7805" stop-color="#DCD2F5"/>
<stop offset="1" stop-color="#EFEBFA"/>
</linearGradient>
</defs>
</svg>
