<svg width="196" height="467" viewBox="0 0 196 467" fill="none" xmlns="http://www.w3.org/2000/svg">
<path opacity="0.4" d="M195.955 321.726V398.652C196.206 360.084 71.995 306.239 0 285.107V207.139C76.1749 232.801 195.955 282.145 195.955 321.726Z" fill="url(#paint0_linear_1372_1361)"/>
<path d="M73.5 252C71.3776 251.13 68.9172 251.749 68.5 253C68 254.5 68.8251 256.698 72 258C136.092 284.283 195.943 316.732 195.943 345.625V338.977C195.943 310.064 137.641 278.297 73.5 252Z" fill="url(#paint1_linear_1372_1361)"/>
<path d="M62.8354 247.609C50.1055 242.471 39.618 238.391 27.5 234C25.6877 233.344 24.1668 234 23.5 236C23.2359 236.792 23 239.058 25.3845 239.922C37.439 244.289 48.3393 248.394 61 253.5C64.7191 255 66.699 249.169 62.8354 247.609Z" fill="url(#paint2_linear_1372_1361)"/>
<path d="M174 324.5C171.5 322.536 168.332 326.325 171.81 329.067C186.728 340.824 195.937 352.543 195.937 363.513V356.865C195.942 345.855 189.016 336.297 174 324.5Z" fill="#9C98A8"/>
<path d="M101 281.925C75.8201 270.243 51.8393 260.512 27 251.5C23 250.049 20.8228 256.15 25.6102 257.885C50.3975 266.871 74.372 276.347 99.5 288C103 289.623 104.5 283.548 101 281.925Z" fill="url(#paint3_linear_1372_1361)"/>
<path d="M112.5 287C108.282 285 105.784 290.5 110 292.5C131.837 302.86 149.042 312.441 164.5 323.5C166.744 325.106 170 321.149 167 319C151.496 307.892 134.447 297.406 112.5 287Z" fill="url(#paint4_linear_1372_1361)"/>
<path d="M57 282C46.7034 277.927 37.3405 274.074 27.5 270.5C23.3695 269 21.2443 274.892 25.8381 276.559C35.6035 280.101 45.7269 283.925 55.9426 287.961C59 289.169 61.5 283.78 57 282Z" fill="url(#paint5_linear_1372_1361)"/>
<path opacity="0.72" d="M195.969 319.656V396.555C195.969 421.986 176.479 445.827 142.345 466.437V389.509C176.476 368.898 195.969 345.058 195.969 319.656Z" fill="#FCF7E3"/>
<path opacity="0.4" d="M195.955 218.209V295.134C195.955 255.55 76.1777 206.163 0 180.504V103.625C76.1749 129.281 195.955 178.627 195.955 218.209Z" fill="url(#paint6_linear_1372_1361)"/>
<path d="M113.5 166C112.117 165.333 109.38 166.357 109 167.499C108.5 169 109.089 171.818 110.5 172.5C156.897 194.906 195.941 221.452 195.941 243.61V235.462C195.944 213.284 159.963 188.42 113.5 166Z" fill="url(#paint7_linear_1372_1361)" fill-opacity="0.75"/>
<path d="M166.185 213.528C131.707 189.451 77.2417 166.534 29.754 149.307C25.254 147.674 23.754 154.994 28.754 156.806C76.1549 173.991 129.525 195.966 164 220C166 221.394 168 215 166.185 213.528Z" fill="url(#paint8_linear_1372_1361)" fill-opacity="0.75"/>
<path d="M172.5 220C169.857 218 167.155 222 169.433 223.728C185.731 236.095 195.944 248.458 195.944 259.993V253.345C195.944 241.773 188.893 232.404 172.5 220Z" fill="url(#paint9_linear_1372_1361)"/>
<path d="M124.661 208.471C94.0431 192.736 61.2088 179.191 29 167.5C24 165.685 22 171.686 27 173.5C59.1136 185.15 92.451 198.314 123 214C126.111 215.597 128.431 210.408 124.661 208.471Z" fill="url(#paint10_linear_1372_1361)"/>
<path opacity="0.72" d="M195.969 216.139V293.038C197.063 322.352 169.037 345.82 142.345 363.512V285.992C176.476 265.381 195.969 241.541 195.969 216.139Z" fill="#FCF7E3"/>
<path d="M99.5 162C100 161 99.9551 158.591 97.5 157.5C79.5 149.5 47.9167 135.614 30.037 129.133C28.9383 128.735 26.8022 129.2 26.2247 130.932C25.7247 132.432 25.9242 135.098 28.2247 135.932C45.9917 142.37 77.5 156 95 164.5C97.422 165.676 99 163 99.5 162Z" fill="url(#paint11_linear_1372_1361)" fill-opacity="0.75"/>
<g opacity="0.4">
<path d="M195.955 114.692V191.617C196.122 151.329 72.5002 102.124 0 76.4472V0.10498C76.1749 25.7641 195.955 75.1079 195.955 114.692Z" fill="url(#paint12_linear_1372_1361)"/>
</g>
<path d="M83.5 63.4999C84 61.4999 84.1877 59.2985 81.6597 58.3889C62.5249 51.5036 43.8797 42.9802 26 36.4997C24.9013 36.1012 22.1667 36 21.5 37.9999C21 39.4999 21.1995 42.1662 23.5 42.9997C41.267 49.4373 60.5 57.4999 79 64.9999C81.6768 66.085 83.2571 64.4715 83.5 63.4999Z" fill="url(#paint13_linear_1372_1361)" fill-opacity="0.75"/>
<path d="M103 89.5C103.407 88.2775 103.5 86.5 101 85.5C82.7111 78.1845 42.9167 60.6138 25.037 54.1333C23.9383 53.7348 21.8022 54.1998 21.2247 55.9322C20.7247 57.4322 20.9242 60.5984 23.2247 61.432C40.9917 67.8695 80.9663 85.2865 99 92.5C101.5 93.5 102.5 91 103 89.5Z" fill="url(#paint14_linear_1372_1361)" fill-opacity="0.75"/>
<path d="M183.5 118.5C181.12 116.259 176.886 120.548 179.791 123.285C189.666 132.592 195.5 141.782 195.5 150.5L195.943 142.924C195.943 134.192 193.401 127.821 183.5 118.5Z" fill="url(#paint15_linear_1372_1361)"/>
<path d="M175 109.5C154.392 92.5325 127.056 78.6888 92.2405 63.537C89.7405 62.4492 87.9382 64.0329 87.5 65C87.0618 65.9671 86.2712 68.3108 89 69.4998C123.602 84.5766 150.453 97.6246 171 114.5C175 118 179.741 113.037 175 109.5Z" fill="url(#paint16_linear_1372_1361)"/>
<path d="M117 93.5C113.5 91.8202 110.835 97.9998 115 100C115 100 134 108.5 144.5 115.5C147.646 117.597 149.928 112.038 146.744 109.722C137 102.636 117 93.5 117 93.5Z" fill="url(#paint17_linear_1372_1361)"/>
<path opacity="0.72" d="M195.969 112.623V189.522C195.969 214.953 176.479 238.794 142.345 259.404V182.476C176.476 161.865 195.969 138.022 195.969 112.623Z" fill="#FCF7E3"/>
<defs>
<linearGradient id="paint0_linear_1372_1361" x1="0.000288661" y1="302.896" x2="195.955" y2="302.896" gradientUnits="userSpaceOnUse">
<stop stop-color="#B39BEA"/>
<stop offset="0.1927" stop-color="#B8A2EB"/>
<stop offset="0.464" stop-color="#C6B4EF"/>
<stop offset="0.7805" stop-color="#DCD2F5"/>
<stop offset="1" stop-color="#EFEBFA"/>
</linearGradient>
<linearGradient id="paint1_linear_1372_1361" x1="59.2015" y1="276.849" x2="149.452" y2="327.275" gradientUnits="userSpaceOnUse">
<stop stop-color="#9C8FBB"/>
<stop offset="1" stop-color="#9C92B4"/>
</linearGradient>
<linearGradient id="paint2_linear_1372_1361" x1="26" y1="237.5" x2="140" y2="287" gradientUnits="userSpaceOnUse">
<stop stop-color="#9C88CA"/>
<stop offset="1" stop-color="#8A6E89"/>
</linearGradient>
<linearGradient id="paint3_linear_1372_1361" x1="27" y1="255.5" x2="189.5" y2="342.5" gradientUnits="userSpaceOnUse">
<stop stop-color="#9C88CA"/>
<stop offset="1" stop-color="#8A6E89"/>
</linearGradient>
<linearGradient id="paint4_linear_1372_1361" x1="111" y1="289" x2="176" y2="330" gradientUnits="userSpaceOnUse">
<stop stop-color="#947DAF"/>
<stop offset="1" stop-color="#9B97A8"/>
</linearGradient>
<linearGradient id="paint5_linear_1372_1361" x1="26" y1="274" x2="144.5" y2="330" gradientUnits="userSpaceOnUse">
<stop stop-color="#9D89CC"/>
<stop offset="1" stop-color="#8A6E89"/>
</linearGradient>
<linearGradient id="paint6_linear_1372_1361" x1="0.000288661" y1="199.378" x2="195.954" y2="199.378" gradientUnits="userSpaceOnUse">
<stop stop-color="#B39BEA"/>
<stop offset="0.1927" stop-color="#B8A2EB"/>
<stop offset="0.464" stop-color="#C6B4EF"/>
<stop offset="0.7805" stop-color="#DCD2F5"/>
<stop offset="1" stop-color="#EFEBFA"/>
</linearGradient>
<linearGradient id="paint7_linear_1372_1361" x1="109" y1="166" x2="205" y2="247.5" gradientUnits="userSpaceOnUse">
<stop stop-color="#9889BC"/>
<stop offset="1" stop-color="#8A6E89"/>
</linearGradient>
<linearGradient id="paint8_linear_1372_1361" x1="26.754" y1="151.807" x2="165.754" y2="216.307" gradientUnits="userSpaceOnUse">
<stop stop-color="#9C88CB"/>
<stop offset="1" stop-color="#A29EB0"/>
</linearGradient>
<linearGradient id="paint9_linear_1372_1361" x1="171.5" y1="220.5" x2="182.26" y2="259.993" gradientUnits="userSpaceOnUse">
<stop stop-color="#A08CCE"/>
<stop offset="1" stop-color="#8A6E89"/>
</linearGradient>
<linearGradient id="paint10_linear_1372_1361" x1="28.5" y1="171" x2="170" y2="239" gradientUnits="userSpaceOnUse">
<stop stop-color="#9C88CA"/>
<stop offset="1" stop-color="#9C98A8"/>
</linearGradient>
<linearGradient id="paint11_linear_1372_1361" x1="30.7247" y1="132.432" x2="187.225" y2="207.432" gradientUnits="userSpaceOnUse">
<stop stop-color="#B39BEA"/>
<stop offset="1" stop-color="#9C98A8"/>
</linearGradient>
<linearGradient id="paint12_linear_1372_1361" x1="0.000288661" y1="95.8603" x2="195.955" y2="95.8603" gradientUnits="userSpaceOnUse">
<stop stop-color="#B39BEA"/>
<stop offset="0.1927" stop-color="#B8A2EB"/>
<stop offset="0.464" stop-color="#C6B4EF"/>
<stop offset="0.7805" stop-color="#DCD2F5"/>
<stop offset="1" stop-color="#EFEBFA"/>
</linearGradient>
<linearGradient id="paint13_linear_1372_1361" x1="26" y1="40.4995" x2="182.5" y2="115.5" gradientUnits="userSpaceOnUse">
<stop stop-color="#B39BEA"/>
<stop offset="1" stop-color="#9C98A8"/>
</linearGradient>
<linearGradient id="paint14_linear_1372_1361" x1="25.7247" y1="57.4321" x2="182.225" y2="132.432" gradientUnits="userSpaceOnUse">
<stop stop-color="#B39BEA"/>
<stop offset="1" stop-color="#8375A7"/>
</linearGradient>
<linearGradient id="paint15_linear_1372_1361" x1="187.563" y1="117.767" x2="204.5" y2="156.5" gradientUnits="userSpaceOnUse">
<stop stop-color="#9C98A8"/>
<stop offset="1" stop-color="#85809A"/>
</linearGradient>
<linearGradient id="paint16_linear_1372_1361" x1="25" y1="42" x2="183.5" y2="120" gradientUnits="userSpaceOnUse">
<stop stop-color="#B39BEA"/>
<stop offset="1" stop-color="#86809A"/>
</linearGradient>
<linearGradient id="paint17_linear_1372_1361" x1="83" y1="80" x2="141.5" y2="109" gradientUnits="userSpaceOnUse">
<stop stop-color="#B39BEA"/>
<stop offset="1" stop-color="#9287B0"/>
</linearGradient>
</defs>
</svg>
