<svg width="1209" height="74" viewBox="0 0 1209 74" fill="none" xmlns="http://www.w3.org/2000/svg">
<path d="M29.0852 0C41.2803 0 1208.3 0 1208.3 0C1208.3 0 1229.91 18.6124 1033.16 19.3511C1005.33 19.4551 1111.74 43.8157 988.692 46.0802C931.17 47.138 697.698 47.0484 687.841 50.844C677.984 54.6379 803.807 54.6379 735.168 66.0212C666.528 77.4045 340.712 75.8877 379.226 66.0212C417.74 56.1547 467.129 54.6378 458.259 50.0928C441.639 41.5781 380.191 39.3871 282.489 36.9989C58.3796 31.5215 -58.2777 5.46486 29.0852 0Z" fill="#F6E3A2"/>
<path opacity="0.7" d="M29.0852 0C41.2803 0 1208.3 0 1208.3 0C1208.3 0 1229.91 18.6124 1033.16 19.3511C1005.33 19.4551 1111.74 43.8157 988.692 46.0802C931.17 47.138 697.698 47.0484 687.841 50.844C677.984 54.6379 803.807 54.6379 735.168 66.0212C666.528 77.4045 340.712 75.8877 379.226 66.0212C417.74 56.1547 467.129 54.6378 458.259 50.0928C441.639 41.5781 380.191 39.3871 282.489 36.9989C58.3796 31.5215 -58.2777 5.46486 29.0852 0Z" fill="white"/>
<path d="M1137 68C1169.03 68 1195 61.732 1195 54C1195 46.268 1169.03 40 1137 40C1104.97 40 1079 46.268 1079 54C1079 61.732 1104.97 68 1137 68Z" fill="#F6E3A2"/>
<path opacity="0.7" d="M1137 68C1169.03 68 1195 61.732 1195 54C1195 46.268 1169.03 40 1137 40C1104.97 40 1079 46.268 1079 54C1079 61.732 1104.97 68 1137 68Z" fill="white"/>
</svg>
