<svg width="663" height="560" viewBox="0 0 663 560" fill="none" xmlns="http://www.w3.org/2000/svg">
<path d="M662.4 279.9C662.4 433.5 541.8 559.8 331.2 559.8C120.6 559.8 -6.26023e-09 435 7.4507e-10 279.9C7.75037e-09 124.8 118.5 0 331.2 0C563.7 0 662.4 139.8 662.4 279.9Z" fill="#33363D"/>
<path d="M58.867 246C60.97 258.762 70.972 268.764 83.734 270.867C70.972 272.97 60.97 282.972 58.867 295.734C56.764 282.972 46.762 272.97 34 270.867C46.762 268.764 56.764 258.762 58.867 246Z" fill="#EBEBEB"/>
<path d="M498.604 464.92C504.482 463.097 509.097 458.482 510.92 452.604C512.743 458.482 517.359 463.097 523.236 464.92C517.359 466.743 512.743 471.359 510.92 477.236C509.097 471.359 504.482 466.743 498.604 464.92Z" fill="#D9D9D9" stroke="#FDFAF8" stroke-width="1.2"/>
<path d="M403.341 79.867C413.136 76.8288 420.829 69.136 423.867 59.3405C426.905 69.136 434.598 76.8288 444.393 79.867C434.598 82.9052 426.905 90.598 423.867 100.393C420.829 90.598 413.136 82.9052 403.341 79.867Z" stroke="#FDFAF8" stroke-width="2"/>
<path d="M279.99 154.317L289.151 151.298L285.848 142.62L276.679 145.641C274.851 142.761 272.483 140.313 269.691 138.394L273.856 130.26L264.927 126.282L260.753 134.431C257.396 133.613 253.854 133.45 250.305 133.953L247.052 125.412L237.727 128.485L240.98 137.028C237.866 138.713 235.24 140.909 233.192 143.505L224.419 139.628L220.164 147.949L228.924 151.836C228.037 154.946 227.862 158.245 228.399 161.548L219.237 164.569L222.544 173.252L231.711 170.23C233.531 173.103 235.894 175.557 238.69 177.466L234.523 185.626L243.445 189.587L247.646 181.45C250.976 182.249 254.518 182.427 258.094 181.927L261.338 190.448L270.67 187.366L267.426 178.849C270.508 177.149 273.142 174.942 275.215 172.361L283.967 176.228L288.224 167.925L279.464 164.034C280.339 160.918 280.525 157.62 279.99 154.317ZM254.195 174.49C244.363 174.49 236.393 167.076 236.393 157.93C236.393 148.784 244.363 141.37 254.195 141.37C264.026 141.37 271.995 148.784 271.995 157.93C271.995 167.076 264.026 174.49 254.195 174.49Z" fill="#F0C0ED"/>
<path d="M253.881 153.693H145.644V166.418H253.881V153.693Z" fill="#A3A3A3"/>
<path d="M253.881 166.418H145.644V266.002H253.881V166.418Z" fill="#FFE29D"/>
<mask id="mask0_1790_9660" style="mask-type:alpha" maskUnits="userSpaceOnUse" x="145" y="153" width="109" height="114">
<path d="M253.881 153.693H145.644V166.418H253.881V153.693Z" fill="#A3A3A3"/>
<path d="M253.881 166.418H145.644V266.002H253.881V166.418Z" fill="#FFE29D"/>
</mask>
<g mask="url(#mask0_1790_9660)">
<g opacity="0.5">
<path d="M139 177.485C146.169 171.808 165.138 163.859 183.665 177.485C202.192 191.11 216.781 184.197 225.256 177.485C232.742 171.556 251.251 163.859 269.211 177.485C291.661 194.516 307.022 185.005 319.783 177.485" stroke="white" stroke-width="0.28125"/>
<path d="M139 174.95C146.169 169.272 165.138 161.324 183.665 174.95C202.192 188.575 216.781 181.662 225.256 174.95C232.742 169.021 251.251 161.324 269.211 174.95C291.661 191.981 307.022 182.47 319.783 174.95" stroke="white" stroke-width="0.28125"/>
<path d="M139 172.414C146.169 166.737 165.138 158.789 183.665 172.414C202.192 186.04 216.781 179.126 225.256 172.414C232.742 166.485 251.251 158.789 269.211 172.414C291.661 189.446 307.022 179.935 319.783 172.414" stroke="white" stroke-width="0.28125"/>
<path d="M139 169.879C146.169 164.202 165.138 156.254 183.665 169.879C202.192 183.505 216.781 176.591 225.256 169.879C232.742 163.95 251.251 156.254 269.211 169.879C291.661 186.911 307.022 177.4 319.783 169.879" stroke="white" stroke-width="0.28125"/>
<path d="M139 167.344C146.169 161.667 165.138 153.719 183.665 167.344C202.192 180.969 216.781 174.056 225.256 167.344C232.742 161.415 251.251 153.719 269.211 167.344C291.661 184.376 307.022 174.865 319.783 167.344" stroke="white" stroke-width="0.28125"/>
<path d="M139 164.809C146.169 159.132 165.138 151.184 183.665 164.809C202.192 178.434 216.781 171.521 225.256 164.809C232.742 158.88 251.251 151.184 269.211 164.809C291.661 181.841 307.022 172.329 319.783 164.809" stroke="white" stroke-width="0.28125"/>
<path d="M139 162.274C146.169 156.597 165.138 148.648 183.665 162.274C202.192 175.899 216.781 168.986 225.256 162.274C232.742 156.345 251.251 148.648 269.211 162.274C291.661 179.305 307.022 169.794 319.783 162.274" stroke="white" stroke-width="0.28125"/>
<path d="M139 159.739C146.169 154.061 165.138 146.113 183.665 159.739C202.192 173.364 216.781 166.451 225.256 159.739C232.742 153.81 251.251 146.113 269.211 159.739C291.661 176.77 307.022 167.259 319.783 159.739" stroke="white" stroke-width="0.28125"/>
<path d="M139 157.203C146.169 151.526 165.138 143.578 183.665 157.203C202.192 170.829 216.781 163.915 225.256 157.203C232.742 151.274 251.251 143.578 269.211 157.203C291.661 174.235 307.022 164.724 319.783 157.203" stroke="white" stroke-width="0.28125"/>
<path d="M139 154.668C146.169 148.991 165.138 141.043 183.665 154.668C202.192 168.294 216.781 161.38 225.256 154.668C232.742 148.739 251.251 141.043 269.211 154.668C291.661 171.7 307.022 162.189 319.783 154.668" stroke="white" stroke-width="0.28125"/>
<path d="M139 152.133C146.169 146.456 165.138 138.508 183.665 152.133C202.192 165.758 216.781 158.845 225.256 152.133C232.742 146.204 251.251 138.508 269.211 152.133C291.661 169.165 307.022 159.654 319.783 152.133" stroke="white" stroke-width="0.28125"/>
<path d="M139 149.598C146.169 143.921 165.138 135.973 183.665 149.598C202.192 163.223 216.781 156.31 225.256 149.598C232.742 143.669 251.251 135.973 269.211 149.598C291.661 166.63 307.022 157.118 319.783 149.598" stroke="white" stroke-width="0.28125"/>
<path d="M139 212.977C146.169 207.3 165.138 199.352 183.665 212.977C202.192 226.602 216.781 219.689 225.256 212.977C232.742 207.048 251.251 199.352 269.211 212.977C291.661 230.009 307.022 220.497 319.783 212.977" stroke="white" stroke-width="0.28125"/>
<path d="M139 210.442C146.169 204.765 165.138 196.817 183.665 210.442C202.192 224.067 216.781 217.154 225.256 210.442C232.742 204.513 251.251 196.817 269.211 210.442C291.661 227.473 307.022 217.962 319.783 210.442" stroke="white" stroke-width="0.28125"/>
<path d="M139 207.907C146.169 202.229 165.138 194.281 183.665 207.907C202.192 221.532 216.781 214.618 225.256 207.907C232.742 201.978 251.251 194.281 269.211 207.907C291.661 224.938 307.022 215.427 319.783 207.907" stroke="white" stroke-width="0.28125"/>
<path d="M139 205.371C146.169 199.694 165.138 191.746 183.665 205.371C202.192 218.997 216.781 212.083 225.256 205.371C232.742 199.442 251.251 191.746 269.211 205.371C291.661 222.403 307.022 212.892 319.783 205.371" stroke="white" stroke-width="0.28125"/>
<path d="M139 202.836C146.169 197.159 165.138 189.211 183.665 202.836C202.192 216.462 216.781 209.548 225.256 202.836C232.742 196.907 251.251 189.211 269.211 202.836C291.661 219.868 307.022 210.357 319.783 202.836" stroke="white" stroke-width="0.28125"/>
<path d="M139 200.301C146.169 194.624 165.138 186.676 183.665 200.301C202.192 213.926 216.781 207.013 225.256 200.301C232.742 194.372 251.251 186.676 269.211 200.301C291.661 217.333 307.022 207.822 319.783 200.301" stroke="white" stroke-width="0.28125"/>
<path d="M139 197.766C146.169 192.089 165.138 184.141 183.665 197.766C202.192 211.391 216.781 204.478 225.256 197.766C232.742 191.837 251.251 184.141 269.211 197.766C291.661 214.798 307.022 205.286 319.783 197.766" stroke="white" stroke-width="0.28125"/>
<path d="M139 195.231C146.169 189.553 165.138 181.606 183.665 195.231C202.192 208.856 216.781 201.943 225.256 195.231C232.742 189.302 251.251 181.606 269.211 195.231C291.661 212.262 307.022 202.751 319.783 195.231" stroke="white" stroke-width="0.28125"/>
<path d="M139 192.696C146.169 187.018 165.138 179.07 183.665 192.696C202.192 206.321 216.781 199.408 225.256 192.696C232.742 186.767 251.251 179.07 269.211 192.696C291.661 209.727 307.022 200.216 319.783 192.696" stroke="white" stroke-width="0.28125"/>
<path d="M139 190.16C146.169 184.483 165.138 176.535 183.665 190.16C202.192 203.786 216.781 196.872 225.256 190.16C232.742 184.231 251.251 176.535 269.211 190.16C291.661 207.192 307.022 197.681 319.783 190.16" stroke="white" stroke-width="0.28125"/>
<path d="M139 187.625C146.169 181.948 165.138 174 183.665 187.625C202.192 201.251 216.781 194.337 225.256 187.625C232.742 181.696 251.251 174 269.211 187.625C291.661 204.657 307.022 195.146 319.783 187.625" stroke="white" stroke-width="0.28125"/>
<path d="M139 185.098C146.169 179.421 165.138 171.473 183.665 185.098C202.192 198.723 216.781 191.81 225.256 185.098C232.742 179.169 251.251 171.473 269.211 185.098C291.661 202.13 307.022 192.618 319.783 185.098" stroke="white" stroke-width="0.28125"/>
<path d="M139 182.555C146.169 176.878 165.138 168.93 183.665 182.555C202.192 196.18 216.781 189.267 225.256 182.555C232.742 176.626 251.251 168.93 269.211 182.555C291.661 199.587 307.022 190.075 319.783 182.555" stroke="white" stroke-width="0.28125"/>
<path d="M139 180.02C146.169 174.343 165.138 166.395 183.665 180.02C202.192 193.645 216.781 186.732 225.256 180.02C232.742 174.091 251.251 166.395 269.211 180.02C291.661 197.051 307.022 187.54 319.783 180.02" stroke="white" stroke-width="0.28125"/>
<path d="M139 248.469C146.169 242.792 165.138 234.844 183.665 248.469C202.192 262.094 216.781 255.181 225.256 248.469C232.742 242.54 251.251 234.844 269.211 248.469C291.661 265.501 307.022 255.989 319.783 248.469" stroke="white" stroke-width="0.28125"/>
<path d="M139 245.934C146.169 240.257 165.138 232.309 183.665 245.934C202.192 259.559 216.781 252.646 225.256 245.934C232.742 240.005 251.251 232.309 269.211 245.934C291.661 262.966 307.022 253.454 319.783 245.934" stroke="white" stroke-width="0.28125"/>
<path d="M139 243.399C146.169 237.722 165.138 229.773 183.665 243.399C202.192 257.024 216.781 250.111 225.256 243.399C232.742 237.47 251.251 229.773 269.211 243.399C291.661 260.43 307.022 250.919 319.783 243.399" stroke="white" stroke-width="0.28125"/>
<path d="M139 240.864C146.169 235.186 165.138 227.238 183.665 240.864C202.192 254.489 216.781 247.576 225.256 240.864C232.742 234.935 251.251 227.238 269.211 240.864C291.661 257.895 307.022 248.384 319.783 240.864" stroke="white" stroke-width="0.28125"/>
<path d="M139 238.328C146.169 232.651 165.138 224.703 183.665 238.328C202.192 251.954 216.781 245.04 225.256 238.328C232.742 232.399 251.251 224.703 269.211 238.328C291.661 255.36 307.022 245.849 319.783 238.328" stroke="white" stroke-width="0.28125"/>
<path d="M139 235.793C146.169 230.116 165.138 222.168 183.665 235.793C202.192 249.419 216.781 242.505 225.256 235.793C232.742 229.864 251.251 222.168 269.211 235.793C291.661 252.825 307.022 243.314 319.783 235.793" stroke="white" stroke-width="0.28125"/>
<path d="M139 233.258C146.169 227.581 165.138 219.633 183.665 233.258C202.192 246.883 216.781 239.97 225.256 233.258C232.742 227.329 251.251 219.633 269.211 233.258C291.661 250.29 307.022 240.779 319.783 233.258" stroke="white" stroke-width="0.28125"/>
<path d="M139 230.723C146.169 225.046 165.138 217.098 183.665 230.723C202.192 244.348 216.781 237.435 225.256 230.723C232.742 224.794 251.251 217.098 269.211 230.723C291.661 247.755 307.022 238.243 319.783 230.723" stroke="white" stroke-width="0.28125"/>
<path d="M139 228.188C146.169 222.511 165.138 214.563 183.665 228.188C202.192 241.813 216.781 234.9 225.256 228.188C232.742 222.259 251.251 214.563 269.211 228.188C291.661 245.219 307.022 235.708 319.783 228.188" stroke="white" stroke-width="0.28125"/>
<path d="M139 225.653C146.169 219.976 165.138 212.027 183.665 225.653C202.192 239.278 216.781 232.365 225.256 225.653C232.742 219.724 251.251 212.027 269.211 225.653C291.661 242.684 307.022 233.173 319.783 225.653" stroke="white" stroke-width="0.28125"/>
<path d="M139 223.118C146.169 217.44 165.138 209.492 183.665 223.118C202.192 236.743 216.781 229.829 225.256 223.118C232.742 217.188 251.251 209.492 269.211 223.118C291.661 240.149 307.022 230.638 319.783 223.118" stroke="white" stroke-width="0.28125"/>
<path d="M139 220.582C146.169 214.905 165.138 206.957 183.665 220.582C202.192 234.208 216.781 227.294 225.256 220.582C232.742 214.653 251.251 206.957 269.211 220.582C291.661 237.614 307.022 228.103 319.783 220.582" stroke="white" stroke-width="0.28125"/>
<path d="M139 218.047C146.169 212.37 165.138 204.422 183.665 218.047C202.192 231.673 216.781 224.759 225.256 218.047C232.742 212.118 251.251 204.422 269.211 218.047C291.661 235.079 307.022 225.568 319.783 218.047" stroke="white" stroke-width="0.28125"/>
<path d="M139 215.512C146.169 209.835 165.138 201.887 183.665 215.512C202.192 229.137 216.781 222.224 225.256 215.512C232.742 209.583 251.251 201.887 269.211 215.512C291.661 232.544 307.022 223.032 319.783 215.512" stroke="white" stroke-width="0.28125"/>
</g>
</g>
<path d="M215.756 173.131H158.339V175.742H215.756V173.131Z" fill="#A3A3A3"/>
<path d="M208.211 177.715H169.678V180.326H208.211V177.715Z" fill="#A3A3A3"/>
<path d="M243.748 182.295H165.406V184.906H243.748V182.295Z" fill="#A3A3A3"/>
<path d="M184.546 186.879H167.193V189.49H184.546V186.879Z" fill="#A3A3A3"/>
<path d="M201.142 198.287H162.609V200.898H201.142V198.287Z" fill="#A3A3A3"/>
<path d="M236.68 202.676H158.339V205.287H236.68V202.676Z" fill="#A3A3A3"/>
<path d="M227.357 207.061H163.698V209.672H227.357V207.061Z" fill="#A3A3A3"/>
<path d="M215.756 220.764H158.339V223.375H215.756V220.764Z" fill="#A3A3A3"/>
<path d="M243.748 229.928H165.406V232.539H243.748V229.928Z" fill="#A3A3A3"/>
<path d="M186.332 225.25H168.979V227.861H186.332V225.25Z" fill="#A3A3A3"/>
<path d="M215.756 243.436H158.339V246.047H215.756V243.436Z" fill="#A3A3A3"/>
<path d="M226.14 252.6H165.406V255.211H226.14V252.6Z" fill="#A3A3A3"/>
<path d="M197.05 247.922H168.979V250.533H197.05V247.922Z" fill="#A3A3A3"/>
<path d="M236.984 358.646L251.567 353.839L246.308 340.025L231.713 344.834C228.802 340.249 225.033 336.352 220.587 333.297L227.219 320.348L213.004 314.015L206.36 326.988C201.015 325.686 195.377 325.426 189.727 326.228L184.547 312.631L169.703 317.523L174.882 331.123C169.924 333.806 165.744 337.301 162.483 341.433L148.518 335.261L141.744 348.508L155.689 354.696C154.277 359.647 153.999 364.899 154.854 370.158L140.269 374.966L145.532 388.788L160.126 383.979C163.023 388.551 166.786 392.459 171.236 395.498L164.602 408.488L178.806 414.794L185.494 401.839C190.795 403.112 196.434 403.395 202.127 402.599L207.291 416.164L222.147 411.257L216.982 397.699C221.889 394.993 226.082 391.479 229.382 387.37L243.315 393.527L250.092 380.309L236.146 374.115C237.539 369.154 237.834 363.903 236.984 358.646ZM195.918 390.76C180.267 390.76 167.58 378.957 167.58 364.398C167.58 349.838 180.267 338.035 195.918 338.035C211.568 338.035 224.256 349.838 224.256 364.398C224.256 378.957 211.569 390.76 195.918 390.76Z" fill="#F0C0ED"/>
<path d="M324.592 210.482C323.106 209.853 322.497 208.451 323.162 207.094C323.827 205.737 325.323 205.259 326.837 205.901C328.295 206.519 328.917 207.896 328.24 209.278C327.588 210.608 326.05 211.101 324.592 210.482Z" fill="white"/>
<path d="M330.872 199.36C329.526 198.5 329.188 197.021 330.094 195.792C331.002 194.563 332.565 194.333 333.936 195.209C335.257 196.053 335.613 197.508 334.688 198.761C333.799 199.966 332.193 200.204 330.872 199.36Z" fill="#2EBEC7"/>
<path d="M339.123 189.418C337.958 188.354 337.9 186.843 339.023 185.779C340.145 184.715 341.728 184.741 342.915 185.825C344.059 186.869 344.138 188.36 342.994 189.444C341.893 190.488 340.267 190.462 339.123 189.418Z" fill="#866E85"/>
<path d="M349.107 180.965C348.159 179.729 348.385 178.231 349.69 177.366C350.996 176.501 352.549 176.784 353.514 178.043C354.444 179.257 354.242 180.738 352.912 181.62C351.632 182.469 350.036 182.18 349.107 180.965Z" fill="white"/>
<path d="M360.523 174.266C359.824 172.893 360.329 171.456 361.777 170.817C363.225 170.178 364.701 170.71 365.414 172.107C366.101 173.454 365.622 174.879 364.147 175.531C362.726 176.158 361.211 175.613 360.523 174.266Z" fill="#2EBEC7"/>
<path d="M373.03 169.53C372.597 168.065 373.363 166.731 374.909 166.336C376.454 165.941 377.808 166.703 378.249 168.194C378.674 169.632 377.937 170.958 376.363 171.361C374.847 171.749 373.455 170.967 373.03 169.53Z" fill="#866E85"/>
<path d="M386.231 166.874C386.076 165.362 387.077 164.171 388.672 164.029C390.268 163.888 391.461 164.856 391.619 166.396C391.771 167.88 390.799 169.068 389.174 169.212C387.608 169.351 386.383 168.358 386.231 166.874Z" fill="white"/>
<path d="M399.717 166.387C399.848 164.873 401.059 163.864 402.656 163.984C404.253 164.105 405.246 165.252 405.112 166.794C404.983 168.28 403.803 169.291 402.175 169.169C400.608 169.051 399.588 167.873 399.717 166.387Z" fill="#2EBEC7"/>
<path d="M413.089 168.108C413.504 166.639 414.885 165.842 416.436 166.221C417.986 166.599 418.747 167.89 418.324 169.387C417.917 170.829 416.565 171.633 414.985 171.247C413.464 170.875 412.682 169.55 413.089 168.108Z" fill="#866E85"/>
<path d="M425.934 171.975C426.617 170.595 428.127 170.034 429.582 170.658C431.039 171.281 431.546 172.676 430.851 174.081C430.181 175.435 428.699 176.008 427.215 175.372C425.787 174.761 425.265 173.329 425.934 171.975Z" fill="white"/>
<path d="M437.867 177.859C438.797 176.61 440.388 176.301 441.706 177.15C443.023 177.999 443.264 179.454 442.316 180.726C441.405 181.951 439.838 182.277 438.496 181.412C437.204 180.579 436.955 179.085 437.867 177.859Z" fill="#2EBEC7"/>
<path d="M448.52 185.575C449.668 184.495 451.293 184.447 452.433 185.495C453.572 186.544 453.537 188.016 452.368 189.116C451.241 190.176 449.637 190.243 448.477 189.175C447.359 188.146 447.393 186.635 448.52 185.575Z" fill="#866E85"/>
<path d="M457.569 194.895C458.903 194.018 460.512 194.235 461.436 195.452C462.362 196.67 462.051 198.114 460.693 199.007C459.384 199.867 457.793 199.673 456.851 198.433C455.943 197.238 456.261 195.755 457.569 194.895Z" fill="white"/>
<path d="M464.722 205.543C466.2 204.897 467.743 205.373 468.425 206.722C469.106 208.072 468.528 209.443 467.023 210.101C465.572 210.734 464.042 210.284 463.348 208.909C462.68 207.585 463.272 206.176 464.722 205.543Z" fill="#2EBEC7"/>
<path d="M469.762 217.192C471.339 216.795 472.77 217.513 473.189 218.952C473.607 220.391 472.783 221.648 471.178 222.053C469.631 222.442 468.208 221.751 467.781 220.285C467.37 218.873 468.216 217.582 469.762 217.192Z" fill="#866E85"/>
<path d="M472.568 229.484C474.195 229.346 475.471 230.283 475.617 231.767C475.762 233.252 474.718 234.358 473.061 234.499C471.465 234.635 470.191 233.726 470.043 232.213C469.9 230.756 470.972 229.62 472.568 229.484Z" fill="white"/>
<path d="M473.038 242.033C474.665 242.162 475.745 243.291 475.609 244.777C475.474 246.262 474.237 247.181 472.58 247.05C470.983 246.924 469.9 245.822 470.038 244.308C470.172 242.851 471.441 241.907 473.038 242.033Z" fill="#2EBEC7"/>
<path d="M471.137 254.466C472.715 254.857 473.566 256.145 473.153 257.586C472.74 259.027 471.349 259.729 469.742 259.331C468.194 258.947 467.335 257.685 467.756 256.218C468.161 254.804 469.589 254.081 471.137 254.466Z" fill="#866E85"/>
<path d="M466.93 266.4C468.41 267.041 469.007 268.448 468.331 269.8C467.655 271.151 466.154 271.619 464.647 270.966C463.193 270.337 462.584 268.956 463.272 267.579C463.936 266.253 465.477 265.772 466.93 266.4Z" fill="white"/>
<path d="M460.556 277.476C461.895 278.346 462.222 279.827 461.305 281.049C460.387 282.272 458.821 282.49 457.457 281.604C456.144 280.751 455.8 279.293 456.735 278.047C457.635 276.848 459.243 276.623 460.556 277.476Z" fill="#2EBEC7"/>
<path d="M186.627 360.668C186.627 360.698 186.624 360.731 186.624 360.762C186.624 369.402 191.382 376.405 197.244 376.405H448.794C454.656 376.405 459.407 369.402 459.407 360.762C459.407 360.731 459.407 360.698 459.407 360.668H186.627Z" fill="#EEECEC"/>
<path d="M362.867 368.534C362.867 370.562 361.1 372.203 358.921 372.203H287.114C284.932 372.203 283.165 370.562 283.165 368.534C283.165 366.508 284.932 364.863 287.114 364.863H358.921C361.1 364.863 362.867 366.508 362.867 368.534Z" fill="#546D7F"/>
<path d="M431.509 217.271H214.524C206.71 217.271 200.376 223.789 200.376 231.833V343.028C200.376 351.066 206.71 357.587 214.524 357.587H431.509C439.326 357.587 445.66 351.066 445.66 343.028V231.833C445.661 223.789 439.326 217.271 431.509 217.271ZM433.769 347.907H212.267V226.953H433.769V347.907Z" fill="#EEECEC"/>
<path d="M326.964 222.08C326.964 224.107 325.197 225.751 323.015 225.751C320.839 225.751 319.072 224.107 319.072 222.08C319.072 220.053 320.839 218.41 323.015 218.41C325.197 218.41 326.964 220.053 326.964 222.08Z" fill="#BFBDBD"/>
<path d="M431.949 226.953H212.267V347.841V347.907H433.769V226.953H431.949Z" fill="#78BFC2"/>
<mask id="mask1_1790_9660" style="mask-type:alpha" maskUnits="userSpaceOnUse" x="212" y="226" width="222" height="122">
<path d="M431.949 226.953H212.267V347.841V347.907H433.769V226.953H431.949Z" fill="#78BFC2"/>
</mask>
<g mask="url(#mask1_1790_9660)">
<g opacity="0.5">
<path d="M144 237.969C158.338 226.615 196.276 210.719 233.33 237.969C270.384 265.22 299.563 251.393 316.513 237.969C331.485 226.111 368.502 210.719 404.422 237.969C449.322 272.033 480.043 253.01 505.565 237.969" stroke="white" stroke-width="0.5625"/>
<path d="M144 232.899C158.338 221.545 196.276 205.649 233.33 232.899C270.384 260.15 299.563 246.323 316.513 232.899C331.485 221.041 368.502 205.649 404.422 232.899C449.322 266.962 480.043 247.94 505.565 232.899" stroke="white" stroke-width="0.5625"/>
<path d="M144 227.829C158.338 216.474 196.276 200.578 233.33 227.829C270.384 255.079 299.563 241.253 316.513 227.829C331.485 215.971 368.502 200.578 404.422 227.829C449.322 261.892 480.043 242.87 505.565 227.829" stroke="white" stroke-width="0.5625"/>
<path d="M144 222.758C158.338 211.404 196.276 195.508 233.33 222.758C270.384 250.009 299.563 236.182 316.513 222.758C331.485 210.9 368.502 195.508 404.422 222.758C449.322 256.822 480.043 237.799 505.565 222.758" stroke="white" stroke-width="0.5625"/>
<path d="M144 217.688C158.338 206.334 196.276 190.438 233.33 217.688C270.384 244.939 299.563 231.112 316.513 217.688C331.485 205.83 368.502 190.438 404.422 217.688C449.322 251.751 480.043 232.729 505.565 217.688" stroke="white" stroke-width="0.5625"/>
<path d="M144 212.618C158.338 201.263 196.276 185.367 233.33 212.618C270.384 239.868 299.563 226.042 316.513 212.618C331.485 200.76 368.502 185.367 404.422 212.618C449.322 246.681 480.043 227.659 505.565 212.618" stroke="white" stroke-width="0.5625"/>
<path d="M144 207.548C158.338 196.193 196.276 180.297 233.33 207.548C270.384 234.798 299.563 220.971 316.513 207.548C331.485 195.689 368.502 180.297 404.422 207.548C449.322 241.611 480.043 222.588 505.565 207.548" stroke="white" stroke-width="0.5625"/>
<path d="M144 308.954C158.338 297.599 196.276 281.703 233.33 308.954C270.384 336.204 299.563 322.378 316.513 308.954C331.485 297.096 368.502 281.703 404.422 308.954C449.322 343.017 480.043 323.995 505.565 308.954" stroke="white" stroke-width="0.5625"/>
<path d="M144 303.883C158.338 292.529 196.276 276.633 233.33 303.883C270.384 331.134 299.563 317.307 316.513 303.883C331.485 292.025 368.502 276.633 404.422 303.883C449.322 337.947 480.043 318.924 505.565 303.883" stroke="white" stroke-width="0.5625"/>
<path d="M144 298.813C158.338 287.459 196.276 271.563 233.33 298.813C270.384 326.064 299.563 312.237 316.513 298.813C331.485 286.955 368.502 271.563 404.422 298.813C449.322 332.876 480.043 313.854 505.565 298.813" stroke="white" stroke-width="0.5625"/>
<path d="M144 293.743C158.338 282.389 196.276 266.492 233.33 293.743C270.384 320.993 299.563 307.167 316.513 293.743C331.485 281.885 368.502 266.492 404.422 293.743C449.322 327.806 480.043 308.784 505.565 293.743" stroke="white" stroke-width="0.5625"/>
<path d="M144 288.673C158.338 277.318 196.276 261.422 233.33 288.673C270.384 315.923 299.563 302.096 316.513 288.673C331.485 276.814 368.502 261.422 404.422 288.673C449.322 322.736 480.043 303.714 505.565 288.673" stroke="white" stroke-width="0.5625"/>
<path d="M144 283.602C158.338 272.248 196.276 256.352 233.33 283.602C270.384 310.853 299.563 297.026 316.513 283.602C331.485 271.744 368.502 256.352 404.422 283.602C449.322 317.666 480.043 298.643 505.565 283.602" stroke="white" stroke-width="0.5625"/>
<path d="M144 278.532C158.338 267.177 196.276 251.281 233.33 278.532C270.384 305.782 299.563 291.956 316.513 278.532C331.485 266.674 368.502 251.281 404.422 278.532C449.322 312.595 480.043 293.573 505.565 278.532" stroke="white" stroke-width="0.5625"/>
<path d="M144 273.462C158.338 262.107 196.276 246.211 233.33 273.462C270.384 300.712 299.563 286.885 316.513 273.462C331.485 261.604 368.502 246.211 404.422 273.462C449.322 307.525 480.043 288.502 505.565 273.462" stroke="white" stroke-width="0.5625"/>
<path d="M144 268.391C158.338 257.037 196.276 241.141 233.33 268.391C270.384 295.642 299.563 281.815 316.513 268.391C331.485 256.533 368.502 241.141 404.422 268.391C449.322 302.455 480.043 283.432 505.565 268.391" stroke="white" stroke-width="0.5625"/>
<path d="M144 263.321C158.338 251.967 196.276 236.07 233.33 263.321C270.384 290.572 299.563 276.745 316.513 263.321C331.485 251.463 368.502 236.07 404.422 263.321C449.322 297.384 480.043 278.362 505.565 263.321" stroke="white" stroke-width="0.5625"/>
<path d="M144 258.251C158.338 246.896 196.276 231 233.33 258.251C270.384 285.501 299.563 271.674 316.513 258.251C331.485 246.393 368.502 231 404.422 258.251C449.322 292.314 480.043 273.291 505.565 258.251" stroke="white" stroke-width="0.5625"/>
<path d="M144 253.196C158.338 241.842 196.276 225.945 233.33 253.196C270.384 280.447 299.563 266.62 316.513 253.196C331.485 241.338 368.502 225.945 404.422 253.196C449.322 287.259 480.043 268.237 505.565 253.196" stroke="white" stroke-width="0.5625"/>
<path d="M144 248.11C158.338 236.755 196.276 220.859 233.33 248.11C270.384 275.36 299.563 261.534 316.513 248.11C331.485 236.252 368.502 220.859 404.422 248.11C449.322 282.173 480.043 263.151 505.565 248.11" stroke="white" stroke-width="0.5625"/>
<path d="M144 243.04C158.338 231.685 196.276 215.789 233.33 243.04C270.384 270.29 299.563 256.464 316.513 243.04C331.485 231.182 368.502 215.789 404.422 243.04C449.322 277.103 480.043 258.08 505.565 243.04" stroke="white" stroke-width="0.5625"/>
<path d="M144 374.868C158.338 363.514 196.276 347.617 233.33 374.868C270.384 402.118 299.563 388.292 316.513 374.868C331.485 363.01 368.502 347.617 404.422 374.868C449.322 408.931 480.043 389.909 505.565 374.868" stroke="white" stroke-width="0.5625"/>
<path d="M144 369.798C158.338 358.443 196.276 342.547 233.33 369.798C270.384 397.048 299.563 383.221 316.513 369.798C331.485 357.939 368.502 342.547 404.422 369.798C449.322 403.861 480.043 384.839 505.565 369.798" stroke="white" stroke-width="0.5625"/>
<path d="M144 364.727C158.338 353.373 196.276 337.477 233.33 364.727C270.384 391.978 299.563 378.151 316.513 364.727C331.485 352.869 368.502 337.477 404.422 364.727C449.322 398.79 480.043 379.768 505.565 364.727" stroke="white" stroke-width="0.5625"/>
<path d="M144 359.659C158.338 348.305 196.276 332.408 233.33 359.659C270.384 386.909 299.563 373.083 316.513 359.659C331.485 347.801 368.502 332.408 404.422 359.659C449.322 393.722 480.043 374.7 505.565 359.659" stroke="white" stroke-width="0.5625"/>
<path d="M144 354.589C158.338 343.234 196.276 327.338 233.33 354.589C270.384 381.839 299.563 368.012 316.513 354.589C331.485 342.73 368.502 327.338 404.422 354.589C449.322 388.652 480.043 369.629 505.565 354.589" stroke="white" stroke-width="0.5625"/>
<path d="M144 349.516C158.338 338.162 196.276 322.266 233.33 349.516C270.384 376.767 299.563 362.94 316.513 349.516C331.485 337.658 368.502 322.266 404.422 349.516C449.322 383.579 480.043 364.557 505.565 349.516" stroke="white" stroke-width="0.5625"/>
<path d="M144 344.446C158.338 333.092 196.276 317.196 233.33 344.446C270.384 371.696 299.563 357.87 316.513 344.446C331.485 332.588 368.502 317.196 404.422 344.446C449.322 378.509 480.043 359.487 505.565 344.446" stroke="white" stroke-width="0.5625"/>
<path d="M144 339.376C158.338 328.021 196.276 312.125 233.33 339.376C270.384 366.626 299.563 352.8 316.513 339.376C331.485 327.518 368.502 312.125 404.422 339.376C449.322 373.439 480.043 354.417 505.565 339.376" stroke="white" stroke-width="0.5625"/>
<path d="M144 334.305C158.338 322.951 196.276 307.055 233.33 334.305C270.384 361.556 299.563 347.729 316.513 334.305C331.485 322.447 368.502 307.055 404.422 334.305C449.322 368.369 480.043 349.346 505.565 334.305" stroke="white" stroke-width="0.5625"/>
<path d="M144 329.235C158.338 317.881 196.276 301.984 233.33 329.235C270.384 356.486 299.563 342.659 316.513 329.235C331.485 317.377 368.502 301.984 404.422 329.235C449.322 363.298 480.043 344.276 505.565 329.235" stroke="white" stroke-width="0.5625"/>
<path d="M144 324.165C158.338 312.81 196.276 296.914 233.33 324.165C270.384 351.415 299.563 337.589 316.513 324.165C331.485 312.307 368.502 296.914 404.422 324.165C449.322 358.228 480.043 339.206 505.565 324.165" stroke="white" stroke-width="0.5625"/>
<path d="M144 319.094C158.338 307.74 196.276 291.844 233.33 319.094C270.384 346.345 299.563 332.518 316.513 319.094C331.485 307.236 368.502 291.844 404.422 319.094C449.322 353.157 480.043 334.135 505.565 319.094" stroke="white" stroke-width="0.5625"/>
<path d="M144 314.024C158.338 302.67 196.276 286.774 233.33 314.024C270.384 341.274 299.563 327.448 316.513 314.024C331.485 302.166 368.502 286.774 404.422 314.024C449.322 348.087 480.043 329.065 505.565 314.024" stroke="white" stroke-width="0.5625"/>
</g>
</g>
<path d="M312.27 252.241C312.37 251.84 312.424 251.424 312.424 250.997C312.424 247.82 309.528 245.244 305.956 245.244C303.499 245.244 301.362 246.463 300.267 248.257C299.611 247.935 298.857 247.752 298.054 247.752C295.52 247.752 293.465 249.579 293.465 251.833C293.465 251.893 293.467 251.952 293.47 252.011H293.455C291.291 252.011 289.537 253.571 289.537 255.495C289.537 257.42 291.291 258.98 293.455 258.98H310.869C313.033 258.98 314.787 257.42 314.787 255.495C314.787 254.01 313.742 252.743 312.27 252.241Z" fill="white"/>
<path d="M377.264 294.6C377.181 294.266 377.136 293.92 377.136 293.565C377.136 290.922 379.545 288.779 382.516 288.779C384.56 288.779 386.338 289.793 387.249 291.286C387.795 291.018 388.422 290.865 389.089 290.865C391.197 290.865 392.906 292.385 392.906 294.261C392.906 294.31 392.905 294.359 392.903 294.408H392.915C394.715 294.408 396.174 295.706 396.174 297.307C396.174 298.908 394.715 300.205 392.915 300.205H378.429C376.629 300.205 375.17 298.908 375.17 297.307C375.17 296.071 376.039 295.017 377.264 294.6Z" fill="white"/>
<path d="M337.25 335.32C337.25 338.428 332.517 342.613 332.517 342.613C332.517 342.613 327.785 338.428 327.785 335.32C327.785 332.213 329.904 331.359 332.517 331.359C335.131 331.359 337.25 332.213 337.25 335.32Z" fill="#F38020"/>
<path d="M335.783 334.706C335.783 336.851 332.517 339.74 332.517 339.74C332.517 339.74 329.251 336.851 329.251 334.706C329.251 332.561 330.713 331.973 332.517 331.973C334.321 331.973 335.783 332.561 335.783 334.706Z" fill="#EEB31F"/>
<path d="M334.41 333.679C334.41 334.922 332.518 336.595 332.518 336.595C332.518 336.595 330.626 334.922 330.626 333.679C330.626 332.437 331.473 332.096 332.518 332.096C333.563 332.096 334.41 332.437 334.41 333.679Z" fill="#F7CB6B"/>
<path d="M328.656 324.201C328.656 324.201 322.14 327.383 322.14 334.279C322.14 334.279 322.547 335.036 323.198 334.127C323.85 333.218 324.42 330.718 328.574 330.718L328.656 324.201Z" fill="#F0C0ED"/>
<path d="M336.345 324.201C336.345 324.201 342.861 327.383 342.861 334.279C342.861 334.279 342.454 335.036 341.802 334.127C341.15 333.218 340.58 330.718 336.426 330.718L336.345 324.201Z" fill="#F0C0ED"/>
<path d="M339.736 317.5C339.736 314.677 339.223 312.02 338.459 309.695H332.501V312.054C334.705 312.054 336.492 313.716 336.492 315.767C336.492 317.818 334.705 319.48 332.501 319.48V331.413H336.4C338.406 328.478 339.736 323.343 339.736 317.5Z" fill="#DEF1F3"/>
<path d="M328.51 315.767C328.51 313.716 330.297 312.054 332.501 312.054V309.695H326.543C325.779 312.02 325.267 314.677 325.267 317.5C325.267 323.343 326.596 328.478 328.602 331.413H332.501V319.48C330.297 319.48 328.51 317.818 328.51 315.767Z" fill="#DEF1F3"/>
<path d="M328.658 331.426C328.557 331.426 328.476 331.502 328.476 331.595V332.387C328.476 332.481 328.557 332.557 328.658 332.557H332.502V331.426L328.658 331.426Z" fill="#E6C536"/>
<path d="M336.341 331.426H332.501V332.557H336.341C336.442 332.557 336.524 332.481 336.524 332.387V331.595C336.524 331.502 336.442 331.426 336.341 331.426Z" fill="#CDAF2F"/>
<path d="M335.236 315.768C335.236 317.173 334.011 318.312 332.501 318.312V319.481C334.705 319.481 336.492 317.818 336.492 315.768C336.492 313.717 334.705 312.055 332.501 312.055V313.224C334.011 313.224 335.236 314.363 335.236 315.768Z" fill="#CDAF2F"/>
<path d="M328.51 315.767C328.51 317.818 330.297 319.481 332.501 319.481V318.312C330.99 318.312 329.766 317.173 329.766 315.768C329.766 314.362 330.99 313.224 332.501 313.224V312.055C330.297 312.055 328.51 313.717 328.51 315.767Z" fill="#E6C536"/>
<path d="M335.236 315.767C335.236 314.361 334.011 313.223 332.501 313.223V318.311C334.011 318.311 335.236 317.172 335.236 315.767Z" fill="#498182"/>
<path d="M329.766 315.767C329.766 317.172 330.99 318.311 332.501 318.311V313.223C330.99 313.223 329.766 314.362 329.766 315.767Z" fill="#A5DBE2"/>
<path d="M332.5 300.988V309.698H338.458C336.755 304.514 333.801 300.988 332.5 300.988Z" fill="#F0C0ED"/>
<path d="M332.5 300.988C331.199 300.988 328.245 304.513 326.542 309.698H332.5V300.988Z" fill="#F0C0ED"/>
<path d="M332.751 326.089C332.731 326.084 332.71 326.08 332.688 326.08H332.683H332.5V334.585H332.705H332.711C332.826 334.585 332.919 334.499 332.919 334.392V334.133L332.926 333.76L333.503 326.921C333.503 326.228 332.878 326.119 332.751 326.089Z" fill="#F0C0ED"/>
<path d="M332.295 326.08H332.29C332.268 326.08 332.247 326.084 332.227 326.089C332.19 326.098 332.15 326.113 332.109 326.135C331.883 326.203 331.497 326.387 331.497 326.931L332.074 333.777L332.082 334.124V334.382C332.082 334.463 332.135 334.532 332.212 334.561C332.242 334.576 332.276 334.585 332.312 334.585H332.318H332.5V326.08H332.295Z" fill="#F0C0ED"/>
<path d="M251.828 322.566C251.771 322.335 251.74 322.096 251.74 321.85C251.74 320.022 253.406 318.541 255.46 318.541C256.874 318.541 258.103 319.242 258.732 320.274C259.11 320.089 259.543 319.983 260.005 319.983C261.463 319.983 262.645 321.035 262.645 322.331C262.645 322.365 262.644 322.399 262.642 322.433H262.65C263.895 322.433 264.904 323.33 264.904 324.437C264.904 325.544 263.895 326.442 262.65 326.442H252.634C251.39 326.442 250.381 325.544 250.381 324.437C250.381 323.583 250.982 322.854 251.828 322.566Z" fill="white"/>
<path d="M230.181 255.783C230.098 255.45 230.053 255.104 230.053 254.748C230.053 252.105 232.462 249.963 235.433 249.963C237.477 249.963 239.255 250.976 240.165 252.469C240.711 252.201 241.338 252.049 242.006 252.049C244.114 252.049 245.823 253.569 245.823 255.444C245.823 255.494 245.822 255.543 245.819 255.592H245.832C247.632 255.592 249.091 256.889 249.091 258.49C249.091 260.091 247.632 261.389 245.832 261.389H231.346C229.546 261.389 228.087 260.091 228.087 258.49C228.087 257.255 228.956 256.201 230.181 255.783Z" fill="white"/>
<path d="M268.728 249.119L268.579 249.129L263.149 249.496L257.627 249.123L257.569 249.119C254.125 250.08 252.981 251.754 252.852 251.96H257.973H268.233H273.446C273.316 251.754 272.172 250.08 268.728 249.119Z" fill="#498182"/>
<path d="M273.314 252.217H252.982C253.747 253.442 254.883 254.286 256.124 254.87L256.191 256.724C256.191 256.724 257.037 256.071 257.873 255.519C259.731 256.05 261.552 256.139 262.528 256.142V256.894C262.528 257.154 262.755 257.365 263.034 257.365C263.313 257.365 263.539 257.154 263.539 256.894V256.141C264.446 256.152 266.459 256.093 268.502 255.496C269.35 256.052 270.221 256.724 270.221 256.724L270.289 254.814C271.484 254.233 272.573 253.404 273.314 252.217Z" fill="#498182"/>
<path d="M257.568 250.643C257.568 250.919 257.328 251.142 257.031 251.142C256.735 251.142 256.495 250.919 256.495 250.643C256.495 250.368 256.735 250.145 257.031 250.145C257.328 250.145 257.568 250.368 257.568 250.643Z" fill="#EEECEC"/>
<path d="M270.001 250.643C270.001 250.919 269.761 251.142 269.464 251.142C269.168 251.142 268.928 250.919 268.928 250.643C268.928 250.368 269.168 250.145 269.464 250.145C269.761 250.145 270.001 250.368 270.001 250.643Z" fill="#EEECEC"/>
<path d="M260.676 250.755C260.676 251.03 260.436 251.254 260.14 251.254C259.843 251.254 259.604 251.03 259.604 250.755C259.604 250.479 259.843 250.256 260.14 250.256C260.436 250.256 260.676 250.48 260.676 250.755Z" fill="#EEECEC"/>
<path d="M266.892 250.755C266.892 251.03 266.652 251.254 266.355 251.254C266.059 251.254 265.819 251.03 265.819 250.755C265.819 250.479 266.059 250.256 266.355 250.256C266.652 250.256 266.892 250.48 266.892 250.755Z" fill="#EEECEC"/>
<path d="M263.784 250.889C263.784 251.165 263.544 251.389 263.248 251.389C262.951 251.389 262.711 251.165 262.711 250.889C262.711 250.614 262.951 250.391 263.248 250.391C263.544 250.391 263.784 250.614 263.784 250.889Z" fill="#EEECEC"/>
<path d="M263.353 244.553V243.675C263.548 243.6 263.686 243.422 263.686 243.214C263.686 242.938 263.445 242.715 263.149 242.715C262.853 242.715 262.613 242.938 262.613 243.214C262.613 243.422 262.751 243.6 262.946 243.675V244.549C260.26 244.619 258.057 246.459 257.628 248.861L263.149 249.234L268.58 248.867C268.159 246.49 265.999 244.663 263.353 244.553ZM258.951 248.675L258.419 248.646C258.419 245.527 262.679 244.974 262.679 244.974C258.575 246.576 258.951 248.675 258.951 248.675Z" fill="#EEECEC"/>
<path d="M379.975 275.316L379.825 275.326L374.395 275.693L368.873 275.32L368.815 275.316C365.372 276.277 364.227 277.951 364.098 278.158H369.219H379.479H384.692C384.562 277.951 383.418 276.277 379.975 275.316Z" fill="#498182"/>
<path d="M384.56 278.414H364.229C364.993 279.64 366.129 280.484 367.37 281.067L367.436 282.921C367.436 282.921 368.283 282.268 369.119 281.716C370.977 282.247 372.798 282.336 373.774 282.34V283.092C373.774 283.352 374 283.562 374.279 283.562C374.559 283.562 374.785 283.352 374.785 283.092V282.338C375.692 282.349 377.705 282.29 379.748 281.693C380.595 282.249 381.466 282.921 381.466 282.921L381.535 281.011C382.73 280.43 383.819 279.601 384.56 278.414Z" fill="#498182"/>
<path d="M368.814 276.84C368.814 277.116 368.574 277.34 368.278 277.34C367.982 277.34 367.741 277.116 367.741 276.84C367.741 276.565 367.982 276.342 368.278 276.342C368.574 276.342 368.814 276.565 368.814 276.84Z" fill="#EEECEC"/>
<path d="M381.246 276.84C381.246 277.116 381.007 277.34 380.71 277.34C380.414 277.34 380.174 277.116 380.174 276.84C380.174 276.565 380.414 276.342 380.71 276.342C381.007 276.342 381.246 276.565 381.246 276.84Z" fill="#EEECEC"/>
<path d="M371.922 276.952C371.922 277.228 371.682 277.451 371.386 277.451C371.09 277.451 370.85 277.228 370.85 276.952C370.85 276.677 371.09 276.453 371.386 276.453C371.682 276.453 371.922 276.677 371.922 276.952Z" fill="#EEECEC"/>
<path d="M378.138 276.952C378.138 277.228 377.898 277.451 377.602 277.451C377.305 277.451 377.065 277.228 377.065 276.952C377.065 276.677 377.305 276.453 377.602 276.453C377.898 276.453 378.138 276.677 378.138 276.952Z" fill="#EEECEC"/>
<path d="M375.031 277.086C375.031 277.362 374.791 277.586 374.494 277.586C374.198 277.586 373.958 277.362 373.958 277.086C373.958 276.811 374.198 276.588 374.494 276.588C374.791 276.588 375.031 276.811 375.031 277.086Z" fill="#EEECEC"/>
<path d="M374.599 270.75V269.872C374.794 269.797 374.932 269.619 374.932 269.411C374.932 269.135 374.692 268.912 374.395 268.912C374.099 268.912 373.859 269.136 373.859 269.411C373.859 269.62 373.997 269.798 374.192 269.872V270.747C371.507 270.817 369.303 272.656 368.874 275.059L374.395 275.431L379.826 275.065C379.405 272.687 377.245 270.86 374.599 270.75ZM370.197 274.872L369.665 274.843C369.665 271.724 373.926 271.171 373.926 271.171C369.821 272.774 370.197 274.872 370.197 274.872Z" fill="#EEECEC"/>
<path d="M297.937 281.397L297.788 281.406L292.357 281.773L286.836 281.401L286.778 281.396C283.334 282.357 282.19 284.031 282.061 284.238H287.182H297.442H302.655C302.524 284.031 301.38 282.358 297.937 281.397Z" fill="#498182"/>
<path d="M302.523 284.494H282.191C282.956 285.72 284.092 286.564 285.333 287.147L285.4 289.001C285.4 289.001 286.246 288.348 287.082 287.797C288.94 288.327 290.761 288.417 291.737 288.42V289.172C291.737 289.431 291.963 289.642 292.243 289.642C292.521 289.642 292.748 289.431 292.748 289.172V288.418C293.655 288.429 295.668 288.37 297.711 287.773C298.558 288.329 299.429 289.001 299.429 289.001L299.498 287.091C300.693 286.511 301.782 285.681 302.523 284.494Z" fill="#498182"/>
<path d="M286.777 282.921C286.777 283.196 286.537 283.42 286.24 283.42C285.944 283.42 285.704 283.196 285.704 282.921C285.704 282.645 285.944 282.422 286.24 282.422C286.537 282.422 286.777 282.645 286.777 282.921Z" fill="#EEECEC"/>
<path d="M299.21 282.921C299.21 283.196 298.969 283.42 298.673 283.42C298.377 283.42 298.137 283.196 298.137 282.921C298.137 282.645 298.377 282.422 298.673 282.422C298.969 282.422 299.21 282.645 299.21 282.921Z" fill="#EEECEC"/>
<path d="M289.885 283.032C289.885 283.308 289.645 283.531 289.349 283.531C289.052 283.531 288.812 283.308 288.812 283.032C288.812 282.757 289.052 282.533 289.349 282.533C289.645 282.533 289.885 282.757 289.885 283.032Z" fill="#EEECEC"/>
<path d="M296.101 283.032C296.101 283.308 295.861 283.531 295.564 283.531C295.268 283.531 295.028 283.308 295.028 283.032C295.028 282.757 295.268 282.533 295.564 282.533C295.861 282.533 296.101 282.757 296.101 283.032Z" fill="#EEECEC"/>
<path d="M292.993 283.167C292.993 283.442 292.753 283.666 292.457 283.666C292.16 283.666 291.92 283.442 291.92 283.167C291.92 282.891 292.16 282.668 292.457 282.668C292.753 282.668 292.993 282.891 292.993 283.167Z" fill="#EEECEC"/>
<path d="M292.561 276.83V275.952C292.756 275.878 292.894 275.699 292.894 275.491C292.894 275.216 292.653 274.992 292.357 274.992C292.061 274.992 291.821 275.216 291.821 275.491C291.821 275.7 291.959 275.878 292.154 275.952V276.827C289.468 276.897 287.265 278.736 286.836 281.139L292.357 281.511L297.788 281.145C297.367 278.767 295.207 276.94 292.561 276.83ZM288.159 280.952L287.627 280.923C287.627 277.805 291.887 277.251 291.887 277.251C287.783 278.854 288.159 280.952 288.159 280.952Z" fill="#EEECEC"/>
<path d="M414.021 244.631L413.872 244.641L408.441 245.008L402.92 244.635L402.862 244.631C399.418 245.592 398.274 247.266 398.145 247.472H403.266H413.526H418.739C418.609 247.266 417.464 245.592 414.021 244.631Z" fill="#498182"/>
<path d="M418.607 247.729H398.275C399.04 248.954 400.176 249.798 401.417 250.381L401.483 252.236C401.483 252.236 402.33 251.582 403.166 251.031C405.024 251.562 406.845 251.651 407.821 251.654V252.406C407.821 252.666 408.047 252.876 408.326 252.876C408.605 252.876 408.832 252.666 408.832 252.406V251.653C409.739 251.663 411.752 251.604 413.795 251.007C414.642 251.564 415.513 252.236 415.513 252.236L415.582 250.326C416.777 249.745 417.866 248.915 418.607 247.729Z" fill="#498182"/>
<path d="M402.861 246.155C402.861 246.43 402.621 246.654 402.324 246.654C402.028 246.654 401.788 246.43 401.788 246.155C401.788 245.88 402.029 245.656 402.324 245.656C402.621 245.656 402.861 245.88 402.861 246.155Z" fill="#EEECEC"/>
<path d="M415.293 246.155C415.293 246.43 415.053 246.654 414.757 246.654C414.461 246.654 414.221 246.43 414.221 246.155C414.221 245.88 414.461 245.656 414.757 245.656C415.053 245.656 415.293 245.88 415.293 246.155Z" fill="#EEECEC"/>
<path d="M405.969 246.267C405.969 246.542 405.729 246.766 405.433 246.766C405.136 246.766 404.896 246.542 404.896 246.267C404.896 245.991 405.136 245.768 405.433 245.768C405.729 245.768 405.969 245.991 405.969 246.267Z" fill="#EEECEC"/>
<path d="M412.185 246.267C412.185 246.542 411.945 246.766 411.649 246.766C411.352 246.766 411.112 246.542 411.112 246.267C411.112 245.991 411.352 245.768 411.649 245.768C411.945 245.768 412.185 245.991 412.185 246.267Z" fill="#EEECEC"/>
<path d="M409.078 246.401C409.078 246.677 408.838 246.9 408.541 246.9C408.245 246.9 408.005 246.677 408.005 246.401C408.005 246.126 408.245 245.902 408.541 245.902C408.838 245.902 409.078 246.126 409.078 246.401Z" fill="#EEECEC"/>
<path d="M408.646 240.065V239.187C408.841 239.112 408.978 238.934 408.978 238.725C408.978 238.45 408.739 238.227 408.442 238.227C408.146 238.227 407.906 238.45 407.906 238.725C407.906 238.934 408.044 239.112 408.239 239.187V240.061C405.554 240.131 403.35 241.971 402.921 244.373L408.442 244.746L413.873 244.379C413.452 242.001 411.291 240.174 408.646 240.065ZM404.244 244.187L403.712 244.157C403.712 241.039 407.973 240.485 407.973 240.485C403.868 242.088 404.244 244.187 404.244 244.187Z" fill="#EEECEC"/>
<path d="M403.914 252.302C403.972 252.071 404.003 251.832 404.003 251.586C404.003 249.759 402.337 248.277 400.283 248.277C398.869 248.277 397.64 248.978 397.01 250.01C396.633 249.825 396.199 249.72 395.738 249.72C394.28 249.72 393.098 250.771 393.098 252.067C393.098 252.102 393.099 252.136 393.101 252.169H393.092C391.848 252.169 390.839 253.067 390.839 254.174C390.839 255.281 391.848 256.178 393.092 256.178H403.108C404.353 256.178 405.362 255.281 405.362 254.174C405.362 253.319 404.761 252.591 403.914 252.302Z" fill="white"/>
<path d="M335.733 250.725L335.584 250.735L330.153 251.101L324.632 250.729L324.573 250.725C321.13 251.685 319.986 253.359 319.856 253.566H324.977H335.238H340.451C340.32 253.359 339.176 251.685 335.733 250.725Z" fill="#498182"/>
<path d="M340.319 253.822H319.987C320.752 255.048 321.888 255.892 323.129 256.475L323.195 258.329C323.195 258.329 324.042 257.676 324.878 257.125C326.736 257.656 328.557 257.745 329.533 257.748V258.5C329.533 258.76 329.759 258.97 330.038 258.97C330.318 258.97 330.543 258.76 330.543 258.5V257.747C331.451 257.757 333.464 257.698 335.507 257.101C336.354 257.657 337.225 258.329 337.225 258.329L337.294 256.419C338.489 255.839 339.578 255.009 340.319 253.822Z" fill="#498182"/>
<path d="M324.573 252.249C324.573 252.524 324.333 252.748 324.036 252.748C323.74 252.748 323.5 252.524 323.5 252.249C323.5 251.973 323.74 251.75 324.036 251.75C324.333 251.75 324.573 251.973 324.573 252.249Z" fill="#EEECEC"/>
<path d="M337.005 252.249C337.005 252.524 336.765 252.748 336.469 252.748C336.173 252.748 335.933 252.524 335.933 252.249C335.933 251.973 336.173 251.75 336.469 251.75C336.765 251.75 337.005 251.973 337.005 252.249Z" fill="#EEECEC"/>
<path d="M327.681 252.36C327.681 252.636 327.441 252.859 327.145 252.859C326.848 252.859 326.608 252.636 326.608 252.36C326.608 252.085 326.848 251.861 327.145 251.861C327.441 251.861 327.681 252.085 327.681 252.36Z" fill="#EEECEC"/>
<path d="M333.897 252.36C333.897 252.636 333.657 252.859 333.36 252.859C333.064 252.859 332.824 252.636 332.824 252.36C332.824 252.085 333.064 251.861 333.36 251.861C333.657 251.861 333.897 252.085 333.897 252.36Z" fill="#EEECEC"/>
<path d="M330.789 252.495C330.789 252.77 330.549 252.994 330.253 252.994C329.957 252.994 329.717 252.77 329.717 252.495C329.717 252.219 329.957 251.996 330.253 251.996C330.549 251.996 330.789 252.22 330.789 252.495Z" fill="#EEECEC"/>
<path d="M330.357 246.157V245.279C330.552 245.204 330.689 245.026 330.689 244.817C330.689 244.542 330.449 244.318 330.153 244.318C329.857 244.318 329.617 244.542 329.617 244.817C329.617 245.026 329.755 245.204 329.95 245.279V246.153C327.265 246.223 325.061 248.063 324.632 250.465L330.153 250.838L335.584 250.471C335.162 248.093 333.002 246.266 330.357 246.157ZM325.955 250.278L325.423 250.249C325.423 247.131 329.683 246.577 329.683 246.577C325.579 248.18 325.955 250.278 325.955 250.278Z" fill="#EEECEC"/>
<path d="M336.732 260.53C341.992 259.339 347.419 260.387 347.419 260.387C342.819 259.497 339.73 257.175 338.128 255.656C340.385 252.798 343.363 250.981 343.363 250.981C340.921 252.47 338.468 253 336.625 253.158C335.328 248.252 336.461 243.176 336.461 243.176C335.506 247.447 333.016 250.318 331.382 251.812C328.467 249.739 326.629 247.131 326.629 247.131C328.191 249.348 328.771 251.574 328.956 253.274C323.67 254.493 318.188 253.434 318.188 253.434C322.721 254.311 325.789 256.58 327.41 258.101C325.169 260.876 322.289 262.634 322.289 262.634C324.63 261.206 326.979 260.66 328.794 260.479C330.123 265.409 328.978 270.541 328.978 270.541C329.948 266.203 332.501 263.308 334.132 261.835C337.145 263.925 339.054 266.633 339.054 266.633C337.504 264.432 336.921 262.224 336.732 260.53Z" fill="#F38020"/>
<path d="M335.684 259.554C339.539 258.682 343.517 259.45 343.517 259.45C340.146 258.797 337.882 257.096 336.708 255.982C338.361 253.888 340.544 252.556 340.544 252.556C338.754 253.648 336.956 254.036 335.606 254.151C334.656 250.556 335.486 246.836 335.486 246.836C334.786 249.966 332.961 252.07 331.764 253.165C329.627 251.646 328.28 249.735 328.28 249.735C329.426 251.359 329.85 252.991 329.986 254.237C326.112 255.13 322.094 254.354 322.094 254.354C325.416 254.997 327.664 256.66 328.853 257.774C327.21 259.808 325.1 261.096 325.1 261.096C326.815 260.05 328.537 259.65 329.867 259.517C330.841 263.13 330.002 266.891 330.002 266.891C330.713 263.712 332.583 261.59 333.779 260.511C335.987 262.043 337.387 264.027 337.387 264.027C336.251 262.414 335.823 260.796 335.684 259.554Z" fill="#EEB31F"/>
<path d="M334.794 258.723C337.455 258.121 340.199 258.651 340.199 258.651C337.873 258.201 336.311 257.026 335.5 256.258C336.642 254.813 338.148 253.893 338.148 253.893C336.913 254.646 335.672 254.915 334.74 254.994C334.084 252.513 334.657 249.945 334.657 249.945C334.174 252.106 332.915 253.558 332.088 254.314C330.614 253.265 329.684 251.946 329.684 251.946C330.474 253.067 330.767 254.193 330.861 255.053C328.187 255.67 325.414 255.134 325.414 255.134C327.707 255.577 329.259 256.726 330.079 257.495C328.945 258.899 327.489 259.788 327.489 259.788C328.673 259.065 329.861 258.789 330.779 258.698C331.451 261.191 330.872 263.787 330.872 263.787C331.362 261.593 332.654 260.128 333.479 259.383C335.003 260.441 335.969 261.81 335.969 261.81C335.184 260.697 334.89 259.58 334.794 258.723Z" fill="#F7CB6B"/>
<path d="M332.293 296.287H332.711V298.488H332.293V296.287Z" fill="#F7CB6B"/>
<path d="M332.293 293.197H332.711V295.398H332.293V293.197Z" fill="#F7CB6B"/>
<path d="M332.293 290.107H332.711V292.308H332.293V290.107Z" fill="#F7CB6B"/>
<path d="M332.293 287.018H332.711V289.218H332.293V287.018Z" fill="#F7CB6B"/>
<path d="M332.293 283.928H332.711V286.129H332.293V283.928Z" fill="#F7CB6B"/>
<path d="M332.293 280.838H332.711V283.039H332.293V280.838Z" fill="#F7CB6B"/>
<path d="M332.293 277.748H332.711V279.949H332.293V277.748Z" fill="#F7CB6B"/>
<path d="M332.293 274.658H332.711V276.859H332.293V274.658Z" fill="#F7CB6B"/>
<path d="M332.293 271.568H332.711V273.769H332.293V271.568Z" fill="#F7CB6B"/>
<path d="M332.293 268.479H332.711V270.679H332.293V268.479Z" fill="#F7CB6B"/>
<path d="M332.293 265.389H332.711V267.589H332.293V265.389Z" fill="#F7CB6B"/>
<path d="M406.423 329.87C402.864 329.538 398.961 329.511 395.001 329.854C382.492 330.937 374.171 335.291 376.415 339.578C376.474 339.691 376.544 339.802 376.616 339.913L376.543 339.919C370.704 340.424 365.933 341.765 363.122 343.475C360.987 344.773 359.984 346.283 360.498 347.803L384.37 345.736L433.556 341.478V321.555C432.871 321.599 432.185 321.65 431.497 321.71C419.373 322.759 410.04 325.99 406.423 329.87Z" fill="#275768"/>
<path d="M393.964 338.561C390.654 337.936 386.849 337.578 382.801 337.578C370.012 337.578 359.645 341.132 359.645 345.515C359.645 345.534 359.645 345.553 359.646 345.572C362.193 346.249 364.46 347.037 366.394 347.908H433.556V333.341C430.151 332.928 426.485 332.703 422.667 332.703C410.27 332.703 399.488 335.072 393.964 338.561Z" fill="#1E485B"/>
<path d="M359.644 345.572C356.32 344.689 352.519 343.997 348.353 343.561C336.347 342.305 324.454 343.507 316.967 346.326C314.144 345.385 310.679 344.654 306.758 344.243C304.743 344.032 302.732 343.92 300.767 343.896C303.519 344.985 305.274 346.378 305.549 347.908H345.434H366.393C364.459 347.037 362.192 346.249 359.644 345.572Z" fill="#275768"/>
<path d="M300.767 343.896C297.142 342.463 291.79 341.555 285.82 341.555H285.745C285.758 341.441 285.77 341.326 285.77 341.211C285.77 336.827 275.403 333.274 262.614 333.274C258.565 333.274 254.761 333.631 251.45 334.257C245.926 330.768 235.144 328.398 222.748 328.398C219.082 328.398 215.557 328.606 212.268 328.988V347.908H281.142H305.55C305.274 346.378 303.519 344.985 300.767 343.896Z" fill="#1E485B"/>
<path d="M278.118 345.784C273.818 344.702 268.11 344.287 262.281 344.811L262.208 344.817C262.161 344.704 262.111 344.591 262.049 344.478C259.722 340.199 247.713 337.639 235.225 338.763C231.272 339.118 227.748 339.801 224.847 340.702C221.489 339.348 217.156 338.329 212.268 337.732V347.907H283.404C282.115 347.052 280.298 346.332 278.118 345.784Z" fill="#275768"/>
<path d="M480.212 142.123H472.177H405.847H397.811C381.635 142.123 369.335 156.942 369.335 171.984C369.335 187.031 382.115 201.855 398.294 201.855H405.365H472.659H479.73C495.908 201.855 508.689 187.031 508.689 171.984C508.689 156.942 496.39 142.123 480.212 142.123Z" fill="#F0C0ED"/>
<path d="M387.612 163.051H381.055V180.928H387.612V163.051Z" fill="#908F8F"/>
<path d="M393.943 168.939H374.722V175.04H393.943V168.939Z" fill="#908F8F"/>
<path d="M478.066 145.66H399.212V198.316H399.693H478.809V145.66H478.066Z" fill="#7EBFC7"/>
<path d="M477.535 146.843V197.13H400.486V146.843H477.535ZM478.809 145.658H478.066H399.212V198.314H399.693H478.809L478.809 145.658Z" fill="#908F8F"/>
<path d="M496.806 165.617C496.806 167.52 495.149 169.063 493.104 169.063C491.06 169.063 489.402 167.52 489.402 165.617C489.402 163.714 491.06 162.172 493.104 162.172C495.149 162.172 496.806 163.714 496.806 165.617Z" fill="#546D7F"/>
<path d="M496.806 178.361C496.806 180.264 495.149 181.805 493.104 181.805C491.06 181.805 489.402 180.264 489.402 178.361C489.402 176.459 491.06 174.914 493.104 174.914C495.149 174.914 496.806 176.459 496.806 178.361Z" fill="#546D7F"/>
<path d="M499.954 175.434C497.909 175.434 496.252 173.891 496.252 171.989C496.252 170.087 497.909 168.545 499.954 168.545C501.999 168.545 503.657 170.087 503.657 171.989C503.657 173.891 501.999 175.434 499.954 175.434Z" fill="#546D7F"/>
<path d="M486.255 175.434C484.21 175.434 482.553 173.891 482.553 171.989C482.553 170.087 484.21 168.545 486.255 168.545C488.3 168.545 489.961 170.087 489.961 171.989C489.961 173.891 488.3 175.434 486.255 175.434Z" fill="#546D7F"/>
<mask id="mask2_1790_9660" style="mask-type:alpha" maskUnits="userSpaceOnUse" x="400" y="146" width="78" height="52">
<path d="M476.703 146.93H400.539V197.074V197.102H477.334V146.93H476.703Z" fill="#78BFC2"/>
</mask>
<g mask="url(#mask2_1790_9660)">
<g opacity="0.5">
<path d="M394 170.485C401.169 164.808 420.138 156.859 438.665 170.485C457.192 184.11 471.781 177.197 480.256 170.485C487.742 164.556 506.251 156.859 524.211 170.485C546.661 187.516 562.022 178.005 574.783 170.485" stroke="white" stroke-width="0.28125"/>
<path d="M394 167.95C401.169 162.272 420.138 154.324 438.665 167.95C457.192 181.575 471.781 174.662 480.256 167.95C487.742 162.021 506.251 154.324 524.211 167.95C546.661 184.981 562.022 175.47 574.783 167.95" stroke="white" stroke-width="0.28125"/>
<path d="M394 165.414C401.169 159.737 420.138 151.789 438.665 165.414C457.192 179.04 471.781 172.126 480.256 165.414C487.742 159.485 506.251 151.789 524.211 165.414C546.661 182.446 562.022 172.935 574.783 165.414" stroke="white" stroke-width="0.28125"/>
<path d="M394 162.879C401.169 157.202 420.138 149.254 438.665 162.879C457.192 176.505 471.781 169.591 480.256 162.879C487.742 156.95 506.251 149.254 524.211 162.879C546.661 179.911 562.022 170.4 574.783 162.879" stroke="white" stroke-width="0.28125"/>
<path d="M394 160.344C401.169 154.667 420.138 146.719 438.665 160.344C457.192 173.969 471.781 167.056 480.256 160.344C487.742 154.415 506.251 146.719 524.211 160.344C546.661 177.376 562.022 167.865 574.783 160.344" stroke="white" stroke-width="0.28125"/>
<path d="M394 157.809C401.169 152.132 420.138 144.184 438.665 157.809C457.192 171.434 471.781 164.521 480.256 157.809C487.742 151.88 506.251 144.184 524.211 157.809C546.661 174.841 562.022 165.329 574.783 157.809" stroke="white" stroke-width="0.28125"/>
<path d="M394 155.274C401.169 149.597 420.138 141.648 438.665 155.274C457.192 168.899 471.781 161.986 480.256 155.274C487.742 149.345 506.251 141.648 524.211 155.274C546.661 172.305 562.022 162.794 574.783 155.274" stroke="white" stroke-width="0.28125"/>
<path d="M394 152.739C401.169 147.061 420.138 139.113 438.665 152.739C457.192 166.364 471.781 159.451 480.256 152.739C487.742 146.81 506.251 139.113 524.211 152.739C546.661 169.77 562.022 160.259 574.783 152.739" stroke="white" stroke-width="0.28125"/>
<path d="M394 150.203C401.169 144.526 420.138 136.578 438.665 150.203C457.192 163.829 471.781 156.915 480.256 150.203C487.742 144.274 506.251 136.578 524.211 150.203C546.661 167.235 562.022 157.724 574.783 150.203" stroke="white" stroke-width="0.28125"/>
<path d="M394 147.668C401.169 141.991 420.138 134.043 438.665 147.668C457.192 161.294 471.781 154.38 480.256 147.668C487.742 141.739 506.251 134.043 524.211 147.668C546.661 164.7 562.022 155.189 574.783 147.668" stroke="white" stroke-width="0.28125"/>
<path d="M394 145.133C401.169 139.456 420.138 131.508 438.665 145.133C457.192 158.758 471.781 151.845 480.256 145.133C487.742 139.204 506.251 131.508 524.211 145.133C546.661 162.165 562.022 152.654 574.783 145.133" stroke="white" stroke-width="0.28125"/>
<path d="M394 142.598C401.169 136.921 420.138 128.973 438.665 142.598C457.192 156.223 471.781 149.31 480.256 142.598C487.742 136.669 506.251 128.973 524.211 142.598C546.661 159.63 562.022 150.118 574.783 142.598" stroke="white" stroke-width="0.28125"/>
<path d="M394 205.977C401.169 200.3 420.138 192.352 438.665 205.977C457.192 219.602 471.781 212.689 480.256 205.977C487.742 200.048 506.251 192.352 524.211 205.977C546.661 223.009 562.022 213.497 574.783 205.977" stroke="white" stroke-width="0.28125"/>
<path d="M394 203.442C401.169 197.765 420.138 189.817 438.665 203.442C457.192 217.067 471.781 210.154 480.256 203.442C487.742 197.513 506.251 189.817 524.211 203.442C546.661 220.473 562.022 210.962 574.783 203.442" stroke="white" stroke-width="0.28125"/>
<path d="M394 200.907C401.169 195.229 420.138 187.281 438.665 200.907C457.192 214.532 471.781 207.618 480.256 200.907C487.742 194.978 506.251 187.281 524.211 200.907C546.661 217.938 562.022 208.427 574.783 200.907" stroke="white" stroke-width="0.28125"/>
<path d="M394 198.371C401.169 192.694 420.138 184.746 438.665 198.371C457.192 211.997 471.781 205.083 480.256 198.371C487.742 192.442 506.251 184.746 524.211 198.371C546.661 215.403 562.022 205.892 574.783 198.371" stroke="white" stroke-width="0.28125"/>
<path d="M394 195.836C401.169 190.159 420.138 182.211 438.665 195.836C457.192 209.462 471.781 202.548 480.256 195.836C487.742 189.907 506.251 182.211 524.211 195.836C546.661 212.868 562.022 203.357 574.783 195.836" stroke="white" stroke-width="0.28125"/>
<path d="M394 193.301C401.169 187.624 420.138 179.676 438.665 193.301C457.192 206.926 471.781 200.013 480.256 193.301C487.742 187.372 506.251 179.676 524.211 193.301C546.661 210.333 562.022 200.822 574.783 193.301" stroke="white" stroke-width="0.28125"/>
<path d="M394 190.766C401.169 185.089 420.138 177.141 438.665 190.766C457.192 204.391 471.781 197.478 480.256 190.766C487.742 184.837 506.251 177.141 524.211 190.766C546.661 207.798 562.022 198.286 574.783 190.766" stroke="white" stroke-width="0.28125"/>
<path d="M394 188.231C401.169 182.553 420.138 174.606 438.665 188.231C457.192 201.856 471.781 194.943 480.256 188.231C487.742 182.302 506.251 174.606 524.211 188.231C546.661 205.262 562.022 195.751 574.783 188.231" stroke="white" stroke-width="0.28125"/>
<path d="M394 185.696C401.169 180.018 420.138 172.07 438.665 185.696C457.192 199.321 471.781 192.408 480.256 185.696C487.742 179.767 506.251 172.07 524.211 185.696C546.661 202.727 562.022 193.216 574.783 185.696" stroke="white" stroke-width="0.28125"/>
<path d="M394 183.16C401.169 177.483 420.138 169.535 438.665 183.16C457.192 196.786 471.781 189.872 480.256 183.16C487.742 177.231 506.251 169.535 524.211 183.16C546.661 200.192 562.022 190.681 574.783 183.16" stroke="white" stroke-width="0.28125"/>
<path d="M394 180.625C401.169 174.948 420.138 167 438.665 180.625C457.192 194.251 471.781 187.337 480.256 180.625C487.742 174.696 506.251 167 524.211 180.625C546.661 197.657 562.022 188.146 574.783 180.625" stroke="white" stroke-width="0.28125"/>
<path d="M394 178.098C401.169 172.421 420.138 164.473 438.665 178.098C457.192 191.723 471.781 184.81 480.256 178.098C487.742 172.169 506.251 164.473 524.211 178.098C546.661 195.13 562.022 185.618 574.783 178.098" stroke="white" stroke-width="0.28125"/>
<path d="M394 175.555C401.169 169.878 420.138 161.93 438.665 175.555C457.192 189.18 471.781 182.267 480.256 175.555C487.742 169.626 506.251 161.93 524.211 175.555C546.661 192.587 562.022 183.075 574.783 175.555" stroke="white" stroke-width="0.28125"/>
<path d="M394 173.02C401.169 167.343 420.138 159.395 438.665 173.02C457.192 186.645 471.781 179.732 480.256 173.02C487.742 167.091 506.251 159.395 524.211 173.02C546.661 190.051 562.022 180.54 574.783 173.02" stroke="white" stroke-width="0.28125"/>
<path d="M394 208.512C401.169 202.835 420.138 194.887 438.665 208.512C457.192 222.137 471.781 215.224 480.256 208.512C487.742 202.583 506.251 194.887 524.211 208.512C546.661 225.544 562.022 216.032 574.783 208.512" stroke="white" stroke-width="0.28125"/>
</g>
</g>
<path d="M435.21 156.072C435.244 155.927 435.263 155.778 435.263 155.623C435.263 154.474 434.259 153.543 433.021 153.543C432.169 153.543 431.428 153.983 431.048 154.632C430.821 154.516 430.559 154.449 430.281 154.449C429.402 154.449 428.69 155.11 428.69 155.925C428.69 155.947 428.691 155.968 428.692 155.989H428.686C427.936 155.989 427.328 156.553 427.328 157.249C427.328 157.945 427.936 158.509 428.686 158.509H434.724C435.474 158.509 436.083 157.945 436.083 157.249C436.083 156.712 435.72 156.254 435.21 156.072Z" fill="white"/>
<path d="M460.631 175.503C460.602 175.382 460.587 175.257 460.587 175.128C460.587 174.173 461.422 173.398 462.452 173.398C463.161 173.398 463.777 173.765 464.093 174.304C464.282 174.208 464.5 174.153 464.73 174.153C465.462 174.153 466.054 174.702 466.054 175.38C466.054 175.398 466.054 175.416 466.053 175.433H466.057C466.681 175.433 467.187 175.903 467.187 176.481C467.187 177.06 466.681 177.529 466.057 177.529H461.035C460.411 177.529 459.905 177.06 459.905 176.481C459.905 176.035 460.206 175.653 460.631 175.503Z" fill="white"/>
<path d="M443.871 190.822C443.871 191.946 442.23 193.459 442.23 193.459C442.23 193.459 440.59 191.946 440.59 190.822C440.59 189.699 441.324 189.391 442.23 189.391C443.137 189.391 443.871 189.699 443.871 190.822Z" fill="#F38020"/>
<path d="M443.362 190.601C443.362 191.377 442.23 192.421 442.23 192.421C442.23 192.421 441.098 191.377 441.098 190.601C441.098 189.826 441.604 189.613 442.23 189.613C442.855 189.613 443.362 189.826 443.362 190.601Z" fill="#EEB31F"/>
<path d="M442.886 190.229C442.886 190.678 442.23 191.283 442.23 191.283C442.23 191.283 441.574 190.678 441.574 190.229C441.574 189.78 441.868 189.656 442.23 189.656C442.593 189.656 442.886 189.78 442.886 190.229Z" fill="#F7CB6B"/>
<path d="M440.891 186.805C440.891 186.805 438.632 187.955 438.632 190.448C438.632 190.448 438.773 190.722 438.999 190.393C439.225 190.064 439.422 189.161 440.863 189.161L440.891 186.805Z" fill="#F0C0ED"/>
<path d="M443.557 186.805C443.557 186.805 445.816 187.955 445.816 190.448C445.816 190.448 445.675 190.722 445.448 190.393C445.223 190.064 445.025 189.161 443.585 189.161L443.557 186.805Z" fill="#F0C0ED"/>
<path d="M444.733 184.382C444.733 183.361 444.555 182.401 444.291 181.561H442.225V182.413C442.989 182.413 443.609 183.014 443.609 183.755C443.609 184.496 442.989 185.098 442.225 185.098V189.411H443.576C444.272 188.35 444.733 186.494 444.733 184.382Z" fill="#DEF1F3"/>
<path d="M440.841 183.755C440.841 183.014 441.461 182.413 442.225 182.413V181.561H440.159C439.895 182.401 439.717 183.361 439.717 184.382C439.717 186.494 440.177 188.35 440.873 189.411H442.225V185.098C441.461 185.098 440.841 184.496 440.841 183.755Z" fill="#DEF1F3"/>
<path d="M440.892 189.416C440.857 189.416 440.829 189.443 440.829 189.477V189.763C440.829 189.797 440.857 189.825 440.892 189.825H442.225V189.416H440.892Z" fill="#E6C536"/>
<path d="M443.556 189.416H442.225V189.825H443.556C443.591 189.825 443.619 189.797 443.619 189.763V189.477C443.619 189.443 443.591 189.416 443.556 189.416Z" fill="#CDAF2F"/>
<path d="M443.173 183.756C443.173 184.264 442.749 184.676 442.225 184.676V185.099C442.989 185.099 443.609 184.497 443.609 183.756C443.609 183.015 442.989 182.414 442.225 182.414V182.837C442.749 182.837 443.173 183.248 443.173 183.756Z" fill="#CDAF2F"/>
<path d="M440.841 183.754C440.841 184.496 441.461 185.097 442.225 185.097V184.674C441.701 184.674 441.277 184.262 441.277 183.754C441.277 183.247 441.701 182.835 442.225 182.835V182.412C441.461 182.412 440.841 183.013 440.841 183.754Z" fill="#E6C536"/>
<path d="M443.173 183.755C443.173 183.248 442.749 182.836 442.225 182.836V184.675C442.749 184.675 443.173 184.264 443.173 183.755Z" fill="#498182"/>
<path d="M441.277 183.755C441.277 184.264 441.702 184.675 442.225 184.675V182.836C441.702 182.836 441.277 183.248 441.277 183.755Z" fill="#A5DBE2"/>
<path d="M442.225 178.412V181.561H444.291C443.7 179.687 442.676 178.412 442.225 178.412Z" fill="#F0C0ED"/>
<path d="M442.225 178.412C441.774 178.412 440.749 179.687 440.159 181.561H442.225V178.412Z" fill="#F0C0ED"/>
<path d="M442.312 187.486C442.305 187.484 442.298 187.482 442.29 187.482H442.288H442.225V190.557H442.296H442.298C442.338 190.557 442.37 190.526 442.37 190.487V190.394L442.373 190.259L442.572 187.787C442.572 187.537 442.356 187.497 442.312 187.486Z" fill="#F0C0ED"/>
<path d="M442.153 187.482H442.151C442.143 187.482 442.136 187.484 442.129 187.486C442.116 187.489 442.102 187.494 442.088 187.502C442.01 187.527 441.876 187.594 441.876 187.79L442.077 190.265L442.079 190.39V190.484C442.079 190.513 442.097 190.538 442.124 190.548C442.134 190.554 442.146 190.557 442.158 190.557H442.16H442.224V187.482H442.153Z" fill="#F0C0ED"/>
<path d="M414.255 181.494C414.235 181.411 414.225 181.324 414.225 181.235C414.225 180.575 414.802 180.039 415.514 180.039C416.004 180.039 416.43 180.293 416.649 180.666C416.78 180.599 416.93 180.561 417.09 180.561C417.596 180.561 418.006 180.941 418.006 181.409C418.006 181.422 418.004 181.434 418.004 181.446H418.007C418.438 181.446 418.788 181.77 418.788 182.171C418.788 182.571 418.438 182.895 418.007 182.895H414.534C414.103 182.895 413.753 182.571 413.753 182.171C413.753 181.862 413.962 181.598 414.255 181.494Z" fill="white"/>
<path d="M406.749 157.352C406.721 157.232 406.705 157.106 406.705 156.978C406.705 156.023 407.54 155.248 408.57 155.248C409.279 155.248 409.896 155.615 410.211 156.154C410.4 156.057 410.618 156.002 410.85 156.002C411.58 156.002 412.173 156.552 412.173 157.229C412.173 157.247 412.172 157.265 412.172 157.283H412.176C412.8 157.283 413.306 157.752 413.306 158.331C413.306 158.909 412.8 159.379 412.176 159.379H407.154C406.529 159.379 406.023 158.909 406.023 158.331C406.024 157.884 406.325 157.503 406.749 157.352Z" fill="white"/>
<path d="M420.113 154.941L420.062 154.945L418.178 155.078L416.264 154.943L416.244 154.941C415.05 155.289 414.654 155.894 414.608 155.968H416.384H419.941H421.748C421.704 155.894 421.307 155.289 420.113 154.941Z" fill="#498182"/>
<path d="M421.703 156.062H414.653C414.919 156.506 415.312 156.811 415.743 157.022L415.766 157.692C415.766 157.692 416.059 157.456 416.349 157.257C416.993 157.448 417.625 157.481 417.963 157.482V157.754C417.963 157.847 418.041 157.924 418.138 157.924C418.235 157.924 418.313 157.847 418.313 157.754V157.481C418.628 157.485 419.326 157.464 420.034 157.248C420.328 157.449 420.63 157.692 420.63 157.692L420.654 157.002C421.068 156.792 421.446 156.492 421.703 156.062Z" fill="#498182"/>
<path d="M416.244 155.493C416.244 155.593 416.161 155.673 416.058 155.673C415.956 155.673 415.872 155.593 415.872 155.493C415.872 155.393 415.956 155.312 416.058 155.312C416.161 155.313 416.244 155.393 416.244 155.493Z" fill="#F0C0ED"/>
<path d="M420.554 155.493C420.554 155.593 420.471 155.673 420.369 155.673C420.266 155.673 420.183 155.593 420.183 155.493C420.183 155.393 420.266 155.312 420.369 155.312C420.471 155.313 420.554 155.393 420.554 155.493Z" fill="#F0C0ED"/>
<path d="M417.322 155.532C417.322 155.632 417.238 155.713 417.135 155.713C417.032 155.713 416.949 155.632 416.949 155.532C416.949 155.433 417.032 155.352 417.135 155.352C417.238 155.352 417.322 155.433 417.322 155.532Z" fill="#F0C0ED"/>
<path d="M419.476 155.532C419.476 155.632 419.393 155.713 419.29 155.713C419.188 155.713 419.104 155.632 419.104 155.532C419.104 155.433 419.188 155.352 419.29 155.352C419.393 155.352 419.476 155.433 419.476 155.532Z" fill="#F0C0ED"/>
<path d="M418.399 155.58C418.399 155.68 418.316 155.761 418.214 155.761C418.111 155.761 418.027 155.68 418.027 155.58C418.027 155.481 418.111 155.4 418.214 155.4C418.316 155.4 418.399 155.481 418.399 155.58Z" fill="#F0C0ED"/>
<path d="M418.25 153.29V152.972C418.317 152.945 418.365 152.881 418.365 152.805C418.365 152.706 418.282 152.625 418.179 152.625C418.076 152.625 417.993 152.706 417.993 152.805C417.993 152.881 418.041 152.945 418.109 152.972V153.288C417.177 153.313 416.413 153.978 416.265 154.847L418.179 154.982L420.062 154.849C419.916 153.99 419.166 153.329 418.25 153.29ZM416.723 154.779L416.539 154.769C416.539 153.642 418.016 153.441 418.016 153.441C416.593 154.021 416.723 154.779 416.723 154.779Z" fill="#F0C0ED"/>
<path d="M459.647 167.457L459.595 167.461L457.713 167.593L455.798 167.459L455.778 167.457C454.584 167.805 454.187 168.41 454.143 168.485H455.918H459.475H461.283C461.237 168.41 460.841 167.805 459.647 167.457Z" fill="#498182"/>
<path d="M461.237 168.578H454.188C454.452 169.021 454.847 169.326 455.276 169.537L455.3 170.207C455.3 170.207 455.593 169.971 455.883 169.772C456.527 169.964 457.159 169.996 457.497 169.997V170.269C457.497 170.363 457.576 170.439 457.672 170.439C457.769 170.439 457.848 170.363 457.848 170.269V169.997C458.162 170 458.86 169.979 459.568 169.764C459.862 169.965 460.164 170.207 460.164 170.207L460.187 169.517C460.602 169.307 460.98 169.007 461.237 168.578Z" fill="#498182"/>
<path d="M455.778 168.008C455.778 168.108 455.695 168.189 455.592 168.189C455.489 168.189 455.406 168.108 455.406 168.008C455.406 167.909 455.489 167.828 455.592 167.828C455.695 167.828 455.778 167.909 455.778 168.008Z" fill="#F0C0ED"/>
<path d="M460.088 168.008C460.088 168.108 460.005 168.189 459.902 168.189C459.799 168.189 459.716 168.108 459.716 168.008C459.716 167.909 459.799 167.828 459.902 167.828C460.005 167.828 460.088 167.909 460.088 168.008Z" fill="#F0C0ED"/>
<path d="M456.855 168.047C456.855 168.147 456.772 168.228 456.669 168.228C456.566 168.228 456.483 168.147 456.483 168.047C456.483 167.948 456.566 167.867 456.669 167.867C456.772 167.867 456.855 167.948 456.855 168.047Z" fill="#F0C0ED"/>
<path d="M459.011 168.047C459.011 168.147 458.927 168.228 458.825 168.228C458.722 168.228 458.639 168.147 458.639 168.047C458.639 167.948 458.722 167.867 458.825 167.867C458.927 167.867 459.011 167.948 459.011 168.047Z" fill="#F0C0ED"/>
<path d="M457.933 168.096C457.933 168.196 457.849 168.277 457.746 168.277C457.644 168.277 457.561 168.196 457.561 168.096C457.561 167.997 457.644 167.916 457.746 167.916C457.849 167.916 457.933 167.997 457.933 168.096Z" fill="#F0C0ED"/>
<path d="M457.784 165.805V165.488C457.851 165.461 457.899 165.397 457.899 165.321C457.899 165.222 457.815 165.141 457.713 165.141C457.609 165.141 457.527 165.222 457.527 165.321C457.527 165.397 457.574 165.461 457.642 165.488V165.804C456.712 165.829 455.947 166.494 455.799 167.363L457.713 167.497L459.596 167.365C459.45 166.505 458.7 165.845 457.784 165.805ZM456.257 167.296L456.072 167.285C456.072 166.158 457.55 165.957 457.55 165.957C456.127 166.537 456.257 167.296 456.257 167.296Z" fill="#F0C0ED"/>
<path d="M430.241 166.611L430.189 166.615L428.306 166.748L426.393 166.613L426.372 166.611C425.178 166.959 424.782 167.564 424.736 167.639H426.512H430.069H431.877C431.832 167.564 431.435 166.959 430.241 166.611Z" fill="#498182"/>
<path d="M431.831 167.732H424.782C425.047 168.175 425.441 168.48 425.871 168.691L425.894 169.362C425.894 169.362 426.188 169.126 426.477 168.926C427.122 169.118 427.753 169.15 428.091 169.151V169.423C428.091 169.517 428.17 169.593 428.266 169.593C428.363 169.593 428.442 169.517 428.442 169.423V169.151C428.756 169.155 429.454 169.133 430.163 168.918C430.457 169.118 430.759 169.362 430.759 169.362L430.782 168.671C431.197 168.461 431.574 168.161 431.831 167.732Z" fill="#498182"/>
<path d="M426.372 167.163C426.372 167.262 426.288 167.343 426.186 167.343C426.083 167.343 426 167.262 426 167.163C426 167.063 426.083 166.982 426.186 166.982C426.288 166.982 426.372 167.063 426.372 167.163Z" fill="#F0C0ED"/>
<path d="M430.682 167.163C430.682 167.262 430.599 167.343 430.496 167.343C430.394 167.343 430.311 167.262 430.311 167.163C430.311 167.063 430.394 166.982 430.496 166.982C430.599 166.982 430.682 167.063 430.682 167.163Z" fill="#F0C0ED"/>
<path d="M427.45 167.202C427.45 167.301 427.366 167.382 427.263 167.382C427.161 167.382 427.077 167.301 427.077 167.202C427.077 167.103 427.161 167.021 427.263 167.021C427.366 167.021 427.45 167.103 427.45 167.202Z" fill="#F0C0ED"/>
<path d="M429.604 167.202C429.604 167.301 429.521 167.382 429.418 167.382C429.316 167.382 429.232 167.301 429.232 167.202C429.232 167.103 429.316 167.021 429.418 167.021C429.521 167.021 429.604 167.103 429.604 167.202Z" fill="#F0C0ED"/>
<path d="M428.527 167.251C428.527 167.35 428.444 167.431 428.341 167.431C428.238 167.431 428.155 167.35 428.155 167.251C428.155 167.151 428.238 167.07 428.341 167.07C428.444 167.07 428.527 167.151 428.527 167.251Z" fill="#F0C0ED"/>
<path d="M428.377 164.961V164.644C428.445 164.617 428.493 164.552 428.493 164.477C428.493 164.377 428.409 164.297 428.306 164.297C428.204 164.297 428.12 164.377 428.12 164.477C428.12 164.552 428.168 164.617 428.236 164.644V164.96C427.305 164.985 426.541 165.65 426.393 166.519L428.306 166.653L430.189 166.521C430.044 165.661 429.294 165.001 428.377 164.961ZM426.851 166.451L426.667 166.44C426.667 165.313 428.143 165.113 428.143 165.113C426.721 165.693 426.851 166.451 426.851 166.451Z" fill="#F0C0ED"/>
<path d="M470.488 153.322L470.436 153.326L468.553 153.458L466.639 153.323L466.619 153.322C465.425 153.67 465.028 154.274 464.983 154.349H466.758H470.316H472.123C472.078 154.274 471.681 153.67 470.488 153.322Z" fill="#498182"/>
<path d="M472.077 154.441H465.028C465.294 154.885 465.687 155.19 466.117 155.401L466.14 156.071C466.14 156.071 466.434 155.835 466.724 155.635C467.368 155.828 467.999 155.86 468.338 155.861V156.133C468.338 156.226 468.416 156.302 468.513 156.302C468.61 156.302 468.688 156.226 468.688 156.133V155.86C469.003 155.864 469.7 155.843 470.409 155.627C470.703 155.828 471.005 156.071 471.005 156.071L471.029 155.38C471.443 155.17 471.82 154.871 472.077 154.441Z" fill="#498182"/>
<path d="M466.619 153.874C466.619 153.973 466.536 154.054 466.433 154.054C466.331 154.054 466.247 153.973 466.247 153.874C466.247 153.774 466.331 153.693 466.433 153.693C466.536 153.693 466.619 153.774 466.619 153.874Z" fill="#F0C0ED"/>
<path d="M470.929 153.874C470.929 153.973 470.845 154.054 470.743 154.054C470.64 154.054 470.557 153.973 470.557 153.874C470.557 153.774 470.64 153.693 470.743 153.693C470.846 153.693 470.929 153.774 470.929 153.874Z" fill="#F0C0ED"/>
<path d="M467.696 153.913C467.696 154.012 467.612 154.094 467.51 154.094C467.407 154.094 467.324 154.012 467.324 153.913C467.324 153.813 467.407 153.732 467.51 153.732C467.612 153.732 467.696 153.813 467.696 153.913Z" fill="#F0C0ED"/>
<path d="M469.851 153.913C469.851 154.012 469.768 154.094 469.665 154.094C469.563 154.094 469.479 154.012 469.479 153.913C469.479 153.813 469.563 153.732 469.665 153.732C469.768 153.732 469.851 153.813 469.851 153.913Z" fill="#F0C0ED"/>
<path d="M468.773 153.962C468.773 154.061 468.69 154.142 468.588 154.142C468.484 154.142 468.401 154.061 468.401 153.962C468.401 153.862 468.484 153.781 468.588 153.781C468.69 153.781 468.773 153.862 468.773 153.962Z" fill="#F0C0ED"/>
<path d="M468.624 151.67V151.353C468.691 151.326 468.739 151.262 468.739 151.186C468.739 151.087 468.656 151.006 468.553 151.006C468.45 151.006 468.367 151.087 468.367 151.186C468.367 151.262 468.415 151.326 468.483 151.353V151.669C467.552 151.694 466.787 152.359 466.639 153.228L468.553 153.363L470.436 153.23C470.29 152.371 469.541 151.71 468.624 151.67ZM467.098 153.161L466.913 153.15C466.913 152.023 468.39 151.822 468.39 151.822C466.968 152.402 467.098 153.161 467.098 153.161Z" fill="#F0C0ED"/>
<path d="M466.983 156.094C467.003 156.01 467.014 155.924 467.014 155.835C467.014 155.174 466.437 154.639 465.724 154.639C465.234 154.639 464.808 154.892 464.59 155.265C464.459 155.198 464.308 155.16 464.149 155.16C463.643 155.16 463.233 155.54 463.233 156.009C463.233 156.021 463.233 156.034 463.235 156.046H463.232C462.8 156.046 462.45 156.37 462.45 156.77C462.45 157.171 462.8 157.495 463.232 157.495H466.704C467.136 157.495 467.485 157.171 467.485 156.77C467.485 156.461 467.277 156.198 466.983 156.094Z" fill="white"/>
<path d="M443.343 156.773L443.291 156.777L441.408 156.909L439.494 156.774L439.474 156.773C438.28 157.121 437.884 157.726 437.839 157.8H439.614H443.171H444.978C444.934 157.726 444.537 157.121 443.343 156.773Z" fill="#498182"/>
<path d="M444.933 157.893H437.884C438.149 158.336 438.543 158.641 438.973 158.852L438.996 159.522C438.996 159.522 439.29 159.286 439.579 159.086C440.224 159.278 440.855 159.31 441.193 159.312V159.584C441.193 159.677 441.272 159.754 441.369 159.754C441.465 159.754 441.544 159.677 441.544 159.584V159.311C441.859 159.315 442.556 159.294 443.264 159.078C443.558 159.279 443.86 159.522 443.86 159.522L443.884 158.831C444.298 158.622 444.676 158.322 444.933 157.893Z" fill="#498182"/>
<path d="M439.474 157.325C439.474 157.425 439.391 157.505 439.289 157.505C439.186 157.505 439.103 157.425 439.103 157.325C439.103 157.226 439.186 157.145 439.289 157.145C439.391 157.145 439.474 157.226 439.474 157.325Z" fill="#F0C0ED"/>
<path d="M443.784 157.325C443.784 157.425 443.701 157.505 443.598 157.505C443.495 157.505 443.412 157.425 443.412 157.325C443.412 157.226 443.495 157.145 443.598 157.145C443.701 157.145 443.784 157.226 443.784 157.325Z" fill="#F0C0ED"/>
<path d="M440.552 157.364C440.552 157.464 440.469 157.545 440.366 157.545C440.263 157.545 440.18 157.464 440.18 157.364C440.18 157.265 440.263 157.184 440.366 157.184C440.469 157.184 440.552 157.265 440.552 157.364Z" fill="#F0C0ED"/>
<path d="M442.706 157.364C442.706 157.464 442.623 157.545 442.52 157.545C442.418 157.545 442.335 157.464 442.335 157.364C442.335 157.265 442.418 157.184 442.52 157.184C442.623 157.184 442.706 157.265 442.706 157.364Z" fill="#F0C0ED"/>
<path d="M441.629 157.412C441.629 157.512 441.546 157.593 441.443 157.593C441.34 157.593 441.257 157.512 441.257 157.412C441.257 157.313 441.34 157.232 441.443 157.232C441.546 157.232 441.629 157.313 441.629 157.412Z" fill="#F0C0ED"/>
<path d="M441.48 155.124V154.806C441.548 154.779 441.595 154.715 441.595 154.639C441.595 154.54 441.512 154.459 441.409 154.459C441.306 154.459 441.223 154.54 441.223 154.639C441.223 154.715 441.271 154.779 441.339 154.806V155.122C440.408 155.147 439.644 155.813 439.495 156.681L441.409 156.816L443.292 156.683C443.146 155.824 442.397 155.163 441.48 155.124ZM439.954 156.614L439.769 156.603C439.769 155.476 441.246 155.275 441.246 155.275C439.824 155.855 439.954 156.614 439.954 156.614Z" fill="#F0C0ED"/>
<path d="M443.691 160.321C445.515 159.89 447.396 160.269 447.396 160.269C445.801 159.947 444.73 159.108 444.175 158.558C444.957 157.525 445.99 156.869 445.99 156.869C445.143 157.407 444.293 157.599 443.654 157.656C443.204 155.882 443.597 154.047 443.597 154.047C443.266 155.591 442.403 156.629 441.836 157.169C440.826 156.42 440.188 155.477 440.188 155.477C440.73 156.278 440.931 157.083 440.995 157.698C439.163 158.138 437.262 157.755 437.262 157.755C438.833 158.073 439.897 158.893 440.459 159.443C439.682 160.446 438.683 161.081 438.683 161.081C439.495 160.565 440.31 160.368 440.939 160.302C441.4 162.085 441.002 163.94 441.002 163.94C441.338 162.372 442.224 161.325 442.79 160.793C443.834 161.548 444.496 162.527 444.496 162.527C443.958 161.731 443.756 160.933 443.691 160.321Z" fill="#F38020"/>
<path d="M443.327 159.969C444.664 159.653 446.043 159.931 446.043 159.931C444.874 159.695 444.089 159.08 443.682 158.677C444.256 157.92 445.012 157.439 445.012 157.439C444.392 157.834 443.769 157.974 443.3 158.016C442.971 156.716 443.258 155.371 443.258 155.371C443.016 156.503 442.383 157.264 441.968 157.659C441.227 157.11 440.761 156.419 440.761 156.419C441.157 157.006 441.305 157.596 441.351 158.047C440.009 158.37 438.615 158.089 438.615 158.089C439.767 158.321 440.547 158.922 440.959 159.325C440.389 160.061 439.658 160.526 439.658 160.526C440.252 160.148 440.849 160.004 441.31 159.955C441.648 161.262 441.357 162.621 441.357 162.621C441.604 161.472 442.252 160.705 442.667 160.315C443.432 160.868 443.918 161.585 443.918 161.585C443.523 161.003 443.376 160.417 443.327 159.969Z" fill="#EEB31F"/>
<path d="M443.019 159.669C443.941 159.452 444.893 159.643 444.893 159.643C444.086 159.481 443.545 159.056 443.264 158.778C443.66 158.256 444.182 157.923 444.182 157.923C443.754 158.195 443.323 158.293 443 158.321C442.773 157.424 442.971 156.496 442.971 156.496C442.804 157.277 442.367 157.802 442.081 158.075C441.569 157.696 441.247 157.219 441.247 157.219C441.521 157.624 441.623 158.032 441.655 158.342C440.728 158.566 439.767 158.372 439.767 158.372C440.562 158.532 441.1 158.947 441.384 159.225C440.991 159.732 440.486 160.054 440.486 160.054C440.896 159.793 441.309 159.693 441.627 159.66C441.86 160.562 441.659 161.5 441.659 161.5C441.829 160.707 442.277 160.177 442.563 159.908C443.091 160.29 443.426 160.785 443.426 160.785C443.154 160.383 443.052 159.979 443.019 159.669Z" fill="#F7CB6B"/>
<path d="M442.151 176.658H442.296V177.571H442.151V176.658Z" fill="#F7CB6B"/>
<path d="M442.151 175.377H442.296V176.29H442.151V175.377Z" fill="#F7CB6B"/>
<path d="M442.151 174.096H442.296V175.008H442.151V174.096Z" fill="#F7CB6B"/>
<path d="M442.151 172.814H442.296V173.727H442.151V172.814Z" fill="#F7CB6B"/>
<path d="M442.151 171.533H442.296V172.446H442.151V171.533Z" fill="#F7CB6B"/>
<path d="M442.151 170.25H442.296V171.163H442.151V170.25Z" fill="#F7CB6B"/>
<path d="M442.151 168.969H442.296V169.881H442.151V168.969Z" fill="#F7CB6B"/>
<path d="M442.151 167.688H442.296V168.6H442.151V167.688Z" fill="#F7CB6B"/>
<path d="M442.151 166.406H442.296V167.319H442.151V166.406Z" fill="#F7CB6B"/>
<path d="M442.151 165.123H442.296V166.036H442.151V165.123Z" fill="#F7CB6B"/>
<path d="M442.151 163.842H442.296V164.754H442.151V163.842Z" fill="#F7CB6B"/>
<path d="M467.852 189.619C466.619 189.482 465.265 189.47 463.892 189.613C459.555 190.062 456.67 191.867 457.448 193.646C457.469 193.693 457.493 193.739 457.518 193.785L457.493 193.788C455.468 193.997 453.814 194.553 452.84 195.262C452.099 195.801 451.752 196.428 451.93 197.058L460.206 196.201L477.259 194.434V186.17C477.022 186.188 476.784 186.209 476.545 186.234C472.342 186.67 469.106 188.01 467.852 189.619Z" fill="#275768"/>
<path d="M463.532 193.223C462.385 192.963 461.065 192.815 459.662 192.815C455.228 192.815 451.634 194.289 451.634 196.107C451.634 196.115 451.634 196.123 451.634 196.131C452.517 196.412 453.303 196.739 453.973 197.1H477.259V191.057C476.078 190.886 474.807 190.793 473.484 190.793C469.185 190.793 465.447 191.775 463.532 193.223Z" fill="#1E485B"/>
<path d="M451.634 196.132C450.482 195.766 449.163 195.479 447.719 195.298C443.557 194.777 439.433 195.275 436.837 196.445C435.858 196.054 434.657 195.751 433.298 195.581C432.599 195.494 431.902 195.447 431.221 195.437C432.175 195.889 432.783 196.466 432.879 197.101H446.707H453.973C453.303 196.74 452.517 196.413 451.634 196.132Z" fill="#275768"/>
<path d="M431.221 195.437C429.964 194.842 428.108 194.465 426.039 194.465H426.013C426.017 194.418 426.022 194.371 426.022 194.323C426.022 192.504 422.427 191.031 417.993 191.031C416.59 191.031 415.271 191.178 414.122 191.438C412.207 189.991 408.469 189.008 404.172 189.008C402.9 189.008 401.679 189.094 400.538 189.252V197.101H424.417H432.879C432.784 196.466 432.175 195.888 431.221 195.437Z" fill="#1E485B"/>
<path d="M423.368 196.221C421.878 195.772 419.899 195.6 417.878 195.817L417.852 195.82C417.836 195.773 417.819 195.726 417.797 195.679C416.99 193.904 412.827 192.842 408.498 193.308C407.127 193.455 405.905 193.739 404.899 194.113C403.735 193.551 402.233 193.128 400.538 192.881V197.101H425.202C424.754 196.747 424.124 196.448 423.368 196.221Z" fill="#275768"/>
<path d="M501.912 293.525H484.367V318.441H501.912V293.525Z" fill="#00A4A1"/>
<path d="M488.021 297.053V305.984C488.021 307.299 489.167 308.365 490.581 308.365C490.665 308.365 490.748 308.361 490.829 308.353V294.684C490.748 294.676 490.665 294.672 490.581 294.672C489.167 294.672 488.021 295.737 488.021 297.053Z" fill="#01B9AF"/>
<path d="M507.912 328.146V300.312C507.912 300.312 507.761 289.087 492.569 288.301C492.017 288.272 491.449 288.256 490.857 288.256C490.848 288.256 490.838 288.256 490.829 288.256V294.683C492.125 294.798 493.14 295.815 493.14 297.052V305.983C493.14 307.22 492.125 308.237 490.829 308.353V342.892C491.243 342.888 491.65 342.879 492.044 342.861C505.637 342.238 507.307 333.319 507.512 331.261C507.939 329.441 507.912 328.146 507.912 328.146Z" fill="white"/>
<path d="M490.58 308.364C489.166 308.364 488.02 307.297 488.02 305.983V297.052C488.02 295.736 489.166 294.671 490.58 294.671C490.664 294.671 490.747 294.675 490.829 294.682V288.256C490.314 288.256 489.812 288.268 489.328 288.29C475.737 288.913 474.066 297.833 473.861 299.89C473.433 301.711 473.46 303.005 473.46 303.005V330.839C473.46 330.839 473.611 342.065 488.804 342.85C489.355 342.879 489.923 342.895 490.515 342.895C490.621 342.895 490.724 342.892 490.829 342.892V308.352C490.747 308.359 490.664 308.364 490.58 308.364Z" fill="#E5E6E6"/>
<path d="M498.145 379.469C498.145 380.632 497.131 381.575 495.882 381.575H479.846C478.595 381.575 477.581 380.632 477.581 379.469V364.551C477.581 363.388 478.595 362.445 479.846 362.445H495.882C497.131 362.445 498.145 363.388 498.145 364.551V379.469Z" fill="#F0C0ED"/>
<path d="M491.674 371.144L487.89 366.512L484.052 371.144H487.007V377.51H488.719V371.144H491.674Z" fill="#475059"/>
<path d="M503.427 401.948C502.177 401.948 501.163 401.005 501.163 399.842V384.924C501.163 383.761 502.177 382.818 503.427 382.818H519.463C520.713 382.818 521.728 383.761 521.728 384.924V399.842C521.728 401.005 520.713 401.948 519.463 401.948H503.427Z" fill="#F0C0ED"/>
<path d="M512.377 395.928L517.357 392.408L512.377 388.838V391.588H505.533V393.179H512.377V395.928Z" fill="#475059"/>
<path d="M471.733 382.818C472.983 382.818 473.997 383.761 473.997 384.924V399.842C473.997 401.005 472.983 401.948 471.733 401.948H455.696C454.446 401.948 453.433 401.005 453.433 399.842V384.924C453.433 383.761 454.446 382.818 455.696 382.818H471.733Z" fill="#F0C0ED"/>
<path d="M462.783 388.838L457.803 392.358L462.783 395.928V393.179H469.626V391.588H462.783V388.838Z" fill="#475059"/>
<path d="M477.298 384.924C477.298 383.761 478.311 382.818 479.562 382.818H495.598C496.849 382.818 497.863 383.761 497.863 384.924V399.842C497.863 401.005 496.849 401.948 495.598 401.948H479.562C478.311 401.948 477.298 401.005 477.298 399.842V384.924Z" fill="#F0C0ED"/>
<path d="M483.769 393.251L487.553 397.883L491.391 393.251H488.436V386.885H486.724V393.251H483.769Z" fill="#475059"/>
<path d="M361.128 387.809L361.2 387.691H289.84L289.912 387.809C277.528 388.979 267.866 398.707 267.866 410.535C267.866 423.151 278.859 433.378 292.422 433.378C302.801 433.378 311.657 427.378 315.249 418.91H335.79C339.384 427.378 348.239 433.378 358.619 433.378C372.18 433.378 383.174 423.151 383.174 410.535C383.174 398.707 373.511 388.979 361.128 387.809Z" fill="white"/>
<path d="M301.714 405.331H295.984V400H286.981V405.331H281.252V413.706H286.981V419.037H295.984V413.706H301.714V405.331Z" fill="#6DBAC1"/>
<path d="M365.228 401.772C365.228 404.739 362.643 407.143 359.453 407.143C356.263 407.143 353.679 404.739 353.679 401.772C353.679 398.805 356.263 396.4 359.453 396.4C362.643 396.4 365.228 398.805 365.228 401.772Z" fill="#6DBAC1"/>
<path d="M365.228 420.819C365.228 423.786 362.643 426.19 359.453 426.19C356.263 426.19 353.679 423.786 353.679 420.819C353.679 417.851 356.263 415.447 359.453 415.447C362.643 415.447 365.228 417.851 365.228 420.819Z" fill="#FFE29D"/>
<path d="M369.69 416.667C366.5 416.667 363.915 414.264 363.915 411.296C363.915 408.329 366.5 405.924 369.69 405.924C372.879 405.924 375.465 408.329 375.465 411.296C375.465 414.264 372.879 416.667 369.69 416.667Z" fill="#866E85"/>
<path d="M349.216 416.667C346.026 416.667 343.441 414.264 343.441 411.296C343.441 408.329 346.026 405.924 349.216 405.924C352.403 405.924 354.991 408.329 354.991 411.296C354.991 414.264 352.403 416.667 349.216 416.667Z" fill="#866E85"/>
<path d="M322.446 408.699C322.446 409.751 321.53 410.605 320.396 410.605H314.505C313.373 410.605 312.457 409.751 312.457 408.699C312.457 407.647 313.373 406.793 314.505 406.793H320.396C321.53 406.793 322.446 407.647 322.446 408.699Z" fill="#FFE29D"/>
<path d="M338.583 408.699C338.583 409.751 337.665 410.605 336.533 410.605H330.642C329.51 410.605 328.593 409.751 328.593 408.699C328.593 407.647 329.51 406.793 330.642 406.793H336.533C337.665 406.793 338.583 407.647 338.583 408.699Z" fill="#6DBAC1"/>
<path d="M335.201 386.833C335.201 388.988 333.322 390.735 331.005 390.735H320.034C317.717 390.735 315.84 388.988 315.84 386.833C315.84 384.677 317.717 382.93 320.034 382.93H331.005C333.322 382.93 335.201 384.677 335.201 386.833Z" fill="white"/>
</svg>
