<svg width="7779" height="4558" viewBox="0 0 7779 4558" fill="none" xmlns="http://www.w3.org/2000/svg">
<path d="M29.0809 860.733C2319.39 5072.16 6642.84 4510.67 6708.4 4553.95C7713.32 3149.48 8760.83 1443.49 6068.11 2043.5C2702.15 2793.51 1613.64 617.041 1330.48 301.186C1043.07 -19.4177 1018.51 85.9749 1044.49 182.549C1071.97 284.722 1234.68 488.832 1235.02 555.026C1235.37 621.223 652.365 2.12643 524.198 0.00713051C396.031 -2.11224 809.788 468.824 900.624 598.857C973.294 702.885 951.831 728.594 916.012 691.469C744.453 513.667 369.568 152.764 242.492 131.576C83.6467 105.09 566.451 671.065 658.058 805.728C731.344 913.46 699.074 918.4 671.701 886.649C495.784 682.608 119.905 284.864 22.9093 316.508C-98.3353 356.063 293.458 758.909 454.283 1021.71C582.942 1231.95 431.448 1119.33 339.616 1036.75C-6.36037 646.819 -25.26 760.813 29.0809 860.733Z" fill="white"/>
</svg>
