<svg width="627" height="815" viewBox="0 0 627 815" fill="none" xmlns="http://www.w3.org/2000/svg">
<rect x="0.5" y="0.5" width="626" height="814" rx="30.5" fill="#171A1A"/>
<rect x="0.5" y="0.5" width="626" height="814" rx="30.5" stroke="#413E44"/>
<line x1="62" y1="113.5" x2="565" y2="113.5" stroke="white" stroke-opacity="0.15"/>
<line x1="62" y1="183.5" x2="565" y2="183.5" stroke="white" stroke-opacity="0.15"/>
<line x1="62" y1="253.5" x2="565" y2="253.5" stroke="white" stroke-opacity="0.15"/>
<line x1="62" y1="323.5" x2="565" y2="323.5" stroke="white" stroke-opacity="0.15"/>
<line x1="62" y1="393.5" x2="565" y2="393.5" stroke="white" stroke-opacity="0.15"/>
<line x1="62" y1="463.5" x2="565" y2="463.5" stroke="white" stroke-opacity="0.15"/>
<line x1="62" y1="533.5" x2="565" y2="533.5" stroke="white" stroke-opacity="0.15"/>
<line x1="62" y1="603.5" x2="565" y2="603.5" stroke="white" stroke-opacity="0.15"/>
<line x1="62" y1="673.5" x2="565" y2="673.5" stroke="white" stroke-opacity="0.15"/>
<circle cx="43" cy="41" r="13" fill="#3F3F3F"/>
<circle cx="84" cy="41" r="13" fill="#3F3F3F"/>
<circle cx="125" cy="41" r="13" fill="#3F3F3F"/>
<path d="M252.184 653V614.66H268.438C270.202 614.66 271.822 615.02 273.298 615.74C274.774 616.46 276.052 617.432 277.132 618.656C278.248 619.88 279.112 621.248 279.724 622.76C280.336 624.272 280.642 625.82 280.642 627.404C280.642 629.564 280.138 631.616 279.13 633.56C278.122 635.504 276.736 637.088 274.972 638.312C273.208 639.536 271.12 640.148 268.708 640.148H259.636V653H252.184ZM259.636 633.614H268.276C269.176 633.614 269.986 633.362 270.706 632.858C271.426 632.354 272.002 631.634 272.434 630.698C272.866 629.726 273.082 628.628 273.082 627.404C273.082 626.072 272.83 624.938 272.326 624.002C271.858 623.066 271.228 622.364 270.436 621.896C269.68 621.428 268.852 621.194 267.952 621.194H259.636V633.614ZM297.669 653.54C295.401 653.54 293.349 653.162 291.513 652.406C289.677 651.614 288.111 650.552 286.815 649.22C285.519 647.852 284.511 646.304 283.791 644.576C283.107 642.812 282.765 640.958 282.765 639.014C282.765 636.314 283.359 633.848 284.547 631.616C285.771 629.384 287.499 627.602 289.731 626.27C291.999 624.902 294.663 624.218 297.723 624.218C300.819 624.218 303.465 624.902 305.661 626.27C307.857 627.602 309.531 629.384 310.683 631.616C311.871 633.812 312.465 636.188 312.465 638.744C312.465 639.176 312.447 639.626 312.411 640.094C312.375 640.526 312.339 640.886 312.303 641.174H290.433C290.577 642.614 290.991 643.874 291.675 644.954C292.395 646.034 293.295 646.862 294.375 647.438C295.491 647.978 296.679 648.248 297.939 648.248C299.379 648.248 300.729 647.906 301.989 647.222C303.285 646.502 304.167 645.566 304.635 644.414L310.845 646.142C310.161 647.582 309.171 648.86 307.875 649.976C306.615 651.092 305.121 651.974 303.393 652.622C301.665 653.234 299.757 653.54 297.669 653.54ZM290.271 636.584H305.067C304.923 635.144 304.509 633.902 303.825 632.858C303.177 631.778 302.313 630.95 301.233 630.374C300.153 629.762 298.947 629.456 297.615 629.456C296.319 629.456 295.131 629.762 294.051 630.374C293.007 630.95 292.143 631.778 291.459 632.858C290.811 633.902 290.415 635.144 290.271 636.584ZM327.943 653.162C326.071 653.162 324.343 652.802 322.759 652.082C321.211 651.326 319.861 650.282 318.709 648.95C317.593 647.618 316.729 646.088 316.117 644.36C315.505 642.632 315.199 640.796 315.199 638.852C315.199 636.8 315.523 634.892 316.171 633.128C316.819 631.364 317.719 629.816 318.871 628.484C320.059 627.116 321.445 626.072 323.029 625.352C324.649 624.596 326.431 624.218 328.375 624.218C330.571 624.218 332.497 624.722 334.153 625.73C335.809 626.702 337.177 628.016 338.257 629.672V624.704H344.575V651.65C344.575 654.458 343.891 656.852 342.523 658.832C341.191 660.848 339.337 662.378 336.961 663.422C334.585 664.502 331.885 665.042 328.861 665.042C325.801 665.042 323.209 664.52 321.085 663.476C318.961 662.468 317.143 661.028 315.631 659.156L319.573 655.322C320.653 656.654 322.003 657.698 323.623 658.454C325.279 659.21 327.025 659.588 328.861 659.588C330.409 659.588 331.813 659.3 333.073 658.724C334.369 658.184 335.395 657.32 336.151 656.132C336.943 654.98 337.339 653.486 337.339 651.65V648.086C336.403 649.706 335.071 650.966 333.343 651.866C331.651 652.73 329.851 653.162 327.943 653.162ZM330.373 647.384C331.165 647.384 331.921 647.258 332.641 647.006C333.361 646.754 334.027 646.412 334.639 645.98C335.251 645.548 335.791 645.044 336.259 644.468C336.727 643.856 337.087 643.244 337.339 642.632V635.882C336.907 634.766 336.295 633.794 335.503 632.966C334.747 632.138 333.883 631.508 332.911 631.076C331.975 630.608 330.985 630.374 329.941 630.374C328.825 630.374 327.817 630.608 326.917 631.076C326.017 631.544 325.243 632.21 324.595 633.074C323.947 633.902 323.443 634.838 323.083 635.882C322.759 636.89 322.597 637.952 322.597 639.068C322.597 640.22 322.795 641.3 323.191 642.308C323.587 643.316 324.127 644.198 324.811 644.954C325.531 645.71 326.359 646.304 327.295 646.736C328.267 647.168 329.293 647.384 330.373 647.384ZM349.154 644.63C349.154 642.794 349.658 641.192 350.666 639.824C351.71 638.42 353.15 637.34 354.986 636.584C356.822 635.828 358.928 635.45 361.304 635.45C362.492 635.45 363.698 635.54 364.922 635.72C366.146 635.9 367.208 636.188 368.108 636.584V635.072C368.108 633.272 367.568 631.886 366.488 630.914C365.444 629.942 363.878 629.456 361.79 629.456C360.242 629.456 358.766 629.726 357.362 630.266C355.958 630.806 354.482 631.598 352.934 632.642L350.612 627.89C352.484 626.666 354.392 625.748 356.336 625.136C358.316 624.524 360.386 624.218 362.546 624.218C366.578 624.218 369.71 625.226 371.942 627.242C374.21 629.258 375.344 632.138 375.344 635.882V644.9C375.344 645.656 375.47 646.196 375.722 646.52C376.01 646.844 376.46 647.042 377.072 647.114V653C376.424 653.108 375.83 653.198 375.29 653.27C374.786 653.342 374.354 653.378 373.994 653.378C372.554 653.378 371.456 653.054 370.7 652.406C369.98 651.758 369.53 650.966 369.35 650.03L369.188 648.572C367.964 650.156 366.434 651.38 364.598 652.244C362.762 653.108 360.89 653.54 358.982 653.54C357.11 653.54 355.418 653.162 353.906 652.406C352.43 651.614 351.26 650.552 350.396 649.22C349.568 647.852 349.154 646.322 349.154 644.63ZM366.758 646.088C367.154 645.656 367.478 645.224 367.73 644.792C367.982 644.36 368.108 643.964 368.108 643.604V640.742C367.244 640.382 366.308 640.112 365.3 639.932C364.292 639.716 363.338 639.608 362.438 639.608C360.566 639.608 359.018 640.022 357.794 640.85C356.606 641.642 356.012 642.704 356.012 644.036C356.012 644.756 356.21 645.44 356.606 646.088C357.002 646.736 357.578 647.258 358.334 647.654C359.09 648.05 359.99 648.248 361.034 648.248C362.114 648.248 363.176 648.05 364.22 647.654C365.264 647.222 366.11 646.7 366.758 646.088Z" fill="white"/>
<rect x="163.5" y="685.5" width="300" height="63" rx="31.5" fill="#363730"/>
<rect x="163.5" y="685.5" width="300" height="63" rx="31.5" stroke="white" stroke-dasharray="6 6"/>
<path d="M183.468 727V707.83H190.272C192.342 707.83 194.07 708.262 195.456 709.126C196.842 709.972 197.877 711.124 198.561 712.582C199.263 714.022 199.614 715.624 199.614 717.388C199.614 719.332 199.227 721.024 198.453 722.464C197.697 723.904 196.617 725.02 195.213 725.812C193.809 726.604 192.162 727 190.272 727H183.468ZM196.536 717.388C196.536 716.038 196.284 714.85 195.78 713.824C195.294 712.78 194.583 711.97 193.647 711.394C192.729 710.8 191.604 710.503 190.272 710.503H186.492V724.327H190.272C191.622 724.327 192.756 724.021 193.674 723.409C194.61 722.797 195.321 721.969 195.807 720.925C196.293 719.881 196.536 718.702 196.536 717.388ZM202.795 727V707.83H205.819V727H202.795ZM215.687 707.83H218.549L226.001 727H222.815L220.79 721.789H213.392L211.394 727H208.181L215.687 707.83ZM220.196 719.548L217.118 711.151L213.932 719.548H220.196ZM244.49 727V713.338L238.847 723.706H237.065L231.395 713.338V727H228.371V707.83H231.611L237.956 719.548L244.301 707.83H247.541V727H244.49ZM259.83 727.135C258.444 727.135 257.193 726.865 256.077 726.325C254.961 725.785 253.998 725.056 253.188 724.138C252.378 723.202 251.748 722.158 251.298 721.006C250.866 719.836 250.65 718.639 250.65 717.415C250.65 716.137 250.884 714.922 251.352 713.77C251.82 712.6 252.468 711.565 253.296 710.665C254.124 709.747 255.096 709.027 256.212 708.505C257.346 707.965 258.57 707.695 259.884 707.695C261.252 707.695 262.494 707.974 263.61 708.532C264.744 709.09 265.707 709.837 266.499 710.773C267.309 711.709 267.93 712.753 268.362 713.905C268.812 715.057 269.037 716.236 269.037 717.442C269.037 718.72 268.803 719.944 268.335 721.114C267.885 722.266 267.246 723.301 266.418 724.219C265.59 725.119 264.609 725.83 263.475 726.352C262.359 726.874 261.144 727.135 259.83 727.135ZM253.728 717.415C253.728 718.315 253.872 719.188 254.16 720.034C254.448 720.88 254.853 721.636 255.375 722.302C255.915 722.95 256.563 723.463 257.319 723.841C258.075 724.219 258.921 724.408 259.857 724.408C260.829 724.408 261.693 724.21 262.449 723.814C263.205 723.418 263.835 722.887 264.339 722.221C264.861 721.537 265.257 720.781 265.527 719.953C265.797 719.107 265.932 718.261 265.932 717.415C265.932 716.515 265.788 715.651 265.5 714.823C265.23 713.977 264.825 713.23 264.285 712.582C263.745 711.916 263.097 711.394 262.341 711.016C261.603 710.638 260.775 710.449 259.857 710.449C258.885 710.449 258.021 710.647 257.265 711.043C256.509 711.439 255.87 711.97 255.348 712.636C254.826 713.302 254.421 714.049 254.133 714.877C253.863 715.705 253.728 716.551 253.728 717.415ZM275.191 713.446V727H272.167V707.83H274.651L285.505 721.681V707.857H288.556V727H285.91L275.191 713.446ZM292.866 727V707.83H299.67C301.74 707.83 303.468 708.262 304.854 709.126C306.24 709.972 307.275 711.124 307.959 712.582C308.661 714.022 309.012 715.624 309.012 717.388C309.012 719.332 308.625 721.024 307.851 722.464C307.095 723.904 306.015 725.02 304.611 725.812C303.207 726.604 301.56 727 299.67 727H292.866ZM305.934 717.388C305.934 716.038 305.682 714.85 305.178 713.824C304.692 712.78 303.981 711.97 303.045 711.394C302.127 710.8 301.002 710.503 299.67 710.503H295.89V724.327H299.67C301.02 724.327 302.154 724.021 303.072 723.409C304.008 722.797 304.719 721.969 305.205 720.925C305.691 719.881 305.934 718.702 305.934 717.388ZM330.204 712.339C330.024 712.141 329.763 711.934 329.421 711.718C329.079 711.484 328.674 711.268 328.206 711.07C327.738 710.872 327.234 710.71 326.694 710.584C326.154 710.458 325.596 710.395 325.02 710.395C323.76 710.395 322.824 710.629 322.212 711.097C321.6 711.565 321.294 712.213 321.294 713.041C321.294 713.653 321.465 714.139 321.807 714.499C322.149 714.841 322.671 715.129 323.373 715.363C324.075 715.597 324.957 715.849 326.019 716.119C327.315 716.425 328.44 716.794 329.394 717.226C330.348 717.64 331.077 718.198 331.581 718.9C332.085 719.602 332.337 720.529 332.337 721.681C332.337 722.653 332.157 723.49 331.797 724.192C331.437 724.894 330.933 725.47 330.285 725.92C329.637 726.352 328.89 726.676 328.044 726.892C327.198 727.09 326.289 727.189 325.317 727.189C324.363 727.189 323.409 727.09 322.455 726.892C321.519 726.694 320.619 726.406 319.755 726.028C318.909 725.632 318.126 725.155 317.406 724.597L318.783 722.005C319.017 722.239 319.35 722.5 319.782 722.788C320.232 723.058 320.745 723.319 321.321 723.571C321.915 723.823 322.554 724.039 323.238 724.219C323.94 724.381 324.651 724.462 325.371 724.462C326.577 724.462 327.495 724.255 328.125 723.841C328.773 723.409 329.097 722.797 329.097 722.005C329.097 721.357 328.89 720.844 328.476 720.466C328.062 720.07 327.459 719.737 326.667 719.467C325.875 719.197 324.93 718.927 323.832 718.657C322.572 718.315 321.519 717.946 320.673 717.55C319.827 717.136 319.188 716.614 318.756 715.984C318.342 715.336 318.135 714.517 318.135 713.527C318.135 712.267 318.441 711.205 319.053 710.341C319.665 709.459 320.493 708.802 321.537 708.37C322.599 707.92 323.787 707.695 325.101 707.695C325.965 707.695 326.784 707.794 327.558 707.992C328.332 708.172 329.052 708.424 329.718 708.748C330.402 709.072 331.023 709.441 331.581 709.855L330.204 712.339ZM335.369 727V707.83H343.415C344.279 707.83 345.071 708.01 345.791 708.37C346.511 708.73 347.141 709.207 347.681 709.801C348.221 710.395 348.635 711.061 348.923 711.799C349.211 712.537 349.355 713.293 349.355 714.067C349.355 715.129 349.112 716.146 348.626 717.118C348.158 718.072 347.483 718.846 346.601 719.44C345.737 720.034 344.729 720.331 343.577 720.331H338.393V727H335.369ZM338.393 717.658H343.388C343.964 717.658 344.468 717.505 344.9 717.199C345.332 716.875 345.665 716.443 345.899 715.903C346.151 715.363 346.277 714.751 346.277 714.067C346.277 713.365 346.133 712.744 345.845 712.204C345.557 711.664 345.179 711.25 344.711 710.962C344.261 710.656 343.766 710.503 343.226 710.503H338.393V717.658ZM360.157 727.135C358.771 727.135 357.52 726.865 356.404 726.325C355.288 725.785 354.325 725.056 353.515 724.138C352.705 723.202 352.075 722.158 351.625 721.006C351.193 719.836 350.977 718.639 350.977 717.415C350.977 716.137 351.211 714.922 351.679 713.77C352.147 712.6 352.795 711.565 353.623 710.665C354.451 709.747 355.423 709.027 356.539 708.505C357.673 707.965 358.897 707.695 360.211 707.695C361.579 707.695 362.821 707.974 363.937 708.532C365.071 709.09 366.034 709.837 366.826 710.773C367.636 711.709 368.257 712.753 368.689 713.905C369.139 715.057 369.364 716.236 369.364 717.442C369.364 718.72 369.13 719.944 368.662 721.114C368.212 722.266 367.573 723.301 366.745 724.219C365.917 725.119 364.936 725.83 363.802 726.352C362.686 726.874 361.471 727.135 360.157 727.135ZM354.055 717.415C354.055 718.315 354.199 719.188 354.487 720.034C354.775 720.88 355.18 721.636 355.702 722.302C356.242 722.95 356.89 723.463 357.646 723.841C358.402 724.219 359.248 724.408 360.184 724.408C361.156 724.408 362.02 724.21 362.776 723.814C363.532 723.418 364.162 722.887 364.666 722.221C365.188 721.537 365.584 720.781 365.854 719.953C366.124 719.107 366.259 718.261 366.259 717.415C366.259 716.515 366.115 715.651 365.827 714.823C365.557 713.977 365.152 713.23 364.612 712.582C364.072 711.916 363.424 711.394 362.668 711.016C361.93 710.638 361.102 710.449 360.184 710.449C359.212 710.449 358.348 710.647 357.592 711.043C356.836 711.439 356.197 711.97 355.675 712.636C355.153 713.302 354.748 714.049 354.46 714.877C354.19 715.705 354.055 716.551 354.055 717.415ZM375.518 713.446V727H372.494V707.83H374.978L385.832 721.681V707.857H388.883V727H386.237L375.518 713.446ZM404.533 712.339C404.353 712.141 404.092 711.934 403.75 711.718C403.408 711.484 403.003 711.268 402.535 711.07C402.067 710.872 401.563 710.71 401.023 710.584C400.483 710.458 399.925 710.395 399.349 710.395C398.089 710.395 397.153 710.629 396.541 711.097C395.929 711.565 395.623 712.213 395.623 713.041C395.623 713.653 395.794 714.139 396.136 714.499C396.478 714.841 397 715.129 397.702 715.363C398.404 715.597 399.286 715.849 400.348 716.119C401.644 716.425 402.769 716.794 403.723 717.226C404.677 717.64 405.406 718.198 405.91 718.9C406.414 719.602 406.666 720.529 406.666 721.681C406.666 722.653 406.486 723.49 406.126 724.192C405.766 724.894 405.262 725.47 404.614 725.92C403.966 726.352 403.219 726.676 402.373 726.892C401.527 727.09 400.618 727.189 399.646 727.189C398.692 727.189 397.738 727.09 396.784 726.892C395.848 726.694 394.948 726.406 394.084 726.028C393.238 725.632 392.455 725.155 391.735 724.597L393.112 722.005C393.346 722.239 393.679 722.5 394.111 722.788C394.561 723.058 395.074 723.319 395.65 723.571C396.244 723.823 396.883 724.039 397.567 724.219C398.269 724.381 398.98 724.462 399.7 724.462C400.906 724.462 401.824 724.255 402.454 723.841C403.102 723.409 403.426 722.797 403.426 722.005C403.426 721.357 403.219 720.844 402.805 720.466C402.391 720.07 401.788 719.737 400.996 719.467C400.204 719.197 399.259 718.927 398.161 718.657C396.901 718.315 395.848 717.946 395.002 717.55C394.156 717.136 393.517 716.614 393.085 715.984C392.671 715.336 392.464 714.517 392.464 713.527C392.464 712.267 392.77 711.205 393.382 710.341C393.994 709.459 394.822 708.802 395.866 708.37C396.928 707.92 398.116 707.695 399.43 707.695C400.294 707.695 401.113 707.794 401.887 707.992C402.661 708.172 403.381 708.424 404.047 708.748C404.731 709.072 405.352 709.441 405.91 709.855L404.533 712.339ZM417.664 727.135C416.278 727.135 415.027 726.865 413.911 726.325C412.795 725.785 411.832 725.056 411.022 724.138C410.212 723.202 409.582 722.158 409.132 721.006C408.7 719.836 408.484 718.639 408.484 717.415C408.484 716.137 408.718 714.922 409.186 713.77C409.654 712.6 410.302 711.565 411.13 710.665C411.958 709.747 412.93 709.027 414.046 708.505C415.18 707.965 416.404 707.695 417.718 707.695C419.086 707.695 420.328 707.974 421.444 708.532C422.578 709.09 423.541 709.837 424.333 710.773C425.143 711.709 425.764 712.753 426.196 713.905C426.646 715.057 426.871 716.236 426.871 717.442C426.871 718.72 426.637 719.944 426.169 721.114C425.719 722.266 425.08 723.301 424.252 724.219C423.424 725.119 422.443 725.83 421.309 726.352C420.193 726.874 418.978 727.135 417.664 727.135ZM411.562 717.415C411.562 718.315 411.706 719.188 411.994 720.034C412.282 720.88 412.687 721.636 413.209 722.302C413.749 722.95 414.397 723.463 415.153 723.841C415.909 724.219 416.755 724.408 417.691 724.408C418.663 724.408 419.527 724.21 420.283 723.814C421.039 723.418 421.669 722.887 422.173 722.221C422.695 721.537 423.091 720.781 423.361 719.953C423.631 719.107 423.766 718.261 423.766 717.415C423.766 716.515 423.622 715.651 423.334 714.823C423.064 713.977 422.659 713.23 422.119 712.582C421.579 711.916 420.931 711.394 420.175 711.016C419.437 710.638 418.609 710.449 417.691 710.449C416.719 710.449 415.855 710.647 415.099 711.043C414.343 711.439 413.704 711.97 413.182 712.636C412.66 713.302 412.255 714.049 411.967 714.877C411.697 715.705 411.562 716.551 411.562 717.415ZM430.001 727V707.83H438.344C439.208 707.83 440 708.01 440.72 708.37C441.44 708.73 442.061 709.207 442.583 709.801C443.123 710.395 443.537 711.061 443.825 711.799C444.131 712.537 444.284 713.293 444.284 714.067C444.284 714.913 444.131 715.723 443.825 716.497C443.519 717.271 443.078 717.937 442.502 718.495C441.944 719.053 441.287 719.458 440.531 719.71L445.04 727H441.638L437.48 720.331H433.025V727H430.001ZM433.025 717.658H438.317C438.875 717.658 439.37 717.496 439.802 717.172C440.234 716.848 440.576 716.416 440.828 715.876C441.08 715.318 441.206 714.715 441.206 714.067C441.206 713.401 441.062 712.807 440.774 712.285C440.486 711.745 440.108 711.313 439.64 710.989C439.19 710.665 438.695 710.503 438.155 710.503H433.025V717.658Z" fill="white" fill-opacity="0.9"/>
</svg>
