<svg width="627" height="815" viewBox="0 0 627 815" fill="none" xmlns="http://www.w3.org/2000/svg">
<rect x="0.5" y="0.5" width="626" height="814" rx="30.5" fill="#171A1A"/>
<rect x="0.5" y="0.5" width="626" height="814" rx="30.5" stroke="#413E44"/>
<line x1="62" y1="113.5" x2="565" y2="113.5" stroke="white" stroke-opacity="0.15"/>
<line x1="62" y1="183.5" x2="565" y2="183.5" stroke="white" stroke-opacity="0.15"/>
<line x1="62" y1="253.5" x2="565" y2="253.5" stroke="white" stroke-opacity="0.15"/>
<line x1="62" y1="323.5" x2="565" y2="323.5" stroke="white" stroke-opacity="0.15"/>
<line x1="62" y1="393.5" x2="565" y2="393.5" stroke="white" stroke-opacity="0.15"/>
<line x1="62" y1="463.5" x2="565" y2="463.5" stroke="white" stroke-opacity="0.15"/>
<line x1="62" y1="533.5" x2="565" y2="533.5" stroke="white" stroke-opacity="0.15"/>
<line x1="62" y1="603.5" x2="565" y2="603.5" stroke="white" stroke-opacity="0.15"/>
<line x1="62" y1="673.5" x2="565" y2="673.5" stroke="white" stroke-opacity="0.15"/>
<circle cx="43" cy="41" r="13" fill="#3F3F3F"/>
<circle cx="84" cy="41" r="13" fill="#3F3F3F"/>
<circle cx="125" cy="41" r="13" fill="#3F3F3F"/>
<path d="M209.628 653V614.66H223.56C227.736 614.66 231.228 615.524 234.036 617.252C236.844 618.944 238.95 621.248 240.354 624.164C241.758 627.044 242.46 630.248 242.46 633.776C242.46 637.664 241.686 641.048 240.138 643.928C238.59 646.808 236.394 649.04 233.55 650.624C230.742 652.208 227.412 653 223.56 653H209.628ZM234.954 633.776C234.954 631.292 234.504 629.114 233.604 627.242C232.704 625.334 231.408 623.858 229.716 622.814C228.024 621.734 225.972 621.194 223.56 621.194H217.08V646.466H223.56C226.008 646.466 228.078 645.926 229.77 644.846C231.462 643.73 232.74 642.218 233.604 640.31C234.504 638.366 234.954 636.188 234.954 633.776ZM260.702 653.54C258.434 653.54 256.382 653.162 254.546 652.406C252.71 651.614 251.144 650.552 249.848 649.22C248.552 647.852 247.544 646.304 246.824 644.576C246.14 642.812 245.798 640.958 245.798 639.014C245.798 636.314 246.392 633.848 247.58 631.616C248.804 629.384 250.532 627.602 252.764 626.27C255.032 624.902 257.696 624.218 260.756 624.218C263.852 624.218 266.498 624.902 268.694 626.27C270.89 627.602 272.564 629.384 273.716 631.616C274.904 633.812 275.498 636.188 275.498 638.744C275.498 639.176 275.48 639.626 275.444 640.094C275.408 640.526 275.372 640.886 275.336 641.174H253.466C253.61 642.614 254.024 643.874 254.708 644.954C255.428 646.034 256.328 646.862 257.408 647.438C258.524 647.978 259.712 648.248 260.972 648.248C262.412 648.248 263.762 647.906 265.022 647.222C266.318 646.502 267.2 645.566 267.668 644.414L273.878 646.142C273.194 647.582 272.204 648.86 270.908 649.976C269.648 651.092 268.154 651.974 266.426 652.622C264.698 653.234 262.79 653.54 260.702 653.54ZM253.304 636.584H268.1C267.956 635.144 267.542 633.902 266.858 632.858C266.21 631.778 265.346 630.95 264.266 630.374C263.186 629.762 261.98 629.456 260.648 629.456C259.352 629.456 258.164 629.762 257.084 630.374C256.04 630.95 255.176 631.778 254.492 632.858C253.844 633.902 253.448 635.144 253.304 636.584ZM286.729 653L276.307 624.704H283.813L290.941 646.412L298.123 624.704H304.981L294.613 653H286.729ZM310.375 653V631.724H306.649V626.216H310.375V624.488C310.375 622.148 310.753 620.132 311.509 618.44C312.301 616.712 313.399 615.38 314.803 614.444C316.243 613.508 317.917 613.04 319.825 613.04C320.977 613.04 322.129 613.184 323.281 613.472C324.469 613.76 325.639 614.174 326.791 614.714L325.333 620.168C324.793 619.88 324.163 619.646 323.443 619.466C322.723 619.25 322.039 619.142 321.391 619.142C320.167 619.142 319.231 619.574 318.583 620.438C317.935 621.302 317.611 622.562 317.611 624.218V626.216H324.523V631.724H317.611V653H310.375ZM341.332 653.54C339.028 653.54 336.958 653.162 335.122 652.406C333.286 651.614 331.72 650.534 330.424 649.166C329.164 647.798 328.192 646.232 327.508 644.468C326.824 642.704 326.482 640.85 326.482 638.906C326.482 636.926 326.824 635.054 327.508 633.29C328.192 631.526 329.164 629.96 330.424 628.592C331.72 627.224 333.286 626.162 335.122 625.406C336.958 624.614 339.028 624.218 341.332 624.218C343.636 624.218 345.688 624.614 347.488 625.406C349.324 626.162 350.89 627.224 352.186 628.592C353.482 629.96 354.454 631.526 355.102 633.29C355.786 635.054 356.128 636.926 356.128 638.906C356.128 640.85 355.786 642.704 355.102 644.468C354.454 646.232 353.482 647.798 352.186 649.166C350.926 650.534 349.378 651.614 347.542 652.406C345.706 653.162 343.636 653.54 341.332 653.54ZM333.934 638.906C333.934 640.562 334.258 642.038 334.906 643.334C335.554 644.594 336.436 645.584 337.552 646.304C338.668 647.024 339.928 647.384 341.332 647.384C342.7 647.384 343.942 647.024 345.058 646.304C346.174 645.548 347.056 644.54 347.704 643.28C348.388 641.984 348.73 640.508 348.73 638.852C348.73 637.232 348.388 635.774 347.704 634.478C347.056 633.182 346.174 632.174 345.058 631.454C343.942 630.734 342.7 630.374 341.332 630.374C339.928 630.374 338.668 630.752 337.552 631.508C336.436 632.228 335.554 633.236 334.906 634.532C334.258 635.792 333.934 637.25 333.934 638.906ZM360.958 613.58H368.194V643.928C368.194 645.224 368.41 646.106 368.842 646.574C369.274 647.006 369.868 647.222 370.624 647.222C371.2 647.222 371.794 647.15 372.406 647.006C373.018 646.862 373.558 646.682 374.026 646.466L374.998 651.974C374.026 652.442 372.892 652.802 371.596 653.054C370.3 653.306 369.13 653.432 368.086 653.432C365.818 653.432 364.054 652.838 362.794 651.65C361.57 650.426 360.958 648.698 360.958 646.466V613.58ZM378.15 653V624.704H385.386V653H378.15ZM378.15 620.762V613.58H385.386V620.762H378.15ZM404.982 653.54C402.678 653.54 400.608 653.162 398.772 652.406C396.936 651.614 395.37 650.534 394.074 649.166C392.814 647.798 391.842 646.232 391.158 644.468C390.474 642.704 390.132 640.85 390.132 638.906C390.132 636.926 390.474 635.054 391.158 633.29C391.842 631.526 392.814 629.96 394.074 628.592C395.37 627.224 396.936 626.162 398.772 625.406C400.608 624.614 402.678 624.218 404.982 624.218C407.286 624.218 409.338 624.614 411.138 625.406C412.974 626.162 414.54 627.224 415.836 628.592C417.132 629.96 418.104 631.526 418.752 633.29C419.436 635.054 419.778 636.926 419.778 638.906C419.778 640.85 419.436 642.704 418.752 644.468C418.104 646.232 417.132 647.798 415.836 649.166C414.576 650.534 413.028 651.614 411.192 652.406C409.356 653.162 407.286 653.54 404.982 653.54ZM397.584 638.906C397.584 640.562 397.908 642.038 398.556 643.334C399.204 644.594 400.086 645.584 401.202 646.304C402.318 647.024 403.578 647.384 404.982 647.384C406.35 647.384 407.592 647.024 408.708 646.304C409.824 645.548 410.706 644.54 411.354 643.28C412.038 641.984 412.38 640.508 412.38 638.852C412.38 637.232 412.038 635.774 411.354 634.478C410.706 633.182 409.824 632.174 408.708 631.454C407.592 630.734 406.35 630.374 404.982 630.374C403.578 630.374 402.318 630.752 401.202 631.508C400.086 632.228 399.204 633.236 398.556 634.532C397.908 635.792 397.584 637.25 397.584 638.906Z" fill="white"/>
<rect x="183" y="685.5" width="261" height="63" rx="31.5" fill="#363730"/>
<rect x="183" y="685.5" width="261" height="63" rx="31.5" stroke="white" stroke-dasharray="6 6"/>
<path d="M214.438 712.339C214.258 712.141 213.997 711.934 213.655 711.718C213.313 711.484 212.908 711.268 212.44 711.07C211.972 710.872 211.468 710.71 210.928 710.584C210.388 710.458 209.83 710.395 209.254 710.395C207.994 710.395 207.058 710.629 206.446 711.097C205.834 711.565 205.528 712.213 205.528 713.041C205.528 713.653 205.699 714.139 206.041 714.499C206.383 714.841 206.905 715.129 207.607 715.363C208.309 715.597 209.191 715.849 210.253 716.119C211.549 716.425 212.674 716.794 213.628 717.226C214.582 717.64 215.311 718.198 215.815 718.9C216.319 719.602 216.571 720.529 216.571 721.681C216.571 722.653 216.391 723.49 216.031 724.192C215.671 724.894 215.167 725.47 214.519 725.92C213.871 726.352 213.124 726.676 212.278 726.892C211.432 727.09 210.523 727.189 209.551 727.189C208.597 727.189 207.643 727.09 206.689 726.892C205.753 726.694 204.853 726.406 203.989 726.028C203.143 725.632 202.36 725.155 201.64 724.597L203.017 722.005C203.251 722.239 203.584 722.5 204.016 722.788C204.466 723.058 204.979 723.319 205.555 723.571C206.149 723.823 206.788 724.039 207.472 724.219C208.174 724.381 208.885 724.462 209.605 724.462C210.811 724.462 211.729 724.255 212.359 723.841C213.007 723.409 213.331 722.797 213.331 722.005C213.331 721.357 213.124 720.844 212.71 720.466C212.296 720.07 211.693 719.737 210.901 719.467C210.109 719.197 209.164 718.927 208.066 718.657C206.806 718.315 205.753 717.946 204.907 717.55C204.061 717.136 203.422 716.614 202.99 715.984C202.576 715.336 202.369 714.517 202.369 713.527C202.369 712.267 202.675 711.205 203.287 710.341C203.899 709.459 204.727 708.802 205.771 708.37C206.833 707.92 208.021 707.695 209.335 707.695C210.199 707.695 211.018 707.794 211.792 707.992C212.566 708.172 213.286 708.424 213.952 708.748C214.636 709.072 215.257 709.441 215.815 709.855L214.438 712.339ZM219.604 727V707.83H222.628V727H219.604ZM226.961 727V707.83H229.985V724.327H240.272V727H226.961ZM241.359 707.83L247.137 723.301L252.888 707.83H256.101L248.568 727H245.706L238.146 707.83H241.359ZM271.592 724.327V727H258.443V707.83H271.349V710.503H261.467V715.957H270.026V718.468H261.467V724.327H271.592ZM274.712 727V707.83H283.055C283.919 707.83 284.711 708.01 285.431 708.37C286.151 708.73 286.772 709.207 287.294 709.801C287.834 710.395 288.248 711.061 288.536 711.799C288.842 712.537 288.995 713.293 288.995 714.067C288.995 714.913 288.842 715.723 288.536 716.497C288.23 717.271 287.789 717.937 287.213 718.495C286.655 719.053 285.998 719.458 285.242 719.71L289.751 727H286.349L282.191 720.331H277.736V727H274.712ZM277.736 717.658H283.028C283.586 717.658 284.081 717.496 284.513 717.172C284.945 716.848 285.287 716.416 285.539 715.876C285.791 715.318 285.917 714.715 285.917 714.067C285.917 713.401 285.773 712.807 285.485 712.285C285.197 711.745 284.819 711.313 284.351 710.989C283.901 710.665 283.406 710.503 282.866 710.503H277.736V717.658ZM310.573 712.339C310.393 712.141 310.132 711.934 309.79 711.718C309.448 711.484 309.043 711.268 308.575 711.07C308.107 710.872 307.603 710.71 307.063 710.584C306.523 710.458 305.965 710.395 305.389 710.395C304.129 710.395 303.193 710.629 302.581 711.097C301.969 711.565 301.663 712.213 301.663 713.041C301.663 713.653 301.834 714.139 302.176 714.499C302.518 714.841 303.04 715.129 303.742 715.363C304.444 715.597 305.326 715.849 306.388 716.119C307.684 716.425 308.809 716.794 309.763 717.226C310.717 717.64 311.446 718.198 311.95 718.9C312.454 719.602 312.706 720.529 312.706 721.681C312.706 722.653 312.526 723.49 312.166 724.192C311.806 724.894 311.302 725.47 310.654 725.92C310.006 726.352 309.259 726.676 308.413 726.892C307.567 727.09 306.658 727.189 305.686 727.189C304.732 727.189 303.778 727.09 302.824 726.892C301.888 726.694 300.988 726.406 300.124 726.028C299.278 725.632 298.495 725.155 297.775 724.597L299.152 722.005C299.386 722.239 299.719 722.5 300.151 722.788C300.601 723.058 301.114 723.319 301.69 723.571C302.284 723.823 302.923 724.039 303.607 724.219C304.309 724.381 305.02 724.462 305.74 724.462C306.946 724.462 307.864 724.255 308.494 723.841C309.142 723.409 309.466 722.797 309.466 722.005C309.466 721.357 309.259 720.844 308.845 720.466C308.431 720.07 307.828 719.737 307.036 719.467C306.244 719.197 305.299 718.927 304.201 718.657C302.941 718.315 301.888 717.946 301.042 717.55C300.196 717.136 299.557 716.614 299.125 715.984C298.711 715.336 298.504 714.517 298.504 713.527C298.504 712.267 298.81 711.205 299.422 710.341C300.034 709.459 300.862 708.802 301.906 708.37C302.968 707.92 304.156 707.695 305.47 707.695C306.334 707.695 307.153 707.794 307.927 707.992C308.701 708.172 309.421 708.424 310.087 708.748C310.771 709.072 311.392 709.441 311.95 709.855L310.573 712.339ZM315.739 727V707.83H323.785C324.649 707.83 325.441 708.01 326.161 708.37C326.881 708.73 327.511 709.207 328.051 709.801C328.591 710.395 329.005 711.061 329.293 711.799C329.581 712.537 329.725 713.293 329.725 714.067C329.725 715.129 329.482 716.146 328.996 717.118C328.528 718.072 327.853 718.846 326.971 719.44C326.107 720.034 325.099 720.331 323.947 720.331H318.763V727H315.739ZM318.763 717.658H323.758C324.334 717.658 324.838 717.505 325.27 717.199C325.702 716.875 326.035 716.443 326.269 715.903C326.521 715.363 326.647 714.751 326.647 714.067C326.647 713.365 326.503 712.744 326.215 712.204C325.927 711.664 325.549 711.25 325.081 710.962C324.631 710.656 324.136 710.503 323.596 710.503H318.763V717.658ZM340.526 727.135C339.14 727.135 337.889 726.865 336.773 726.325C335.657 725.785 334.694 725.056 333.884 724.138C333.074 723.202 332.444 722.158 331.994 721.006C331.562 719.836 331.346 718.639 331.346 717.415C331.346 716.137 331.58 714.922 332.048 713.77C332.516 712.6 333.164 711.565 333.992 710.665C334.82 709.747 335.792 709.027 336.908 708.505C338.042 707.965 339.266 707.695 340.58 707.695C341.948 707.695 343.19 707.974 344.306 708.532C345.44 709.09 346.403 709.837 347.195 710.773C348.005 711.709 348.626 712.753 349.058 713.905C349.508 715.057 349.733 716.236 349.733 717.442C349.733 718.72 349.499 719.944 349.031 721.114C348.581 722.266 347.942 723.301 347.114 724.219C346.286 725.119 345.305 725.83 344.171 726.352C343.055 726.874 341.84 727.135 340.526 727.135ZM334.424 717.415C334.424 718.315 334.568 719.188 334.856 720.034C335.144 720.88 335.549 721.636 336.071 722.302C336.611 722.95 337.259 723.463 338.015 723.841C338.771 724.219 339.617 724.408 340.553 724.408C341.525 724.408 342.389 724.21 343.145 723.814C343.901 723.418 344.531 722.887 345.035 722.221C345.557 721.537 345.953 720.781 346.223 719.953C346.493 719.107 346.628 718.261 346.628 717.415C346.628 716.515 346.484 715.651 346.196 714.823C345.926 713.977 345.521 713.23 344.981 712.582C344.441 711.916 343.793 711.394 343.037 711.016C342.299 710.638 341.471 710.449 340.553 710.449C339.581 710.449 338.717 710.647 337.961 711.043C337.205 711.439 336.566 711.97 336.044 712.636C335.522 713.302 335.117 714.049 334.829 714.877C334.559 715.705 334.424 716.551 334.424 717.415ZM355.888 713.446V727H352.864V707.83H355.348L366.202 721.681V707.857H369.253V727H366.607L355.888 713.446ZM384.902 712.339C384.722 712.141 384.461 711.934 384.119 711.718C383.777 711.484 383.372 711.268 382.904 711.07C382.436 710.872 381.932 710.71 381.392 710.584C380.852 710.458 380.294 710.395 379.718 710.395C378.458 710.395 377.522 710.629 376.91 711.097C376.298 711.565 375.992 712.213 375.992 713.041C375.992 713.653 376.163 714.139 376.505 714.499C376.847 714.841 377.369 715.129 378.071 715.363C378.773 715.597 379.655 715.849 380.717 716.119C382.013 716.425 383.138 716.794 384.092 717.226C385.046 717.64 385.775 718.198 386.279 718.9C386.783 719.602 387.035 720.529 387.035 721.681C387.035 722.653 386.855 723.49 386.495 724.192C386.135 724.894 385.631 725.47 384.983 725.92C384.335 726.352 383.588 726.676 382.742 726.892C381.896 727.09 380.987 727.189 380.015 727.189C379.061 727.189 378.107 727.09 377.153 726.892C376.217 726.694 375.317 726.406 374.453 726.028C373.607 725.632 372.824 725.155 372.104 724.597L373.481 722.005C373.715 722.239 374.048 722.5 374.48 722.788C374.93 723.058 375.443 723.319 376.019 723.571C376.613 723.823 377.252 724.039 377.936 724.219C378.638 724.381 379.349 724.462 380.069 724.462C381.275 724.462 382.193 724.255 382.823 723.841C383.471 723.409 383.795 722.797 383.795 722.005C383.795 721.357 383.588 720.844 383.174 720.466C382.76 720.07 382.157 719.737 381.365 719.467C380.573 719.197 379.628 718.927 378.53 718.657C377.27 718.315 376.217 717.946 375.371 717.55C374.525 717.136 373.886 716.614 373.454 715.984C373.04 715.336 372.833 714.517 372.833 713.527C372.833 712.267 373.139 711.205 373.751 710.341C374.363 709.459 375.191 708.802 376.235 708.37C377.297 707.92 378.485 707.695 379.799 707.695C380.663 707.695 381.482 707.794 382.256 707.992C383.03 708.172 383.75 708.424 384.416 708.748C385.1 709.072 385.721 709.441 386.279 709.855L384.902 712.339ZM398.033 727.135C396.647 727.135 395.396 726.865 394.28 726.325C393.164 725.785 392.201 725.056 391.391 724.138C390.581 723.202 389.951 722.158 389.501 721.006C389.069 719.836 388.853 718.639 388.853 717.415C388.853 716.137 389.087 714.922 389.555 713.77C390.023 712.6 390.671 711.565 391.499 710.665C392.327 709.747 393.299 709.027 394.415 708.505C395.549 707.965 396.773 707.695 398.087 707.695C399.455 707.695 400.697 707.974 401.813 708.532C402.947 709.09 403.91 709.837 404.702 710.773C405.512 711.709 406.133 712.753 406.565 713.905C407.015 715.057 407.24 716.236 407.24 717.442C407.24 718.72 407.006 719.944 406.538 721.114C406.088 722.266 405.449 723.301 404.621 724.219C403.793 725.119 402.812 725.83 401.678 726.352C400.562 726.874 399.347 727.135 398.033 727.135ZM391.931 717.415C391.931 718.315 392.075 719.188 392.363 720.034C392.651 720.88 393.056 721.636 393.578 722.302C394.118 722.95 394.766 723.463 395.522 723.841C396.278 724.219 397.124 724.408 398.06 724.408C399.032 724.408 399.896 724.21 400.652 723.814C401.408 723.418 402.038 722.887 402.542 722.221C403.064 721.537 403.46 720.781 403.73 719.953C404 719.107 404.135 718.261 404.135 717.415C404.135 716.515 403.991 715.651 403.703 714.823C403.433 713.977 403.028 713.23 402.488 712.582C401.948 711.916 401.3 711.394 400.544 711.016C399.806 710.638 398.978 710.449 398.06 710.449C397.088 710.449 396.224 710.647 395.468 711.043C394.712 711.439 394.073 711.97 393.551 712.636C393.029 713.302 392.624 714.049 392.336 714.877C392.066 715.705 391.931 716.551 391.931 717.415ZM410.371 727V707.83H418.714C419.578 707.83 420.37 708.01 421.09 708.37C421.81 708.73 422.431 709.207 422.953 709.801C423.493 710.395 423.907 711.061 424.195 711.799C424.501 712.537 424.654 713.293 424.654 714.067C424.654 714.913 424.501 715.723 424.195 716.497C423.889 717.271 423.448 717.937 422.872 718.495C422.314 719.053 421.657 719.458 420.901 719.71L425.41 727H422.008L417.85 720.331H413.395V727H410.371ZM413.395 717.658H418.687C419.245 717.658 419.74 717.496 420.172 717.172C420.604 716.848 420.946 716.416 421.198 715.876C421.45 715.318 421.576 714.715 421.576 714.067C421.576 713.401 421.432 712.807 421.144 712.285C420.856 711.745 420.478 711.313 420.01 710.989C419.56 710.665 419.065 710.503 418.525 710.503H413.395V717.658Z" fill="white" fill-opacity="0.7"/>
</svg>
