<svg width="627" height="815" viewBox="0 0 627 815" fill="none" xmlns="http://www.w3.org/2000/svg">
<rect x="0.5" y="0.5" width="626" height="814" rx="30.5" fill="black" fill-opacity="0.1"/>
<rect x="0.5" y="0.5" width="626" height="814" rx="30.5" stroke="#413E44"/>
<line x1="62" y1="113.5" x2="565" y2="113.5" stroke="white" stroke-opacity="0.15"/>
<line x1="62" y1="182.5" x2="565" y2="182.5" stroke="white" stroke-opacity="0.15"/>
<line x1="62" y1="251.5" x2="565" y2="251.5" stroke="white" stroke-opacity="0.15"/>
<line x1="62" y1="320.5" x2="565" y2="320.5" stroke="white" stroke-opacity="0.15"/>
<line x1="62" y1="389.5" x2="565" y2="389.5" stroke="white" stroke-opacity="0.15"/>
<line x1="62" y1="458.5" x2="565" y2="458.5" stroke="white" stroke-opacity="0.15"/>
<line x1="62" y1="527.5" x2="565" y2="527.5" stroke="white" stroke-opacity="0.15"/>
<line x1="62" y1="596.5" x2="565" y2="596.5" stroke="white" stroke-opacity="0.15"/>
<line x1="62" y1="665.5" x2="565" y2="665.5" stroke="white" stroke-opacity="0.15"/>
<circle cx="43" cy="41" r="13" fill="#3F3F3F"/>
<circle cx="84" cy="41" r="13" fill="#3F3F3F"/>
<circle cx="125" cy="41" r="13" fill="#3F3F3F"/>
<path d="M227.259 646.466V653H200.637V614.66H226.773V621.194H208.089V630.428H224.235V636.476H208.089V646.466H227.259ZM261.742 621.194H249.484V653H242.086V621.194H229.828V614.66H261.742V621.194ZM298.74 614.66V653H291.342V636.638H273.954V653H266.502V614.66H273.954V630.158H291.342V614.66H298.74ZM306.738 653V614.66H314.19V653H306.738ZM347.785 653H340.549V637.124C340.549 634.856 340.153 633.2 339.361 632.156C338.569 631.112 337.471 630.59 336.067 630.59C335.095 630.59 334.105 630.842 333.097 631.346C332.125 631.85 331.243 632.552 330.451 633.452C329.659 634.316 329.083 635.324 328.723 636.476V653H321.487V624.704H328.021V629.942C328.741 628.718 329.659 627.692 330.775 626.864C331.891 626 333.169 625.352 334.609 624.92C336.085 624.452 337.633 624.218 339.253 624.218C341.017 624.218 342.457 624.542 343.573 625.19C344.725 625.802 345.589 626.648 346.165 627.728C346.777 628.772 347.191 629.96 347.407 631.292C347.659 632.624 347.785 633.974 347.785 635.342V653ZM352.349 638.852C352.349 636.116 352.889 633.65 353.969 631.454C355.049 629.222 356.543 627.458 358.451 626.162C360.359 624.866 362.537 624.218 364.985 624.218C367.073 624.218 368.945 624.74 370.601 625.784C372.293 626.792 373.607 628.088 374.543 629.672V613.58H381.779V644.9C381.779 645.656 381.905 646.196 382.157 646.52C382.409 646.844 382.841 647.042 383.453 647.114V653C382.193 653.252 381.167 653.378 380.375 653.378C379.079 653.378 377.999 653.054 377.135 652.406C376.307 651.758 375.839 650.912 375.731 649.868L375.623 648.086C374.579 649.85 373.157 651.2 371.357 652.136C369.593 653.072 367.739 653.54 365.795 653.54C363.851 653.54 362.051 653.162 360.395 652.406C358.775 651.65 357.353 650.606 356.129 649.274C354.941 647.942 354.005 646.394 353.321 644.63C352.673 642.83 352.349 640.904 352.349 638.852ZM374.543 642.632V635.882C374.183 634.838 373.607 633.902 372.815 633.074C372.023 632.246 371.141 631.598 370.169 631.13C369.197 630.626 368.225 630.374 367.253 630.374C366.137 630.374 365.129 630.608 364.229 631.076C363.329 631.544 362.537 632.174 361.853 632.966C361.205 633.758 360.701 634.676 360.341 635.72C360.017 636.764 359.855 637.862 359.855 639.014C359.855 640.166 360.035 641.264 360.395 642.308C360.791 643.316 361.349 644.198 362.069 644.954C362.789 645.71 363.617 646.304 364.553 646.736C365.525 647.168 366.569 647.384 367.685 647.384C368.369 647.384 369.053 647.276 369.737 647.06C370.457 646.808 371.123 646.484 371.735 646.088C372.383 645.656 372.941 645.152 373.409 644.576C373.913 643.964 374.291 643.316 374.543 642.632ZM388.882 653V624.704H396.118V653H388.882ZM388.882 620.762V613.58H396.118V620.762H388.882ZM400.702 644.63C400.702 642.794 401.206 641.192 402.214 639.824C403.258 638.42 404.698 637.34 406.534 636.584C408.37 635.828 410.476 635.45 412.852 635.45C414.04 635.45 415.246 635.54 416.47 635.72C417.694 635.9 418.756 636.188 419.656 636.584V635.072C419.656 633.272 419.116 631.886 418.036 630.914C416.992 629.942 415.426 629.456 413.338 629.456C411.79 629.456 410.314 629.726 408.91 630.266C407.506 630.806 406.03 631.598 404.482 632.642L402.16 627.89C404.032 626.666 405.94 625.748 407.884 625.136C409.864 624.524 411.934 624.218 414.094 624.218C418.126 624.218 421.258 625.226 423.49 627.242C425.758 629.258 426.892 632.138 426.892 635.882V644.9C426.892 645.656 427.018 646.196 427.27 646.52C427.558 646.844 428.008 647.042 428.62 647.114V653C427.972 653.108 427.378 653.198 426.838 653.27C426.334 653.342 425.902 653.378 425.542 653.378C424.102 653.378 423.004 653.054 422.248 652.406C421.528 651.758 421.078 650.966 420.898 650.03L420.736 648.572C419.512 650.156 417.982 651.38 416.146 652.244C414.31 653.108 412.438 653.54 410.53 653.54C408.658 653.54 406.966 653.162 405.454 652.406C403.978 651.614 402.808 650.552 401.944 649.22C401.116 647.852 400.702 646.322 400.702 644.63ZM418.306 646.088C418.702 645.656 419.026 645.224 419.278 644.792C419.53 644.36 419.656 643.964 419.656 643.604V640.742C418.792 640.382 417.856 640.112 416.848 639.932C415.84 639.716 414.886 639.608 413.986 639.608C412.114 639.608 410.566 640.022 409.342 640.85C408.154 641.642 407.56 642.704 407.56 644.036C407.56 644.756 407.758 645.44 408.154 646.088C408.55 646.736 409.126 647.258 409.882 647.654C410.638 648.05 411.538 648.248 412.582 648.248C413.662 648.248 414.724 648.05 415.768 647.654C416.812 647.222 417.658 646.7 418.306 646.088Z" fill="white"/>
<rect x="183" y="685.5" width="261" height="63" rx="31.5" fill="#363730"/>
<rect x="183" y="685.5" width="261" height="63" rx="31.5" stroke="white" stroke-dasharray="6 6"/>
<path d="M214.438 712.339C214.258 712.141 213.997 711.934 213.655 711.718C213.313 711.484 212.908 711.268 212.44 711.07C211.972 710.872 211.468 710.71 210.928 710.584C210.388 710.458 209.83 710.395 209.254 710.395C207.994 710.395 207.058 710.629 206.446 711.097C205.834 711.565 205.528 712.213 205.528 713.041C205.528 713.653 205.699 714.139 206.041 714.499C206.383 714.841 206.905 715.129 207.607 715.363C208.309 715.597 209.191 715.849 210.253 716.119C211.549 716.425 212.674 716.794 213.628 717.226C214.582 717.64 215.311 718.198 215.815 718.9C216.319 719.602 216.571 720.529 216.571 721.681C216.571 722.653 216.391 723.49 216.031 724.192C215.671 724.894 215.167 725.47 214.519 725.92C213.871 726.352 213.124 726.676 212.278 726.892C211.432 727.09 210.523 727.189 209.551 727.189C208.597 727.189 207.643 727.09 206.689 726.892C205.753 726.694 204.853 726.406 203.989 726.028C203.143 725.632 202.36 725.155 201.64 724.597L203.017 722.005C203.251 722.239 203.584 722.5 204.016 722.788C204.466 723.058 204.979 723.319 205.555 723.571C206.149 723.823 206.788 724.039 207.472 724.219C208.174 724.381 208.885 724.462 209.605 724.462C210.811 724.462 211.729 724.255 212.359 723.841C213.007 723.409 213.331 722.797 213.331 722.005C213.331 721.357 213.124 720.844 212.71 720.466C212.296 720.07 211.693 719.737 210.901 719.467C210.109 719.197 209.164 718.927 208.066 718.657C206.806 718.315 205.753 717.946 204.907 717.55C204.061 717.136 203.422 716.614 202.99 715.984C202.576 715.336 202.369 714.517 202.369 713.527C202.369 712.267 202.675 711.205 203.287 710.341C203.899 709.459 204.727 708.802 205.771 708.37C206.833 707.92 208.021 707.695 209.335 707.695C210.199 707.695 211.018 707.794 211.792 707.992C212.566 708.172 213.286 708.424 213.952 708.748C214.636 709.072 215.257 709.441 215.815 709.855L214.438 712.339ZM219.604 727V707.83H222.628V727H219.604ZM226.961 727V707.83H229.985V724.327H240.272V727H226.961ZM241.359 707.83L247.137 723.301L252.888 707.83H256.101L248.568 727H245.706L238.146 707.83H241.359ZM271.592 724.327V727H258.443V707.83H271.349V710.503H261.467V715.957H270.026V718.468H261.467V724.327H271.592ZM274.712 727V707.83H283.055C283.919 707.83 284.711 708.01 285.431 708.37C286.151 708.73 286.772 709.207 287.294 709.801C287.834 710.395 288.248 711.061 288.536 711.799C288.842 712.537 288.995 713.293 288.995 714.067C288.995 714.913 288.842 715.723 288.536 716.497C288.23 717.271 287.789 717.937 287.213 718.495C286.655 719.053 285.998 719.458 285.242 719.71L289.751 727H286.349L282.191 720.331H277.736V727H274.712ZM277.736 717.658H283.028C283.586 717.658 284.081 717.496 284.513 717.172C284.945 716.848 285.287 716.416 285.539 715.876C285.791 715.318 285.917 714.715 285.917 714.067C285.917 713.401 285.773 712.807 285.485 712.285C285.197 711.745 284.819 711.313 284.351 710.989C283.901 710.665 283.406 710.503 282.866 710.503H277.736V717.658ZM310.573 712.339C310.393 712.141 310.132 711.934 309.79 711.718C309.448 711.484 309.043 711.268 308.575 711.07C308.107 710.872 307.603 710.71 307.063 710.584C306.523 710.458 305.965 710.395 305.389 710.395C304.129 710.395 303.193 710.629 302.581 711.097C301.969 711.565 301.663 712.213 301.663 713.041C301.663 713.653 301.834 714.139 302.176 714.499C302.518 714.841 303.04 715.129 303.742 715.363C304.444 715.597 305.326 715.849 306.388 716.119C307.684 716.425 308.809 716.794 309.763 717.226C310.717 717.64 311.446 718.198 311.95 718.9C312.454 719.602 312.706 720.529 312.706 721.681C312.706 722.653 312.526 723.49 312.166 724.192C311.806 724.894 311.302 725.47 310.654 725.92C310.006 726.352 309.259 726.676 308.413 726.892C307.567 727.09 306.658 727.189 305.686 727.189C304.732 727.189 303.778 727.09 302.824 726.892C301.888 726.694 300.988 726.406 300.124 726.028C299.278 725.632 298.495 725.155 297.775 724.597L299.152 722.005C299.386 722.239 299.719 722.5 300.151 722.788C300.601 723.058 301.114 723.319 301.69 723.571C302.284 723.823 302.923 724.039 303.607 724.219C304.309 724.381 305.02 724.462 305.74 724.462C306.946 724.462 307.864 724.255 308.494 723.841C309.142 723.409 309.466 722.797 309.466 722.005C309.466 721.357 309.259 720.844 308.845 720.466C308.431 720.07 307.828 719.737 307.036 719.467C306.244 719.197 305.299 718.927 304.201 718.657C302.941 718.315 301.888 717.946 301.042 717.55C300.196 717.136 299.557 716.614 299.125 715.984C298.711 715.336 298.504 714.517 298.504 713.527C298.504 712.267 298.81 711.205 299.422 710.341C300.034 709.459 300.862 708.802 301.906 708.37C302.968 707.92 304.156 707.695 305.47 707.695C306.334 707.695 307.153 707.794 307.927 707.992C308.701 708.172 309.421 708.424 310.087 708.748C310.771 709.072 311.392 709.441 311.95 709.855L310.573 712.339ZM315.739 727V707.83H323.785C324.649 707.83 325.441 708.01 326.161 708.37C326.881 708.73 327.511 709.207 328.051 709.801C328.591 710.395 329.005 711.061 329.293 711.799C329.581 712.537 329.725 713.293 329.725 714.067C329.725 715.129 329.482 716.146 328.996 717.118C328.528 718.072 327.853 718.846 326.971 719.44C326.107 720.034 325.099 720.331 323.947 720.331H318.763V727H315.739ZM318.763 717.658H323.758C324.334 717.658 324.838 717.505 325.27 717.199C325.702 716.875 326.035 716.443 326.269 715.903C326.521 715.363 326.647 714.751 326.647 714.067C326.647 713.365 326.503 712.744 326.215 712.204C325.927 711.664 325.549 711.25 325.081 710.962C324.631 710.656 324.136 710.503 323.596 710.503H318.763V717.658ZM340.526 727.135C339.14 727.135 337.889 726.865 336.773 726.325C335.657 725.785 334.694 725.056 333.884 724.138C333.074 723.202 332.444 722.158 331.994 721.006C331.562 719.836 331.346 718.639 331.346 717.415C331.346 716.137 331.58 714.922 332.048 713.77C332.516 712.6 333.164 711.565 333.992 710.665C334.82 709.747 335.792 709.027 336.908 708.505C338.042 707.965 339.266 707.695 340.58 707.695C341.948 707.695 343.19 707.974 344.306 708.532C345.44 709.09 346.403 709.837 347.195 710.773C348.005 711.709 348.626 712.753 349.058 713.905C349.508 715.057 349.733 716.236 349.733 717.442C349.733 718.72 349.499 719.944 349.031 721.114C348.581 722.266 347.942 723.301 347.114 724.219C346.286 725.119 345.305 725.83 344.171 726.352C343.055 726.874 341.84 727.135 340.526 727.135ZM334.424 717.415C334.424 718.315 334.568 719.188 334.856 720.034C335.144 720.88 335.549 721.636 336.071 722.302C336.611 722.95 337.259 723.463 338.015 723.841C338.771 724.219 339.617 724.408 340.553 724.408C341.525 724.408 342.389 724.21 343.145 723.814C343.901 723.418 344.531 722.887 345.035 722.221C345.557 721.537 345.953 720.781 346.223 719.953C346.493 719.107 346.628 718.261 346.628 717.415C346.628 716.515 346.484 715.651 346.196 714.823C345.926 713.977 345.521 713.23 344.981 712.582C344.441 711.916 343.793 711.394 343.037 711.016C342.299 710.638 341.471 710.449 340.553 710.449C339.581 710.449 338.717 710.647 337.961 711.043C337.205 711.439 336.566 711.97 336.044 712.636C335.522 713.302 335.117 714.049 334.829 714.877C334.559 715.705 334.424 716.551 334.424 717.415ZM355.888 713.446V727H352.864V707.83H355.348L366.202 721.681V707.857H369.253V727H366.607L355.888 713.446ZM384.902 712.339C384.722 712.141 384.461 711.934 384.119 711.718C383.777 711.484 383.372 711.268 382.904 711.07C382.436 710.872 381.932 710.71 381.392 710.584C380.852 710.458 380.294 710.395 379.718 710.395C378.458 710.395 377.522 710.629 376.91 711.097C376.298 711.565 375.992 712.213 375.992 713.041C375.992 713.653 376.163 714.139 376.505 714.499C376.847 714.841 377.369 715.129 378.071 715.363C378.773 715.597 379.655 715.849 380.717 716.119C382.013 716.425 383.138 716.794 384.092 717.226C385.046 717.64 385.775 718.198 386.279 718.9C386.783 719.602 387.035 720.529 387.035 721.681C387.035 722.653 386.855 723.49 386.495 724.192C386.135 724.894 385.631 725.47 384.983 725.92C384.335 726.352 383.588 726.676 382.742 726.892C381.896 727.09 380.987 727.189 380.015 727.189C379.061 727.189 378.107 727.09 377.153 726.892C376.217 726.694 375.317 726.406 374.453 726.028C373.607 725.632 372.824 725.155 372.104 724.597L373.481 722.005C373.715 722.239 374.048 722.5 374.48 722.788C374.93 723.058 375.443 723.319 376.019 723.571C376.613 723.823 377.252 724.039 377.936 724.219C378.638 724.381 379.349 724.462 380.069 724.462C381.275 724.462 382.193 724.255 382.823 723.841C383.471 723.409 383.795 722.797 383.795 722.005C383.795 721.357 383.588 720.844 383.174 720.466C382.76 720.07 382.157 719.737 381.365 719.467C380.573 719.197 379.628 718.927 378.53 718.657C377.27 718.315 376.217 717.946 375.371 717.55C374.525 717.136 373.886 716.614 373.454 715.984C373.04 715.336 372.833 714.517 372.833 713.527C372.833 712.267 373.139 711.205 373.751 710.341C374.363 709.459 375.191 708.802 376.235 708.37C377.297 707.92 378.485 707.695 379.799 707.695C380.663 707.695 381.482 707.794 382.256 707.992C383.03 708.172 383.75 708.424 384.416 708.748C385.1 709.072 385.721 709.441 386.279 709.855L384.902 712.339ZM398.033 727.135C396.647 727.135 395.396 726.865 394.28 726.325C393.164 725.785 392.201 725.056 391.391 724.138C390.581 723.202 389.951 722.158 389.501 721.006C389.069 719.836 388.853 718.639 388.853 717.415C388.853 716.137 389.087 714.922 389.555 713.77C390.023 712.6 390.671 711.565 391.499 710.665C392.327 709.747 393.299 709.027 394.415 708.505C395.549 707.965 396.773 707.695 398.087 707.695C399.455 707.695 400.697 707.974 401.813 708.532C402.947 709.09 403.91 709.837 404.702 710.773C405.512 711.709 406.133 712.753 406.565 713.905C407.015 715.057 407.24 716.236 407.24 717.442C407.24 718.72 407.006 719.944 406.538 721.114C406.088 722.266 405.449 723.301 404.621 724.219C403.793 725.119 402.812 725.83 401.678 726.352C400.562 726.874 399.347 727.135 398.033 727.135ZM391.931 717.415C391.931 718.315 392.075 719.188 392.363 720.034C392.651 720.88 393.056 721.636 393.578 722.302C394.118 722.95 394.766 723.463 395.522 723.841C396.278 724.219 397.124 724.408 398.06 724.408C399.032 724.408 399.896 724.21 400.652 723.814C401.408 723.418 402.038 722.887 402.542 722.221C403.064 721.537 403.46 720.781 403.73 719.953C404 719.107 404.135 718.261 404.135 717.415C404.135 716.515 403.991 715.651 403.703 714.823C403.433 713.977 403.028 713.23 402.488 712.582C401.948 711.916 401.3 711.394 400.544 711.016C399.806 710.638 398.978 710.449 398.06 710.449C397.088 710.449 396.224 710.647 395.468 711.043C394.712 711.439 394.073 711.97 393.551 712.636C393.029 713.302 392.624 714.049 392.336 714.877C392.066 715.705 391.931 716.551 391.931 717.415ZM410.371 727V707.83H418.714C419.578 707.83 420.37 708.01 421.09 708.37C421.81 708.73 422.431 709.207 422.953 709.801C423.493 710.395 423.907 711.061 424.195 711.799C424.501 712.537 424.654 713.293 424.654 714.067C424.654 714.913 424.501 715.723 424.195 716.497C423.889 717.271 423.448 717.937 422.872 718.495C422.314 719.053 421.657 719.458 420.901 719.71L425.41 727H422.008L417.85 720.331H413.395V727H410.371ZM413.395 717.658H418.687C419.245 717.658 419.74 717.496 420.172 717.172C420.604 716.848 420.946 716.416 421.198 715.876C421.45 715.318 421.576 714.715 421.576 714.067C421.576 713.401 421.432 712.807 421.144 712.285C420.856 711.745 420.478 711.313 420.01 710.989C419.56 710.665 419.065 710.503 418.525 710.503H413.395V717.658Z" fill="white" fill-opacity="0.7"/>
</svg>
