<svg width="627" height="815" viewBox="0 0 627 815" fill="none" xmlns="http://www.w3.org/2000/svg">
<rect x="0.5" y="0.5" width="626" height="814" rx="30.5" fill="#171A1A"/>
<rect x="0.5" y="0.5" width="626" height="814" rx="30.5" stroke="#413E44"/>
<line x1="62" y1="113.5" x2="565" y2="113.5" stroke="white" stroke-opacity="0.15"/>
<line x1="62" y1="182.5" x2="565" y2="182.5" stroke="white" stroke-opacity="0.15"/>
<line x1="62" y1="251.5" x2="565" y2="251.5" stroke="white" stroke-opacity="0.15"/>
<line x1="62" y1="320.5" x2="565" y2="320.5" stroke="white" stroke-opacity="0.15"/>
<line x1="62" y1="389.5" x2="565" y2="389.5" stroke="white" stroke-opacity="0.15"/>
<line x1="62" y1="458.5" x2="565" y2="458.5" stroke="white" stroke-opacity="0.15"/>
<line x1="62" y1="527.5" x2="565" y2="527.5" stroke="white" stroke-opacity="0.15"/>
<line x1="62" y1="596.5" x2="565" y2="596.5" stroke="white" stroke-opacity="0.15"/>
<line x1="62" y1="665.5" x2="565" y2="665.5" stroke="white" stroke-opacity="0.15"/>
<circle cx="43" cy="41" r="13" fill="#3F3F3F"/>
<circle cx="84" cy="41" r="13" fill="#3F3F3F"/>
<circle cx="125" cy="41" r="13" fill="#3F3F3F"/>
<path d="M278.934 624.704L284.874 633.56L285.306 634.532L285.846 633.56L291.732 624.704H299.346L289.518 638.798L299.508 653H291.894L285.792 644.198L285.306 643.28L284.874 644.198L278.826 653H271.212L281.202 638.96L271.374 624.704H278.934ZM303.572 658.508C304.22 658.652 304.814 658.778 305.354 658.886C305.93 658.994 306.416 659.048 306.812 659.048C307.496 659.048 308.054 658.868 308.486 658.508C308.954 658.184 309.404 657.572 309.836 656.672C310.268 655.808 310.718 654.584 311.186 653L300.008 624.704H307.514L315.128 645.602L321.824 624.704H328.736L316.856 658.616C316.424 659.876 315.758 661.01 314.858 662.018C313.994 663.062 312.896 663.872 311.564 664.448C310.268 665.06 308.81 665.366 307.19 665.366C306.614 665.366 306.038 665.312 305.462 665.204C304.886 665.132 304.256 664.988 303.572 664.772V658.508ZM330.777 648.572L346.383 629.78H331.425V624.704H354.159V629.132L338.661 647.924H354.429V653H330.777V648.572Z" fill="white"/>
<rect x="175.5" y="685.5" width="276" height="63" rx="31.5" fill="#363730"/>
<rect x="175.5" y="685.5" width="276" height="63" rx="31.5" stroke="white" stroke-dasharray="6 6"/>
<path d="M195.518 727V707.83H198.542V727H195.518ZM205.898 713.446V727H202.874V707.83H205.358L216.212 721.681V707.857H219.263V727H216.617L205.898 713.446ZM223.06 720.952V718.279H231.133V720.952H223.06ZM234.937 727V707.857H237.961V717.712L246.979 707.83H250.327L242.767 716.308L250.759 727H247.33L240.85 718.225L237.961 721.222V727H234.937ZM252.761 727V707.83H255.785V727H252.761ZM263.142 713.446V727H260.118V707.83H262.602L273.456 721.681V707.857H276.507V727H273.861L263.142 713.446ZM280.816 727V707.83H287.62C289.69 707.83 291.418 708.262 292.804 709.126C294.19 709.972 295.225 711.124 295.909 712.582C296.611 714.022 296.962 715.624 296.962 717.388C296.962 719.332 296.575 721.024 295.801 722.464C295.045 723.904 293.965 725.02 292.561 725.812C291.157 726.604 289.51 727 287.62 727H280.816ZM293.884 717.388C293.884 716.038 293.632 714.85 293.128 713.824C292.642 712.78 291.931 711.97 290.995 711.394C290.077 710.8 288.952 710.503 287.62 710.503H283.84V724.327H287.62C288.97 724.327 290.104 724.021 291.022 723.409C291.958 722.797 292.669 721.969 293.155 720.925C293.641 719.881 293.884 718.702 293.884 717.388ZM318.154 712.339C317.974 712.141 317.713 711.934 317.371 711.718C317.029 711.484 316.624 711.268 316.156 711.07C315.688 710.872 315.184 710.71 314.644 710.584C314.104 710.458 313.546 710.395 312.97 710.395C311.71 710.395 310.774 710.629 310.162 711.097C309.55 711.565 309.244 712.213 309.244 713.041C309.244 713.653 309.415 714.139 309.757 714.499C310.099 714.841 310.621 715.129 311.323 715.363C312.025 715.597 312.907 715.849 313.969 716.119C315.265 716.425 316.39 716.794 317.344 717.226C318.298 717.64 319.027 718.198 319.531 718.9C320.035 719.602 320.287 720.529 320.287 721.681C320.287 722.653 320.107 723.49 319.747 724.192C319.387 724.894 318.883 725.47 318.235 725.92C317.587 726.352 316.84 726.676 315.994 726.892C315.148 727.09 314.239 727.189 313.267 727.189C312.313 727.189 311.359 727.09 310.405 726.892C309.469 726.694 308.569 726.406 307.705 726.028C306.859 725.632 306.076 725.155 305.356 724.597L306.733 722.005C306.967 722.239 307.3 722.5 307.732 722.788C308.182 723.058 308.695 723.319 309.271 723.571C309.865 723.823 310.504 724.039 311.188 724.219C311.89 724.381 312.601 724.462 313.321 724.462C314.527 724.462 315.445 724.255 316.075 723.841C316.723 723.409 317.047 722.797 317.047 722.005C317.047 721.357 316.84 720.844 316.426 720.466C316.012 720.07 315.409 719.737 314.617 719.467C313.825 719.197 312.88 718.927 311.782 718.657C310.522 718.315 309.469 717.946 308.623 717.55C307.777 717.136 307.138 716.614 306.706 715.984C306.292 715.336 306.085 714.517 306.085 713.527C306.085 712.267 306.391 711.205 307.003 710.341C307.615 709.459 308.443 708.802 309.487 708.37C310.549 707.92 311.737 707.695 313.051 707.695C313.915 707.695 314.734 707.794 315.508 707.992C316.282 708.172 317.002 708.424 317.668 708.748C318.352 709.072 318.973 709.441 319.531 709.855L318.154 712.339ZM323.32 727V707.83H331.366C332.23 707.83 333.022 708.01 333.742 708.37C334.462 708.73 335.092 709.207 335.632 709.801C336.172 710.395 336.586 711.061 336.874 711.799C337.162 712.537 337.306 713.293 337.306 714.067C337.306 715.129 337.063 716.146 336.577 717.118C336.109 718.072 335.434 718.846 334.552 719.44C333.688 720.034 332.68 720.331 331.528 720.331H326.344V727H323.32ZM326.344 717.658H331.339C331.915 717.658 332.419 717.505 332.851 717.199C333.283 716.875 333.616 716.443 333.85 715.903C334.102 715.363 334.228 714.751 334.228 714.067C334.228 713.365 334.084 712.744 333.796 712.204C333.508 711.664 333.13 711.25 332.662 710.962C332.212 710.656 331.717 710.503 331.177 710.503H326.344V717.658ZM348.107 727.135C346.721 727.135 345.47 726.865 344.354 726.325C343.238 725.785 342.275 725.056 341.465 724.138C340.655 723.202 340.025 722.158 339.575 721.006C339.143 719.836 338.927 718.639 338.927 717.415C338.927 716.137 339.161 714.922 339.629 713.77C340.097 712.6 340.745 711.565 341.573 710.665C342.401 709.747 343.373 709.027 344.489 708.505C345.623 707.965 346.847 707.695 348.161 707.695C349.529 707.695 350.771 707.974 351.887 708.532C353.021 709.09 353.984 709.837 354.776 710.773C355.586 711.709 356.207 712.753 356.639 713.905C357.089 715.057 357.314 716.236 357.314 717.442C357.314 718.72 357.08 719.944 356.612 721.114C356.162 722.266 355.523 723.301 354.695 724.219C353.867 725.119 352.886 725.83 351.752 726.352C350.636 726.874 349.421 727.135 348.107 727.135ZM342.005 717.415C342.005 718.315 342.149 719.188 342.437 720.034C342.725 720.88 343.13 721.636 343.652 722.302C344.192 722.95 344.84 723.463 345.596 723.841C346.352 724.219 347.198 724.408 348.134 724.408C349.106 724.408 349.97 724.21 350.726 723.814C351.482 723.418 352.112 722.887 352.616 722.221C353.138 721.537 353.534 720.781 353.804 719.953C354.074 719.107 354.209 718.261 354.209 717.415C354.209 716.515 354.065 715.651 353.777 714.823C353.507 713.977 353.102 713.23 352.562 712.582C352.022 711.916 351.374 711.394 350.618 711.016C349.88 710.638 349.052 710.449 348.134 710.449C347.162 710.449 346.298 710.647 345.542 711.043C344.786 711.439 344.147 711.97 343.625 712.636C343.103 713.302 342.698 714.049 342.41 714.877C342.14 715.705 342.005 716.551 342.005 717.415ZM363.469 713.446V727H360.445V707.83H362.929L373.783 721.681V707.857H376.834V727H374.188L363.469 713.446ZM392.483 712.339C392.303 712.141 392.042 711.934 391.7 711.718C391.358 711.484 390.953 711.268 390.485 711.07C390.017 710.872 389.513 710.71 388.973 710.584C388.433 710.458 387.875 710.395 387.299 710.395C386.039 710.395 385.103 710.629 384.491 711.097C383.879 711.565 383.573 712.213 383.573 713.041C383.573 713.653 383.744 714.139 384.086 714.499C384.428 714.841 384.95 715.129 385.652 715.363C386.354 715.597 387.236 715.849 388.298 716.119C389.594 716.425 390.719 716.794 391.673 717.226C392.627 717.64 393.356 718.198 393.86 718.9C394.364 719.602 394.616 720.529 394.616 721.681C394.616 722.653 394.436 723.49 394.076 724.192C393.716 724.894 393.212 725.47 392.564 725.92C391.916 726.352 391.169 726.676 390.323 726.892C389.477 727.09 388.568 727.189 387.596 727.189C386.642 727.189 385.688 727.09 384.734 726.892C383.798 726.694 382.898 726.406 382.034 726.028C381.188 725.632 380.405 725.155 379.685 724.597L381.062 722.005C381.296 722.239 381.629 722.5 382.061 722.788C382.511 723.058 383.024 723.319 383.6 723.571C384.194 723.823 384.833 724.039 385.517 724.219C386.219 724.381 386.93 724.462 387.65 724.462C388.856 724.462 389.774 724.255 390.404 723.841C391.052 723.409 391.376 722.797 391.376 722.005C391.376 721.357 391.169 720.844 390.755 720.466C390.341 720.07 389.738 719.737 388.946 719.467C388.154 719.197 387.209 718.927 386.111 718.657C384.851 718.315 383.798 717.946 382.952 717.55C382.106 717.136 381.467 716.614 381.035 715.984C380.621 715.336 380.414 714.517 380.414 713.527C380.414 712.267 380.72 711.205 381.332 710.341C381.944 709.459 382.772 708.802 383.816 708.37C384.878 707.92 386.066 707.695 387.38 707.695C388.244 707.695 389.063 707.794 389.837 707.992C390.611 708.172 391.331 708.424 391.997 708.748C392.681 709.072 393.302 709.441 393.86 709.855L392.483 712.339ZM405.614 727.135C404.228 727.135 402.977 726.865 401.861 726.325C400.745 725.785 399.782 725.056 398.972 724.138C398.162 723.202 397.532 722.158 397.082 721.006C396.65 719.836 396.434 718.639 396.434 717.415C396.434 716.137 396.668 714.922 397.136 713.77C397.604 712.6 398.252 711.565 399.08 710.665C399.908 709.747 400.88 709.027 401.996 708.505C403.13 707.965 404.354 707.695 405.668 707.695C407.036 707.695 408.278 707.974 409.394 708.532C410.528 709.09 411.491 709.837 412.283 710.773C413.093 711.709 413.714 712.753 414.146 713.905C414.596 715.057 414.821 716.236 414.821 717.442C414.821 718.72 414.587 719.944 414.119 721.114C413.669 722.266 413.03 723.301 412.202 724.219C411.374 725.119 410.393 725.83 409.259 726.352C408.143 726.874 406.928 727.135 405.614 727.135ZM399.512 717.415C399.512 718.315 399.656 719.188 399.944 720.034C400.232 720.88 400.637 721.636 401.159 722.302C401.699 722.95 402.347 723.463 403.103 723.841C403.859 724.219 404.705 724.408 405.641 724.408C406.613 724.408 407.477 724.21 408.233 723.814C408.989 723.418 409.619 722.887 410.123 722.221C410.645 721.537 411.041 720.781 411.311 719.953C411.581 719.107 411.716 718.261 411.716 717.415C411.716 716.515 411.572 715.651 411.284 714.823C411.014 713.977 410.609 713.23 410.069 712.582C409.529 711.916 408.881 711.394 408.125 711.016C407.387 710.638 406.559 710.449 405.641 710.449C404.669 710.449 403.805 710.647 403.049 711.043C402.293 711.439 401.654 711.97 401.132 712.636C400.61 713.302 400.205 714.049 399.917 714.877C399.647 715.705 399.512 716.551 399.512 717.415ZM417.952 727V707.83H426.295C427.159 707.83 427.951 708.01 428.671 708.37C429.391 708.73 430.012 709.207 430.534 709.801C431.074 710.395 431.488 711.061 431.776 711.799C432.082 712.537 432.235 713.293 432.235 714.067C432.235 714.913 432.082 715.723 431.776 716.497C431.47 717.271 431.029 717.937 430.453 718.495C429.895 719.053 429.238 719.458 428.482 719.71L432.991 727H429.589L425.431 720.331H420.976V727H417.952ZM420.976 717.658H426.268C426.826 717.658 427.321 717.496 427.753 717.172C428.185 716.848 428.527 716.416 428.779 715.876C429.031 715.318 429.157 714.715 429.157 714.067C429.157 713.401 429.013 712.807 428.725 712.285C428.437 711.745 428.059 711.313 427.591 710.989C427.141 710.665 426.646 710.503 426.106 710.503H420.976V717.658Z" fill="white" fill-opacity="0.7"/>
</svg>
