<svg width="627" height="815" viewBox="0 0 627 815" fill="none" xmlns="http://www.w3.org/2000/svg">
<rect x="0.5" y="0.5" width="626" height="814" rx="30.5" fill="#171A1A"/>
<rect x="0.5" y="0.5" width="626" height="814" rx="30.5" stroke="#413E44"/>
<line x1="62" y1="113.5" x2="565" y2="113.5" stroke="white" stroke-opacity="0.15"/>
<line x1="62" y1="182.5" x2="565" y2="182.5" stroke="white" stroke-opacity="0.15"/>
<line x1="62" y1="251.5" x2="565" y2="251.5" stroke="white" stroke-opacity="0.15"/>
<line x1="62" y1="320.5" x2="565" y2="320.5" stroke="white" stroke-opacity="0.15"/>
<line x1="62" y1="389.5" x2="565" y2="389.5" stroke="white" stroke-opacity="0.15"/>
<line x1="62" y1="458.5" x2="565" y2="458.5" stroke="white" stroke-opacity="0.15"/>
<line x1="62" y1="527.5" x2="565" y2="527.5" stroke="white" stroke-opacity="0.15"/>
<line x1="62" y1="596.5" x2="565" y2="596.5" stroke="white" stroke-opacity="0.15"/>
<line x1="62" y1="665.5" x2="565" y2="665.5" stroke="white" stroke-opacity="0.15"/>
<circle cx="43" cy="41" r="13" fill="#3F3F3F"/>
<circle cx="84" cy="41" r="13" fill="#3F3F3F"/>
<circle cx="125" cy="41" r="13" fill="#3F3F3F"/>
<path d="M227.259 646.466V653H200.637V614.66H226.773V621.194H208.089V630.428H224.235V636.476H208.089V646.466H227.259ZM261.742 621.194H249.484V653H242.086V621.194H229.828V614.66H261.742V621.194ZM298.74 614.66V653H291.342V636.638H273.954V653H266.502V614.66H273.954V630.158H291.342V614.66H298.74ZM306.738 653V614.66H314.19V653H306.738ZM347.785 653H340.549V637.124C340.549 634.856 340.153 633.2 339.361 632.156C338.569 631.112 337.471 630.59 336.067 630.59C335.095 630.59 334.105 630.842 333.097 631.346C332.125 631.85 331.243 632.552 330.451 633.452C329.659 634.316 329.083 635.324 328.723 636.476V653H321.487V624.704H328.021V629.942C328.741 628.718 329.659 627.692 330.775 626.864C331.891 626 333.169 625.352 334.609 624.92C336.085 624.452 337.633 624.218 339.253 624.218C341.017 624.218 342.457 624.542 343.573 625.19C344.725 625.802 345.589 626.648 346.165 627.728C346.777 628.772 347.191 629.96 347.407 631.292C347.659 632.624 347.785 633.974 347.785 635.342V653ZM352.349 638.852C352.349 636.116 352.889 633.65 353.969 631.454C355.049 629.222 356.543 627.458 358.451 626.162C360.359 624.866 362.537 624.218 364.985 624.218C367.073 624.218 368.945 624.74 370.601 625.784C372.293 626.792 373.607 628.088 374.543 629.672V613.58H381.779V644.9C381.779 645.656 381.905 646.196 382.157 646.52C382.409 646.844 382.841 647.042 383.453 647.114V653C382.193 653.252 381.167 653.378 380.375 653.378C379.079 653.378 377.999 653.054 377.135 652.406C376.307 651.758 375.839 650.912 375.731 649.868L375.623 648.086C374.579 649.85 373.157 651.2 371.357 652.136C369.593 653.072 367.739 653.54 365.795 653.54C363.851 653.54 362.051 653.162 360.395 652.406C358.775 651.65 357.353 650.606 356.129 649.274C354.941 647.942 354.005 646.394 353.321 644.63C352.673 642.83 352.349 640.904 352.349 638.852ZM374.543 642.632V635.882C374.183 634.838 373.607 633.902 372.815 633.074C372.023 632.246 371.141 631.598 370.169 631.13C369.197 630.626 368.225 630.374 367.253 630.374C366.137 630.374 365.129 630.608 364.229 631.076C363.329 631.544 362.537 632.174 361.853 632.966C361.205 633.758 360.701 634.676 360.341 635.72C360.017 636.764 359.855 637.862 359.855 639.014C359.855 640.166 360.035 641.264 360.395 642.308C360.791 643.316 361.349 644.198 362.069 644.954C362.789 645.71 363.617 646.304 364.553 646.736C365.525 647.168 366.569 647.384 367.685 647.384C368.369 647.384 369.053 647.276 369.737 647.06C370.457 646.808 371.123 646.484 371.735 646.088C372.383 645.656 372.941 645.152 373.409 644.576C373.913 643.964 374.291 643.316 374.543 642.632ZM388.882 653V624.704H396.118V653H388.882ZM388.882 620.762V613.58H396.118V620.762H388.882ZM400.702 644.63C400.702 642.794 401.206 641.192 402.214 639.824C403.258 638.42 404.698 637.34 406.534 636.584C408.37 635.828 410.476 635.45 412.852 635.45C414.04 635.45 415.246 635.54 416.47 635.72C417.694 635.9 418.756 636.188 419.656 636.584V635.072C419.656 633.272 419.116 631.886 418.036 630.914C416.992 629.942 415.426 629.456 413.338 629.456C411.79 629.456 410.314 629.726 408.91 630.266C407.506 630.806 406.03 631.598 404.482 632.642L402.16 627.89C404.032 626.666 405.94 625.748 407.884 625.136C409.864 624.524 411.934 624.218 414.094 624.218C418.126 624.218 421.258 625.226 423.49 627.242C425.758 629.258 426.892 632.138 426.892 635.882V644.9C426.892 645.656 427.018 646.196 427.27 646.52C427.558 646.844 428.008 647.042 428.62 647.114V653C427.972 653.108 427.378 653.198 426.838 653.27C426.334 653.342 425.902 653.378 425.542 653.378C424.102 653.378 423.004 653.054 422.248 652.406C421.528 651.758 421.078 650.966 420.898 650.03L420.736 648.572C419.512 650.156 417.982 651.38 416.146 652.244C414.31 653.108 412.438 653.54 410.53 653.54C408.658 653.54 406.966 653.162 405.454 652.406C403.978 651.614 402.808 650.552 401.944 649.22C401.116 647.852 400.702 646.322 400.702 644.63ZM418.306 646.088C418.702 645.656 419.026 645.224 419.278 644.792C419.53 644.36 419.656 643.964 419.656 643.604V640.742C418.792 640.382 417.856 640.112 416.848 639.932C415.84 639.716 414.886 639.608 413.986 639.608C412.114 639.608 410.566 640.022 409.342 640.85C408.154 641.642 407.56 642.704 407.56 644.036C407.56 644.756 407.758 645.44 408.154 646.088C408.55 646.736 409.126 647.258 409.882 647.654C410.638 648.05 411.538 648.248 412.582 648.248C413.662 648.248 414.724 648.05 415.768 647.654C416.812 647.222 417.658 646.7 418.306 646.088Z" fill="white"/>
<rect x="156.5" y="685.5" width="314" height="63" rx="31.5" fill="#363730"/>
<rect x="156.5" y="685.5" width="314" height="63" rx="31.5" stroke="white" stroke-dasharray="6 6"/>
<path d="M176.52 727V707.83H184.566C185.43 707.83 186.222 708.01 186.942 708.37C187.662 708.73 188.292 709.207 188.832 709.801C189.372 710.395 189.786 711.061 190.074 711.799C190.362 712.537 190.506 713.293 190.506 714.067C190.506 715.129 190.263 716.146 189.777 717.118C189.309 718.072 188.634 718.846 187.752 719.44C186.888 720.034 185.88 720.331 184.728 720.331H179.544V727H176.52ZM179.544 717.658H184.539C185.115 717.658 185.619 717.505 186.051 717.199C186.483 716.875 186.816 716.443 187.05 715.903C187.302 715.363 187.428 714.751 187.428 714.067C187.428 713.365 187.284 712.744 186.996 712.204C186.708 711.664 186.33 711.25 185.862 710.962C185.412 710.656 184.917 710.503 184.377 710.503H179.544V717.658ZM193.343 727V707.83H196.367V724.327H206.654V727H193.343ZM214.645 707.83H217.507L224.959 727H221.773L219.748 721.789H212.35L210.352 727H207.139L214.645 707.83ZM219.154 719.548L216.076 711.151L212.89 719.548H219.154ZM239.604 710.503H233.232V727H230.181V710.503H223.782V707.83H239.604V710.503ZM242.175 727V707.83H254.946V710.503H245.199V716.227H253.353V718.738H245.199V727H242.175ZM265.459 727.135C264.073 727.135 262.822 726.865 261.706 726.325C260.59 725.785 259.627 725.056 258.817 724.138C258.007 723.202 257.377 722.158 256.927 721.006C256.495 719.836 256.279 718.639 256.279 717.415C256.279 716.137 256.513 714.922 256.981 713.77C257.449 712.6 258.097 711.565 258.925 710.665C259.753 709.747 260.725 709.027 261.841 708.505C262.975 707.965 264.199 707.695 265.513 707.695C266.881 707.695 268.123 707.974 269.239 708.532C270.373 709.09 271.336 709.837 272.128 710.773C272.938 711.709 273.559 712.753 273.991 713.905C274.441 715.057 274.666 716.236 274.666 717.442C274.666 718.72 274.432 719.944 273.964 721.114C273.514 722.266 272.875 723.301 272.047 724.219C271.219 725.119 270.238 725.83 269.104 726.352C267.988 726.874 266.773 727.135 265.459 727.135ZM259.357 717.415C259.357 718.315 259.501 719.188 259.789 720.034C260.077 720.88 260.482 721.636 261.004 722.302C261.544 722.95 262.192 723.463 262.948 723.841C263.704 724.219 264.55 724.408 265.486 724.408C266.458 724.408 267.322 724.21 268.078 723.814C268.834 723.418 269.464 722.887 269.968 722.221C270.49 721.537 270.886 720.781 271.156 719.953C271.426 719.107 271.561 718.261 271.561 717.415C271.561 716.515 271.417 715.651 271.129 714.823C270.859 713.977 270.454 713.23 269.914 712.582C269.374 711.916 268.726 711.394 267.97 711.016C267.232 710.638 266.404 710.449 265.486 710.449C264.514 710.449 263.65 710.647 262.894 711.043C262.138 711.439 261.499 711.97 260.977 712.636C260.455 713.302 260.05 714.049 259.762 714.877C259.492 715.705 259.357 716.551 259.357 717.415ZM277.797 727V707.83H286.14C287.004 707.83 287.796 708.01 288.516 708.37C289.236 708.73 289.857 709.207 290.379 709.801C290.919 710.395 291.333 711.061 291.621 711.799C291.927 712.537 292.08 713.293 292.08 714.067C292.08 714.913 291.927 715.723 291.621 716.497C291.315 717.271 290.874 717.937 290.298 718.495C289.74 719.053 289.083 719.458 288.327 719.71L292.836 727H289.434L285.276 720.331H280.821V727H277.797ZM280.821 717.658H286.113C286.671 717.658 287.166 717.496 287.598 717.172C288.03 716.848 288.372 716.416 288.624 715.876C288.876 715.318 289.002 714.715 289.002 714.067C289.002 713.401 288.858 712.807 288.57 712.285C288.282 711.745 287.904 711.313 287.436 710.989C286.986 710.665 286.491 710.503 285.951 710.503H280.821V717.658ZM311.766 727V713.338L306.123 723.706H304.341L298.671 713.338V727H295.647V707.83H298.887L305.232 719.548L311.577 707.83H314.817V727H311.766ZM337.151 712.339C336.971 712.141 336.71 711.934 336.368 711.718C336.026 711.484 335.621 711.268 335.153 711.07C334.685 710.872 334.181 710.71 333.641 710.584C333.101 710.458 332.543 710.395 331.967 710.395C330.707 710.395 329.771 710.629 329.159 711.097C328.547 711.565 328.241 712.213 328.241 713.041C328.241 713.653 328.412 714.139 328.754 714.499C329.096 714.841 329.618 715.129 330.32 715.363C331.022 715.597 331.904 715.849 332.966 716.119C334.262 716.425 335.387 716.794 336.341 717.226C337.295 717.64 338.024 718.198 338.528 718.9C339.032 719.602 339.284 720.529 339.284 721.681C339.284 722.653 339.104 723.49 338.744 724.192C338.384 724.894 337.88 725.47 337.232 725.92C336.584 726.352 335.837 726.676 334.991 726.892C334.145 727.09 333.236 727.189 332.264 727.189C331.31 727.189 330.356 727.09 329.402 726.892C328.466 726.694 327.566 726.406 326.702 726.028C325.856 725.632 325.073 725.155 324.353 724.597L325.73 722.005C325.964 722.239 326.297 722.5 326.729 722.788C327.179 723.058 327.692 723.319 328.268 723.571C328.862 723.823 329.501 724.039 330.185 724.219C330.887 724.381 331.598 724.462 332.318 724.462C333.524 724.462 334.442 724.255 335.072 723.841C335.72 723.409 336.044 722.797 336.044 722.005C336.044 721.357 335.837 720.844 335.423 720.466C335.009 720.07 334.406 719.737 333.614 719.467C332.822 719.197 331.877 718.927 330.779 718.657C329.519 718.315 328.466 717.946 327.62 717.55C326.774 717.136 326.135 716.614 325.703 715.984C325.289 715.336 325.082 714.517 325.082 713.527C325.082 712.267 325.388 711.205 326 710.341C326.612 709.459 327.44 708.802 328.484 708.37C329.546 707.92 330.734 707.695 332.048 707.695C332.912 707.695 333.731 707.794 334.505 707.992C335.279 708.172 335.999 708.424 336.665 708.748C337.349 709.072 337.97 709.441 338.528 709.855L337.151 712.339ZM342.317 727V707.83H350.363C351.227 707.83 352.019 708.01 352.739 708.37C353.459 708.73 354.089 709.207 354.629 709.801C355.169 710.395 355.583 711.061 355.871 711.799C356.159 712.537 356.303 713.293 356.303 714.067C356.303 715.129 356.06 716.146 355.574 717.118C355.106 718.072 354.431 718.846 353.549 719.44C352.685 720.034 351.677 720.331 350.525 720.331H345.341V727H342.317ZM345.341 717.658H350.336C350.912 717.658 351.416 717.505 351.848 717.199C352.28 716.875 352.613 716.443 352.847 715.903C353.099 715.363 353.225 714.751 353.225 714.067C353.225 713.365 353.081 712.744 352.793 712.204C352.505 711.664 352.127 711.25 351.659 710.962C351.209 710.656 350.714 710.503 350.174 710.503H345.341V717.658ZM367.104 727.135C365.718 727.135 364.467 726.865 363.351 726.325C362.235 725.785 361.272 725.056 360.462 724.138C359.652 723.202 359.022 722.158 358.572 721.006C358.14 719.836 357.924 718.639 357.924 717.415C357.924 716.137 358.158 714.922 358.626 713.77C359.094 712.6 359.742 711.565 360.57 710.665C361.398 709.747 362.37 709.027 363.486 708.505C364.62 707.965 365.844 707.695 367.158 707.695C368.526 707.695 369.768 707.974 370.884 708.532C372.018 709.09 372.981 709.837 373.773 710.773C374.583 711.709 375.204 712.753 375.636 713.905C376.086 715.057 376.311 716.236 376.311 717.442C376.311 718.72 376.077 719.944 375.609 721.114C375.159 722.266 374.52 723.301 373.692 724.219C372.864 725.119 371.883 725.83 370.749 726.352C369.633 726.874 368.418 727.135 367.104 727.135ZM361.002 717.415C361.002 718.315 361.146 719.188 361.434 720.034C361.722 720.88 362.127 721.636 362.649 722.302C363.189 722.95 363.837 723.463 364.593 723.841C365.349 724.219 366.195 724.408 367.131 724.408C368.103 724.408 368.967 724.21 369.723 723.814C370.479 723.418 371.109 722.887 371.613 722.221C372.135 721.537 372.531 720.781 372.801 719.953C373.071 719.107 373.206 718.261 373.206 717.415C373.206 716.515 373.062 715.651 372.774 714.823C372.504 713.977 372.099 713.23 371.559 712.582C371.019 711.916 370.371 711.394 369.615 711.016C368.877 710.638 368.049 710.449 367.131 710.449C366.159 710.449 365.295 710.647 364.539 711.043C363.783 711.439 363.144 711.97 362.622 712.636C362.1 713.302 361.695 714.049 361.407 714.877C361.137 715.705 361.002 716.551 361.002 717.415ZM382.466 713.446V727H379.442V707.83H381.926L392.78 721.681V707.857H395.831V727H393.185L382.466 713.446ZM411.48 712.339C411.3 712.141 411.039 711.934 410.697 711.718C410.355 711.484 409.95 711.268 409.482 711.07C409.014 710.872 408.51 710.71 407.97 710.584C407.43 710.458 406.872 710.395 406.296 710.395C405.036 710.395 404.1 710.629 403.488 711.097C402.876 711.565 402.57 712.213 402.57 713.041C402.57 713.653 402.741 714.139 403.083 714.499C403.425 714.841 403.947 715.129 404.649 715.363C405.351 715.597 406.233 715.849 407.295 716.119C408.591 716.425 409.716 716.794 410.67 717.226C411.624 717.64 412.353 718.198 412.857 718.9C413.361 719.602 413.613 720.529 413.613 721.681C413.613 722.653 413.433 723.49 413.073 724.192C412.713 724.894 412.209 725.47 411.561 725.92C410.913 726.352 410.166 726.676 409.32 726.892C408.474 727.09 407.565 727.189 406.593 727.189C405.639 727.189 404.685 727.09 403.731 726.892C402.795 726.694 401.895 726.406 401.031 726.028C400.185 725.632 399.402 725.155 398.682 724.597L400.059 722.005C400.293 722.239 400.626 722.5 401.058 722.788C401.508 723.058 402.021 723.319 402.597 723.571C403.191 723.823 403.83 724.039 404.514 724.219C405.216 724.381 405.927 724.462 406.647 724.462C407.853 724.462 408.771 724.255 409.401 723.841C410.049 723.409 410.373 722.797 410.373 722.005C410.373 721.357 410.166 720.844 409.752 720.466C409.338 720.07 408.735 719.737 407.943 719.467C407.151 719.197 406.206 718.927 405.108 718.657C403.848 718.315 402.795 717.946 401.949 717.55C401.103 717.136 400.464 716.614 400.032 715.984C399.618 715.336 399.411 714.517 399.411 713.527C399.411 712.267 399.717 711.205 400.329 710.341C400.941 709.459 401.769 708.802 402.813 708.37C403.875 707.92 405.063 707.695 406.377 707.695C407.241 707.695 408.06 707.794 408.834 707.992C409.608 708.172 410.328 708.424 410.994 708.748C411.678 709.072 412.299 709.441 412.857 709.855L411.48 712.339ZM424.611 727.135C423.225 727.135 421.974 726.865 420.858 726.325C419.742 725.785 418.779 725.056 417.969 724.138C417.159 723.202 416.529 722.158 416.079 721.006C415.647 719.836 415.431 718.639 415.431 717.415C415.431 716.137 415.665 714.922 416.133 713.77C416.601 712.6 417.249 711.565 418.077 710.665C418.905 709.747 419.877 709.027 420.993 708.505C422.127 707.965 423.351 707.695 424.665 707.695C426.033 707.695 427.275 707.974 428.391 708.532C429.525 709.09 430.488 709.837 431.28 710.773C432.09 711.709 432.711 712.753 433.143 713.905C433.593 715.057 433.818 716.236 433.818 717.442C433.818 718.72 433.584 719.944 433.116 721.114C432.666 722.266 432.027 723.301 431.199 724.219C430.371 725.119 429.39 725.83 428.256 726.352C427.14 726.874 425.925 727.135 424.611 727.135ZM418.509 717.415C418.509 718.315 418.653 719.188 418.941 720.034C419.229 720.88 419.634 721.636 420.156 722.302C420.696 722.95 421.344 723.463 422.1 723.841C422.856 724.219 423.702 724.408 424.638 724.408C425.61 724.408 426.474 724.21 427.23 723.814C427.986 723.418 428.616 722.887 429.12 722.221C429.642 721.537 430.038 720.781 430.308 719.953C430.578 719.107 430.713 718.261 430.713 717.415C430.713 716.515 430.569 715.651 430.281 714.823C430.011 713.977 429.606 713.23 429.066 712.582C428.526 711.916 427.878 711.394 427.122 711.016C426.384 710.638 425.556 710.449 424.638 710.449C423.666 710.449 422.802 710.647 422.046 711.043C421.29 711.439 420.651 711.97 420.129 712.636C419.607 713.302 419.202 714.049 418.914 714.877C418.644 715.705 418.509 716.551 418.509 717.415ZM436.949 727V707.83H445.292C446.156 707.83 446.948 708.01 447.668 708.37C448.388 708.73 449.009 709.207 449.531 709.801C450.071 710.395 450.485 711.061 450.773 711.799C451.079 712.537 451.232 713.293 451.232 714.067C451.232 714.913 451.079 715.723 450.773 716.497C450.467 717.271 450.026 717.937 449.45 718.495C448.892 719.053 448.235 719.458 447.479 719.71L451.988 727H448.586L444.428 720.331H439.973V727H436.949ZM439.973 717.658H445.265C445.823 717.658 446.318 717.496 446.75 717.172C447.182 716.848 447.524 716.416 447.776 715.876C448.028 715.318 448.154 714.715 448.154 714.067C448.154 713.401 448.01 712.807 447.722 712.285C447.434 711.745 447.056 711.313 446.588 710.989C446.138 710.665 445.643 710.503 445.103 710.503H439.973V717.658Z" fill="white" fill-opacity="0.7"/>
</svg>
