<svg width="627" height="815" viewBox="0 0 627 815" fill="none" xmlns="http://www.w3.org/2000/svg">
<rect x="0.5" y="0.5" width="626" height="814" rx="30.5" fill="#171A1A"/>
<rect x="0.5" y="0.5" width="626" height="814" rx="30.5" stroke="#413E44"/>
<line x1="62" y1="113.5" x2="565" y2="113.5" stroke="white" stroke-opacity="0.15"/>
<line x1="62" y1="183.5" x2="565" y2="183.5" stroke="white" stroke-opacity="0.15"/>
<line x1="62" y1="253.5" x2="565" y2="253.5" stroke="white" stroke-opacity="0.15"/>
<line x1="62" y1="323.5" x2="565" y2="323.5" stroke="white" stroke-opacity="0.15"/>
<line x1="62" y1="393.5" x2="565" y2="393.5" stroke="white" stroke-opacity="0.15"/>
<line x1="62" y1="463.5" x2="565" y2="463.5" stroke="white" stroke-opacity="0.15"/>
<line x1="62" y1="533.5" x2="565" y2="533.5" stroke="white" stroke-opacity="0.15"/>
<line x1="62" y1="603.5" x2="565" y2="603.5" stroke="white" stroke-opacity="0.15"/>
<line x1="62" y1="673.5" x2="565" y2="673.5" stroke="white" stroke-opacity="0.15"/>
<circle cx="43" cy="41" r="13" fill="#3F3F3F"/>
<circle cx="84" cy="41" r="13" fill="#3F3F3F"/>
<circle cx="125" cy="41" r="13" fill="#3F3F3F"/>
<path d="M212.502 653V614.66H228.756C230.52 614.66 232.14 615.02 233.616 615.74C235.092 616.46 236.37 617.432 237.45 618.656C238.566 619.88 239.43 621.248 240.042 622.76C240.654 624.272 240.96 625.82 240.96 627.404C240.96 629.564 240.456 631.616 239.448 633.56C238.44 635.504 237.054 637.088 235.29 638.312C233.526 639.536 231.438 640.148 229.026 640.148H219.954V653H212.502ZM219.954 633.614H228.594C229.494 633.614 230.304 633.362 231.024 632.858C231.744 632.354 232.32 631.634 232.752 630.698C233.184 629.726 233.4 628.628 233.4 627.404C233.4 626.072 233.148 624.938 232.644 624.002C232.176 623.066 231.546 622.364 230.754 621.896C229.998 621.428 229.17 621.194 228.27 621.194H219.954V633.614ZM257.932 653.54C255.628 653.54 253.558 653.162 251.722 652.406C249.886 651.614 248.32 650.534 247.024 649.166C245.764 647.798 244.792 646.232 244.108 644.468C243.424 642.704 243.082 640.85 243.082 638.906C243.082 636.926 243.424 635.054 244.108 633.29C244.792 631.526 245.764 629.96 247.024 628.592C248.32 627.224 249.886 626.162 251.722 625.406C253.558 624.614 255.628 624.218 257.932 624.218C260.236 624.218 262.288 624.614 264.088 625.406C265.924 626.162 267.49 627.224 268.786 628.592C270.082 629.96 271.054 631.526 271.702 633.29C272.386 635.054 272.728 636.926 272.728 638.906C272.728 640.85 272.386 642.704 271.702 644.468C271.054 646.232 270.082 647.798 268.786 649.166C267.526 650.534 265.978 651.614 264.142 652.406C262.306 653.162 260.236 653.54 257.932 653.54ZM250.534 638.906C250.534 640.562 250.858 642.038 251.506 643.334C252.154 644.594 253.036 645.584 254.152 646.304C255.268 647.024 256.528 647.384 257.932 647.384C259.3 647.384 260.542 647.024 261.658 646.304C262.774 645.548 263.656 644.54 264.304 643.28C264.988 641.984 265.33 640.508 265.33 638.852C265.33 637.232 264.988 635.774 264.304 634.478C263.656 633.182 262.774 632.174 261.658 631.454C260.542 630.734 259.3 630.374 257.932 630.374C256.528 630.374 255.268 630.752 254.152 631.508C253.036 632.228 252.154 633.236 251.506 634.532C250.858 635.792 250.534 637.25 250.534 638.906ZM277.558 613.58H284.794V643.928C284.794 645.224 285.01 646.106 285.442 646.574C285.874 647.006 286.468 647.222 287.224 647.222C287.8 647.222 288.394 647.15 289.006 647.006C289.618 646.862 290.158 646.682 290.626 646.466L291.598 651.974C290.626 652.442 289.492 652.802 288.196 653.054C286.9 653.306 285.73 653.432 284.686 653.432C282.418 653.432 280.654 652.838 279.394 651.65C278.17 650.426 277.558 648.698 277.558 646.466V613.58ZM293.974 658.508C294.622 658.652 295.216 658.778 295.756 658.886C296.332 658.994 296.818 659.048 297.214 659.048C297.898 659.048 298.456 658.868 298.888 658.508C299.356 658.184 299.806 657.572 300.238 656.672C300.67 655.808 301.12 654.584 301.588 653L290.41 624.704H297.916L305.53 645.602L312.226 624.704H319.138L307.258 658.616C306.826 659.876 306.16 661.01 305.26 662.018C304.396 663.062 303.298 663.872 301.966 664.448C300.67 665.06 299.212 665.366 297.592 665.366C297.016 665.366 296.44 665.312 295.864 665.204C295.288 665.132 294.658 664.988 293.974 664.772V658.508ZM333.296 653.162C331.424 653.162 329.696 652.802 328.112 652.082C326.564 651.326 325.214 650.282 324.062 648.95C322.946 647.618 322.082 646.088 321.47 644.36C320.858 642.632 320.552 640.796 320.552 638.852C320.552 636.8 320.876 634.892 321.524 633.128C322.172 631.364 323.072 629.816 324.224 628.484C325.412 627.116 326.798 626.072 328.382 625.352C330.002 624.596 331.784 624.218 333.728 624.218C335.924 624.218 337.85 624.722 339.506 625.73C341.162 626.702 342.53 628.016 343.61 629.672V624.704H349.928V651.65C349.928 654.458 349.244 656.852 347.876 658.832C346.544 660.848 344.69 662.378 342.314 663.422C339.938 664.502 337.238 665.042 334.214 665.042C331.154 665.042 328.562 664.52 326.438 663.476C324.314 662.468 322.496 661.028 320.984 659.156L324.926 655.322C326.006 656.654 327.356 657.698 328.976 658.454C330.632 659.21 332.378 659.588 334.214 659.588C335.762 659.588 337.166 659.3 338.426 658.724C339.722 658.184 340.748 657.32 341.504 656.132C342.296 654.98 342.692 653.486 342.692 651.65V648.086C341.756 649.706 340.424 650.966 338.696 651.866C337.004 652.73 335.204 653.162 333.296 653.162ZM335.726 647.384C336.518 647.384 337.274 647.258 337.994 647.006C338.714 646.754 339.38 646.412 339.992 645.98C340.604 645.548 341.144 645.044 341.612 644.468C342.08 643.856 342.44 643.244 342.692 642.632V635.882C342.26 634.766 341.648 633.794 340.856 632.966C340.1 632.138 339.236 631.508 338.264 631.076C337.328 630.608 336.338 630.374 335.294 630.374C334.178 630.374 333.17 630.608 332.27 631.076C331.37 631.544 330.596 632.21 329.948 633.074C329.3 633.902 328.796 634.838 328.436 635.882C328.112 636.89 327.95 637.952 327.95 639.068C327.95 640.22 328.148 641.3 328.544 642.308C328.94 643.316 329.48 644.198 330.164 644.954C330.884 645.71 331.712 646.304 332.648 646.736C333.62 647.168 334.646 647.384 335.726 647.384ZM369.518 653.54C367.214 653.54 365.144 653.162 363.308 652.406C361.472 651.614 359.906 650.534 358.61 649.166C357.35 647.798 356.378 646.232 355.694 644.468C355.01 642.704 354.668 640.85 354.668 638.906C354.668 636.926 355.01 635.054 355.694 633.29C356.378 631.526 357.35 629.96 358.61 628.592C359.906 627.224 361.472 626.162 363.308 625.406C365.144 624.614 367.214 624.218 369.518 624.218C371.822 624.218 373.874 624.614 375.674 625.406C377.51 626.162 379.076 627.224 380.372 628.592C381.668 629.96 382.64 631.526 383.288 633.29C383.972 635.054 384.314 636.926 384.314 638.906C384.314 640.85 383.972 642.704 383.288 644.468C382.64 646.232 381.668 647.798 380.372 649.166C379.112 650.534 377.564 651.614 375.728 652.406C373.892 653.162 371.822 653.54 369.518 653.54ZM362.12 638.906C362.12 640.562 362.444 642.038 363.092 643.334C363.74 644.594 364.622 645.584 365.738 646.304C366.854 647.024 368.114 647.384 369.518 647.384C370.886 647.384 372.128 647.024 373.244 646.304C374.36 645.548 375.242 644.54 375.89 643.28C376.574 641.984 376.916 640.508 376.916 638.852C376.916 637.232 376.574 635.774 375.89 634.478C375.242 633.182 374.36 632.174 373.244 631.454C372.128 630.734 370.886 630.374 369.518 630.374C368.114 630.374 366.854 630.752 365.738 631.508C364.622 632.228 363.74 633.236 363.092 634.532C362.444 635.792 362.12 637.25 362.12 638.906ZM415.496 653H408.26V637.124C408.26 634.856 407.864 633.2 407.072 632.156C406.28 631.112 405.182 630.59 403.778 630.59C402.806 630.59 401.816 630.842 400.808 631.346C399.836 631.85 398.954 632.552 398.162 633.452C397.37 634.316 396.794 635.324 396.434 636.476V653H389.198V624.704H395.732V629.942C396.452 628.718 397.37 627.692 398.486 626.864C399.602 626 400.88 625.352 402.32 624.92C403.796 624.452 405.344 624.218 406.964 624.218C408.728 624.218 410.168 624.542 411.284 625.19C412.436 625.802 413.3 626.648 413.876 627.728C414.488 628.772 414.902 629.96 415.118 631.292C415.37 632.624 415.496 633.974 415.496 635.342V653Z" fill="white"/>
<rect x="183" y="685.5" width="261" height="63" rx="31.5" fill="#363730"/>
<rect x="183" y="685.5" width="261" height="63" rx="31.5" stroke="white" stroke-dasharray="6 6"/>
<path d="M214.438 712.339C214.258 712.141 213.997 711.934 213.655 711.718C213.313 711.484 212.908 711.268 212.44 711.07C211.972 710.872 211.468 710.71 210.928 710.584C210.388 710.458 209.83 710.395 209.254 710.395C207.994 710.395 207.058 710.629 206.446 711.097C205.834 711.565 205.528 712.213 205.528 713.041C205.528 713.653 205.699 714.139 206.041 714.499C206.383 714.841 206.905 715.129 207.607 715.363C208.309 715.597 209.191 715.849 210.253 716.119C211.549 716.425 212.674 716.794 213.628 717.226C214.582 717.64 215.311 718.198 215.815 718.9C216.319 719.602 216.571 720.529 216.571 721.681C216.571 722.653 216.391 723.49 216.031 724.192C215.671 724.894 215.167 725.47 214.519 725.92C213.871 726.352 213.124 726.676 212.278 726.892C211.432 727.09 210.523 727.189 209.551 727.189C208.597 727.189 207.643 727.09 206.689 726.892C205.753 726.694 204.853 726.406 203.989 726.028C203.143 725.632 202.36 725.155 201.64 724.597L203.017 722.005C203.251 722.239 203.584 722.5 204.016 722.788C204.466 723.058 204.979 723.319 205.555 723.571C206.149 723.823 206.788 724.039 207.472 724.219C208.174 724.381 208.885 724.462 209.605 724.462C210.811 724.462 211.729 724.255 212.359 723.841C213.007 723.409 213.331 722.797 213.331 722.005C213.331 721.357 213.124 720.844 212.71 720.466C212.296 720.07 211.693 719.737 210.901 719.467C210.109 719.197 209.164 718.927 208.066 718.657C206.806 718.315 205.753 717.946 204.907 717.55C204.061 717.136 203.422 716.614 202.99 715.984C202.576 715.336 202.369 714.517 202.369 713.527C202.369 712.267 202.675 711.205 203.287 710.341C203.899 709.459 204.727 708.802 205.771 708.37C206.833 707.92 208.021 707.695 209.335 707.695C210.199 707.695 211.018 707.794 211.792 707.992C212.566 708.172 213.286 708.424 213.952 708.748C214.636 709.072 215.257 709.441 215.815 709.855L214.438 712.339ZM219.604 727V707.83H222.628V727H219.604ZM226.961 727V707.83H229.985V724.327H240.272V727H226.961ZM241.359 707.83L247.137 723.301L252.888 707.83H256.101L248.568 727H245.706L238.146 707.83H241.359ZM271.592 724.327V727H258.443V707.83H271.349V710.503H261.467V715.957H270.026V718.468H261.467V724.327H271.592ZM274.712 727V707.83H283.055C283.919 707.83 284.711 708.01 285.431 708.37C286.151 708.73 286.772 709.207 287.294 709.801C287.834 710.395 288.248 711.061 288.536 711.799C288.842 712.537 288.995 713.293 288.995 714.067C288.995 714.913 288.842 715.723 288.536 716.497C288.23 717.271 287.789 717.937 287.213 718.495C286.655 719.053 285.998 719.458 285.242 719.71L289.751 727H286.349L282.191 720.331H277.736V727H274.712ZM277.736 717.658H283.028C283.586 717.658 284.081 717.496 284.513 717.172C284.945 716.848 285.287 716.416 285.539 715.876C285.791 715.318 285.917 714.715 285.917 714.067C285.917 713.401 285.773 712.807 285.485 712.285C285.197 711.745 284.819 711.313 284.351 710.989C283.901 710.665 283.406 710.503 282.866 710.503H277.736V717.658ZM310.573 712.339C310.393 712.141 310.132 711.934 309.79 711.718C309.448 711.484 309.043 711.268 308.575 711.07C308.107 710.872 307.603 710.71 307.063 710.584C306.523 710.458 305.965 710.395 305.389 710.395C304.129 710.395 303.193 710.629 302.581 711.097C301.969 711.565 301.663 712.213 301.663 713.041C301.663 713.653 301.834 714.139 302.176 714.499C302.518 714.841 303.04 715.129 303.742 715.363C304.444 715.597 305.326 715.849 306.388 716.119C307.684 716.425 308.809 716.794 309.763 717.226C310.717 717.64 311.446 718.198 311.95 718.9C312.454 719.602 312.706 720.529 312.706 721.681C312.706 722.653 312.526 723.49 312.166 724.192C311.806 724.894 311.302 725.47 310.654 725.92C310.006 726.352 309.259 726.676 308.413 726.892C307.567 727.09 306.658 727.189 305.686 727.189C304.732 727.189 303.778 727.09 302.824 726.892C301.888 726.694 300.988 726.406 300.124 726.028C299.278 725.632 298.495 725.155 297.775 724.597L299.152 722.005C299.386 722.239 299.719 722.5 300.151 722.788C300.601 723.058 301.114 723.319 301.69 723.571C302.284 723.823 302.923 724.039 303.607 724.219C304.309 724.381 305.02 724.462 305.74 724.462C306.946 724.462 307.864 724.255 308.494 723.841C309.142 723.409 309.466 722.797 309.466 722.005C309.466 721.357 309.259 720.844 308.845 720.466C308.431 720.07 307.828 719.737 307.036 719.467C306.244 719.197 305.299 718.927 304.201 718.657C302.941 718.315 301.888 717.946 301.042 717.55C300.196 717.136 299.557 716.614 299.125 715.984C298.711 715.336 298.504 714.517 298.504 713.527C298.504 712.267 298.81 711.205 299.422 710.341C300.034 709.459 300.862 708.802 301.906 708.37C302.968 707.92 304.156 707.695 305.47 707.695C306.334 707.695 307.153 707.794 307.927 707.992C308.701 708.172 309.421 708.424 310.087 708.748C310.771 709.072 311.392 709.441 311.95 709.855L310.573 712.339ZM315.739 727V707.83H323.785C324.649 707.83 325.441 708.01 326.161 708.37C326.881 708.73 327.511 709.207 328.051 709.801C328.591 710.395 329.005 711.061 329.293 711.799C329.581 712.537 329.725 713.293 329.725 714.067C329.725 715.129 329.482 716.146 328.996 717.118C328.528 718.072 327.853 718.846 326.971 719.44C326.107 720.034 325.099 720.331 323.947 720.331H318.763V727H315.739ZM318.763 717.658H323.758C324.334 717.658 324.838 717.505 325.27 717.199C325.702 716.875 326.035 716.443 326.269 715.903C326.521 715.363 326.647 714.751 326.647 714.067C326.647 713.365 326.503 712.744 326.215 712.204C325.927 711.664 325.549 711.25 325.081 710.962C324.631 710.656 324.136 710.503 323.596 710.503H318.763V717.658ZM340.526 727.135C339.14 727.135 337.889 726.865 336.773 726.325C335.657 725.785 334.694 725.056 333.884 724.138C333.074 723.202 332.444 722.158 331.994 721.006C331.562 719.836 331.346 718.639 331.346 717.415C331.346 716.137 331.58 714.922 332.048 713.77C332.516 712.6 333.164 711.565 333.992 710.665C334.82 709.747 335.792 709.027 336.908 708.505C338.042 707.965 339.266 707.695 340.58 707.695C341.948 707.695 343.19 707.974 344.306 708.532C345.44 709.09 346.403 709.837 347.195 710.773C348.005 711.709 348.626 712.753 349.058 713.905C349.508 715.057 349.733 716.236 349.733 717.442C349.733 718.72 349.499 719.944 349.031 721.114C348.581 722.266 347.942 723.301 347.114 724.219C346.286 725.119 345.305 725.83 344.171 726.352C343.055 726.874 341.84 727.135 340.526 727.135ZM334.424 717.415C334.424 718.315 334.568 719.188 334.856 720.034C335.144 720.88 335.549 721.636 336.071 722.302C336.611 722.95 337.259 723.463 338.015 723.841C338.771 724.219 339.617 724.408 340.553 724.408C341.525 724.408 342.389 724.21 343.145 723.814C343.901 723.418 344.531 722.887 345.035 722.221C345.557 721.537 345.953 720.781 346.223 719.953C346.493 719.107 346.628 718.261 346.628 717.415C346.628 716.515 346.484 715.651 346.196 714.823C345.926 713.977 345.521 713.23 344.981 712.582C344.441 711.916 343.793 711.394 343.037 711.016C342.299 710.638 341.471 710.449 340.553 710.449C339.581 710.449 338.717 710.647 337.961 711.043C337.205 711.439 336.566 711.97 336.044 712.636C335.522 713.302 335.117 714.049 334.829 714.877C334.559 715.705 334.424 716.551 334.424 717.415ZM355.888 713.446V727H352.864V707.83H355.348L366.202 721.681V707.857H369.253V727H366.607L355.888 713.446ZM384.902 712.339C384.722 712.141 384.461 711.934 384.119 711.718C383.777 711.484 383.372 711.268 382.904 711.07C382.436 710.872 381.932 710.71 381.392 710.584C380.852 710.458 380.294 710.395 379.718 710.395C378.458 710.395 377.522 710.629 376.91 711.097C376.298 711.565 375.992 712.213 375.992 713.041C375.992 713.653 376.163 714.139 376.505 714.499C376.847 714.841 377.369 715.129 378.071 715.363C378.773 715.597 379.655 715.849 380.717 716.119C382.013 716.425 383.138 716.794 384.092 717.226C385.046 717.64 385.775 718.198 386.279 718.9C386.783 719.602 387.035 720.529 387.035 721.681C387.035 722.653 386.855 723.49 386.495 724.192C386.135 724.894 385.631 725.47 384.983 725.92C384.335 726.352 383.588 726.676 382.742 726.892C381.896 727.09 380.987 727.189 380.015 727.189C379.061 727.189 378.107 727.09 377.153 726.892C376.217 726.694 375.317 726.406 374.453 726.028C373.607 725.632 372.824 725.155 372.104 724.597L373.481 722.005C373.715 722.239 374.048 722.5 374.48 722.788C374.93 723.058 375.443 723.319 376.019 723.571C376.613 723.823 377.252 724.039 377.936 724.219C378.638 724.381 379.349 724.462 380.069 724.462C381.275 724.462 382.193 724.255 382.823 723.841C383.471 723.409 383.795 722.797 383.795 722.005C383.795 721.357 383.588 720.844 383.174 720.466C382.76 720.07 382.157 719.737 381.365 719.467C380.573 719.197 379.628 718.927 378.53 718.657C377.27 718.315 376.217 717.946 375.371 717.55C374.525 717.136 373.886 716.614 373.454 715.984C373.04 715.336 372.833 714.517 372.833 713.527C372.833 712.267 373.139 711.205 373.751 710.341C374.363 709.459 375.191 708.802 376.235 708.37C377.297 707.92 378.485 707.695 379.799 707.695C380.663 707.695 381.482 707.794 382.256 707.992C383.03 708.172 383.75 708.424 384.416 708.748C385.1 709.072 385.721 709.441 386.279 709.855L384.902 712.339ZM398.033 727.135C396.647 727.135 395.396 726.865 394.28 726.325C393.164 725.785 392.201 725.056 391.391 724.138C390.581 723.202 389.951 722.158 389.501 721.006C389.069 719.836 388.853 718.639 388.853 717.415C388.853 716.137 389.087 714.922 389.555 713.77C390.023 712.6 390.671 711.565 391.499 710.665C392.327 709.747 393.299 709.027 394.415 708.505C395.549 707.965 396.773 707.695 398.087 707.695C399.455 707.695 400.697 707.974 401.813 708.532C402.947 709.09 403.91 709.837 404.702 710.773C405.512 711.709 406.133 712.753 406.565 713.905C407.015 715.057 407.24 716.236 407.24 717.442C407.24 718.72 407.006 719.944 406.538 721.114C406.088 722.266 405.449 723.301 404.621 724.219C403.793 725.119 402.812 725.83 401.678 726.352C400.562 726.874 399.347 727.135 398.033 727.135ZM391.931 717.415C391.931 718.315 392.075 719.188 392.363 720.034C392.651 720.88 393.056 721.636 393.578 722.302C394.118 722.95 394.766 723.463 395.522 723.841C396.278 724.219 397.124 724.408 398.06 724.408C399.032 724.408 399.896 724.21 400.652 723.814C401.408 723.418 402.038 722.887 402.542 722.221C403.064 721.537 403.46 720.781 403.73 719.953C404 719.107 404.135 718.261 404.135 717.415C404.135 716.515 403.991 715.651 403.703 714.823C403.433 713.977 403.028 713.23 402.488 712.582C401.948 711.916 401.3 711.394 400.544 711.016C399.806 710.638 398.978 710.449 398.06 710.449C397.088 710.449 396.224 710.647 395.468 711.043C394.712 711.439 394.073 711.97 393.551 712.636C393.029 713.302 392.624 714.049 392.336 714.877C392.066 715.705 391.931 716.551 391.931 717.415ZM410.371 727V707.83H418.714C419.578 707.83 420.37 708.01 421.09 708.37C421.81 708.73 422.431 709.207 422.953 709.801C423.493 710.395 423.907 711.061 424.195 711.799C424.501 712.537 424.654 713.293 424.654 714.067C424.654 714.913 424.501 715.723 424.195 716.497C423.889 717.271 423.448 717.937 422.872 718.495C422.314 719.053 421.657 719.458 420.901 719.71L425.41 727H422.008L417.85 720.331H413.395V727H410.371ZM413.395 717.658H418.687C419.245 717.658 419.74 717.496 420.172 717.172C420.604 716.848 420.946 716.416 421.198 715.876C421.45 715.318 421.576 714.715 421.576 714.067C421.576 713.401 421.432 712.807 421.144 712.285C420.856 711.745 420.478 711.313 420.01 710.989C419.56 710.665 419.065 710.503 418.525 710.503H413.395V717.658Z" fill="white" fill-opacity="0.7"/>
</svg>
