<svg width="870" height="290" viewBox="0 0 870 290" fill="none" xmlns="http://www.w3.org/2000/svg">
<mask id="path-1-inside-1_719_11516" fill="white">
<path d="M861.469 212.963C853.637 204.415 840.048 190.362 831.651 170.304C820.652 144.293 797.715 121.204 772.9 110.849C747.31 100.428 716.486 78.4566 704.014 69.5127C684.98 55.3527 669.107 49.7003 622.422 39.9864C603.272 36.2034 576.216 29.2387 549.933 22.34C513.332 13.1283 479.052 4.11457 463.228 2.40631C397.613 -4.62469 361.694 9.86104 316.064 28.5327L303.554 33.5543C234.158 61.3015 94.9478 94.5537 27.755 110.311C18.1981 112.719 10.2494 114.548 3.87817 116.154C1.49663 116.667 0.121674 119.057 0.741575 120.9C1.33078 123.1 3.55885 124.364 5.94039 123.851C12.3116 122.246 20.2604 120.417 29.8172 118.009C97.01 102.251 236.607 69.0321 306.807 40.9953L319.317 35.9737C363.725 17.9142 398.841 3.71799 462.136 10.551C477.573 12.2263 513.013 21.339 547.711 30.0302C573.994 36.9289 601.08 43.538 620.587 47.7096C666.143 56.969 680.499 62.1338 698.434 75.4837C710.876 84.7832 742.443 107.176 769.161 118.052C791.718 127.498 813.231 149.033 823.224 173.167C832.271 194.712 846.216 209.155 854.404 218.091L859.388 223.531C860.425 225.052 859.946 226.086 859.081 227.086C856.067 230.411 847.375 231.818 836.174 226.206C826.071 221.405 812.635 205.573 799.911 190.519C785.407 173.522 771.616 157.302 758.867 151.558C751.379 148.054 743.443 145.228 735.028 143.435L734.641 143.402C722.807 140.601 710.463 139.19 698.476 138.167L696.929 138.035C691.902 137.607 687.231 137.566 682.174 137.493C674.022 137.155 664.772 136.008 655.553 134.505C633.635 131.202 613.232 128.387 604.995 138.071C594.192 150.402 596.653 153.477 607.75 164.811L612.409 169.507C618.847 176.145 624.371 179.84 629.865 183.89C637.586 189.205 646.051 194.942 659.161 210.029C670.135 222.785 668.533 232.319 663.107 236.512C659.737 239.448 655.422 239.797 653.998 238.242C649.309 233.902 606.24 195.843 550.225 181.393C493.823 166.91 472.488 134.287 465.829 121.183C464.822 119.306 464.171 117.818 463.134 116.297C467.431 111.649 469.082 106.059 466.51 99.751C458.918 79.4037 436.907 77.1675 411.447 74.2789C403.326 73.5861 394.776 77.871 393.512 83.4938C393.419 84.5605 392.959 89.8938 401.374 91.6863C425.104 96.5763 441.363 102.262 451.564 114.952C444.916 119.757 433.985 124.555 419.836 130.511C394.787 140.91 363.661 154.014 344.915 177.129C343.602 178.807 343.774 181.329 346.002 182.594C347.843 183.825 350.581 183.701 351.894 182.022C369.326 160.586 399.618 148.128 423.476 137.985C436.403 132.641 448.139 127.554 456.394 122.169C456.72 122.913 457.432 123.69 457.726 124.79C464.68 138.994 487.734 174.271 547.585 189.406C587.605 199.626 620.688 222.506 637.107 235.368C635.216 252.758 642.047 268.384 652.334 271.052C655.784 271.705 663.904 272.398 669.773 258.571C682.049 229.174 674.96 198.483 670.695 180.21L669.608 174.745C669.375 172.934 668.725 171.446 668.461 169.991C675.176 173.429 684.119 178.132 691.005 184.092C692.429 185.647 694.271 186.878 696.112 188.11C705.257 194.979 715.471 203.014 729.367 236.077C744.005 269.561 771.65 278.725 781.318 279.55L781.704 279.583C782.864 279.682 785.571 279.913 787.628 278.656C796.03 285.103 804.292 288.674 809.706 289.136C810.866 289.234 812.026 289.333 812.83 289.044C815.629 288.208 818.194 285.562 817.403 281.196C816.519 277.897 815.433 272.432 813.665 265.834C809.897 250.827 804.422 228.512 799.303 206.585C798.714 204.385 798.125 202.186 797.536 199.987C810.29 214.686 822.007 227.863 832.853 233.087C848.542 240.872 861.253 238.017 866.415 232.368C870.264 228.399 870.338 223.032 867.195 218.824C865.771 217.27 863.605 215.295 861.469 212.963ZM457.917 109.047C446.23 95.5135 428.486 88.9851 403.596 83.9961L403.21 83.9631C404.848 83.0284 407.678 81.8372 410.385 82.0681C436.232 84.9897 452.768 87.4751 458.113 102.258C459.445 104.879 459.261 107.012 457.917 109.047ZM661.867 255.39C659.86 260.591 656.877 263.56 654.587 263.007C651.168 261.998 645.982 254.392 645.509 241.816C646.608 242.626 647.32 243.403 647.676 243.792C649.456 245.735 652.101 246.677 655.195 246.941C658.289 247.205 661.861 246.435 665.108 244.921C664.414 248.444 663.334 251.933 661.867 255.39ZM737.438 232.826C722.505 198.241 710.837 189.008 701.722 181.783C700.268 180.585 698.426 179.353 696.971 178.154C687.562 169.83 674.458 163.697 667.712 160.615L665.453 159.706C662.839 158.408 661.353 157.565 660.997 157.176C659.156 155.945 656.418 156.069 655.135 157.393C653.435 159.038 653.638 161.205 655.062 162.759C655.418 163.147 659.008 166.677 660.948 175.797L662.39 181.651C663.771 188.216 665.772 196.624 666.907 206.034C666.551 205.645 666.195 205.257 665.839 204.868C652.017 189.004 643.197 182.879 635.119 177.175C629.595 173.48 624.814 170.207 619.118 163.99L614.459 159.295C608.485 153.293 607.666 147.731 612.004 142.609C617.197 136.605 637.213 139.387 654.909 141.972C664.545 143.152 674.151 144.688 682.689 145.058C686.169 145.355 689.293 145.264 692.774 145.561C694.584 147.148 697.586 148.478 700.618 149.453C713.907 153.453 714.883 155.685 720.443 167.979C722.07 171.7 724.408 176.197 727.428 181.827C731.454 189.334 734.505 194.609 736.874 198.751C742.65 208.556 745.995 214.931 756.374 239.097C761.192 250.97 768.87 261.296 777.506 269.554C777.862 269.943 778.187 270.687 778.543 271.075C768.287 268.051 748.824 258.869 737.438 232.826ZM804.974 267.241C806.447 272.74 807.625 277.138 808.122 280.404C803.574 278.942 793.532 273.429 783.442 263.972C772.277 244.394 744.264 194.367 731.394 167.481C727.073 158.874 722.181 152.368 716.749 147.606C722.132 148.424 727.515 149.241 732.449 150.737C751.324 157.72 782.995 174.391 790.225 207.959C795.731 229.919 801.175 252.59 804.974 267.241Z"/>
</mask>
<path d="M861.469 212.963C853.637 204.415 840.048 190.362 831.651 170.304C820.652 144.293 797.715 121.204 772.9 110.849C747.31 100.428 716.486 78.4566 704.014 69.5127C684.98 55.3527 669.107 49.7003 622.422 39.9864C603.272 36.2034 576.216 29.2387 549.933 22.34C513.332 13.1283 479.052 4.11457 463.228 2.40631C397.613 -4.62469 361.694 9.86104 316.064 28.5327L303.554 33.5543C234.158 61.3015 94.9478 94.5537 27.755 110.311C18.1981 112.719 10.2494 114.548 3.87817 116.154C1.49663 116.667 0.121674 119.057 0.741575 120.9C1.33078 123.1 3.55885 124.364 5.94039 123.851C12.3116 122.246 20.2604 120.417 29.8172 118.009C97.01 102.251 236.607 69.0321 306.807 40.9953L319.317 35.9737C363.725 17.9142 398.841 3.71799 462.136 10.551C477.573 12.2263 513.013 21.339 547.711 30.0302C573.994 36.9289 601.08 43.538 620.587 47.7096C666.143 56.969 680.499 62.1338 698.434 75.4837C710.876 84.7832 742.443 107.176 769.161 118.052C791.718 127.498 813.231 149.033 823.224 173.167C832.271 194.712 846.216 209.155 854.404 218.091L859.388 223.531C860.425 225.052 859.946 226.086 859.081 227.086C856.067 230.411 847.375 231.818 836.174 226.206C826.071 221.405 812.635 205.573 799.911 190.519C785.407 173.522 771.616 157.302 758.867 151.558C751.379 148.054 743.443 145.228 735.028 143.435L734.641 143.402C722.807 140.601 710.463 139.19 698.476 138.167L696.929 138.035C691.902 137.607 687.231 137.566 682.174 137.493C674.022 137.155 664.772 136.008 655.553 134.505C633.635 131.202 613.232 128.387 604.995 138.071C594.192 150.402 596.653 153.477 607.75 164.811L612.409 169.507C618.847 176.145 624.371 179.84 629.865 183.89C637.586 189.205 646.051 194.942 659.161 210.029C670.135 222.785 668.533 232.319 663.107 236.512C659.737 239.448 655.422 239.797 653.998 238.242C649.309 233.902 606.24 195.843 550.225 181.393C493.823 166.91 472.488 134.287 465.829 121.183C464.822 119.306 464.171 117.818 463.134 116.297C467.431 111.649 469.082 106.059 466.51 99.751C458.918 79.4037 436.907 77.1675 411.447 74.2789C403.326 73.5861 394.776 77.871 393.512 83.4938C393.419 84.5605 392.959 89.8938 401.374 91.6863C425.104 96.5763 441.363 102.262 451.564 114.952C444.916 119.757 433.985 124.555 419.836 130.511C394.787 140.91 363.661 154.014 344.915 177.129C343.602 178.807 343.774 181.329 346.002 182.594C347.843 183.825 350.581 183.701 351.894 182.022C369.326 160.586 399.618 148.128 423.476 137.985C436.403 132.641 448.139 127.554 456.394 122.169C456.72 122.913 457.432 123.69 457.726 124.79C464.68 138.994 487.734 174.271 547.585 189.406C587.605 199.626 620.688 222.506 637.107 235.368C635.216 252.758 642.047 268.384 652.334 271.052C655.784 271.705 663.904 272.398 669.773 258.571C682.049 229.174 674.96 198.483 670.695 180.21L669.608 174.745C669.375 172.934 668.725 171.446 668.461 169.991C675.176 173.429 684.119 178.132 691.005 184.092C692.429 185.647 694.271 186.878 696.112 188.11C705.257 194.979 715.471 203.014 729.367 236.077C744.005 269.561 771.65 278.725 781.318 279.55L781.704 279.583C782.864 279.682 785.571 279.913 787.628 278.656C796.03 285.103 804.292 288.674 809.706 289.136C810.866 289.234 812.026 289.333 812.83 289.044C815.629 288.208 818.194 285.562 817.403 281.196C816.519 277.897 815.433 272.432 813.665 265.834C809.897 250.827 804.422 228.512 799.303 206.585C798.714 204.385 798.125 202.186 797.536 199.987C810.29 214.686 822.007 227.863 832.853 233.087C848.542 240.872 861.253 238.017 866.415 232.368C870.264 228.399 870.338 223.032 867.195 218.824C865.771 217.27 863.605 215.295 861.469 212.963ZM457.917 109.047C446.23 95.5135 428.486 88.9851 403.596 83.9961L403.21 83.9631C404.848 83.0284 407.678 81.8372 410.385 82.0681C436.232 84.9897 452.768 87.4751 458.113 102.258C459.445 104.879 459.261 107.012 457.917 109.047ZM661.867 255.39C659.86 260.591 656.877 263.56 654.587 263.007C651.168 261.998 645.982 254.392 645.509 241.816C646.608 242.626 647.32 243.403 647.676 243.792C649.456 245.735 652.101 246.677 655.195 246.941C658.289 247.205 661.861 246.435 665.108 244.921C664.414 248.444 663.334 251.933 661.867 255.39ZM737.438 232.826C722.505 198.241 710.837 189.008 701.722 181.783C700.268 180.585 698.426 179.353 696.971 178.154C687.562 169.83 674.458 163.697 667.712 160.615L665.453 159.706C662.839 158.408 661.353 157.565 660.997 157.176C659.156 155.945 656.418 156.069 655.135 157.393C653.435 159.038 653.638 161.205 655.062 162.759C655.418 163.147 659.008 166.677 660.948 175.797L662.39 181.651C663.771 188.216 665.772 196.624 666.907 206.034C666.551 205.645 666.195 205.257 665.839 204.868C652.017 189.004 643.197 182.879 635.119 177.175C629.595 173.48 624.814 170.207 619.118 163.99L614.459 159.295C608.485 153.293 607.666 147.731 612.004 142.609C617.197 136.605 637.213 139.387 654.909 141.972C664.545 143.152 674.151 144.688 682.689 145.058C686.169 145.355 689.293 145.264 692.774 145.561C694.584 147.148 697.586 148.478 700.618 149.453C713.907 153.453 714.883 155.685 720.443 167.979C722.07 171.7 724.408 176.197 727.428 181.827C731.454 189.334 734.505 194.609 736.874 198.751C742.65 208.556 745.995 214.931 756.374 239.097C761.192 250.97 768.87 261.296 777.506 269.554C777.862 269.943 778.187 270.687 778.543 271.075C768.287 268.051 748.824 258.869 737.438 232.826ZM804.974 267.241C806.447 272.74 807.625 277.138 808.122 280.404C803.574 278.942 793.532 273.429 783.442 263.972C772.277 244.394 744.264 194.367 731.394 167.481C727.073 158.874 722.181 152.368 716.749 147.606C722.132 148.424 727.515 149.241 732.449 150.737C751.324 157.72 782.995 174.391 790.225 207.959C795.731 229.919 801.175 252.59 804.974 267.241Z" fill="#F1F1F1" stroke="black" stroke-width="4.33289" mask="url(#path-1-inside-1_719_11516)"/>
</svg>
