<svg width="811" height="700" viewBox="0 0 811 700" fill="none" xmlns="http://www.w3.org/2000/svg">
<path fill-rule="evenodd" clip-rule="evenodd" d="M110.034 165.729C106.236 169.23 103.822 173.468 100.173 182.765C97.5323 189.609 93.5541 200.12 91.413 206.157C89.2719 212.194 75.2966 248.289 60.4066 286.2C34.3342 352.582 33.3526 355.384 34.072 362.258C34.5 366.145 35.8972 371.779 37.3766 374.747C38.6524 377.801 41.6523 382.407 43.861 384.831C47.4717 389.181 52.3192 391.34 108.092 413.225C141.234 426.157 188.636 444.606 213.551 454.16L258.645 471.661C257.236 480.022 254.884 486.984 252.632 492.47C250.38 497.955 248.138 505.469 247.701 509C247.263 512.531 247.709 517.606 248.585 519.99C249.547 522.577 251.714 526.334 253.405 528.378C255.24 530.481 259.791 533.361 263.832 535.02C268.017 536.738 273.831 537.776 277.513 537.432C281.137 537.233 288.05 535.18 292.877 533.282C297.763 531.239 305.896 525.807 310.745 521.388C315.739 517.029 321.004 511.6 322.3 509.264C322.475 508.949 322.658 508.62 322.847 508.281L322.848 508.28C324.062 506.104 325.496 503.533 326.162 501.91C327.433 499.227 328.332 499.09 334.105 501.46C340.166 503.948 340.48 504.415 338.999 508.023C338.051 510.333 337.139 515.019 336.845 518.609C336.407 522.14 336.701 527.996 337.163 531.391C337.905 535.744 340.302 539.764 344.55 544.206C349.255 549.175 352.338 551.115 356.386 551.933C359.365 552.482 364.865 553.053 368.632 552.913C372.4 552.773 378.814 551.526 383.115 550.087C387.271 548.589 392.394 545.969 394.556 543.989C396.863 542.068 399.481 537.746 400.733 533.874L402.967 527.201L419.053 532.793C416.111 544.067 415.472 550.552 415.756 554.379C416.039 558.207 417.122 563.374 417.998 565.758C418.96 568.345 421.22 571.466 423.148 572.932C425.279 574.313 431.026 576.335 436.203 577.28C441.38 578.225 447.923 578.718 450.766 578.367C453.608 578.016 458.028 576.288 460.648 574.834C464.465 572.521 466.227 569.871 469.665 561.499C473.754 551.539 474.339 550.936 479.802 549.13C482.94 548.057 487.715 545.464 490.199 543.11C492.887 540.671 496.353 535.515 498.131 531.185C500.027 526.566 502.671 522.591 505.003 521.018C507.131 519.53 514.553 515.83 521.534 512.793C528.456 509.899 547.296 502.622 563.541 497.146C579.701 491.467 600.806 483.601 610.171 479.687C619.68 475.831 635.829 468.124 646.193 462.596C656.414 457.008 670.29 450.729 676.916 448.557C684.296 446.19 690.099 445.199 692.409 446.147C694.429 446.976 701.431 447.995 707.829 448.43C714.373 448.923 726.289 451.116 734.208 453.187C742.068 455.402 749.987 457.472 751.693 457.835C753.399 458.198 756.549 459.154 758.713 460.042C761.082 460.846 763.051 460.98 763.406 460.114C763.762 459.247 761.257 457.544 757.793 456.122C754.474 454.76 747.25 452.637 741.759 451.226C738.985 450.593 735.373 449.743 731.761 448.892L731.76 448.892L731.755 448.891L731.749 448.889C728.137 448.039 724.527 447.188 721.753 446.555C716.143 445.433 707.868 444.228 703.379 444.072C698.745 443.857 694.926 443.301 694.671 442.69C694.357 442.224 696.374 440.184 698.884 438.179C701.945 436.062 704.733 432.146 706.63 427.527C708.289 423.485 710.345 417.245 711.249 413.399C712.154 409.553 713.133 403.883 713.393 400.785C713.461 398.93 713.602 396.755 713.721 394.907L713.722 394.903L713.722 394.9C713.806 393.605 713.879 392.471 713.91 391.72C713.985 389.895 714.639 381.73 715.378 373.768C715.973 365.747 716.848 349.238 717.159 337.39C717.614 325.601 717.595 314.966 717.229 313.804C716.634 312.379 714.691 312.593 711.289 313.896C708.236 315.172 703.912 319.132 700.361 324.084C697.132 328.662 692.803 336.331 690.788 341.239C688.714 346.291 685.813 356.233 684.182 363.491C682.696 370.809 681.624 377.116 681.735 377.667C681.846 378.219 681.653 380.332 681.112 382.472C680.715 384.67 679.947 389.416 679.45 393.091C678.894 396.911 679.355 400.305 680.221 400.661C681.232 401.075 681.487 401.686 680.672 402.027C679.799 402.511 679.157 406.128 678.975 410.27C678.792 414.412 678.993 420.904 679.422 424.791C679.994 428.736 681.221 433.963 682.327 436.61L684.283 441.293C658.861 452.278 642.856 460.045 632.262 465.31C621.754 470.779 602.847 479.041 590.173 483.622C577.585 488.406 561.281 494.025 553.756 496.334C546.231 498.642 533.702 503.282 525.907 506.66C517.967 509.979 510.198 513.705 508.68 514.937C507.162 516.17 505.567 516.358 505.082 515.484C504.802 514.526 508.058 503.718 512.255 491.441C514.52 485.079 518.849 472.818 523.961 458.341L523.987 458.266L524.006 458.212L524.008 458.207L524.06 458.06C528.857 444.473 534.334 428.961 539.438 414.55C550.025 384.655 559.089 359.701 559.674 359.098L560 353.5L555.318 347.527C553.509 345.772 550.697 342.762 548.862 340.659C547.171 338.616 543.46 335.743 540.607 334.065C537.899 332.447 534.732 330.304 533.755 329.397C532.778 328.49 521.622 322.391 508.963 315.845C496.304 309.298 482.558 301.293 478.27 298.183C474.041 294.929 467.425 289.683 463.688 286.462C459.951 283.241 451.204 276.614 444.352 271.945C436.608 266.573 426.691 261.152 418.176 257.657C408.796 253.805 401.08 251.65 393.96 250.919C388.112 250.374 378.557 249.825 372.591 249.568C366.566 249.456 356.381 247.974 349.82 246.292C343.403 244.67 333.294 241.363 327.521 238.993C321.893 236.682 313.241 232.287 308.401 229.288C303.562 226.289 298.271 221.924 296.41 219.473C294.549 217.023 293.307 213.476 293.5 211.363C293.693 209.249 294.894 204.682 296.316 201.218C297.679 197.898 299.382 195.392 300.248 195.747C301.114 196.103 301.454 196.917 301.099 197.783C300.743 198.649 302.137 201.415 303.939 204.01C306.114 206.927 310.114 209.918 314.01 211.518C317.618 212.999 324.816 214.774 330.112 215.43C335.348 216.23 341.84 216.028 344.283 215.006C346.87 214.044 350.161 212.191 351.679 210.958C353.518 209.352 354.085 207.561 353.794 204.574C353.103 200.916 353.484 200.398 357.693 199.596C360.306 198.982 368.356 196.214 375.711 193.499C383.269 190.698 391.286 188.423 393.806 188.446C396.471 188.527 410.425 192.738 425.009 197.882C439.593 203.026 456.467 207.93 462.57 209.086C468.731 210.097 478.805 211.028 485.382 211.029C491.958 211.03 501.573 211.436 506.869 212.092C513.353 212.729 521.731 215.326 531.748 219.269C537.463 221.616 546.889 225.643 556.089 229.573L556.125 229.589L556.136 229.593C560.394 231.413 564.603 233.211 568.371 234.811C583.202 241.406 594.263 245.272 604.499 247.45C608.557 248.43 614.544 249.809 620.864 251.265C626.97 252.671 633.386 254.149 638.67 255.407C649.569 258.026 662.325 260.227 667.077 260.153C671.914 260.284 682.122 259.245 689.639 257.777C699.506 255.924 708.518 255.745 721.977 257.054C732.195 258.044 742.065 259.059 743.831 259.278C744.193 259.323 745.161 259.446 746.628 259.634L746.675 259.639C752.386 260.368 765.533 262.044 779.917 263.804C788.231 264.821 796.399 265.849 803.121 266.696L803.129 266.697C811.074 267.697 816.997 268.442 818.753 268.615C822.08 269.138 825.066 268.846 825.422 267.98C825.778 267.113 824.164 266.114 821.762 265.802C819.276 265.288 800.121 262.652 778.937 260.028C757.813 257.26 731.36 254.327 720.099 253.415C706.435 252.191 696.872 252.482 691.239 253.88C686.505 255.141 679.946 256.328 676.612 256.646C673.277 256.964 667.541 256.97 663.892 256.822C660.243 256.673 644.048 253.398 628.032 249.69C600.277 243.356 596.551 242.163 556.804 226.014C518.586 210.661 513.994 209.113 504.99 208.453C503.353 208.386 501.145 208.281 498.607 208.159L498.605 208.159C492.656 207.875 484.898 207.504 478.462 207.345C463.026 206.743 460.106 206.05 437.551 198.14C424.122 193.47 409.131 188.496 404.191 186.974C399.251 185.452 393.03 184.585 390.273 185.14C387.719 185.609 380.279 188.121 373.68 190.641C367.224 193.22 359.411 195.41 356.424 195.702C353.234 196.079 341.717 194.555 330.641 192.369C319.709 190.243 308.829 188.812 306.394 188.993C303.959 189.174 299.854 191.368 297.022 193.748C293.808 196.646 291.749 200.017 291.056 202.938C290.858 204.303 290.564 206.016 290.292 207.606C290.056 208.983 289.836 210.269 289.707 211.155L289.065 214.771C160.19 161.862 146.939 156.759 139.819 156.029C134.812 155.491 128.227 156.33 123.171 157.965C118.752 159.693 112.781 163.146 110.034 165.729ZM651.894 355.464C651.822 356.204 651.762 357.053 651.7 357.973C651.798 357.081 651.865 356.238 651.894 355.464ZM37.4192 357.391L66.3954 283.936C82.3521 243.426 96.2089 207.62 97.224 204.326C98.2392 201.032 101.21 192.974 103.792 186.275C106.907 178.277 109.795 172.884 112.923 169.783C115.263 167.37 119.783 164.165 122.837 162.888C125.95 161.468 131.176 160.24 134.451 160.066C139.755 159.882 149.746 163.478 215.732 190.062C280.479 215.969 291.472 220.82 294.454 224.237C296.434 226.399 302.735 231.179 308.729 234.652C315.471 238.769 325.107 243.231 334.291 246.327C342.406 249.152 354.807 252.219 361.868 253.094C372.748 254.525 380.634 257.088 415.422 270.526C455.032 285.776 456.416 286.513 466.369 294.31C471.948 298.793 476.891 303.184 477.461 304.261C478.03 305.338 469.567 302.539 458.166 297.858C451.996 295.418 426.024 284.951 390.179 270.506L390.117 270.481L390.106 270.476C361.064 258.773 325.551 244.461 288.842 229.692C150.664 173.975 139.492 169.558 134.07 170.031C131.024 170.467 126.376 171.932 123.755 173.386C119.676 175.928 118.498 177.975 104.667 214.129L109.855 217.102C112.563 218.72 115.205 221.323 115.452 222.774C115.785 224.428 108.066 244.874 96.4504 273.166C85.724 299.293 75.9612 321.43 74.9691 322.204C73.977 322.977 70.7016 323.151 62.1974 321.683L54.7304 339.871C47.2634 358.059 47.2634 358.059 49.4261 365.525C50.6349 369.564 53.5164 374.458 55.9028 376.45C58.8073 378.823 74.9114 385.603 106.091 397.56C120.925 403.253 145.089 412.543 170.302 422.236L170.334 422.248L170.337 422.249L170.348 422.253C187.96 429.024 206.081 435.991 221.89 442.065C252.267 453.736 288.444 467.684 312.207 476.846L312.24 476.858L312.247 476.861L312.423 476.929C318.65 479.33 324.016 481.399 328.189 483.007C363.121 496.505 364.361 497.182 359.949 498.07C357.336 498.684 353.332 499.401 350.837 499.727C347.299 500.129 333.292 495.223 285.312 476.537L282.834 475.581L282.829 475.579L282.825 475.578C249.066 462.565 196.873 442.445 165.125 430.399C132.587 418.053 93.3846 402.633 77.9427 396.293C51.5328 385.451 49.6309 384.333 45.5357 379.109C43.2162 376.133 40.3759 369.906 37.4192 357.391ZM120.583 219.314C119.877 217.337 117.838 215.319 116.132 214.956C114.341 214.39 112.617 212.838 112.081 211.269C111.46 209.496 113.312 203.34 116.986 194.391C122.498 180.966 122.998 180.16 134.109 175.276L166.215 187.444C183.914 194.036 225.366 210.548 258.33 223.912C291.234 237.421 351.566 261.347 392.415 277.274C433.264 293.201 479.139 310.854 494.326 316.583C513.468 323.767 524.377 328.414 529.387 331.82C533.302 334.608 538.134 338.448 539.943 340.202C542.585 342.805 542.858 344.604 541.351 347.865C540.402 350.174 536.653 360.949 533.312 371.553C529.826 382.098 517.446 418.004 505.64 451.278C493.834 484.553 482.57 515.688 480.555 520.596C477.355 528.39 476.27 529.801 472.757 530.551C469.304 531.158 459.169 527.503 414.915 510.009C385.356 498.211 354.898 486.55 347.215 483.902C339.533 481.254 297.784 465.464 254.626 448.589C211.408 431.858 150.406 408.332 119.167 396.519C67.9195 377.166 61.9174 374.533 58.5619 370.794C56.2682 368.166 54.7114 364.153 54.6571 360.588C54.5769 356.676 56.5221 349.884 60.1963 340.934C65.1743 328.809 66.1148 327.34 68.4239 328.288C69.7227 328.821 72.7353 328.877 79.1494 327.631L100.661 275.232C120.158 227.742 121.944 222.571 120.583 219.314ZM329.429 210.932C326.331 210.673 320.406 209.084 316.306 207.569C310.967 205.377 308.521 203.529 307.16 200.272C306.08 197.973 305.467 195.36 305.763 194.638C306.118 193.772 307.688 193.235 309.164 193.336C310.785 193.495 318.22 194.692 325.799 195.948C333.463 197.408 341.934 199.367 344.676 200.493C349.294 202.389 349.609 202.855 347.949 206.897C346.527 210.361 345.128 211.305 340.579 211.293C337.652 211.441 332.526 211.192 329.429 210.932ZM254.033 519.865C251.456 513.409 251.471 511.728 254.349 504.307C256.042 499.773 258.546 492.03 259.924 487.03L259.93 487.01C261.306 482.016 262.681 477.027 262.952 475.959C263.341 474.601 269.35 476.393 287.508 483.511C300.701 488.758 313.893 494.005 322.263 497.442L318.867 504.481C316.767 509.185 312.724 514.104 307.119 518.719C302.592 522.764 295.51 527.278 291.583 529.04C287.656 530.801 282.048 532.547 278.943 533.128C275.346 533.675 270.757 532.803 265.177 530.512C257.672 527.431 256.695 526.524 254.033 519.865ZM417.061 262.428C425.864 266.042 433.709 269.937 434.567 271.133C435.615 272.688 428.943 270.455 414.551 264.433C401.622 258.957 394.584 255.561 397.045 255.728C399.302 255.98 408.198 258.958 417.061 262.428ZM343.642 535.737C342.026 531.869 340.977 526.209 341.322 523.315C341.811 520.479 342.427 516.515 342.705 514.605C342.983 512.695 343.82 509.834 344.617 508.306C345.328 506.573 348.178 505.382 351.105 505.234C353.829 505.172 359.692 504.037 363.934 502.742C369.745 500.911 373.801 500.889 380.014 502.597C386.227 504.304 389.428 505.955 392.469 509.228C394.822 511.712 397.008 516.658 397.495 520.4C398.093 524.694 397.47 529.498 395.777 534.032C393.229 540.239 392.178 541.157 383.831 544.646C378.741 546.774 372.031 548.742 368.9 548.974C365.71 549.351 359.811 548.11 355.048 546.155C347.485 543.219 346.508 542.312 343.642 535.737ZM430.775 527.653C425.508 530.214 424.379 530.088 415.287 526.355C406.773 522.859 405.363 521.775 402.889 516.711L400.337 510.603C400.456 510.314 408.596 513.488 436.594 524.982L430.775 527.653ZM424.56 567.44C423.557 566.185 422.103 563.564 421.397 561.587C420.606 559.407 420.245 554.535 420.572 550.453C420.754 546.311 421.463 541.71 421.97 540.063C422.622 538.475 424.81 536.843 426.753 536.629C428.755 536.27 430.765 535.071 431.121 534.205C431.536 533.195 434.767 531.485 438.254 530.386C441.74 529.288 446.611 528.926 449.098 529.441C451.525 530.1 455.507 531.903 457.638 533.284C459.77 534.665 462.973 539.185 464.819 543.316C466.919 548.058 467.458 552.497 466.58 556.69C465.794 560.247 463.694 564.951 461.38 567.712C459.329 570.244 455.682 572.964 453.214 573.637C450.949 574.225 443.913 573.698 437.726 572.339C430.961 570.742 425.791 568.957 424.56 567.44ZM482.054 543.645C479.026 545.27 475.454 546.165 474.096 545.776C472.738 545.387 470.903 543.284 470.052 541.248C468.521 537.583 468.784 537.354 482.594 532.06L490.584 510.544C495.01 498.53 501.526 479.783 505.19 468.805C508.854 457.827 514.363 441.534 517.545 432.551C518.706 429.271 520.376 424.536 522.292 419.1L522.306 419.061L522.334 418.982L522.343 418.956L522.361 418.906C525.68 409.489 529.727 398.01 533.158 388.358C538.6 373.049 544.364 357.367 548.605 346.626L555.486 354.511L546.122 377.318C541.026 389.732 533.129 410.611 528.78 423.669C524.286 436.668 515.985 460.586 510.332 476.819C504.679 493.053 498.096 512.785 495.88 520.646C493.665 528.508 490.812 536.277 489.609 537.976C488.465 539.53 485.082 542.021 482.054 543.645ZM685.328 380.829C685.657 379.615 686.688 374.64 687.6 369.954C687.923 368.294 688.276 366.562 688.606 364.938C689.209 361.978 689.738 359.38 689.88 358.239C690.243 356.533 692.088 351.218 693.899 346.395C695.71 341.573 699.251 334.592 701.572 330.991C703.953 327.246 707.386 322.582 709.2 320.628C711.014 318.674 712.735 317.357 712.99 317.968C713.101 318.519 712.976 329.094 712.775 341.494C712.431 353.835 711.633 371.387 710.972 380.393C710.31 389.398 709.048 400.688 708.424 405.492C707.657 410.237 705.441 418.099 703.486 422.863C700.997 428.925 698.471 432.611 695.088 435.102C692.578 437.108 689.872 438.358 689.006 438.003C688.081 437.792 686.823 435.926 686.117 433.949C685.411 431.973 684.403 424.98 683.972 418.225C683.541 411.47 683.541 402.023 684.02 397.16C684.173 394.911 684.35 392.601 684.502 390.629L684.504 390.606L684.504 390.6L684.505 390.592C684.684 388.265 684.826 386.413 684.849 385.693C684.89 384.36 685.142 382.102 685.328 380.829Z" fill="white" fill-opacity="0.88"/>
<path d="M91.4125 206.157C89.2714 212.194 85.5379 221.288 83.1159 226.366C80.6938 231.444 82.5644 226.477 87.1275 215.362C91.6907 204.247 93.6979 200.179 91.4125 206.157Z" fill="white" fill-opacity="0.37"/>
<path d="M65.5953 273.15C62.1505 282.362 56.2836 296.653 52.5577 304.906C48.9763 313.219 51.7692 305.595 58.9399 288.128C66.1105 270.662 69.1845 263.996 65.5953 273.15Z" fill="white" fill-opacity="0.37"/>
<path d="M88.2535 406.093C96.1317 409.496 90.2405 407.414 75.0872 401.193C59.934 394.972 53.5583 392.017 60.8334 394.835C68.1677 397.509 80.4346 402.545 88.2535 406.093Z" fill="white" fill-opacity="0.37"/>
<path d="M163.891 435.459C168.535 437.702 164.867 436.366 155.776 432.633C146.684 428.9 142.846 427.156 147.294 428.645C151.742 430.134 159.247 433.215 163.891 435.459Z" fill="white" fill-opacity="0.37"/>
<path d="M289.631 212.98C289.242 214.338 284.361 212.671 269.412 206.365L249.615 197.9L288.214 212.735L289.093 208.541C289.878 204.984 289.997 204.696 290.144 207.624C290.214 209.508 290.046 211.969 289.631 212.98Z" fill="white" fill-opacity="0.37"/>
<path d="M228.042 459.94C235.139 463.191 229.537 461.228 215.682 455.541L215.538 455.481C201.684 449.794 196.029 447.135 202.787 449.572C209.629 452.212 221.03 456.893 228.042 459.94Z" fill="white" fill-opacity="0.37"/>
<path d="M419.143 196.149C422.2 197.741 420.264 197.115 414.577 194.949C409.093 192.697 406.613 191.342 409.041 192.001C411.672 192.576 416.29 194.472 419.143 196.149Z" fill="white" fill-opacity="0.37"/>
<path d="M420.921 191.818C423.977 193.411 422.042 192.785 416.355 190.618C410.87 188.367 408.391 187.012 410.819 187.671C413.45 188.245 418.068 190.141 420.921 191.818Z" fill="white" fill-opacity="0.37"/>
<path d="M424.567 258.931C427.997 260.845 425.629 260.041 419.279 257.434C413.073 254.887 410.102 253.498 412.962 254.335C416.026 255.087 421.222 257.22 424.567 258.931Z" fill="white" fill-opacity="0.37"/>
<path d="M540.788 222.306C544.218 224.22 541.561 223.298 534.778 220.513C528.139 217.788 525.312 216.459 528.521 217.27C531.814 218.285 537.443 220.595 540.788 222.306Z" fill="white" fill-opacity="0.37"/>
<path d="M542.506 218.12C545.274 219.594 542.617 218.671 536.556 216.183C530.639 213.754 528.533 212.721 531.682 213.676C535.035 214.547 539.942 216.561 542.506 218.12Z" fill="white" fill-opacity="0.37"/>
<path d="M417.393 536.834C417.79 534.636 416.524 533.61 409.911 531.232C405.608 529.803 402.466 528.007 403.196 527.463C403.866 527.064 407.855 528.027 412.125 529.948C419.282 533.055 419.74 533.581 418.411 536.409C417.463 538.718 417.055 538.888 417.393 536.834Z" fill="white" fill-opacity="0.37"/>
<path d="M541.184 413.581C540.169 416.875 538.332 421.35 537.036 423.685C535.799 425.876 536.577 423.159 538.829 417.674C541.14 412.045 542.199 410.287 541.184 413.581Z" fill="white" fill-opacity="0.37"/>
<path d="M529.59 445.93C528.575 449.224 526.738 453.699 525.442 456.034C524.205 458.225 524.983 455.509 527.235 450.023C529.546 444.394 530.605 442.636 529.59 445.93Z" fill="white" fill-opacity="0.37"/>
<path d="M511.735 497.637C510.72 500.931 508.882 505.406 507.586 507.741C506.35 509.932 507.128 507.215 509.38 501.73C511.691 496.101 512.75 494.343 511.735 497.637Z" fill="white" fill-opacity="0.37"/>
<path d="M679.278 408.707C678.755 412.035 678.67 411.831 678.42 407.512C678.273 404.584 678.27 401.715 678.507 401.138C678.744 400.56 679.499 400.364 680.221 400.66C681.087 401.016 681.79 400.124 681.831 398.791C682.017 397.518 682.72 396.626 683.442 396.923C684.308 397.278 684.785 398.992 684.421 400.698C684.288 402.667 683.44 403.5 682.404 402.737C681.453 402.178 680.553 402.315 680.342 403.24C680.19 404.021 679.675 406.509 679.278 408.707Z" fill="white" fill-opacity="0.37"/>
<path d="M96.7676 206.669C95.2783 211.118 92.0782 218.912 89.6562 223.99C87.2341 229.069 88.427 225.341 92.3383 215.814C96.2496 206.287 98.2568 202.22 96.7676 206.669Z" fill="white" fill-opacity="0.37"/>
<path d="M73.6171 267.166C70.6464 275.223 65.4314 287.926 62.0611 295.314C58.6909 302.701 61.2133 296.146 67.5543 280.701C73.8953 265.256 76.5879 259.108 73.6171 267.166Z" fill="white" fill-opacity="0.37"/>
<path d="M109.014 207.648C107.439 211.893 105.906 214.806 105.507 214.136C105.048 213.61 106.689 208.381 109.145 202.81C111.659 197.095 113.193 194.183 112.652 196.322C111.966 198.402 110.384 203.488 109.014 207.648Z" fill="white" fill-opacity="0.37"/>
<path d="M59.3732 332.669C56.5956 338.613 53.2846 345.856 51.87 348.48C50.4554 351.104 52.1224 346.222 55.4745 337.646C58.8267 329.071 62.2227 322.031 62.9185 321.979C63.6735 321.783 62.0065 326.665 59.3732 332.669Z" fill="white" fill-opacity="0.37"/>
<path d="M93.9872 403.218C102.239 406.943 95.6262 404.565 79.3185 397.87C63.155 391.234 56.3463 388.102 64.4023 391.072C72.399 394.186 85.8204 399.696 93.9872 403.218Z" fill="white" fill-opacity="0.37"/>
<path d="M167.521 187.137C173.463 189.914 169.015 188.425 157.903 183.863C146.791 179.301 142.147 177.057 147.316 178.842C152.63 180.686 161.722 184.419 167.521 187.137Z" fill="white" fill-opacity="0.37"/>
<path d="M293.282 232.021C320.15 243.389 297.722 234.35 243.315 212.013C189.052 189.735 167.031 180.526 194.425 191.435C221.904 202.548 266.354 220.797 293.282 232.021Z" fill="white" fill-opacity="0.37"/>
<path d="M123.726 398.559C129.957 401.454 125.076 399.788 112.665 394.693C100.398 389.656 95.321 387.235 101.357 389.375C107.477 391.719 117.435 395.808 123.726 398.559Z" fill="white" fill-opacity="0.37"/>
<path d="M126.277 404.667C131.787 407.266 127.483 405.837 116.66 401.393C105.98 397.009 101.625 394.883 106.794 396.668C112.108 398.512 120.912 402.127 126.277 404.667Z" fill="white" fill-opacity="0.37"/>
<path d="M158.801 428.14C164.311 430.739 160.295 429.428 149.905 425.162C139.658 420.956 135.159 418.771 140.04 420.437C144.92 422.104 153.435 425.6 158.801 428.14Z" fill="white" fill-opacity="0.37"/>
<path d="M176.659 423.664C183.323 426.737 178.298 425.012 165.598 419.798C152.898 414.584 147.533 412.044 153.568 414.184C159.689 416.528 170.08 420.794 176.659 423.664Z" fill="white" fill-opacity="0.37"/>
<path d="M172.664 416.964C177.741 419.385 173.726 418.074 163.768 413.986C153.955 409.957 149.744 407.891 154.625 409.558C159.506 411.224 167.732 414.601 172.664 416.964Z" fill="white" fill-opacity="0.37"/>
<path d="M314.595 245.831C329.629 252.341 317.88 247.686 288.44 235.599C259.144 223.572 246.792 218.332 261.197 223.909C275.544 229.63 299.645 239.525 314.595 245.831Z" fill="white" fill-opacity="0.37"/>
<path d="M223.614 453.062C231.144 456.491 225.398 454.469 211.11 448.603C196.823 442.738 190.88 439.96 197.637 442.397C204.479 445.038 216.169 449.837 223.614 453.062Z" fill="white" fill-opacity="0.37"/>
<path d="M249.023 446.626C254.533 449.225 250.229 447.796 239.405 443.352C228.726 438.968 224.371 436.842 229.54 438.627C234.854 440.471 243.658 444.086 249.023 446.626Z" fill="white" fill-opacity="0.37"/>
<path d="M242.916 449.179C247.56 451.423 244.266 450.408 235.463 446.794C226.804 443.239 223.026 441.35 227.041 442.661C231.2 444.032 238.272 446.935 242.916 449.179Z" fill="white" fill-opacity="0.37"/>
<path d="M299.251 482.428C305.916 485.501 300.602 483.657 287.469 478.265C274.481 472.933 268.971 470.334 275.439 472.652C281.848 475.114 292.672 479.558 299.251 482.428Z" fill="white" fill-opacity="0.37"/>
<path d="M301.803 488.536C307.746 491.313 303.298 489.824 292.185 485.262C281.073 480.7 276.429 478.456 281.599 480.241C286.913 482.085 296.005 485.818 301.803 488.536Z" fill="white" fill-opacity="0.37"/>
<path d="M321.052 474.51C327.717 477.584 322.691 475.858 309.992 470.644C297.292 465.43 291.926 462.89 297.962 465.031C304.082 467.375 314.473 471.641 321.052 474.51Z" fill="white" fill-opacity="0.37"/>
<path d="M391.957 260.724C395.388 262.638 392.731 261.716 385.948 258.932C379.309 256.206 376.338 254.818 379.691 255.688C382.984 256.703 388.612 259.013 391.957 260.724Z" fill="white" fill-opacity="0.37"/>
<path d="M330.82 483.581C338.35 487.01 332.603 484.988 318.316 479.122C304.029 473.256 298.086 470.479 304.843 472.916C311.685 475.556 323.375 480.355 330.82 483.581Z" fill="white" fill-opacity="0.37"/>
<path d="M422.933 263.32C426.363 265.235 423.995 264.431 417.645 261.824C411.44 259.277 408.468 257.888 411.329 258.725C414.393 259.477 419.588 261.61 422.933 263.32Z" fill="white" fill-opacity="0.37"/>
<path d="M435.305 288.641C441.536 291.536 436.655 289.87 424.244 284.775C411.977 279.738 406.9 277.317 412.936 279.457C419.056 281.801 429.158 285.949 435.305 288.641Z" fill="white" fill-opacity="0.37"/>
<path d="M440.743 295.934C446.252 298.533 441.227 296.807 429.682 292.067C418.281 287.387 413.781 285.202 419.817 287.343C425.997 289.542 435.377 293.394 440.743 295.934Z" fill="white" fill-opacity="0.37"/>
<path d="M450.998 283.276C455.642 285.52 452.349 284.506 443.545 280.891C434.886 277.336 431.108 275.448 435.123 276.759C439.283 278.129 446.354 281.032 450.998 283.276Z" fill="white" fill-opacity="0.37"/>
<path d="M368.548 492.323C372.411 494.415 369.465 493.374 361.817 490.234C354.312 487.153 351.196 485.705 354.838 486.694C358.564 487.887 364.77 490.434 368.548 492.323Z" fill="white" fill-opacity="0.37"/>
<path d="M473.747 307.966C476.515 309.439 473.858 308.517 467.797 306.029C461.88 303.599 459.63 302.507 462.923 303.522C466.276 304.392 471.183 306.407 473.747 307.966Z" fill="white" fill-opacity="0.37"/>
<path d="M414.431 528.028C404.906 524.117 403.87 523.355 403.095 519.494C402.566 517.084 402.471 514.852 402.648 514.419C402.826 513.986 403.507 515.615 404.179 518.084C405.015 521.8 406.424 522.885 415.287 526.355C421.348 528.843 426.551 530.136 428.324 529.514C430.852 528.697 430.793 528.841 427.969 530.381C425.551 531.75 422.572 531.201 414.431 528.028Z" fill="white" fill-opacity="0.37"/>
<path d="M431.137 516.5C434.194 518.093 432.258 517.467 426.571 515.3C421.087 513.049 418.608 511.694 421.035 512.353C423.666 512.927 428.14 514.764 431.137 516.5Z" fill="white" fill-opacity="0.37"/>
<path d="M540.616 352.117C543.265 344.434 543.339 342.609 541.241 340.735C539.747 339.447 539.177 338.37 539.669 338.403C540.221 338.292 541.63 339.377 542.862 340.895C544.986 343.116 544.623 344.822 537.315 361.389L540.616 352.117Z" fill="white" fill-opacity="0.37"/>
<path d="M538.491 375.366C537.476 378.66 535.461 383.568 534.047 386.192C532.632 388.816 533.41 386.1 535.84 380.181C538.27 374.263 539.506 372.072 538.491 375.366Z" fill="white" fill-opacity="0.37"/>
<path d="M485.079 513.682C484.064 516.976 482.049 521.884 480.635 524.508C479.22 527.132 479.998 524.415 482.428 518.497C484.857 512.579 486.094 510.388 485.079 513.682Z" fill="white" fill-opacity="0.37"/>
<path d="M488.816 516.903C487.801 520.197 485.786 525.105 484.371 527.729C482.957 530.353 483.735 527.636 486.165 521.718C488.594 515.8 489.831 513.609 488.816 516.903Z" fill="white" fill-opacity="0.37"/>
<path d="M546.261 381.086C544.12 387.123 540.387 396.217 537.965 401.295C535.543 406.373 537.269 401.347 541.832 390.232C546.395 379.117 548.403 375.049 546.261 381.086Z" fill="white" fill-opacity="0.37"/>
<path d="M520.406 452.28C519.391 455.574 517.554 460.049 516.258 462.384C515.021 464.575 515.799 461.859 518.051 456.373C520.362 450.744 521.421 448.986 520.406 452.28Z" fill="white" fill-opacity="0.37"/>
</svg>
